<svg width="32" height="32" viewBox="0 0 32 32" fill="none" xmlns="http://www.w3.org/2000/svg">
<path d="M11.6338 19.753C10.7347 20.4178 9.42702 20.7721 8.29905 20.7721C6.71892 20.7721 5.30202 20.189 4.22317 19.2191C4.1414 19.1428 4.21219 19.0394 4.3147 19.0992C5.4741 19.775 6.90809 20.178 8.39028 20.178C9.45951 20.1728 10.5172 19.9562 11.5023 19.5407C11.6549 19.4796 11.7803 19.6441 11.6332 19.7542L11.6338 19.753Z" fill="white"/>
<path d="M12.01 19.3226C11.8956 19.1755 11.2472 19.2518 10.9583 19.2899C10.871 19.3009 10.8549 19.2246 10.9366 19.17C11.4553 18.8039 12.2986 18.914 12.3969 19.0339C12.4951 19.1538 12.3697 20.0039 11.8846 20.4069C11.8083 20.4679 11.7375 20.4344 11.7702 20.3526C11.8791 20.0801 12.1256 19.4751 12.01 19.3226ZM10.9748 16.609L10.9748 16.255C10.9742 16.2435 10.976 16.2319 10.9801 16.221C10.9843 16.2102 10.9907 16.2003 10.9989 16.1921C11.007 16.1839 11.0169 16.1775 11.0277 16.1733C11.0385 16.1691 11.0501 16.1672 11.0617 16.1678L12.6422 16.1678C12.6657 16.1678 12.6884 16.1768 12.7054 16.1931C12.7225 16.2093 12.7326 16.2315 12.7337 16.255L12.7337 16.5547C12.7337 16.6038 12.6901 16.6691 12.6138 16.778L11.7964 17.9441C12.1015 17.9386 12.4231 17.9822 12.6956 18.1348C12.7197 18.1486 12.7399 18.1683 12.7542 18.1921C12.7686 18.216 12.7765 18.2431 12.7773 18.2709L12.7773 18.6471C12.7773 18.7014 12.7227 18.7615 12.6629 18.7288C12.1781 18.4725 11.5294 18.4454 10.9955 18.734C10.9409 18.7615 10.8811 18.7069 10.8811 18.6526L10.8811 18.2928C10.8761 18.2085 10.8974 18.1247 10.9421 18.053L11.8904 16.6962L11.0666 16.6962C11.043 16.6963 11.0204 16.6872 11.0033 16.6709C10.9863 16.6547 10.9762 16.6325 10.9751 16.609L10.9748 16.609ZM5.21502 18.8051L4.7357 18.8051C4.7142 18.8029 4.69401 18.7937 4.67825 18.779C4.66248 18.7642 4.65201 18.7446 4.64844 18.7233L4.64844 16.2602C4.64961 16.2368 4.65977 16.2146 4.67681 16.1985C4.69385 16.1823 4.71647 16.1733 4.73997 16.1733L5.18664 16.1733C5.20876 16.1736 5.22996 16.1821 5.2461 16.1973C5.26224 16.2124 5.27215 16.233 5.2739 16.255L5.2739 16.5763L5.28488 16.5763C5.3993 16.2657 5.62263 16.1187 5.91675 16.1187C6.21667 16.1187 6.40736 16.2657 6.53795 16.5763C6.65236 16.2657 6.91933 16.1187 7.20277 16.1187C7.31043 16.1165 7.41705 16.1401 7.51375 16.1875C7.61045 16.2349 7.69442 16.3047 7.75867 16.3911C7.91122 16.5983 7.87857 16.8979 7.87857 17.1649L7.87857 18.7233C7.8774 18.7468 7.86724 18.7689 7.8502 18.7851C7.83316 18.8013 7.81054 18.8103 7.78704 18.8103L7.31291 18.8103C7.29029 18.8089 7.26896 18.7992 7.2529 18.7832C7.23685 18.7673 7.22716 18.746 7.22565 18.7233L7.22565 17.4157C7.22565 17.3119 7.23663 17.0495 7.21497 16.9525C7.17683 16.789 7.0731 16.7389 6.93153 16.7389C6.86898 16.7407 6.80832 16.7607 6.75702 16.7966C6.70573 16.8324 6.66606 16.8825 6.6429 16.9406C6.59378 17.066 6.59927 17.2729 6.59927 17.4147L6.59927 18.7224C6.59817 18.746 6.58805 18.7681 6.571 18.7844C6.55395 18.8007 6.53129 18.8097 6.50774 18.8097L6.0269 18.8097C6.0043 18.8081 5.98304 18.7984 5.96706 18.7824C5.95107 18.7663 5.94144 18.745 5.93994 18.7224L5.93994 17.4157C5.93994 17.1432 5.98357 16.7344 5.64552 16.7344C5.30228 16.7344 5.31326 17.1267 5.31326 17.4157L5.31326 18.7233C5.30982 18.7467 5.29789 18.7679 5.27977 18.783C5.26164 18.7981 5.23858 18.806 5.21502 18.8051ZM14.0969 16.1187C14.8108 16.1187 15.1977 16.7289 15.1977 17.5081C15.1977 18.2602 14.7724 18.8594 14.0969 18.8594C13.3994 18.8594 13.018 18.2492 13.018 17.4864C13.0126 16.7182 13.3994 16.1187 14.0969 16.1187Z" fill="white"/>
<path d="M14.0966 16.6253C13.7424 16.6253 13.7207 17.1101 13.7207 17.4101C13.7207 17.71 13.7152 18.3525 14.0911 18.3525C14.4618 18.3525 14.4835 17.8339 14.4835 17.519C14.4835 17.3118 14.4725 17.0613 14.4127 16.8651C14.3581 16.6906 14.2491 16.6253 14.0966 16.6253Z" fill="#121212"/>
<path d="M16.118 18.805L15.6384 18.805C15.6158 18.8035 15.5944 18.7938 15.5784 18.7778C15.5623 18.7617 15.5526 18.7404 15.5511 18.7178L15.5511 16.2495C15.5541 16.2272 15.565 16.2067 15.5818 16.1917C15.5986 16.1767 15.6202 16.1682 15.6427 16.1677L16.0915 16.1677C16.1117 16.1684 16.1312 16.1757 16.147 16.1885C16.1627 16.2013 16.1739 16.2188 16.1787 16.2385L16.1787 16.6144L16.1897 16.6144C16.3258 16.2766 16.5113 16.1186 16.8436 16.1186C17.0571 16.1186 17.2686 16.1949 17.405 16.4075C17.53 16.6037 17.5301 16.936 17.5301 17.1758L17.5301 18.7287C17.5264 18.7503 17.5152 18.7698 17.4984 18.7838C17.4816 18.7978 17.4604 18.8053 17.4385 18.805L16.9571 18.805C16.9364 18.8031 16.9168 18.7947 16.9011 18.781C16.8855 18.7673 16.8745 18.749 16.8698 18.7287L16.8698 17.3881C16.8698 17.1157 16.9025 16.7233 16.5702 16.7233C16.4558 16.7233 16.3469 16.7996 16.2922 16.9195C16.227 17.072 16.216 17.2194 16.216 17.3881L16.216 18.7178C16.2129 18.7417 16.2014 18.7637 16.1834 18.7798C16.1653 18.7958 16.1421 18.8048 16.118 18.805ZM10.2005 18.7995C10.185 18.8131 10.1656 18.8214 10.1451 18.8233C10.1245 18.8253 10.1039 18.8207 10.0861 18.8102C9.92808 18.6796 9.89513 18.6143 9.80818 18.4889C9.5467 18.7559 9.35571 18.8377 9.01796 18.8377C8.61492 18.8377 8.29883 18.5869 8.29883 18.0911C8.29883 17.6987 8.5124 17.4372 8.8111 17.3064C9.07257 17.1919 9.43748 17.1703 9.71543 17.1376L9.71543 17.0766C9.71543 16.9622 9.72641 16.8261 9.6544 16.7279C9.59338 16.6409 9.48538 16.6028 9.38744 16.6028C9.20194 16.6028 9.0387 16.6943 9.00057 16.8914C8.98958 16.935 8.96243 16.9787 8.9188 16.9787L8.45565 16.9296C8.41751 16.9186 8.37388 16.8914 8.38456 16.8316C8.49379 16.2647 9.00057 16.096 9.45822 16.096C9.69254 16.096 9.99765 16.157 10.1828 16.3355C10.4172 16.5537 10.3964 16.8478 10.3964 17.1639L10.3964 17.9105C10.3964 18.1338 10.4879 18.2317 10.5761 18.3571C10.6088 18.4008 10.6143 18.4554 10.5761 18.4825C10.4727 18.5643 10.2982 18.7169 10.2002 18.7986L10.2005 18.7995Z" fill="white"/>
<path d="M9.71559 17.628C9.71559 17.8132 9.72108 17.9713 9.62833 18.1403C9.55206 18.2764 9.43215 18.3581 9.29607 18.3581C9.11088 18.3581 9.00195 18.2166 9.00195 18.0094C9.00195 17.6009 9.36808 17.5246 9.71559 17.5246L9.71559 17.628Z" fill="#121212"/>
<path d="M3.90336 18.7995C3.88782 18.8131 3.86841 18.8214 3.84788 18.8233C3.82734 18.8253 3.80672 18.8207 3.78895 18.8102C3.6309 18.6796 3.59826 18.6143 3.5113 18.4889C3.24952 18.7559 3.05883 18.8377 2.72108 18.8377C2.31774 18.8377 2.00195 18.5869 2.00195 18.0911C2.00195 17.6987 2.21553 17.4372 2.51392 17.3064C2.7757 17.1919 3.1406 17.1703 3.41855 17.1376L3.41855 17.0766C3.41855 16.9622 3.42953 16.8261 3.35753 16.7279C3.29651 16.6409 3.18881 16.6028 3.09056 16.6028C2.90537 16.6028 2.74183 16.6943 2.70369 16.8914C2.69301 16.935 2.66555 16.9787 2.62192 16.9787L2.15878 16.9296C2.12064 16.9186 2.07731 16.8914 2.08799 16.8316C2.19691 16.2647 2.70369 16.096 3.16165 16.096C3.39567 16.096 3.70108 16.157 3.88627 16.3355C4.12059 16.5537 4.09985 16.8478 4.09985 17.1639L4.09985 17.9105C4.09985 18.1338 4.19138 18.2317 4.27986 18.3571C4.3125 18.4008 4.318 18.4554 4.27986 18.4825C4.17612 18.5643 4.00191 18.7169 3.90367 18.7986L3.90336 18.7995Z" fill="white"/>
<path d="M3.42097 17.628C3.42097 17.8132 3.42647 17.9713 3.33371 18.1403C3.25744 18.2758 3.13753 18.3581 3.00146 18.3581C2.81595 18.3581 2.70703 18.2166 2.70703 18.0094C2.70703 17.6009 3.07316 17.5246 3.42097 17.5246L3.42097 17.628Z" fill="#121212"/>
<path d="M18.1758 14.7365L19.0099 20.1674C19.0456 20.3992 19.163 20.6106 19.3411 20.7634C19.5191 20.9161 19.7459 21 19.9805 21L27.7432 21C27.8897 21 28.0345 20.9683 28.1676 20.9071C28.3006 20.8459 28.4189 20.7566 28.5142 20.6453C28.6095 20.5341 28.6795 20.4035 28.7196 20.2626C28.7596 20.1217 28.7687 19.9738 28.7461 19.829L27.9147 14.4866C27.8769 14.2442 27.7464 14.0259 27.5507 13.8779C27.3549 13.7299 27.1093 13.6637 26.8657 13.6934L18.9044 14.8628C18.7027 14.8927 18.4967 14.8678 18.3079 14.7908L18.1758 14.7365Z" fill="white"/>
<path d="M29.1463 12.8918L30.0006 18.517C29.9877 18.7732 29.8852 19.0167 29.7111 19.205C29.5891 19.3328 29.4373 19.4283 29.2693 19.4829C28.9693 17.5006 28.6692 15.5185 28.3692 13.5368C28.3529 13.4289 28.315 13.3254 28.2579 13.2324C28.2008 13.1395 28.1257 13.0589 28.0369 12.9955C27.9481 12.9321 27.8474 12.8872 27.741 12.8634C27.6345 12.8396 27.5243 12.8374 27.417 12.857L19.3293 14.331C19.3214 14.3288 19.1731 14.2852 19.1368 14.1528C19.1029 14.0307 19.1804 13.8819 19.3293 13.826L27.911 12.0335C28.0488 12.0048 28.191 12.0044 28.329 12.0325C28.4669 12.0605 28.5977 12.1165 28.7134 12.1968C28.829 12.2771 28.927 12.3802 29.0015 12.4997C29.0759 12.6192 29.1252 12.7526 29.1463 12.8918Z" fill="white"/>
<path d="M24.8952 16.3896C25.1928 17.1261 25.4919 17.8625 25.7925 18.5988C25.8064 18.6265 25.8138 18.657 25.8144 18.688C25.8149 18.719 25.8085 18.7497 25.7955 18.7779C25.7455 18.889 25.7058 19.0058 25.6543 19.1166C25.6337 19.1656 25.6023 19.2092 25.5623 19.2443C25.5223 19.2793 25.4749 19.3047 25.4236 19.3186C25.3473 19.3384 25.268 19.3441 25.1896 19.3353C25.1518 19.3323 25.1136 19.3231 25.0758 19.3201C25.0242 19.317 24.9983 19.3399 24.9968 19.393C24.9952 19.4461 24.9968 19.4937 24.9968 19.5434C24.9968 19.6267 25.0273 19.6655 25.1091 19.6783C25.1936 19.6953 25.2794 19.7055 25.3656 19.7088C25.6253 19.7149 25.8318 19.6099 25.9655 19.3839C26.0193 19.2945 26.066 19.201 26.1052 19.1044C26.4648 18.1964 26.8221 17.2875 27.177 16.3777C27.1882 16.3508 27.1964 16.3227 27.2015 16.2941C27.2076 16.2513 27.1877 16.2272 27.1453 16.2272C27.0449 16.2257 26.9433 16.2272 26.8433 16.2272C26.8177 16.2254 26.7923 16.2323 26.7711 16.2466C26.7498 16.2609 26.734 16.2819 26.7261 16.3063C26.7188 16.3273 26.7096 16.3472 26.702 16.3673L26.1736 17.8855C26.1357 17.9947 26.0961 18.1058 26.0567 18.2211C26.0506 18.2043 26.0476 18.1952 26.043 18.1848C25.8471 17.6427 25.6512 17.1001 25.4553 16.5571C25.4248 16.4704 25.3916 16.3853 25.3598 16.3005C25.3538 16.2794 25.341 16.2608 25.3234 16.2477C25.3059 16.2345 25.2845 16.2274 25.2625 16.2276C25.1472 16.2276 25.0319 16.2245 24.9147 16.2276C24.8769 16.2276 24.8586 16.2581 24.8662 16.2959C24.8735 16.3278 24.8832 16.3591 24.8952 16.3896ZM22.9062 18.6293C23.0868 18.7294 23.2827 18.7416 23.4816 18.7111C23.7067 18.6754 23.9177 18.5789 24.0918 18.4319C24.0992 18.4253 24.1074 18.4196 24.1162 18.4151C24.1254 18.4728 24.133 18.5274 24.1434 18.582C24.1452 18.6029 24.1544 18.6225 24.1696 18.637C24.1847 18.6515 24.2045 18.6601 24.2255 18.6611L24.4729 18.6611C24.4919 18.6609 24.5102 18.6534 24.5238 18.6401C24.5374 18.6268 24.5453 18.6087 24.5458 18.5897C24.5471 18.5756 24.5476 18.5614 24.5474 18.5473L24.5474 16.9378C24.5483 16.8723 24.5437 16.8067 24.5336 16.742C24.5049 16.5461 24.4213 16.385 24.2453 16.2803C24.1433 16.2226 24.0307 16.186 23.9143 16.1726C23.8597 16.165 23.805 16.1604 23.7501 16.1528C23.6909 16.1543 23.6302 16.1543 23.5695 16.1543C23.5542 16.1543 23.539 16.1589 23.5256 16.1604C23.3777 16.1662 23.2307 16.1867 23.0868 16.2214C22.9953 16.2459 22.9038 16.2791 22.815 16.3096C22.7899 16.3164 22.768 16.3318 22.7532 16.3532C22.7385 16.3747 22.7318 16.4006 22.7344 16.4265C22.736 16.4765 22.7344 16.5266 22.7344 16.5766C22.736 16.6495 22.7665 16.6681 22.8379 16.651C22.9562 16.6205 23.0746 16.5873 23.1945 16.5647C23.3802 16.5256 23.5712 16.5184 23.7593 16.5433C23.8581 16.5586 23.9506 16.5873 24.0143 16.6709C24.0669 16.7432 24.0952 16.8304 24.0949 16.9198C24.0995 17.0458 24.0979 17.1718 24.0995 17.2979C24.0991 17.305 24.098 17.3122 24.0964 17.3192C24.0888 17.3177 24.0827 17.3192 24.0766 17.3177C23.9172 17.2784 23.7547 17.2535 23.5909 17.2432C23.4201 17.2294 23.2483 17.2495 23.0853 17.3024C22.8894 17.3708 22.7314 17.4892 22.6389 17.6805C22.5726 17.8263 22.5519 17.9888 22.5797 18.1467C22.5907 18.2476 22.6262 18.3444 22.6831 18.4285C22.74 18.5126 22.8166 18.5816 22.9062 18.6293ZM23.067 17.8412C23.1048 17.7152 23.1945 17.6438 23.316 17.6045C23.4378 17.5676 23.566 17.5562 23.6925 17.5709C23.82 17.5816 23.9445 17.606 24.072 17.6225C24.0964 17.6255 24.104 17.6377 24.104 17.6621C24.1025 17.7351 24.104 17.8062 24.104 17.8791C24.104 17.952 24.101 18.0219 24.1025 18.0927C24.1031 18.1016 24.1013 18.1105 24.0973 18.1185C24.0933 18.1265 24.0872 18.1333 24.0796 18.1381C23.9141 18.2631 23.718 18.3413 23.5118 18.3645C23.4259 18.3768 23.3381 18.3674 23.2568 18.337C23.2117 18.3205 23.1712 18.2937 23.1385 18.2586C23.1058 18.2235 23.0818 18.1812 23.0685 18.1351C23.0385 18.0395 23.038 17.9371 23.067 17.8412ZM20.0532 19.6526L20.3735 19.6526C20.3835 19.6527 20.3934 19.6508 20.4027 19.647C20.412 19.6432 20.4204 19.6376 20.4274 19.6306C20.4345 19.6235 20.4401 19.6151 20.4439 19.6058C20.4477 19.5966 20.4496 19.5867 20.4495 19.5767L20.4495 18.4328C20.466 18.4466 20.4751 18.4539 20.4828 18.4615C20.7546 18.6879 21.0673 18.7624 21.4091 18.6955C21.7187 18.6345 21.9344 18.445 22.0739 18.1656C22.1757 17.9564 22.2292 17.727 22.2304 17.4943C22.238 17.2347 22.2121 16.9796 22.1084 16.7383C21.9793 16.4408 21.7651 16.2449 21.4417 16.1781C21.3932 16.1674 21.3432 16.1629 21.2931 16.1552L21.1668 16.1552L21.1015 16.1644C20.8928 16.1901 20.6941 16.269 20.5246 16.3935C20.4883 16.4195 20.4547 16.4466 20.4169 16.4756C20.4137 16.4688 20.4117 16.4616 20.4108 16.4542C20.4047 16.4134 20.3986 16.371 20.3909 16.3298C20.3806 16.2599 20.3455 16.2297 20.2756 16.2297L20.1011 16.2297C19.9964 16.2297 19.9766 16.2495 19.9766 16.3542L19.9766 19.5767C19.9763 19.5868 19.9781 19.5968 19.9818 19.6062C19.9856 19.6156 19.9912 19.6242 19.9984 19.6313C20.0056 19.6384 20.0141 19.644 20.0236 19.6477C20.033 19.6513 20.0431 19.653 20.0532 19.6526ZM20.448 17.4297C20.448 17.2161 20.4495 17.0047 20.448 16.7905C20.4471 16.7806 20.449 16.7706 20.4536 16.7618C20.4581 16.7529 20.4651 16.7455 20.4736 16.7404C20.6817 16.5961 20.9108 16.5201 21.1659 16.54C21.3923 16.5568 21.5775 16.6675 21.6748 16.9333C21.7288 17.0946 21.7539 17.2642 21.7489 17.4342C21.7531 17.5914 21.7325 17.7482 21.6879 17.8989C21.5848 18.2223 21.348 18.3453 21.0411 18.3315C20.8275 18.3224 20.6445 18.24 20.4733 18.1207C20.4648 18.1155 20.458 18.108 20.4535 18.0991C20.449 18.0902 20.447 18.0803 20.4477 18.0704C20.4495 17.8565 20.448 17.6438 20.448 17.4297Z" fill="#121212"/>
</svg>
