<svg width="32" height="32" viewBox="0 0 32 32" fill="none" xmlns="http://www.w3.org/2000/svg">
<g clip-path="url(#clip0_1926_117811)">
<path d="M26.3993 26C23.5993 28.0667 19.3993 29.3333 15.9993 29.3333C11.1326 29.3333 6.79926 27.4 3.46593 24.4C3.19926 24.1333 3.46593 23.8667 3.73259 24C7.33259 26.0667 11.3993 27.2667 15.9326 27.2667C18.9993 27.2667 22.8659 26.6 25.9993 25.2667C26.4659 25.1333 26.8659 25.6667 26.3993 26ZM27.3993 24.6C27.0659 24.1333 25.0659 24.4 24.1993 24.4667C23.9326 24.4667 23.8659 24.2667 24.1326 24.0667C25.6659 22.9333 28.2659 23.2667 28.5326 23.6667C28.7993 24.0667 28.4659 26.6667 26.9993 27.8667C26.7993 28.0667 26.5326 27.9333 26.6659 27.7333C26.9993 26.9333 27.7326 25.0667 27.3993 24.6Z" fill="white"/>
<path d="M24.5997 19.8666C23.9331 19 23.2664 18.2666 23.2664 16.6V11.0666C23.2664 8.73331 23.2664 6.66665 21.5997 5.06665C20.2664 3.79998 18.0664 3.33331 16.3331 3.33331C12.6664 3.33331 9.46641 4.79998 8.66641 8.93331C8.59974 9.39998 8.93307 9.59998 9.19974 9.66665L12.5997 10.0666C12.9331 10.0666 13.1331 9.73331 13.1997 9.39998C13.4664 7.99998 14.5997 7.33331 15.9331 7.33331C16.6664 7.33331 18.0664 7.73331 18.0664 9.33331V11.3333C15.9331 11.3333 13.6664 11.3333 11.7997 12.1333C9.59974 13.0666 8.06641 15 8.06641 17.8666C8.06641 21.5333 10.3331 23.3333 13.2664 23.3333C15.7331 23.3333 17.1997 22.7333 19.1331 20.8C19.7331 21.7333 19.9997 22.2666 21.1331 23.2666C21.3997 23.4 21.7331 23.4 21.9331 23.2C22.5997 22.6 23.8664 21.4666 24.5997 20.8666C24.9331 20.6 24.8664 20.2 24.5997 19.8666ZM17.9997 14.7333C17.9997 16.0666 17.9331 19.3333 14.6664 19.3333C12.6664 19.3333 12.6664 17.3333 12.6664 17.3333C12.6664 14.3333 15.4664 14 17.9997 14V14.7333Z" fill="white"/>
</g>
<defs>
<clipPath id="clip0_1926_117811">
<rect width="32" height="32" rx="8" fill="white"/>
</clipPath>
</defs>
</svg>
