<svg width="32" height="32" viewBox="0 0 32 32" fill="none" xmlns="http://www.w3.org/2000/svg">
<g clip-path="url(#clip0_1924_105940)">
<rect width="32" height="32" rx="8" fill="white"/>
<path d="M32 7.11111V10.6667H0V7.11111C0 3.18222 3.18222 0 7.11111 0H24.8889C28.8178 0 32 3.18222 32 7.11111Z" fill="#4400FF"/>
<path d="M32 21.3333V24.8888C32 28.8177 28.8178 31.9999 24.8889 31.9999H7.11111C3.18222 31.9999 0 28.8177 0 24.8888V21.3333H32Z" fill="#331799"/>
<path d="M32 10.6667H0V21.3334H32V10.6667Z" fill="#3D09D7"/>
<path d="M26.6496 20.4445C25.8176 20.4445 24.8292 20.6516 24.1012 21.1707C23.8932 21.3262 23.8932 21.5333 24.1536 21.5333C24.9856 21.4293 26.8585 21.1707 27.2221 21.6373C27.5341 22.0525 26.8576 23.816 26.5456 24.6453C26.4416 24.9049 26.6496 24.9565 26.8576 24.8009C28.2621 23.608 28.6256 21.1698 28.3661 20.8587C28.2096 20.6 27.4816 20.4445 26.6496 20.4445Z" fill="white"/>
<path d="M3.68895 21.1555C5.29783 22.1626 6.9245 23.1243 8.63206 23.8506C10.3334 24.575 12.1183 25.0932 13.9121 25.1003C15.7387 25.1492 17.5938 24.8986 19.3938 24.4888C21.2001 24.0728 22.9601 23.4461 24.6889 22.7128C24.9147 22.6159 25.1769 22.7217 25.2729 22.9475C25.3618 23.1563 25.2783 23.3963 25.0863 23.5083C23.4089 24.4763 21.5947 25.2266 19.7049 25.735C17.8098 26.2435 15.8525 26.4657 13.8712 26.4337C11.8481 26.3279 9.91117 25.7119 8.17783 24.815C6.44006 23.9137 4.86228 22.7795 3.42139 21.511C3.32895 21.4292 3.32006 21.2888 3.40095 21.1963C3.47561 21.1137 3.59828 21.0986 3.68895 21.1555Z" fill="white"/>
<path d="M14.6656 18.6666H14.3065C13.2789 18.6666 12.4434 17.831 12.4434 16.8035V13.3333H13.3322V16.8035C13.3322 17.3404 13.7696 17.7777 14.3065 17.7777H14.6656C15.2016 17.7777 15.9989 16.9804 15.9989 16.4444V15.5555H16.8878V16.4444C16.8878 17.4826 15.7038 18.6666 14.6656 18.6666Z" fill="white"/>
<path d="M5.33225 13.3333H4.44336V18.6666H5.33225V13.3333Z" fill="white"/>
<path d="M4.79259 15.2978C4.77393 14.8649 4.92326 14.5058 5.12326 14.1805C5.22726 14.0178 5.34193 13.8622 5.5037 13.7156C5.68326 13.5636 5.88948 13.464 6.10104 13.3965C6.9757 13.1369 7.88859 13.6676 8.26815 14.4596C8.46637 14.8605 8.4477 15.3431 8.44504 15.6365V16.6462V18.6667H7.55615V16.6462V15.6365C7.55793 15.2622 7.56326 15.0462 7.46015 14.8311C7.27437 14.3885 6.72593 14.192 6.27348 14.2053C5.87704 14.1885 5.34637 14.8187 5.23615 15.2978H4.79259Z" fill="white"/>
<path d="M7.77697 15.2978C7.7583 14.8649 7.90763 14.5058 8.10763 14.1805C8.21163 14.0178 8.3263 13.8622 8.48808 13.7156C8.66763 13.5636 8.87386 13.464 9.08541 13.3965C9.96008 13.1369 10.873 13.6676 11.2525 14.4596C11.4507 14.8605 11.4321 15.3431 11.4294 15.6365V16.6462V18.6667H10.5405V16.6462V15.6365C10.5423 15.2622 10.5476 15.0462 10.4445 14.8311C10.2587 14.3885 9.7103 14.192 9.25786 14.2053C8.86141 14.1885 8.33074 14.8187 8.22052 15.2978H7.77697Z" fill="white"/>
<path d="M16.8889 13.3333H16V18.6666H16.8889V13.3333Z" fill="white"/>
<path d="M23.1115 13.3333H22.2227V18.6666H23.1115V13.3333Z" fill="white"/>
<path d="M22.6662 12.4445C23.1572 12.4445 23.5551 12.0466 23.5551 11.5556C23.5551 11.0647 23.1572 10.6667 22.6662 10.6667C22.1753 10.6667 21.7773 11.0647 21.7773 11.5556C21.7773 12.0466 22.1753 12.4445 22.6662 12.4445Z" fill="white"/>
<path d="M24.8889 15.6621V16.3377C24.8889 17.1288 25.5378 17.7777 26.3289 17.7777C26.7111 17.7777 27.0756 17.6266 27.3511 17.3599L27.5556 17.1555V18.311C27.1911 18.5421 26.7733 18.6666 26.3289 18.6666C25.0489 18.6666 24 17.6177 24 16.3377V15.6621C24 14.3821 25.0489 13.3333 26.3289 13.3333C26.7733 13.3333 27.1911 13.4577 27.5556 13.6888V14.8444L27.3511 14.6399C27.0756 14.3733 26.7111 14.2221 26.3289 14.2221C25.5378 14.2221 24.8889 14.871 24.8889 15.6621Z" fill="white"/>
<path d="M18.884 14.1822C18.7951 14.2444 18.6662 14.4266 18.6662 14.6666C18.6662 15.1822 18.9507 15.3333 19.6973 15.5822C20.3907 15.8044 21.3329 16.1244 21.3329 17.3333C21.3329 17.7955 21.1551 18.1778 20.8085 18.4444C20.3729 18.7822 19.7151 18.8889 19.084 18.8889C18.604 18.8889 18.124 18.8266 17.7773 18.7644V17.8578C18.6129 18.0266 19.804 18.1066 20.2573 17.7422C20.3462 17.68 20.444 17.5733 20.444 17.3333C20.444 16.8178 20.1596 16.6666 19.4129 16.4178C18.7196 16.1955 17.7773 15.8755 17.7773 14.6666C17.7773 14.2044 17.9551 13.8222 18.3018 13.5555C19.0751 12.9511 20.3525 13.112 21.14 13.4098V14.3164C20.3169 13.8418 19.3373 13.8178 18.884 14.1822Z" fill="white"/>
</g>
<defs>
<clipPath id="clip0_1924_105940">
<rect width="32" height="32" rx="8" fill="white"/>
</clipPath>
</defs>
</svg>
