<svg width="32" height="32" viewBox="0 0 32 32" fill="none" xmlns="http://www.w3.org/2000/svg">
<g clip-path="url(#clip0_1924_105991)">
<path d="M7.61905 0C3.41994 0 0 3.41994 0 7.61905V24.381C0 28.5801 3.41994 32 7.61905 32H24.381C28.5801 32 32 28.5801 32 24.381V7.61905C32 3.41994 28.5801 0 24.381 0H7.61905ZM7.61905 1.52381H24.381C27.7567 1.52381 30.4762 4.2433 30.4762 7.61905V24.381C30.4762 27.7567 27.7567 30.4762 24.381 30.4762H7.61905C4.2433 30.4762 1.52381 27.7567 1.52381 24.381V7.61905C1.52381 4.2433 4.2433 1.52381 7.61905 1.52381ZM22.8571 10.6741C22.6551 10.6741 22.4613 10.7544 22.3184 10.8973C22.1755 11.0401 22.0952 11.2339 22.0952 11.436C22.0952 11.6381 22.1755 11.8319 22.3184 11.9748C22.4613 12.1176 22.6551 12.1979 22.8571 12.1979C23.0592 12.1979 23.253 12.1176 23.3959 11.9748C23.5388 11.8319 23.619 11.6381 23.619 11.436C23.619 11.2339 23.5388 11.0401 23.3959 10.8973C23.253 10.7544 23.0592 10.6741 22.8571 10.6741ZM4.57143 12.9598C4.25584 12.9598 4 13.2157 4 13.5313V17.7217C4 18.0373 4.25584 18.2932 4.57143 18.2932V18.2932C4.88702 18.2932 5.14286 18.0373 5.14286 17.7217V15.5351C5.14286 14.8553 5.61081 14.2742 6.26786 14.0997V14.0997C6.64881 13.9961 7.01115 14.2781 7.04315 14.6027L7.04819 17.722C7.0487 18.0376 7.30469 18.2932 7.6203 18.2932V18.2932C7.93609 18.2932 8.19216 18.0373 8.19241 17.7215L8.19345 16.3884L8.19792 15.436L8.19345 14.9598L8.19048 14.7188V14.7188C8.17978 14.5345 8.28963 14.3534 8.46911 14.3104C8.75199 14.2426 9.03475 14.1742 9.31548 14.0997C9.69643 13.9953 10.0588 14.2789 10.0908 14.6027L10.0958 17.722C10.0963 18.0376 10.3523 18.2932 10.6679 18.2932V18.2932C10.9837 18.2932 11.2398 18.0373 11.24 17.7215L11.2411 16.3884L11.2455 15.436L11.2411 14.9598L11.2381 14.7188C11.2312 14.6007 11.2187 14.4834 11.189 14.3676C11.077 13.9036 10.761 13.5051 10.3557 13.2872C9.95413 13.064 9.44333 13.0353 9.03571 13.1801C8.78401 13.2659 8.53341 13.3558 8.28323 13.4473C7.96004 13.5654 7.61113 13.4501 7.30804 13.2872V13.2872C6.90651 13.064 6.39571 13.0353 5.9881 13.1801C5.80218 13.2434 5.61746 13.3112 5.43277 13.3791C5.29183 13.4309 5.14286 13.3266 5.14286 13.1764V13.1764C5.14286 13.0568 5.04588 12.9598 4.92626 12.9598H4.57143ZM13.5247 13.5306C13.5242 13.2153 13.2683 12.9602 12.9531 12.9606V12.9606C12.6379 12.961 12.3826 13.2167 12.3829 13.5319L12.3839 14.8051C12.3771 15.4321 12.3708 16.0066 12.3914 16.6771C12.4241 17.1449 12.6781 17.571 13.0149 17.8423C13.3539 18.1173 13.7701 18.262 14.183 18.2887C14.5808 18.3215 15.0475 18.2005 15.3378 18.0268V18.0268C15.3796 18.0052 15.4286 18.033 15.4286 18.0801V18.0878C15.4286 18.1248 15.4586 18.1548 15.4956 18.1548H16C16.3156 18.1548 16.5714 17.8989 16.5714 17.5833V13.5327C16.5714 13.2171 16.3156 12.9613 16 12.9613V12.9613C15.6844 12.9613 15.4286 13.2171 15.4286 13.5327V16.5285C15.4286 16.8348 15.2316 17.0995 14.9464 17.2113V17.2113C14.6782 17.3248 14.5055 17.3444 14.2723 17.3185C13.835 17.2651 13.5016 16.917 13.5283 16.619C13.5351 16.0613 13.5375 15.4055 13.5268 14.8036L13.5247 13.5306ZM22.8571 12.9598C22.5416 12.9598 22.2857 13.2157 22.2857 13.5313V17.7217C22.2857 18.0373 22.5416 18.2932 22.8571 18.2932V18.2932C23.1727 18.2932 23.4286 18.0373 23.4286 17.7217V13.5313C23.4286 13.2157 23.1727 12.9598 22.8571 12.9598V12.9598ZM26.8378 12.9628C26.5673 12.9779 26.2967 13.0395 26.0491 13.1458C25.0434 13.5862 24.5486 14.622 24.5714 15.5446C24.579 15.9774 24.6473 16.4307 24.8378 16.878C25.0359 17.3115 25.3861 17.7442 25.8661 17.9926C26.3385 18.2478 26.8727 18.32 27.3527 18.2842C27.5395 18.266 27.723 18.2387 27.9013 18.1987C28.0755 18.1596 28.1905 17.9994 28.1905 17.8209V17.8209C28.1905 17.5687 27.9652 17.3787 27.7137 17.3961C27.2088 17.4311 26.7409 17.3784 26.4152 17.1563C25.9352 16.8583 25.7067 16.22 25.7143 15.5313C25.699 14.9065 26.0042 14.3103 26.5223 14.0253C26.8242 13.8626 27.1814 13.8415 27.5399 13.9383C27.8356 14.0182 28.1905 13.8291 28.1905 13.5228V13.5228C28.1905 13.3895 28.1218 13.2639 28.0025 13.2044C27.884 13.1453 27.76 13.0951 27.6265 13.0536C27.3789 12.9789 27.1083 12.9477 26.8378 12.9628ZM19.5848 12.9717C19.3834 12.9898 19.1826 13.0289 18.9866 13.0908C18.3138 13.3026 17.8327 13.7562 17.7664 14.2202C17.6429 15.088 18.2784 15.5964 18.5908 15.7366C18.9032 15.9058 19.1844 15.9797 19.4435 16.0536C19.9692 16.1793 20.303 16.3215 20.4241 16.5089C20.4904 16.6118 20.5179 16.6902 20.5179 16.8274C20.5179 16.9645 20.487 17.0872 20.3423 17.1756C20.0451 17.3379 19.5347 17.397 19.0699 17.3452C18.7727 17.317 18.4227 17.2224 18.0814 17.1058C17.8121 17.0139 17.5238 17.2072 17.5238 17.4917V17.4917C17.5238 17.6301 17.5945 17.7603 17.7166 17.8254C18.1095 18.0347 18.5228 18.1548 18.9479 18.2307C19.5346 18.3114 20.1374 18.3633 20.8155 18.0685C21.1431 17.9359 21.5402 17.6394 21.5402 16.8333C21.5402 15.9922 20.9298 15.6225 20.625 15.4747C20.3202 15.32 20.0388 15.2459 19.7798 15.1652C19.5283 15.0837 18.8646 14.9755 18.8646 14.4033C18.8646 14.1648 19.1161 14.0319 19.3065 13.9732C19.7434 13.8276 20.2336 13.8578 20.7019 13.9949C21.0007 14.0824 21.3333 13.8784 21.3333 13.5671V13.5671C21.3333 13.4069 21.2422 13.259 21.0932 13.2005C20.6213 13.0151 20.0999 12.9255 19.5848 12.9717ZM27.1265 20.5789C26.28 20.5789 25.2748 20.7926 24.5342 21.3259C24.3224 21.4859 24.3219 21.6994 24.5863 21.6994C25.4328 21.5927 27.338 21.3251 27.7083 21.8051C28.026 22.2317 27.3385 24.047 27.0208 24.9003C26.9149 25.167 27.1275 25.2195 27.3393 25.0595C28.4071 24.1421 28.8839 22.5093 28.9459 21.6096C28.9743 21.1984 28.7398 20.82 28.3419 20.713C28.0199 20.6265 27.5888 20.5789 27.1265 20.5789ZM3.78125 21.1592C3.73877 21.1675 3.69898 21.19 3.66964 21.2262C3.60336 21.3077 3.61639 21.4293 3.69792 21.4955C5.26744 22.7664 7.04376 23.7353 8.92262 24.4896C10.8076 25.2195 12.8062 25.72 14.8542 25.8571C16.9029 25.9981 18.9618 25.8057 20.939 25.3006C22.9177 24.7886 24.8027 24.0013 26.4896 22.8051C26.6366 22.7014 26.6938 22.504 26.6161 22.3348C26.5277 22.1436 26.3014 22.0612 26.1101 22.1488L26.0804 22.1622C24.3546 22.9569 22.4781 23.5148 20.6176 23.8988C18.7494 24.2874 16.8353 24.4353 14.942 24.369C13.0441 24.2921 11.1588 23.9141 9.30506 23.3869C7.46582 22.8231 5.63317 22.1133 3.91964 21.186L3.90774 21.1786C3.8685 21.1572 3.82373 21.1509 3.78125 21.1592Z" fill="#121212"/>
</g>
<defs>
<clipPath id="clip0_1924_105991">
<rect width="32" height="32" rx="8" fill="white"/>
</clipPath>
</defs>
</svg>
