<svg width="32" height="32" viewBox="0 0 32 32" fill="none" xmlns="http://www.w3.org/2000/svg">
<rect width="32" height="32" rx="8" fill="white"/>
<path d="M25.75 25.375C23.125 27.3125 19.1875 28.5 16 28.5C11.4375 28.5 7.37504 26.6875 4.25004 23.875C4.00004 23.625 4.25004 23.375 4.50004 23.5C7.87504 25.4375 11.6875 26.5625 15.9375 26.5625C18.8125 26.5625 22.4375 25.9375 25.375 24.6875C25.8125 24.5625 26.1875 25.0625 25.75 25.375ZM26.6875 24.0625C26.375 23.625 24.5 23.875 23.6875 23.9375C23.4375 23.9375 23.375 23.75 23.625 23.5625C25.0625 22.5 27.5 22.8125 27.75 23.1875C28 23.5625 27.6875 26 26.3125 27.125C26.125 27.3125 25.875 27.1875 26 27C26.3125 26.25 27 24.5 26.6875 24.0625Z" fill="#FFB300"/>
<path d="M24.0625 19.625C23.4375 18.8125 22.8125 18.125 22.8125 16.5625V11.375C22.8125 9.1875 22.8125 7.25 21.25 5.75C20 4.5625 17.9375 4.125 16.3125 4.125C12.875 4.125 9.875 5.5 9.125 9.375C9.0625 9.8125 9.375 10 9.625 10.0625L12.8125 10.4375C13.125 10.4375 13.3125 10.125 13.375 9.8125C13.625 8.5 14.6875 7.875 15.9375 7.875C16.625 7.875 17.9375 8.25 17.9375 9.75V11.625C15.9375 11.625 13.8125 11.625 12.0625 12.375C10 13.25 8.5625 15.0625 8.5625 17.75C8.5625 21.1875 10.6875 22.875 13.4375 22.875C15.75 22.875 17.125 22.3125 18.9375 20.5C19.5 21.375 19.75 21.875 20.8125 22.8125C21.0625 22.9375 21.375 22.9375 21.5625 22.75C22.1875 22.1875 23.375 21.125 24.0625 20.5625C24.375 20.3125 24.3125 19.9375 24.0625 19.625ZM17.875 14.8125C17.875 16.0625 17.8125 19.125 14.75 19.125C12.875 19.125 12.875 17.25 12.875 17.25C12.875 14.4375 15.5 14.125 17.875 14.125V14.8125Z" fill="#37474F"/>
</svg>
