<svg width="32" height="32" viewBox="0 0 32 32" fill="none" xmlns="http://www.w3.org/2000/svg">
<path d="M7.42857 1C3.88677 1 1 3.88677 1 7.42857V24.5714C1 28.1132 3.88677 31 7.42857 31H24.5714C28.1132 31 31 28.1132 31 24.5714V7.42857C31 3.88677 28.1132 1 24.5714 1H7.42857ZM7.42857 2.42857H24.5714C27.3411 2.42857 29.5714 4.65894 29.5714 7.42857V24.5714C29.5714 27.3411 27.3411 29.5714 24.5714 29.5714H7.42857C4.65894 29.5714 2.42857 27.3411 2.42857 24.5714V7.42857C2.42857 4.65894 4.65894 2.42857 7.42857 2.42857ZM22.1147 6.0014C22.036 5.99746 21.9553 6.00309 21.8747 6.01814H21.8733L12.8792 7.7048C12.2084 7.83102 11.7143 8.42651 11.7143 9.10965V18.8474C11.7143 18.8506 11.7143 18.8539 11.7143 18.8571C11.7143 19.6548 11.0833 20.2857 10.2857 20.2857H8.97852C7.46196 20.2857 6.08622 21.4244 6.00419 22.9908C5.91921 24.6241 7.23722 26 8.85714 26H9.21429C11.3754 26 13.1429 24.2326 13.1429 22.0714V18.8571V12.7536L21.7143 11.1465V16.7143C21.7143 17.5119 21.0833 18.1429 20.2857 18.1429H18.9785C17.462 18.1429 16.0862 19.2815 16.0042 20.8479C15.9192 22.4813 17.2372 23.8571 18.8571 23.8571H19.2143C21.3754 23.8571 23.1429 22.0897 23.1429 19.9286V16.7143V7.07143C23.1429 6.49817 22.6657 6.02896 22.1147 6.0014ZM21.7143 7.50251V9.6928L13.1429 11.2999V9.10965L21.7143 7.50251ZM21.7143 19.1292V19.9286C21.7143 21.3174 20.6032 22.4286 19.2143 22.4286H18.8571C18.0342 22.4286 17.3864 21.76 17.43 20.9219C17.4694 20.1697 18.1751 19.5714 18.9785 19.5714H20.2857C20.8162 19.5714 21.287 19.3845 21.7143 19.1292ZM11.7143 21.272V22.0714C11.7143 23.4603 10.6032 24.5714 9.21429 24.5714H8.85714C8.03421 24.5714 7.38637 23.9028 7.42997 23.0647C7.46936 22.3126 8.17507 21.7143 8.97852 21.7143H10.2857C10.8162 21.7143 11.287 21.5274 11.7143 21.272Z" fill="#121212"/>
</svg>
