<svg width="32" height="32" viewBox="0 0 32 32" fill="none" xmlns="http://www.w3.org/2000/svg">
<path d="M18.5633 19.3C18.522 18.9276 18.3979 18.6587 18.1499 18.4104C17.6848 17.9242 16.8683 17.6035 15.9071 17.6035C14.9459 17.6035 14.1294 17.9139 13.6643 18.4104C13.4266 18.669 13.2922 18.9276 13.2509 19.3C13.1682 20.0242 13.2199 20.6449 13.3025 21.6483C13.3852 22.6 13.5403 23.8724 13.7366 25.1551C13.8813 26.0758 13.995 26.5724 14.0984 26.9241C14.2741 27.5034 14.9045 27.9999 15.9071 27.9999C16.9096 27.9999 17.5504 27.493 17.7158 26.9241C17.8192 26.5724 17.9328 26.0758 18.0775 25.1551C18.2739 23.862 18.429 22.6 18.5116 21.6483C18.6047 20.6449 18.646 20.0242 18.5633 19.3Z" fill="#121212"/>
<path d="M18.4464 14.0239C18.4464 15.4308 17.3095 16.5687 15.9039 16.5687C14.4982 16.5687 13.3613 15.4308 13.3613 14.0239C13.3613 12.617 14.4982 11.4791 15.9039 11.4791C17.3095 11.4791 18.4464 12.6274 18.4464 14.0239Z" fill="#121212"/>
<path d="M15.8739 4.00002C9.94129 4.02071 5.08361 8.84133 5.00092 14.7792C4.93891 19.5895 8.00855 23.7066 12.2978 25.217C12.4011 25.2583 12.5045 25.1652 12.4942 25.0618C12.4425 24.6894 12.3805 24.317 12.3391 23.9446C12.3185 23.8101 12.2358 23.7066 12.1221 23.6446C8.73204 22.1653 6.36521 18.7619 6.40655 14.8206C6.45823 9.64821 10.6751 5.43793 15.8325 5.39655C21.114 5.35517 25.4239 9.63787 25.4239 14.9137C25.4239 18.8136 23.0674 22.1653 19.7083 23.6446C19.5843 23.6963 19.5016 23.8101 19.4913 23.9446C19.4396 24.317 19.3879 24.6894 19.3363 25.0618C19.3156 25.1756 19.4293 25.2583 19.5326 25.217C23.7805 23.7273 26.8295 19.6722 26.8295 14.9137C26.8088 8.89305 21.8995 3.98967 15.8739 4.00002Z" fill="#121212"/>
<path d="M15.6258 7.62076C11.7603 7.76559 8.65965 10.9621 8.60798 14.831C8.57697 17.3758 9.84824 19.6309 11.8016 20.9654C11.8947 21.0275 12.029 20.9551 12.029 20.8413C11.998 20.3964 11.998 20.0033 12.0187 19.5896C12.029 19.4551 11.9773 19.3309 11.874 19.2378C10.6854 18.1206 9.96193 16.5275 10.0033 14.7689C10.086 11.6655 12.5768 9.14143 15.6775 9.0173C19.0468 8.88281 21.8167 11.5931 21.8167 14.9241C21.8167 16.6206 21.0933 18.1517 19.946 19.2378C19.853 19.3309 19.8013 19.4551 19.8013 19.5896C19.822 19.993 19.8117 20.3861 19.791 20.8309C19.7807 20.9447 19.915 21.0275 20.0184 20.9551C21.9408 19.6413 23.212 17.4172 23.212 14.9138C23.2224 10.7966 19.7807 7.45525 15.6258 7.62076Z" fill="#121212"/>
</svg>
