<svg width="32" height="32" viewBox="0 0 32 32" fill="none" xmlns="http://www.w3.org/2000/svg">
<rect y="-0.00012207" width="32" height="32" rx="5.70302" fill="url(#paint0_linear_1752_95231)"/>
<path d="M17.8972 18.751C17.866 18.4705 17.7726 18.2678 17.5857 18.0808C17.2353 17.7145 16.6202 17.4729 15.896 17.4729C15.1718 17.4729 14.5567 17.7067 14.2063 18.0808C14.0272 18.2756 13.926 18.4705 13.8948 18.751C13.8325 19.2966 13.8715 19.7642 13.9338 20.5202C13.9961 21.2372 14.1129 22.1958 14.2608 23.1622C14.3698 23.8558 14.4555 24.2299 14.5333 24.4949C14.6657 24.9314 15.1407 25.3055 15.896 25.3055C16.6513 25.3055 17.1341 24.9236 17.2587 24.4949C17.3365 24.2299 17.4222 23.8558 17.5312 23.1622C17.6792 22.188 17.796 21.2372 17.8583 20.5202C17.9283 19.7642 17.9595 19.2966 17.8972 18.751Z" fill="white"/>
<path d="M17.8096 14.776C17.8096 15.8359 16.953 16.6932 15.894 16.6932C14.835 16.6932 13.9785 15.8359 13.9785 14.776C13.9785 13.7161 14.835 12.8588 15.894 12.8588C16.953 12.8588 17.8096 13.7239 17.8096 14.776Z" fill="white"/>
<path d="M15.872 7.22413C11.4024 7.23972 7.74268 10.8715 7.68038 15.3451C7.63366 18.9691 9.9463 22.0709 13.1778 23.2088C13.2556 23.24 13.3335 23.1698 13.3257 23.0919C13.2868 22.8113 13.2401 22.5307 13.2089 22.2502C13.1933 22.1489 13.131 22.0709 13.0454 22.0242C10.4914 20.9097 8.70822 18.3456 8.73937 15.3762C8.7783 11.4794 11.9553 8.30744 15.8408 8.27627C19.8198 8.24509 23.0668 11.4716 23.0668 15.4464C23.0668 18.3846 21.2915 20.9097 18.7608 22.0242C18.6674 22.0631 18.6051 22.1489 18.5973 22.2502C18.5584 22.5307 18.5194 22.8113 18.4805 23.0919C18.4649 23.1776 18.5506 23.24 18.6284 23.2088C21.8288 22.0865 24.1258 19.0314 24.1258 15.4464C24.1102 10.9105 20.4116 7.21634 15.872 7.22413Z" fill="white"/>
<path d="M15.6841 9.95195C12.7718 10.0611 10.4358 12.4693 10.3969 15.3841C10.3735 17.3013 11.3313 19.0003 12.803 20.0057C12.8731 20.0524 12.9743 19.9979 12.9743 19.9122C12.9509 19.577 12.9509 19.2809 12.9665 18.9691C12.9743 18.8678 12.9354 18.7743 12.8575 18.7042C11.962 17.8624 11.417 16.6622 11.4481 15.3373C11.5104 12.9992 13.387 11.0976 15.723 11.0041C18.2614 10.9028 20.3483 12.9447 20.3483 15.4542C20.3483 16.7324 19.8032 17.8858 18.9389 18.7042C18.8688 18.7743 18.8299 18.8678 18.8299 18.9691C18.8454 19.2731 18.8377 19.5692 18.8221 19.9044C18.8143 19.9901 18.9155 20.0524 18.9934 19.9979C20.4417 19.0081 21.3995 17.3325 21.3995 15.4464C21.4073 12.3446 18.8143 9.82725 15.6841 9.95195Z" fill="white"/>
<defs>
<linearGradient id="paint0_linear_1752_95231" x1="16" y1="-0.00012207" x2="16" y2="31.9999" gradientUnits="userSpaceOnUse">
<stop stop-color="#F452FF"/>
<stop offset="1" stop-color="#832BC1"/>
</linearGradient>
</defs>
</svg>
