<svg width="32" height="32" viewBox="0 0 32 32" fill="none" xmlns="http://www.w3.org/2000/svg">
<path d="M19.3085 8.06754C19.6867 7.40733 19.4606 6.56408 18.8035 6.18409C18.1463 5.8041 17.307 6.03127 16.9288 6.69148L16.2691 7.84302L15.6094 6.69148C15.2311 6.03127 14.3918 5.8041 13.7347 6.18409C13.0775 6.56408 12.8514 7.40733 13.2296 8.06754L14.685 10.608L10.0816 18.6436H6.37288C5.61466 18.6436 5 19.2611 5 20.0229C5 20.7846 5.61466 21.4022 6.37288 21.4022H19.2906C19.4038 21.1032 19.523 20.5902 19.3962 20.1187C19.2055 19.4099 18.5 18.6436 17.3178 18.6436H13.2496L19.3085 8.06754Z" fill="#121212"/>
<path d="M10.7955 22.9274C10.5613 22.666 10.0365 22.2484 9.57627 22.111C8.87459 21.9014 8.34266 22.0329 8.07428 22.1474L7.05165 23.9325C6.67342 24.5927 6.89954 25.4359 7.55669 25.8159C8.21383 26.1959 9.05317 25.9687 9.4314 25.3085L10.7955 22.9274Z" fill="#121212"/>
<path d="M24.0369 21.4022H26.1271C26.8853 21.4022 27.5 20.7846 27.5 20.0229C27.5 19.2611 26.8853 18.6436 26.1271 18.6436H22.4566L18.3219 11.4263C18.0148 11.7196 17.4258 12.4687 17.3369 13.3181C17.2225 14.41 17.3941 15.3295 17.9089 16.2299C19.6398 19.257 21.3733 22.2828 23.1067 25.3085C23.485 25.9687 24.3243 26.1959 24.9814 25.8159C25.6386 25.4359 25.8647 24.5927 25.4865 23.9325L24.0369 21.4022Z" fill="#121212"/>
</svg>
