<svg width="32" height="32" viewBox="0 0 32 32" fill="none" xmlns="http://www.w3.org/2000/svg">
<rect y="0.000244141" width="32" height="32" rx="5.70302" fill="url(#paint0_linear_1752_95252)"/>
<path d="M23.8429 12.4712C23.8429 11.9932 23.8026 11.5172 23.6886 11.0519C23.4838 10.2043 23.001 9.55684 22.2784 9.08131C21.9067 8.83845 21.4976 8.68933 21.0628 8.61065C20.729 8.54993 20.3907 8.52224 20.052 8.51447C20.0268 8.51204 19.9991 8.5067 19.971 8.50427H12.1917C12.0932 8.51204 11.9947 8.5169 11.8962 8.52176C11.4134 8.54944 10.9335 8.59996 10.4783 8.78211C9.61402 9.12357 8.98949 9.72053 8.62554 10.5807C8.49937 10.8717 8.4358 11.1801 8.39068 11.4939C8.35283 11.747 8.33244 12.0025 8.32517 12.2579C8.32517 12.2783 8.32031 12.2983 8.32031 12.3187V20.2345C8.32517 20.3258 8.3305 20.4167 8.33536 20.508C8.36835 21.0369 8.43629 21.5605 8.65903 22.0463C9.07878 22.9648 9.78386 23.569 10.752 23.86C11.0223 23.9435 11.3056 23.9814 11.5886 24.0066C11.9476 24.0421 12.3063 24.047 12.6654 24.047H19.8026C20.1413 24.047 20.48 24.0241 20.8187 23.9814C21.352 23.9129 21.8523 23.756 22.3051 23.4578C22.8486 23.0983 23.2581 22.6228 23.5207 22.0283C23.642 21.7548 23.7104 21.4644 23.7609 21.1705C23.8342 20.7329 23.8492 20.2899 23.8492 19.8474C23.8468 17.3882 23.8492 14.9294 23.8468 12.4702L23.8429 12.4712ZM19.6876 15.0538V18.7526C19.6876 19.0231 19.6497 19.2888 19.5284 19.5341C19.3416 19.9159 19.0383 20.1563 18.6312 20.2729C18.406 20.3385 18.1736 20.3739 17.9387 20.3841C17.3244 20.4147 16.7911 19.997 16.6824 19.3898C16.5887 18.8891 16.8289 18.3373 17.3544 18.0794C17.5617 17.9783 17.7868 17.9176 18.0115 17.8719C18.2565 17.819 18.5016 17.7709 18.7442 17.7151C18.9238 17.6747 19.0398 17.5659 19.0752 17.3809C19.0854 17.3406 19.0878 17.2973 19.0878 17.257C19.0878 16.0806 19.0878 14.9042 19.0878 13.7307C19.0878 13.6903 19.08 13.6495 19.0703 13.6117C19.0451 13.5131 18.9742 13.4548 18.8733 13.4596C18.7695 13.4645 18.6685 13.4825 18.5676 13.5029C18.0746 13.599 17.582 13.6976 17.0914 13.7987L14.6981 14.282C14.6879 14.2844 14.6753 14.2897 14.6651 14.2897C14.4856 14.3402 14.4225 14.4214 14.4147 14.6084C14.4123 14.6361 14.4147 14.6642 14.4147 14.6919C14.4123 16.3769 14.4147 18.0619 14.4123 19.7464C14.4123 20.0198 14.3817 20.2879 14.2735 20.5405C14.094 20.9553 13.7756 21.2162 13.3462 21.34C13.1186 21.4056 12.8861 21.444 12.6484 21.4512C12.0292 21.4741 11.5133 21.0617 11.4076 20.4521C11.3163 19.9261 11.5565 19.3592 12.1529 19.1062C12.3854 19.01 12.6256 18.9571 12.8706 18.9065C13.055 18.8687 13.2423 18.8308 13.4267 18.7929C13.6742 18.7399 13.8033 18.583 13.8159 18.33V18.2338C13.8159 16.3162 13.8159 14.3985 13.8159 12.4809C13.8159 12.3998 13.8261 12.3191 13.8436 12.2405C13.8892 12.0559 14.0207 11.9495 14.1973 11.9063C14.3618 11.8631 14.5312 11.8329 14.6976 11.7975C15.1727 11.7013 15.6453 11.6051 16.1204 11.5114L17.5888 11.2127C18.0236 11.1267 18.4555 11.0383 18.8903 10.9523C19.032 10.9246 19.1761 10.894 19.3198 10.8838C19.5192 10.8663 19.6585 10.9926 19.6788 11.1952C19.6837 11.2433 19.6866 11.2914 19.6866 11.3394C19.6866 12.5766 19.6866 13.8137 19.6866 15.0509L19.6876 15.0538Z" fill="white"/>
<defs>
<linearGradient id="paint0_linear_1752_95252" x1="16" y1="0.000244141" x2="16" y2="32.0002" gradientUnits="userSpaceOnUse">
<stop stop-color="#FB5971"/>
<stop offset="1" stop-color="#FA253D"/>
</linearGradient>
</defs>
</svg>
