<svg width="32" height="32" viewBox="0 0 32 32" fill="none" xmlns="http://www.w3.org/2000/svg">
<path d="M23.126 11.9328C22.3018 10.3974 21.6837 11.99 20.7745 11.8854C19.8691 10.0819 18.4524 8.76504 16.0708 8.73419C13.7289 8.70386 12.1465 9.78592 11.0802 11.8243C10.5186 11.4973 10.099 11.253 9.62364 10.9763C7.84901 12.7501 8.07061 14.985 8.08532 17.1773C8.1037 19.9151 8.08974 22.6532 8.08974 25.4289C6.40952 25.8947 4.86184 25.1545 4.33754 23.536C3.42747 20.7266 4.38042 18.4129 6.92124 17.38C7.00815 16.1621 7.01242 14.9016 7.21567 13.6741C7.35227 12.8491 7.7467 12.0609 8.07145 11.2751C8.27133 10.7915 8.95763 10.3877 8.19276 9.80899C8.12559 9.75817 8.23224 9.39307 8.33325 9.21704C10.0911 6.15376 12.8659 4.89018 16.2621 5.00744C19.5554 5.12115 22.492 6.41976 23.5983 9.6237C24.3707 11.8607 25.492 14.2181 24.9521 16.7844C24.9168 16.9522 24.9776 17.1403 24.9929 17.3102C28.3615 18.3885 28.1559 19.9529 27.8307 23.3688C27.6786 24.9661 26.0736 25.7381 23.8838 25.5045C23.8838 22.8344 23.9687 20.139 23.8542 17.4521C23.7767 15.6343 23.4187 13.8285 23.126 11.9328Z" fill="white"/>
<path d="M21.9364 16.8111C23.1274 16.6895 23.4717 17.2449 23.4577 18.2512C23.427 20.4592 23.4307 22.6681 23.4562 24.8762C23.4676 25.8636 23.1442 26.3938 22.0528 26.3739C21.027 26.3553 20.7475 25.8569 20.7612 24.9261C20.7945 22.6731 20.7817 20.4192 20.7667 18.1659C20.7617 17.4084 20.8799 16.7965 21.9364 16.8111Z" fill="white"/>
<path d="M8.87998 17.2511C10.7103 16.344 11.3895 16.7246 11.3935 18.5461C11.3984 20.7536 11.3828 22.9612 11.3966 25.1686C11.4021 26.042 10.9647 26.3561 10.1399 26.3664C9.29235 26.3769 8.7117 26.1325 8.72281 25.1729C8.75301 22.5646 8.79304 19.9564 8.87998 17.2511Z" fill="white"/>
</svg>
