<svg width="32" height="32" viewBox="0 0 32 32" fill="none" xmlns="http://www.w3.org/2000/svg">
<path fill-rule="evenodd" clip-rule="evenodd" d="M11.017 7.99993C11.672 7.98777 12.3261 8.05493 12.965 8.19993C13.5029 8.31738 14.0136 8.53591 14.47 8.84393C14.8915 9.15023 15.225 9.56201 15.437 10.0379C15.6807 10.6232 15.7982 11.2532 15.782 11.8869C15.8097 12.5828 15.632 13.2714 15.271 13.8669C14.8913 14.4294 14.3664 14.8786 13.752 15.1669C14.5857 15.3917 15.3119 15.9066 15.8 16.6189C16.2685 17.3737 16.504 18.25 16.477 19.1379C16.4925 19.8459 16.3461 20.5481 16.049 21.1909C15.7744 21.7517 15.3723 22.2404 14.875 22.6179C14.363 22.9913 13.7868 23.2675 13.175 23.4329C12.5406 23.6084 11.8852 23.6966 11.227 23.6949H4V7.99993H11.017ZM10.6 14.3479C11.1147 14.3691 11.6213 14.2151 12.037 13.9109C12.2361 13.7337 12.391 13.5123 12.4892 13.2646C12.5875 13.0168 12.6265 12.7495 12.603 12.4839C12.6163 12.1738 12.5546 11.8651 12.423 11.5839C12.3114 11.3601 12.1378 11.173 11.923 11.0449C11.7054 10.904 11.4609 10.8096 11.205 10.7679C10.9273 10.7141 10.6448 10.6897 10.362 10.6949H7.274V14.3619H10.6V14.3479ZM10.78 21.0299C11.0912 21.0341 11.4018 21.0006 11.705 20.9299C11.982 20.8688 12.2448 20.755 12.479 20.5949C12.7085 20.4349 12.8938 20.2196 13.018 19.9689C13.162 19.6493 13.2281 19.3001 13.211 18.9499C13.2422 18.6309 13.2 18.3089 13.0875 18.0086C12.975 17.7084 12.7952 17.4379 12.562 17.2179C12.0677 16.8539 11.4619 16.6735 10.849 16.7079H7.274V21.0299H10.78Z" fill="#121212"/>
<path fill-rule="evenodd" clip-rule="evenodd" d="M21.14 20.9719C21.397 21.2101 21.6997 21.3936 22.0297 21.5112C22.3598 21.6287 22.7103 21.678 23.06 21.6559C23.6144 21.6699 24.1579 21.5013 24.607 21.1759C24.9723 20.9384 25.249 20.5869 25.394 20.1759H28.005C27.7268 21.3458 27.0474 22.3811 26.085 23.1019C25.1617 23.7148 24.0706 24.0251 22.963 23.9899C22.1725 24.0003 21.388 23.8517 20.656 23.5529C19.9939 23.2768 19.4001 22.8594 18.916 22.3299C18.4338 21.7751 18.0633 21.1323 17.825 20.4369C17.5575 19.6596 17.4266 18.8419 17.438 18.0199C17.4331 17.2118 17.5685 16.4089 17.838 15.6469C18.2001 14.575 18.8925 13.6454 19.8157 12.9915C20.739 12.3375 21.8457 11.9929 22.977 12.0069C23.8123 11.9895 24.6382 12.1849 25.377 12.5749C26.0448 12.9411 26.6209 13.454 27.062 14.0749C27.5132 14.7265 27.8366 15.4578 28.015 16.2299C28.2107 17.0591 28.2805 17.913 28.222 18.7629H20.445C20.382 19.5615 20.6311 20.3533 21.14 20.9719ZM24.552 15.0029C24.3344 14.7853 24.0726 14.6167 23.7844 14.5088C23.4961 14.4008 23.1881 14.3558 22.881 14.3769C22.4736 14.3614 22.0691 14.4517 21.707 14.6389C21.4199 14.797 21.1665 15.0096 20.961 15.2649C20.7789 15.5043 20.6432 15.7756 20.561 16.0649C20.4869 16.3062 20.4406 16.5552 20.423 16.8069H25.24C25.198 16.1506 24.9589 15.5222 24.554 15.0039L24.552 15.0029Z" fill="#121212"/>
<path d="M19.802 9.04793H25.838V10.5909H19.802V9.04793Z" fill="#121212"/>
</svg>
