<svg width="32" height="32" viewBox="0 0 32 32" fill="none" xmlns="http://www.w3.org/2000/svg">
<g clip-path="url(#clip0_1752_94451)">
<g clip-path="url(#clip1_1752_94451)">
<rect width="32" height="32" fill="#0057FF"/>
<path fill-rule="evenodd" clip-rule="evenodd" d="M11.4322 8.66657C12.0327 8.65542 12.6323 8.71698 13.2179 8.8499C13.711 8.95755 14.1792 9.15788 14.5975 9.44023C14.9839 9.721 15.2896 10.0985 15.4839 10.5347C15.7073 11.0712 15.815 11.6487 15.8002 12.2297C15.8255 12.8675 15.6626 13.4987 15.3317 14.0446C14.9837 14.5603 14.5025 14.972 13.9393 15.2363C14.7036 15.4424 15.3693 15.9143 15.8167 16.5673C16.2461 17.2592 16.462 18.0624 16.4373 18.8764C16.4514 19.5254 16.3172 20.1691 16.0449 20.7583C15.7932 21.2724 15.4247 21.7203 14.9687 22.0664C14.4994 22.4087 13.9712 22.6619 13.4104 22.8135C12.8289 22.9744 12.2281 23.0552 11.6248 23.0537H5V8.66657H11.4322ZM11.05 14.4856C11.5218 14.505 11.9862 14.3638 12.3672 14.085C12.5498 13.9225 12.6917 13.7196 12.7818 13.4925C12.8719 13.2653 12.9076 13.0203 12.8861 12.7769C12.8983 12.4926 12.8417 12.2096 12.7211 11.9519C12.6188 11.7467 12.4597 11.5752 12.2627 11.4578C12.0633 11.3286 11.8392 11.2421 11.6046 11.2039C11.3501 11.1546 11.091 11.1322 10.8318 11.137H8.00117V14.4984H11.05V14.4856ZM11.215 20.6107C11.5003 20.6146 11.785 20.5838 12.0629 20.5191C12.3169 20.463 12.5577 20.3587 12.7724 20.212C12.9828 20.0653 13.1527 19.8679 13.2665 19.6382C13.3985 19.3451 13.4591 19.025 13.4434 18.7041C13.472 18.4116 13.4333 18.1164 13.3302 17.8412C13.227 17.566 13.0623 17.3181 12.8485 17.1164C12.3954 16.7827 11.8401 16.6173 11.2783 16.6489H8.00117V20.6107H11.215Z" fill="white"/>
<path fill-rule="evenodd" clip-rule="evenodd" d="M20.7117 20.5576C20.9472 20.7759 21.2247 20.9441 21.5273 21.0519C21.8298 21.1596 22.1511 21.2048 22.4717 21.1846C22.9798 21.1974 23.4781 21.0428 23.8897 20.7446C24.2246 20.5268 24.4782 20.2046 24.6112 19.8279H27.0046C26.7496 20.9002 26.1268 21.8493 25.2446 22.5101C24.3982 23.0718 23.398 23.3563 22.3827 23.3241C21.6581 23.3336 20.9389 23.1973 20.268 22.9235C19.661 22.6704 19.1167 22.2878 18.673 21.8024C18.231 21.2938 17.8914 20.7046 17.6729 20.0671C17.4277 19.3546 17.3077 18.605 17.3182 17.8516C17.3137 17.1107 17.4378 16.3747 17.6848 15.6763C18.0168 14.6938 18.6514 13.8416 19.4977 13.2421C20.3441 12.6427 21.3585 12.3267 22.3956 12.3396C23.1612 12.3236 23.9183 12.5028 24.5956 12.8603C25.2078 13.196 25.7359 13.6661 26.1402 14.2353C26.5537 14.8326 26.8502 15.5029 27.0137 16.2107C27.1931 16.9708 27.2571 17.7535 27.2035 18.5326H20.0746C20.0168 19.2646 20.2452 19.9905 20.7117 20.5576ZM23.8393 15.086C23.6398 14.8864 23.3999 14.732 23.1357 14.633C22.8714 14.534 22.5891 14.4928 22.3076 14.5121C21.9341 14.4979 21.5634 14.5806 21.2314 14.7523C20.9682 14.8972 20.7359 15.0921 20.5476 15.3261C20.3806 15.5456 20.2563 15.7943 20.1809 16.0595C20.113 16.2807 20.0706 16.5089 20.0544 16.7396H24.47C24.4315 16.138 24.2124 15.562 23.8412 15.0869L23.8393 15.086Z" fill="white"/>
<path d="M19.4852 9.62722H25.0182V11.0416H19.4852V9.62722Z" fill="white"/>
</g>
</g>
<defs>
<clipPath id="clip0_1752_94451">
<rect width="32" height="32" rx="8" fill="white"/>
</clipPath>
<clipPath id="clip1_1752_94451">
<rect width="32" height="32" fill="white"/>
</clipPath>
</defs>
</svg>
