<svg width="32" height="32" viewBox="0 0 32 32" fill="none" xmlns="http://www.w3.org/2000/svg">
<path d="M26.581 13.1694L25.4871 14.2106L25.4512 14.1825C25.576 13.7084 25.7008 13.2322 25.8278 12.7581C26.1452 11.5783 26.4625 10.4006 26.782 9.22081C26.782 9.21648 26.782 9.21215 26.782 9.20999C26.782 9.15154 26.8116 9.09742 26.8624 9.06928C26.9386 9.05629 26.9365 9.14504 26.964 9.19483C27.1269 9.50223 27.2496 9.82912 27.44 10.1214C27.6199 10.5673 27.8293 11.0111 28.0557 11.4332C28.0832 11.4765 28.1002 11.5263 28.1002 11.5783C28.1002 11.667 28.0557 11.7514 27.9817 11.7991C27.5056 12.2515 27.0444 12.7126 26.581 13.1694Z" fill="#121212"/>
<path d="M26.5832 13.1694C27.0486 12.7126 27.5099 12.2515 27.9817 11.8012C28.0558 11.7536 28.1002 11.6692 28.1002 11.5804C28.1002 11.5284 28.0854 11.4765 28.0558 11.4354C27.8273 11.0132 27.6199 10.5694 27.4401 10.1235L27.7659 9.0043C27.9013 9.27057 28.0135 9.48922 28.1214 9.71002C28.3943 10.2664 28.6609 10.8271 28.9444 11.3791C28.9825 11.4332 29.0015 11.4981 29.0015 11.5652C29.0015 11.6757 28.9465 11.7796 28.8534 11.838C28.079 12.5719 27.3195 13.3231 26.5557 14.0677C26.507 14.1327 26.4414 14.1825 26.3652 14.2085C26.4626 13.8686 26.5366 13.5201 26.5832 13.1694Z" fill="#121212" fill-opacity="0.6"/>
<path fill-rule="evenodd" clip-rule="evenodd" d="M9.42657 11.6345C9.58738 11.7103 9.69105 11.8748 9.69105 12.0545C9.69105 12.1281 9.67412 12.2017 9.64027 12.2667C9.51332 12.6888 9.40965 13.1153 9.29539 13.5417C9.26366 13.9444 8.93359 14.2539 8.54005 14.2539C8.49562 14.2539 8.45118 14.2496 8.40675 14.241C6.65697 14.241 4.90931 14.2431 3.15954 14.2453C3.02201 14.2453 2.97123 14.2323 3.01566 14.0743C3.46633 12.442 3.91065 10.8076 4.35285 9.17318C4.36343 9.07577 4.44383 9 4.53905 9C4.54751 9 4.55809 9 4.56655 9.00216C6.36711 9.00649 8.16978 9.00433 9.97034 9.00866C9.99573 9.00433 10.0211 9 10.0465 9C10.2475 9 10.4083 9.16669 10.4083 9.37018C10.4083 9.42213 10.3977 9.47192 10.3766 9.51955C10.2412 10.0651 10.0931 10.6063 9.9386 11.1475C9.85608 11.3856 9.66566 11.5674 9.42657 11.6345ZM21.0678 21.9757H20.0437L21.4655 16.724H22.4875L21.0678 21.9757ZM12.5664 21.6467C12.5114 21.8545 12.3231 21.9996 12.1137 21.9996H6.84105C6.69717 21.9996 6.58927 21.9498 6.51945 21.8502C6.44962 21.7506 6.4327 21.625 6.47501 21.4778L7.76143 16.737H8.78548L7.6366 20.9713H11.7286L12.8775 16.737H13.8994L12.5664 21.6467ZM20.5367 16.8885C20.4669 16.7889 20.3569 16.7391 20.2088 16.7391H14.587L14.3099 17.7696H19.4238L19.1255 18.8693H15.0335V18.8671H14.0115L13.1631 22.0017H14.185L14.7542 19.8997H19.3518C19.4957 19.8997 19.6311 19.8499 19.7581 19.7503C19.885 19.6508 19.9675 19.5252 20.0078 19.378L20.5769 17.276C20.6192 17.1158 20.6065 16.9881 20.5367 16.8885ZM13.6815 11.115C14.2697 11.115 14.8579 11.1042 15.4461 11.1215C15.4588 11.1215 15.4715 11.1237 15.4841 11.1237C15.6323 11.1237 15.7529 11.0068 15.7634 10.8574C15.901 10.3205 16.0491 9.78582 16.1781 9.24679C16.1824 9.10824 16.2924 9 16.4257 9C16.4447 9 16.4617 9.00216 16.4807 9.00649C16.578 9.01299 16.6753 9.01732 16.7748 9.01732C16.87 9.01732 16.9673 9.01299 17.0625 9.00649C17.2191 8.99784 17.2551 9.04546 17.2106 9.20349C16.9885 10.0088 16.7769 10.8184 16.5611 11.6237C16.3537 12.4009 16.1422 13.178 15.9412 13.9574C15.9369 14.1197 15.8079 14.2496 15.6492 14.2496C15.6259 14.2496 15.6026 14.2474 15.5794 14.241C15.482 14.2323 15.3847 14.228 15.2874 14.228C15.1985 14.228 15.1096 14.2323 15.0208 14.2388C14.8706 14.2453 14.8473 14.1955 14.8875 14.0526C15.0483 13.4898 15.1922 12.9226 15.3508 12.3598C15.3974 12.1952 15.3762 12.1281 15.1858 12.1303C13.9883 12.1389 12.7886 12.1389 11.591 12.1324C11.5784 12.1303 11.5657 12.1303 11.553 12.1303C11.4218 12.1303 11.3139 12.2342 11.3075 12.3684C11.1679 12.9356 11.005 13.4984 10.859 14.0634C10.8505 14.1673 10.7659 14.2453 10.6643 14.2453C10.6516 14.2453 10.6389 14.2431 10.6262 14.241C10.5247 14.2345 10.4189 14.2323 10.3173 14.2323C10.2115 14.2323 10.1057 14.2366 10.0021 14.2431C9.78415 14.2583 9.82011 14.1435 9.8582 14.005C10.0931 13.1326 10.3279 12.258 10.5606 11.3856C10.7574 10.6517 10.9542 9.91787 11.1467 9.18401C11.1531 9.08443 11.2335 9.00649 11.3308 9.00649C11.3393 9.00649 11.3498 9.00649 11.3583 9.00866C11.5805 9.01948 11.8047 9.01948 12.0269 9.00866C12.1814 9.00216 12.1983 9.06061 12.1602 9.19916C12.0015 9.77716 11.8555 10.3595 11.6926 10.9375C11.6482 11.0912 11.6863 11.1215 11.828 11.1193C12.4458 11.1107 13.0637 11.115 13.6815 11.115ZM18.4463 9.02381C18.5203 9.02381 18.5944 9.02381 18.6684 9.02381C18.9647 9.02381 18.9668 9.02381 18.8906 9.30307C18.4759 10.8401 18.0612 12.3792 17.6444 13.9162C17.5513 14.2604 17.5471 14.2604 17.2022 14.2604C17.0393 14.2604 16.8742 14.2561 16.7113 14.2626C16.5653 14.2691 16.5357 14.2193 16.5759 14.0721C16.9716 12.6303 17.3609 11.1864 17.7502 9.74252C17.7988 9.59099 17.839 9.43729 17.8687 9.28142C17.8687 9.27709 17.8687 9.27493 17.8687 9.2706C17.8687 9.12556 17.9829 9.01082 18.1247 9.01082C18.1501 9.01082 18.1776 9.01515 18.2008 9.02381C18.2453 9.02814 18.2918 9.02814 18.3384 9.02814C18.3722 9.02598 18.4103 9.02598 18.4463 9.02381ZM24.1759 11.8337C24.0045 11.9896 23.8331 12.1411 23.666 12.2991C23.0249 12.9009 22.388 13.5071 21.7491 14.1132C21.6433 14.215 21.5883 14.2323 21.5057 14.0829C21.0339 13.2365 20.5536 12.3966 20.0755 11.5545C20.0606 11.5328 20.0416 11.5112 20.0226 11.4938C19.9506 11.5869 19.9041 11.7017 19.8935 11.8207C19.6925 12.5524 19.4978 13.2863 19.3074 14.0223C19.3032 14.1479 19.2037 14.2453 19.081 14.2453C19.0662 14.2453 19.0514 14.2431 19.0366 14.241C18.8229 14.2236 18.605 14.2345 18.3892 14.2388C18.2897 14.241 18.2347 14.2258 18.2707 14.0959C18.7192 12.4398 19.1657 10.7816 19.61 9.12339C19.6206 9.10607 19.6333 9.08876 19.6481 9.0736C19.7348 9.1537 19.8046 9.25112 19.8533 9.35935C20.4584 10.3898 21.0614 11.4202 21.6644 12.4528C21.7998 12.6845 21.7956 12.6801 21.9987 12.5026C23.0905 11.5501 24.1822 10.5976 25.2782 9.64944C25.4983 9.45894 25.7162 9.26627 25.9553 9.05845C25.9595 9.08443 25.9616 9.11257 25.9616 9.14071C25.9616 9.22514 25.9405 9.30956 25.9024 9.38317C25.4877 10.9397 25.0667 12.494 24.6541 14.0483C24.6477 14.1587 24.5567 14.2453 24.4488 14.2453C24.4361 14.2453 24.4235 14.2431 24.4129 14.241C24.3071 14.2345 24.1992 14.2323 24.0934 14.2323C23.9918 14.2323 23.8882 14.2345 23.7866 14.241C23.6089 14.2518 23.5941 14.1847 23.6385 14.0266C23.8268 13.3469 24.0066 12.6628 24.1886 11.9809C24.1992 11.9614 24.2055 11.9398 24.2055 11.9181C24.2055 11.8857 24.1949 11.8554 24.1759 11.8337ZM5.33882 10.0304C6.47925 10.0456 7.61544 10.0283 8.75374 10.0283C8.95475 10.0283 9.11766 10.195 9.11766 10.4006C9.11766 10.4526 9.10709 10.5045 9.08593 10.5543C9.0288 10.879 8.75163 11.1172 8.42791 11.1172C7.3023 11.115 6.17457 11.115 5.04684 11.1215C4.86065 11.1215 4.8543 11.0457 4.90085 10.8985C4.9749 10.682 5.03626 10.4634 5.08281 10.2404C5.08493 10.1214 5.18014 10.0283 5.29651 10.0283C5.31132 10.0261 5.32401 10.0283 5.33882 10.0304ZM4.71677 12.1324C5.84873 12.1324 6.98281 12.1346 8.11688 12.1389C8.50619 12.1411 8.66065 12.507 8.43214 12.8836C8.30942 13.0958 8.08726 13.2257 7.84606 13.2257C6.73526 13.2257 5.62657 13.2127 4.51577 13.2278C4.34439 13.23 4.26399 13.2062 4.33381 13.0027C4.4121 12.7732 4.46711 12.5351 4.52423 12.3013C4.53905 12.2039 4.62156 12.1324 4.71677 12.1324Z" fill="#121212"/>
<path fill-rule="evenodd" clip-rule="evenodd" d="M24.2563 16.7326L25.5491 19.365L22.8281 21.9974L23.1518 20.8046L24.6393 19.365L23.9326 17.9254L24.2563 16.7326Z" fill="#121212" fill-opacity="0.6"/>
<path fill-rule="evenodd" clip-rule="evenodd" d="M23.3461 16.7326L24.6389 19.365L21.918 21.9974L23.3461 16.7326Z" fill="#121212"/>
</svg>
