<svg width="32" height="32" viewBox="0 0 32 32" fill="none" xmlns="http://www.w3.org/2000/svg">
<path d="M10.4589 13.8403L15.9441 8.45022L21.3367 13.9378L24.5283 10.8016L15.9995 2.12247L7.32295 10.6485L10.459 13.84L10.4589 13.8403ZM1.87753 15.9995L5.06921 12.8627L8.2053 16.0541L5.01363 19.1905L1.87753 15.9995ZM10.4198 18.3088L15.8099 23.7936L21.2976 18.4014L24.4354 21.5913L24.4339 21.5929L15.7545 30.1214L7.2285 21.4449L7.22406 21.4404L10.4202 18.3085L10.4198 18.3088ZM23.5487 16.1904L26.7404 13.0541L29.8765 16.2455L26.6849 19.3818L23.5487 16.1904Z" fill="#121212"/>
<path d="M19.0845 16.1465L19.0858 16.1465L15.9036 12.908L13.51 15.2594L13.235 15.5297L12.6678 16.0872L12.6633 16.0915L12.6678 16.0961L15.8474 19.3322L19.086 16.1499L19.0876 16.1481L19.0847 16.1465" fill="#121212"/>
</svg>
