<svg width="32" height="32" viewBox="0 0 32 32" fill="none" xmlns="http://www.w3.org/2000/svg">
<path d="M10.4589 13.8409L15.9441 8.4508L21.3367 13.9384L24.5283 10.8022L15.9995 2.12305L7.32298 10.6491L10.4589 13.8409ZM1.87756 16.0001L5.06924 12.8633L8.20533 16.0547L5.01366 19.1911L1.87756 16.0001ZM10.4198 18.3094L15.8099 23.7942L21.2976 18.402L24.4354 21.5919L24.4339 21.5935L15.7545 30.122L7.22853 21.4455L7.22409 21.441L10.4198 18.3094ZM23.5487 16.191L26.7404 13.0547L29.8765 16.2461L26.6849 19.3824L23.5487 16.191Z" fill="white"/>
<path d="M19.0845 16.1467H19.0858L15.9036 12.9082L13.51 15.2596L13.235 15.5299L12.6678 16.0874L12.6633 16.0917L12.6678 16.0963L15.8474 19.3324L19.086 16.1501L19.0876 16.1483L19.0845 16.1467Z" fill="white"/>
</svg>
