<svg width="32" height="32" viewBox="0 0 32 32" fill="none" xmlns="http://www.w3.org/2000/svg">
<rect width="32" height="32" rx="8" fill="white"/>
<path d="M10.8547 13.9945L15.9481 8.98949L20.9555 14.0851L23.9191 11.1729L15.9995 3.11372L7.94274 11.0307L10.8548 13.9943L10.8547 13.9945ZM2.88628 15.9995L5.84998 13.0868L8.76206 16.0503L5.79837 18.9626L2.88628 15.9995ZM10.8184 18.1439L15.8235 23.2369L20.9192 18.2298L23.8329 21.1919L23.8314 21.1934L15.7721 29.1127L7.85504 21.056L7.85092 21.0518L10.8187 18.1436L10.8184 18.1439ZM23.0095 16.1768L25.9732 13.2645L28.8853 16.228L25.9217 19.1403L23.0095 16.1768Z" fill="#F3BA2F"/>
<path d="M18.8642 16.1361L18.8654 16.1361L15.9105 13.1289L13.6878 15.3124L13.4325 15.5634L12.9058 16.081L12.9016 16.085L12.9058 16.0893L15.8583 19.0943L18.8656 16.1392L18.8671 16.1376L18.8644 16.1361" fill="#F3BA2F"/>
</svg>
