<svg width="32" height="32" viewBox="0 0 32 32" fill="none" xmlns="http://www.w3.org/2000/svg">
<rect width="32" height="32" rx="8" fill="#F7931A"/>
<path d="M24.5765 13.8442C24.9222 11.5325 23.1622 10.2899 20.7556 9.46095L21.5363 6.32956L19.6302 5.85459L18.8702 8.90353C18.3691 8.77855 17.8544 8.66078 17.3429 8.54403L18.1085 5.47497L16.2035 5L15.4223 8.13036C15.0077 8.03595 14.6004 7.94263 14.2052 7.84431L14.2074 7.83446L11.5788 7.17804L11.0717 9.21395C11.0717 9.21395 12.4859 9.53813 12.4561 9.55808C13.228 9.75073 13.3676 10.2617 13.3444 10.6667L12.4551 14.2341C12.5082 14.2476 12.5772 14.2671 12.6533 14.2977C12.5897 14.2819 12.522 14.2647 12.4518 14.2479L11.2053 19.2452C11.1109 19.4798 10.8715 19.8317 10.3318 19.6981C10.3509 19.7257 8.94638 19.3523 8.94638 19.3523L8 21.5343L10.4806 22.1526C10.942 22.2684 11.3943 22.3894 11.8396 22.5033L11.0508 25.6706L12.9548 26.1456L13.7359 23.0119C14.2561 23.1531 14.7608 23.2834 15.255 23.4061L14.4765 26.525L16.3827 27L17.1714 23.8386C20.4219 24.4538 22.8659 24.2058 23.8947 21.2658C24.7236 18.8987 23.8534 17.5334 22.1434 16.6431C23.3889 16.3558 24.327 15.5367 24.5771 13.8445L24.5765 13.844L24.5765 13.8442ZM20.2213 19.9512C19.6322 22.3183 15.6468 21.0387 14.3547 20.7179L15.4015 16.5218C16.6935 16.8443 20.837 17.4827 20.2214 19.9512H20.2213ZM20.8108 13.8099C20.2734 15.963 16.9564 14.8691 15.8803 14.6009L16.8293 10.7953C17.9054 11.0635 21.3706 11.5641 20.811 13.8099H20.8108Z" fill="white"/>
</svg>
