<svg width="32" height="32" viewBox="0 0 32 32" fill="none" xmlns="http://www.w3.org/2000/svg">
<path d="M26.0973 13.2563C26.5373 10.3141 24.2974 8.7326 21.2344 7.67757L22.2281 3.69217L19.802 3.08766L18.8348 6.96813C18.197 6.80906 17.542 6.65917 16.891 6.51059L17.8653 2.60451L15.4408 2L14.4466 5.9841C13.9188 5.86393 13.4005 5.74517 12.8975 5.62003L12.9003 5.6075L9.55478 4.77205L8.90943 7.36321C8.90943 7.36321 10.7093 7.7758 10.6714 7.80119C11.6538 8.04639 11.8315 8.69672 11.802 9.21218L10.6701 13.7525C10.7378 13.7697 10.8255 13.7945 10.9223 13.8334C10.8414 13.8133 10.7553 13.7914 10.6659 13.77L9.07941 20.1303C8.95935 20.4288 8.65461 20.8767 7.96776 20.7066C7.99207 20.7418 6.20448 20.2666 6.20448 20.2666L5 23.0436L8.15709 23.8306C8.74441 23.9779 9.31996 24.132 9.88676 24.2769L8.88284 28.308L11.3061 28.9126L12.3003 24.9242C12.9623 25.104 13.6047 25.2697 14.2336 25.426L13.2428 29.3955L15.6689 30L16.6727 25.9765C20.8096 26.7594 23.9203 26.4437 25.2296 22.7019C26.2846 19.6893 25.177 17.9516 23.0006 16.8185C24.5858 16.4529 25.7798 15.4103 26.0982 13.2566L26.0974 13.256L26.0973 13.2563ZM20.5544 21.0289C19.8046 24.0415 14.7323 22.4129 13.0878 22.0046L14.42 16.6641C16.0644 17.0746 21.338 17.887 20.5545 21.0289H20.5544ZM21.3047 13.2126C20.6207 15.9529 16.399 14.5607 15.0295 14.2193L16.2373 9.37579C17.6068 9.71717 22.0171 10.3543 21.3049 13.2126H21.3047Z" fill="white"/>
</svg>
