<svg width="32" height="32" viewBox="0 0 32 32" fill="none" xmlns="http://www.w3.org/2000/svg">
<rect width="32" height="32" rx="8" fill="#FF561C"/>
<path d="M6.1718 11.4408C6.21636 11.153 6.25906 10.8649 6.30639 10.5776C6.32626 10.4569 6.35592 10.3379 6.38028 10.2103C6.39666 10.1321 6.41389 10.0616 6.43553 9.97792C6.43808 9.95639 6.43621 9.94809 6.43435 9.93979C6.45358 9.86473 6.47281 9.78967 6.49823 9.70427C6.50588 9.68208 6.50733 9.67023 6.50879 9.65838C6.54562 9.56202 6.58245 9.46566 6.62126 9.35857C6.62323 9.34785 6.62104 9.33971 6.62104 9.33971C6.70317 9.16368 6.7853 8.98765 6.87294 8.80239C6.8816 8.78394 6.88475 8.77471 6.8879 8.76549C7.1259 8.36307 7.40847 7.99631 7.75213 7.67754C8.01699 7.43186 8.30146 7.21451 8.6083 7.02176C9.35524 6.55254 10.1662 6.2516 11.0358 6.06333C11.0544 6.05808 11.0614 6.05632 11.0685 6.05455C11.0717 6.05503 11.075 6.0555 11.091 6.05583C11.2799 6.04325 11.4561 6.03081 11.6411 6.01956C11.9494 6.01359 12.2491 6.00643 12.5577 6C12.8856 6.00087 13.2046 6.00125 13.5235 6.00109C14.127 6.0008 14.7305 6.0002 15.3408 6.00183C15.7709 6.00984 16.1942 6.01575 16.6273 6.02566C16.9985 6.06366 17.3607 6.09112 17.7212 6.13349C18.0791 6.17557 18.4229 6.27424 18.7226 6.48181C18.9737 6.6557 19.2137 6.84559 19.4625 7.03321C19.9216 7.44045 20.3513 7.86835 20.7523 8.33122C20.7642 8.3471 20.7756 8.35719 20.789 8.37228C20.802 8.38639 20.8129 8.3955 20.8257 8.4092C20.8334 8.4162 20.8392 8.4186 20.8452 8.42042C20.8454 8.41984 20.8442 8.4201 20.8444 8.42495C20.8494 8.43375 20.8541 8.4377 20.8598 8.44595C20.8608 8.45025 20.8658 8.45758 20.8659 8.46259C20.8715 8.47137 20.8769 8.47513 20.8824 8.47785C20.8826 8.47679 20.8805 8.47645 20.8821 8.4816C20.8894 8.49074 20.8952 8.49472 20.9008 8.49807C20.9006 8.49743 20.8996 8.49828 20.9022 8.50396C21.0214 8.65829 21.1392 8.80603 21.2543 8.95578C21.5014 9.27712 21.6394 9.6489 21.7477 10.0408C21.7569 10.0802 21.7717 10.1118 21.7769 10.1449C21.8419 10.5538 21.9194 10.9614 21.9655 11.3725C22.0148 11.8121 22.0336 12.2552 22.0668 12.6966C22.0774 12.8374 22.0932 12.9773 22.2132 13.0842C22.3338 13.2137 22.4704 13.3105 22.6381 13.3749C22.9588 13.3817 23.2716 13.387 23.5924 13.3934C23.6219 13.3945 23.6434 13.3943 23.6717 13.3961C24.0339 13.402 24.3893 13.4059 24.7517 13.4114C24.7682 13.4125 24.7777 13.412 24.7938 13.4142C24.8644 13.4332 24.9284 13.4496 24.9949 13.4684C24.9973 13.4708 25.0042 13.4704 25.0077 13.4758C25.0237 13.484 25.0362 13.4868 25.0479 13.4892C25.0471 13.4887 25.0462 13.4904 25.0495 13.496C25.2911 13.6287 25.4254 13.8308 25.478 14.0919C25.4738 14.223 25.4658 14.3541 25.4659 14.4852C25.4669 16.3772 25.4695 18.2692 25.4705 20.1612C25.4707 20.6128 25.4468 21.0624 25.2755 21.488C25.1544 21.7889 25.0276 22.0879 24.893 22.3831C24.5621 23.1085 24.1325 23.7669 23.5545 24.3228C22.9236 24.9295 22.2105 25.4093 21.3955 25.7338C21.1179 25.8444 20.8228 25.8697 20.531 25.8818C19.4972 25.9247 18.4631 25.9662 17.4287 25.984C16.3344 26.0028 15.2397 25.994 14.128 25.9969C13.8304 25.9945 13.5501 25.9906 13.2698 25.9909C12.999 25.9911 12.7282 25.9957 12.4497 25.9964C12.4163 25.9963 12.3905 25.9981 12.3563 25.9978C12.2845 25.9974 12.2211 25.9991 12.1491 25.9988C11.8119 25.9984 11.4833 26.0001 11.1482 26C11.0121 25.9944 10.8825 25.9907 10.7448 25.9852C10.3549 25.9749 10.0002 25.8785 9.69186 25.646C9.48055 25.4867 9.27519 25.3194 9.06566 25.1551C9.06416 25.1545 9.06285 25.1575 9.06278 25.1517C9.05612 25.143 9.04953 25.1403 9.04291 25.1381C9.04289 25.1388 9.04414 25.1385 9.04415 25.1327C9.03751 25.1242 9.03085 25.1214 9.02414 25.1193C9.0241 25.12 9.02536 25.1198 9.02521 25.1141C9.01851 25.1055 9.01197 25.1028 9.00533 25.1007C9.00525 25.1013 9.00645 25.101 9.00584 25.0956C8.99904 25.0873 8.99283 25.0845 8.98648 25.0821C8.98634 25.0827 8.98747 25.0824 8.9869 25.0771C8.9802 25.0687 8.97408 25.0657 8.96781 25.0633C8.96766 25.0639 8.96881 25.0636 8.96843 25.0581C8.96176 25.0498 8.95548 25.0469 8.94899 25.0446C8.9488 25.0452 8.94993 25.0448 8.94908 25.0395C8.94231 25.0313 8.93638 25.0283 8.93021 25.0259C8.92997 25.0264 8.93107 25.026 8.93026 25.0208C8.92351 25.0126 8.91757 25.0096 8.91144 25.0071C8.91125 25.0077 8.91235 25.0073 8.91179 25.0019C8.90512 24.9936 8.89901 24.9906 8.89275 24.9882C8.89261 24.9888 8.89379 24.9885 8.89342 24.9829C8.88673 24.9745 8.88041 24.9716 8.87397 24.9694C8.87384 24.97 8.87504 24.9697 8.87439 24.9643C8.86759 24.956 8.86143 24.953 8.85515 24.9507C8.85503 24.9513 8.85621 24.9511 8.8558 24.9455C8.84914 24.9371 8.84289 24.9341 8.83652 24.9318C8.8364 24.9324 8.83762 24.9322 8.83762 24.9264C8.83102 24.9178 8.8244 24.9151 8.81774 24.9129C8.81768 24.9136 8.81895 24.9135 8.81882 24.9077C8.81219 24.8991 8.80569 24.8962 8.79905 24.894C8.79892 24.8947 8.80022 24.8949 8.80025 24.8889C8.79422 24.878 8.78816 24.8731 8.77812 24.8638C8.59982 24.6623 8.4225 24.4678 8.25212 24.2675C8.1121 24.1028 7.98032 23.9311 7.84398 23.7585C7.84306 23.7544 7.83625 23.7496 7.83446 23.7445C7.81797 23.7238 7.80326 23.7082 7.78793 23.6924C7.78731 23.6921 7.78671 23.6933 7.78614 23.6871C7.76751 23.66 7.74944 23.6389 7.73089 23.6177C7.73041 23.6175 7.7302 23.6185 7.72979 23.613C7.72321 23.6045 7.71703 23.6015 7.71226 23.5987C7.71367 23.5989 7.71404 23.5961 7.71326 23.5903C7.69965 23.5707 7.68683 23.557 7.67359 23.5432C7.67318 23.5431 7.67376 23.5436 7.67355 23.5382C7.66813 23.5283 7.66292 23.5238 7.6541 23.5142C7.49233 23.288 7.329 23.0703 7.17749 22.8447C7.0303 22.6255 6.89522 22.3981 6.75372 22.1677C6.52034 21.7711 6.33676 21.3605 6.25637 20.9116C6.19433 20.5652 6.14852 20.216 6.09655 19.8596C6.06516 19.3242 6.03272 18.7971 6.00202 18.2635C6.00206 18.024 6.00037 17.791 6.00049 17.5493C6.00113 17.2151 5.99996 16.8896 6 16.5552C6.0008 16.3083 6.00039 16.07 6.00127 15.8231C6.00269 15.6881 6.00282 15.5617 6.00481 15.4281C6.0113 14.833 6.01593 14.2452 6.02207 13.649C6.02382 13.5898 6.02405 13.539 6.02734 13.4812C6.03319 13.3588 6.03597 13.2435 6.04075 13.1202C6.05498 12.8923 6.06723 12.6725 6.0814 12.4443C6.09777 12.2657 6.11171 12.0955 6.12683 11.9253C6.14118 11.7637 6.15676 11.6023 6.1718 11.4408ZM16.0256 18.2159C15.5175 18.2161 15.0093 18.2162 14.4841 18.2131C13.7433 18.2082 13.0024 18.2081 12.2617 18.1946C12.1065 18.1918 11.9966 18.2471 11.9033 18.3543C11.8462 18.4198 11.7927 18.4907 11.7499 18.5661C11.3851 19.2094 11.6024 19.9908 12.063 20.4411C12.1106 20.4875 12.1582 20.5091 12.2271 20.5092C14.656 20.5133 17.0849 20.5151 19.5136 20.5326C19.7662 20.5345 19.9112 20.4407 20.0219 20.2411C20.0461 20.1974 20.0723 20.1547 20.0943 20.1099C20.2936 19.7027 20.2925 19.2746 20.2006 18.8462C20.1409 18.5683 19.9528 18.3766 19.6869 18.2418C19.1154 18.2388 18.5439 18.2357 17.9581 18.2292C17.6997 18.2263 17.4412 18.2223 17.1828 18.2209C16.8031 18.2188 16.4233 18.2185 16.0256 18.2159ZM12.9764 11.2613C12.6762 11.259 12.3761 11.2561 12.0759 11.255C12.0495 11.2549 12.023 11.266 11.9845 11.2776C11.4694 11.6472 11.3918 12.0763 11.5065 12.6189C11.5607 12.8753 11.7268 13.0696 11.9639 13.218C11.9943 13.2217 12.0248 13.2287 12.0552 13.2287C13.4358 13.2279 14.8163 13.2266 16.1969 13.2242C16.2324 13.2242 16.268 13.2123 16.3165 13.2037C16.8726 12.9037 17.1473 11.7925 16.3301 11.2957C16.2942 11.2892 16.2584 11.2775 16.2224 11.2772C15.8103 11.2738 15.3982 11.2716 14.9861 11.2704C14.3212 11.2684 13.6563 11.2673 12.9764 11.2613Z" fill="white"/>
</svg>
