<svg width="32" height="32" viewBox="0 0 32 32" fill="none" xmlns="http://www.w3.org/2000/svg">
<path d="M20.8293 19.8626C19.9872 20.5948 18.9395 21.5059 17.031 21.5059H15.8917C14.5126 21.5059 13.2583 21.015 12.361 20.1234C11.4847 19.2523 11.0007 18.0611 11.0007 16.7675V15.2376C11.0007 13.944 11.4835 12.7517 12.361 11.8817C13.2589 10.99 14.5126 10.4992 15.8917 10.4992H17.031C18.939 10.4992 19.9872 11.4102 20.8293 12.1425C21.7027 12.902 22.4571 13.5579 24.467 13.5579C24.779 13.5579 25.0854 13.5334 25.3832 13.4862C25.3809 13.4799 25.3786 13.4748 25.3763 13.4691C25.2568 13.1787 25.1161 12.8929 24.9539 12.6173L23.6101 10.3341C22.3774 8.23881 20.0982 6.94861 17.6328 6.94861H14.9448C12.4794 6.94861 10.2002 8.23938 8.96747 10.3341L7.62374 12.6173C6.39104 14.7126 6.39104 17.293 7.62374 19.3878L8.96747 21.671C10.2002 23.7663 12.4794 25.0559 14.9448 25.0559H17.6328C20.0982 25.0559 22.3774 23.7651 23.6101 21.671L24.9539 19.3878C25.1161 19.1116 25.2568 18.8269 25.3763 18.5366C25.3786 18.5303 25.3809 18.5252 25.3832 18.5195C25.0854 18.4722 24.7802 18.4477 24.467 18.4477C22.4577 18.4472 21.7027 19.1031 20.8293 19.8626Z" fill="#3664AE"/>
<path d="M17.0337 11.8846H15.8943C13.7956 11.8846 12.416 13.3553 12.416 15.2377V16.7676C12.416 18.65 13.795 20.1207 15.8943 20.1207H17.0337C20.0918 20.1207 19.8515 17.062 24.4691 17.062C24.9115 17.062 25.3488 17.1018 25.7742 17.1793C25.9142 16.4015 25.9142 15.6055 25.7742 14.8272C25.3483 14.9046 24.9115 14.9445 24.4691 14.9445C19.8515 14.9439 20.0918 11.8846 17.0337 11.8846Z" fill="#3664AE"/>
<path d="M28.4249 18.2957C27.6363 17.7252 26.7316 17.3528 25.7722 17.1775C25.7705 17.1849 25.7699 17.1923 25.7682 17.1997C25.6862 17.6478 25.5581 18.089 25.3827 18.5172C26.1924 18.6459 26.9383 18.9442 27.576 19.4026C27.5737 19.4094 27.572 19.4163 27.5697 19.4237C27.2019 20.5949 26.6473 21.6989 25.9225 22.7033C25.2062 23.6951 24.3402 24.5685 23.3478 25.2979C21.2878 26.8136 18.8344 27.6141 16.2517 27.6141C14.6529 27.6141 13.1024 27.3072 11.6431 26.702C10.2339 26.1172 8.96763 25.2797 7.87899 24.2121C6.79091 23.1445 5.93741 21.9027 5.34128 20.5197C4.72464 19.0883 4.41148 17.5675 4.41148 15.9989C4.41148 14.4302 4.72464 12.9094 5.34128 11.478C5.93741 10.0956 6.79091 8.85319 7.87899 7.78561C8.96706 6.71803 10.2334 5.88104 11.6431 5.29573C13.1019 4.69048 14.6523 4.38358 16.2517 4.38358C18.8344 4.38358 21.2878 5.18413 23.3478 6.69981C24.3402 7.42975 25.2057 8.3026 25.9225 9.29445C26.6473 10.2994 27.2019 11.4034 27.5697 12.5741C27.572 12.5815 27.5743 12.5883 27.576 12.5951C26.9389 13.0529 26.1924 13.3524 25.3827 13.4805C25.5581 13.9093 25.6868 14.3517 25.7682 14.7998C25.7699 14.8072 25.7705 14.814 25.7722 14.8214C26.7316 14.646 27.6358 14.2737 28.4249 13.7031C29.1811 13.1543 29.0347 12.5342 28.9197 12.1664C27.2532 6.85923 22.2125 3 16.2522 3C8.9329 3 3 8.82017 3 16C3 23.1798 8.93347 29 16.2522 29C22.2125 29 27.2532 25.1402 28.9197 19.8302C29.0353 19.4647 29.1822 18.8452 28.4249 18.2957Z" fill="#3664AE"/>
<path d="M25.3844 13.4845C25.0866 13.5318 24.7814 13.5562 24.4683 13.5562C22.4589 13.5562 21.7039 12.9003 20.8305 12.1408C19.9884 11.4086 18.9408 10.4976 17.0322 10.4976H15.8929C14.5139 10.4976 13.2595 10.9884 12.3622 11.88C11.4859 12.7511 11.002 13.9423 11.002 15.2359V16.7658C11.002 18.0594 11.4848 19.2517 12.3622 20.1217C13.2601 21.0134 14.5139 21.5042 15.8929 21.5042H17.0322C18.9402 21.5042 19.9884 20.5926 20.8305 19.861C21.7039 19.1014 22.4584 18.4455 24.4683 18.4455C24.7803 18.4455 25.0866 18.47 25.3844 18.5172C25.5598 18.0891 25.6873 17.6472 25.7699 17.1997C25.7716 17.1923 25.7721 17.1849 25.7739 17.1775C25.348 17.1 24.9112 17.0602 24.4688 17.0602C19.8512 17.0602 20.0915 20.1189 17.0334 20.1189H15.894C13.7953 20.1189 12.4157 18.6482 12.4157 16.7658V15.2359C12.4157 13.3535 13.7947 11.8829 15.894 11.8829H17.0334C20.0915 11.8829 19.8518 14.9415 24.4688 14.9415C24.9112 14.9415 25.3485 14.9017 25.7739 14.8242C25.7721 14.8168 25.7716 14.81 25.7699 14.8026C25.6884 14.3557 25.5598 13.9138 25.3844 13.4845Z" fill="#5FC2D6"/>
<path d="M25.3844 13.4845C25.0866 13.5318 24.7814 13.5562 24.4683 13.5562C22.4589 13.5562 21.7039 12.9003 20.8305 12.1408C19.9884 11.4086 18.9408 10.4976 17.0322 10.4976H15.8929C14.5139 10.4976 13.2595 10.9884 12.3622 11.88C11.4859 12.7511 11.002 13.9423 11.002 15.2359V16.7658C11.002 18.0594 11.4848 19.2517 12.3622 20.1217C13.2601 21.0134 14.5139 21.5042 15.8929 21.5042H17.0322C18.9402 21.5042 19.9884 20.5926 20.8305 19.861C21.7039 19.1014 22.4584 18.4455 24.4683 18.4455C24.7803 18.4455 25.0866 18.47 25.3844 18.5172C25.5598 18.0891 25.6873 17.6472 25.7699 17.1997C25.7716 17.1923 25.7721 17.1849 25.7739 17.1775C25.348 17.1 24.9112 17.0602 24.4688 17.0602C19.8512 17.0602 20.0915 20.1189 17.0334 20.1189H15.894C13.7953 20.1189 12.4157 18.6482 12.4157 16.7658V15.2359C12.4157 13.3535 13.7947 11.8829 15.894 11.8829H17.0334C20.0915 11.8829 19.8518 14.9415 24.4688 14.9415C24.9112 14.9415 25.3485 14.9017 25.7739 14.8242C25.7721 14.8168 25.7716 14.81 25.7699 14.8026C25.6884 14.3557 25.5598 13.9138 25.3844 13.4845Z" fill="#5FC2D6"/>
</svg>
