<svg width="32" height="32" viewBox="0 0 32 32" fill="none" xmlns="http://www.w3.org/2000/svg">
<path d="M20.8293 19.8626C19.9872 20.5948 18.9395 21.5059 17.031 21.5059H15.8917C14.5126 21.5059 13.2583 21.015 12.361 20.1234C11.4847 19.2523 11.0007 18.0611 11.0007 16.7675V15.2376C11.0007 13.944 11.4835 12.7517 12.361 11.8817C13.2589 10.99 14.5126 10.4992 15.8917 10.4992H17.031C18.939 10.4992 19.9872 11.4102 20.8293 12.1425C21.7027 12.902 22.4571 13.5579 24.467 13.5579C24.779 13.5579 25.0854 13.5334 25.3832 13.4862C25.3809 13.4799 25.3786 13.4748 25.3763 13.4691C25.2568 13.1787 25.1161 12.8929 24.9538 12.6173L23.6101 10.3341C22.3774 8.23881 20.0982 6.94861 17.6328 6.94861H14.9448C12.4794 6.94861 10.2002 8.23938 8.96747 10.3341L7.62374 12.6173C6.39104 14.7126 6.39104 17.293 7.62374 19.3878L8.96747 21.671C10.2002 23.7663 12.4794 25.0559 14.9448 25.0559H17.6328C20.0982 25.0559 22.3774 23.7651 23.6101 21.671L24.9538 19.3878C25.1161 19.1116 25.2568 18.8269 25.3763 18.5366C25.3786 18.5303 25.3809 18.5252 25.3832 18.5195C25.0854 18.4722 24.7802 18.4477 24.467 18.4477C22.4577 18.4472 21.7027 19.1031 20.8293 19.8626Z" fill="#121212"/>
<path d="M17.0317 11.8845H15.8924C13.7937 11.8845 12.4141 13.3552 12.4141 15.2376V16.7675C12.4141 18.6499 13.7931 20.1205 15.8924 20.1205H17.0317C20.0898 20.1205 19.8495 17.0619 24.4672 17.0619C24.9096 17.0619 25.3469 17.1017 25.7722 17.1792C25.9123 16.4014 25.9123 15.6054 25.7722 14.8271C25.3463 14.9045 24.9096 14.9443 24.4672 14.9443C19.8495 14.9438 20.0898 11.8845 17.0317 11.8845Z" fill="#121212"/>
<path d="M28.4249 18.2957C27.6363 17.7252 26.7316 17.3528 25.7722 17.1775C25.7705 17.1849 25.7699 17.1923 25.7682 17.1997C25.6862 17.6478 25.5581 18.089 25.3827 18.5172C26.1924 18.6459 26.9383 18.9442 27.576 19.4026C27.5737 19.4094 27.572 19.4163 27.5697 19.4237C27.2019 20.5949 26.6473 21.6989 25.9225 22.7033C25.2062 23.6951 24.3402 24.5685 23.3478 25.2979C21.2878 26.8136 18.8344 27.6141 16.2517 27.6141C14.6529 27.6141 13.1024 27.3072 11.6431 26.702C10.2339 26.1172 8.96763 25.2797 7.87899 24.2121C6.79091 23.1445 5.93741 21.9027 5.34128 20.5197C4.72464 19.0883 4.41148 17.5675 4.41148 15.9989C4.41148 14.4302 4.72464 12.9094 5.34128 11.478C5.93741 10.0956 6.79091 8.85319 7.87899 7.78561C8.96706 6.71803 10.2334 5.88104 11.6431 5.29573C13.1019 4.69048 14.6523 4.38358 16.2517 4.38358C18.8344 4.38358 21.2878 5.18413 23.3478 6.69981C24.3402 7.42975 25.2057 8.3026 25.9225 9.29445C26.6473 10.2994 27.2019 11.4034 27.5697 12.5741C27.572 12.5815 27.5743 12.5883 27.576 12.5951C26.9389 13.0529 26.1924 13.3524 25.3827 13.4805C25.5581 13.9093 25.6868 14.3517 25.7682 14.7998C25.7699 14.8072 25.7705 14.814 25.7722 14.8214C26.7316 14.646 27.6358 14.2737 28.4249 13.7031C29.1811 13.1543 29.0347 12.5342 28.9197 12.1664C27.2531 6.85923 22.2125 3 16.2522 3C8.9329 3 3 8.82017 3 16C3 23.1798 8.93347 29 16.2522 29C22.2125 29 27.2531 25.1402 28.9197 19.8302C29.0353 19.4647 29.1822 18.8452 28.4249 18.2957Z" fill="#121212"/>
<path d="M25.3864 13.4844C25.0886 13.5316 24.7834 13.5561 24.4702 13.5561C22.4609 13.5561 21.7059 12.9002 20.8325 12.1407C19.9904 11.4084 18.9427 10.4974 17.0342 10.4974H15.8948C14.5158 10.4974 13.2615 10.9882 12.3641 11.8799C11.4879 12.751 11.0039 13.9422 11.0039 15.2358V16.7657C11.0039 18.0593 11.4867 19.2516 12.3641 20.1216C13.2621 21.0132 14.5158 21.504 15.8948 21.504H17.0342C18.9421 21.504 19.9904 20.5925 20.8325 19.8608C21.7059 19.1013 22.4603 18.4454 24.4702 18.4454C24.7822 18.4454 25.0886 18.4698 25.3864 18.5171C25.5617 18.0889 25.6893 17.6471 25.7718 17.1996C25.7735 17.1922 25.7741 17.1848 25.7758 17.1774C25.3499 17.0999 24.9132 17.0601 24.4708 17.0601C19.8532 17.0601 20.0934 20.1188 17.0353 20.1188H15.896C13.7973 20.1188 12.4177 18.6481 12.4177 16.7657V15.2358C12.4177 13.3534 13.7967 11.8827 15.896 11.8827H17.0353C20.0934 11.8827 19.8537 14.9414 24.4708 14.9414C24.9132 14.9414 25.3505 14.9016 25.7758 14.8241C25.7741 14.8167 25.7735 14.8099 25.7718 14.8025C25.6904 14.3555 25.5617 13.9137 25.3864 13.4844Z" fill="white"/>
<path d="M25.3864 13.4844C25.0886 13.5316 24.7834 13.5561 24.4702 13.5561C22.4609 13.5561 21.7059 12.9002 20.8325 12.1407C19.9904 11.4084 18.9427 10.4974 17.0342 10.4974H15.8948C14.5158 10.4974 13.2615 10.9882 12.3641 11.8799C11.4879 12.751 11.0039 13.9422 11.0039 15.2358V16.7657C11.0039 18.0593 11.4867 19.2516 12.3641 20.1216C13.2621 21.0132 14.5158 21.504 15.8948 21.504H17.0342C18.9421 21.504 19.9904 20.5925 20.8325 19.8608C21.7059 19.1013 22.4603 18.4454 24.4702 18.4454C24.7822 18.4454 25.0886 18.4698 25.3864 18.5171C25.5617 18.0889 25.6893 17.6471 25.7718 17.1996C25.7735 17.1922 25.7741 17.1848 25.7758 17.1774C25.3499 17.0999 24.9132 17.0601 24.4708 17.0601C19.8532 17.0601 20.0934 20.1188 17.0353 20.1188H15.896C13.7973 20.1188 12.4177 18.6481 12.4177 16.7657V15.2358C12.4177 13.3534 13.7967 11.8827 15.896 11.8827H17.0353C20.0934 11.8827 19.8537 14.9414 24.4708 14.9414C24.9132 14.9414 25.3505 14.9016 25.7758 14.8241C25.7741 14.8167 25.7735 14.8099 25.7718 14.8025C25.6904 14.3555 25.5617 13.9137 25.3864 13.4844Z" fill="white"/>
</svg>
