<svg width="32" height="32" viewBox="0 0 32 32" fill="none" xmlns="http://www.w3.org/2000/svg">
<path d="M21.1301 19.914C20.288 20.6462 19.2403 21.5572 17.3318 21.5572H16.1924C14.8134 21.5572 13.5591 21.0664 12.6617 20.1748C11.7855 19.3036 11.3015 18.1125 11.3015 16.8189V15.289C11.3015 13.9954 11.7843 12.8031 12.6617 11.9331C13.5596 11.0414 14.8134 10.5506 16.1924 10.5506H17.3318C19.2397 10.5506 20.288 11.4616 21.1301 12.1938C22.0035 12.9534 22.7579 13.6093 24.7678 13.6093C25.0798 13.6093 25.3862 13.5848 25.6839 13.5376C25.6817 13.5313 25.6794 13.5262 25.6771 13.5205C25.5575 13.2301 25.4169 12.9443 25.2546 12.6687L23.9109 10.3855C22.6782 8.29021 20.399 7 17.9336 7H15.2456C12.7802 7 10.501 8.29078 9.26825 10.3855L7.92452 12.6687C6.69183 14.764 6.69183 17.3444 7.92452 19.4392L9.26825 21.7224C10.501 23.8177 12.7802 25.1073 15.2456 25.1073H17.9336C20.399 25.1073 22.6782 23.8165 23.9109 21.7224L25.2546 19.4392C25.4169 19.163 25.5575 18.8783 25.6771 18.5879C25.6794 18.5817 25.6817 18.5766 25.6839 18.5709C25.3862 18.5236 25.081 18.4991 24.7678 18.4991C22.7585 18.4986 22.0035 19.1545 21.1301 19.914Z" fill="white"/>
<path d="M17.0317 11.8845H15.8924C13.7937 11.8845 12.4141 13.3552 12.4141 15.2376V16.7675C12.4141 18.6499 13.7931 20.1205 15.8924 20.1205H17.0317C20.0898 20.1205 19.8495 17.0619 24.4672 17.0619C24.9096 17.0619 25.3469 17.1017 25.7722 17.1792C25.9123 16.4014 25.9123 15.6054 25.7722 14.8271C25.3463 14.9045 24.9096 14.9443 24.4672 14.9443C19.8495 14.9438 20.0898 11.8845 17.0317 11.8845Z" fill="white"/>
<path d="M28.4249 18.2957C27.6363 17.7252 26.7316 17.3528 25.7722 17.1775C25.7705 17.1849 25.7699 17.1923 25.7682 17.1997C25.6862 17.6478 25.5581 18.089 25.3827 18.5172C26.1924 18.6459 26.9383 18.9442 27.576 19.4026C27.5737 19.4094 27.572 19.4163 27.5697 19.4237C27.2019 20.5949 26.6473 21.6989 25.9225 22.7033C25.2062 23.6951 24.3402 24.5685 23.3478 25.2979C21.2878 26.8136 18.8344 27.6141 16.2517 27.6141C14.6529 27.6141 13.1024 27.3072 11.6431 26.702C10.2339 26.1172 8.96763 25.2797 7.87899 24.2121C6.79091 23.1445 5.93741 21.9027 5.34128 20.5197C4.72464 19.0883 4.41148 17.5675 4.41148 15.9989C4.41148 14.4302 4.72464 12.9094 5.34128 11.478C5.93741 10.0956 6.79091 8.85319 7.87899 7.78561C8.96706 6.71803 10.2334 5.88104 11.6431 5.29573C13.1019 4.69048 14.6523 4.38358 16.2517 4.38358C18.8344 4.38358 21.2878 5.18413 23.3478 6.69981C24.3402 7.42975 25.2057 8.3026 25.9225 9.29445C26.6473 10.2994 27.2019 11.4034 27.5697 12.5741C27.572 12.5815 27.5743 12.5883 27.576 12.5951C26.9389 13.0529 26.1924 13.3524 25.3827 13.4805C25.5581 13.9093 25.6868 14.3517 25.7682 14.7998C25.7699 14.8072 25.7705 14.814 25.7722 14.8214C26.7316 14.646 27.6358 14.2737 28.4249 13.7031C29.1811 13.1543 29.0347 12.5342 28.9197 12.1664C27.2531 6.85923 22.2125 3 16.2522 3C8.9329 3 3 8.82017 3 16C3 23.1798 8.93347 29 16.2522 29C22.2125 29 27.2531 25.1402 28.9197 19.8302C29.0353 19.4647 29.1822 18.8452 28.4249 18.2957Z" fill="white"/>
</svg>
