<svg width="32" height="32" viewBox="0 0 32 32" fill="none" xmlns="http://www.w3.org/2000/svg">
<rect width="32" height="32" rx="8" fill="white"/>
<path d="M6.26259 16.5946C6.77948 17.1115 7.34722 17.5945 7.94886 18.0181C8.17765 18.1876 8.49118 18.1368 8.66065 17.8995C8.72844 17.8063 8.76234 17.6961 8.75386 17.5775C8.60981 14.3829 8.88097 4.50255 17.3462 2.01975C17.6089 1.94348 17.8631 2.09601 17.9394 2.34175C17.9648 2.41801 17.9648 2.51122 17.9394 2.58749C15.7532 11.8577 21.2272 14.6795 23.7269 10.3155C23.854 10.0867 24.1422 10.002 24.3709 10.1376C24.4387 10.1799 24.4981 10.2308 24.5404 10.2901C26.7182 13.6542 26.142 16.6624 25.5657 18.2385C25.4386 18.6028 25.6166 18.9926 25.981 19.1197C26.1589 19.1875 26.3707 19.1706 26.5402 19.0774C26.9046 18.874 27.252 18.6283 27.5486 18.3232C27.6503 18.2215 27.8198 18.2215 27.913 18.3232C27.9638 18.374 27.9892 18.4418 27.9892 18.5011C27.9892 24.8564 22.8372 30 16.4904 30C10.4486 30 5.43216 25.314 5.02542 19.2977C4.97458 18.535 5 17.7555 5.10168 16.9928C5.15253 16.62 5.49995 16.3488 5.88127 16.3997C6.00837 16.4166 6.14395 16.4844 6.26259 16.5946Z" fill="#F2663D"/>
</svg>
