<svg width="32" height="32" viewBox="0 0 32 32" fill="none" xmlns="http://www.w3.org/2000/svg">
<path d="M8.28419 13.6176C8.67575 14.9171 9.14974 16.1359 9.66495 17.3117C10.5511 19.4175 11.1487 20.5313 11.975 21.9133C12.9848 23.5634 14.0995 25.4423 15.9336 26.6593C17.2732 27.5462 18.9031 28 20.4693 28C22.6763 28 24.5722 27.0305 25.79 25.8942C26.9853 24.7804 28.5328 22.6333 28.5328 18.4443C28.5328 17.0004 29.1716 15.7609 29.6456 14.7708C29.6456 14.7502 29.6662 14.709 29.7074 14.6265C29.8929 14.2139 30.1196 13.6776 30.1196 13.1413C30.1196 12.7494 30.0166 12.2956 29.7487 11.9037C29.3365 11.2024 28.5946 10.9549 27.9127 10.9549C26.3258 10.9549 25.2317 12.0688 24.6753 13.2051L24.4898 13.5764C24.2631 13.2463 24.0364 12.8957 23.8509 12.5863C23.2739 11.5756 22.9442 10.8949 22.6557 10.0267C22.429 9.34604 22.2435 8.56223 22.1198 7.92093C21.7695 5.89765 21.1925 5.2376 20.2426 4.99008C19.5419 4.80444 18.7176 4.94882 18.1181 5.34073C17.7078 4.41253 17.0071 4 16.0779 4C14.7589 4 13.5618 4.86632 13.5618 6.33268C13.5618 6.51832 13.5824 6.70396 13.603 6.93085C13.4381 6.8896 13.2527 6.86897 13.0672 6.86897C11.6452 6.86897 10.5923 7.85905 10.5923 9.20166C10.5923 9.51106 10.6335 9.86171 10.7366 10.2742C10.6129 10.2536 10.4893 10.2536 10.3656 10.2536C9.66495 10.2949 9.02609 10.563 8.57084 11.1199C8.11933 11.6562 7.93385 12.4813 8.28419 13.6176Z" fill="#121212"/>
<path d="M9.45918 13.2465C9.27371 12.6483 9.29431 12.1946 9.521 11.9058C9.7477 11.6376 10.0568 11.5139 10.4278 11.4932C11.0666 11.4726 11.3139 11.9264 11.6849 13.1021C11.9116 13.8447 12.3649 14.9191 12.6329 15.5173C12.9832 16.2392 13.4778 17.2087 13.7045 17.5406C13.89 17.8294 14.0548 17.9119 14.2403 17.9119C14.57 17.9119 14.8173 17.7262 14.8173 17.3962C14.8173 17.2106 14.6319 16.9012 14.5288 16.7155C14.3433 16.3649 13.9518 15.6636 13.6839 15.0654C13.3954 14.4054 13.0656 13.5803 12.7977 12.8359C12.6329 12.4027 12.4474 11.7839 12.2619 11.1651C11.9734 10.2163 11.8291 9.63873 11.8291 9.2037C11.8291 8.54364 12.3237 8.11049 13.0656 8.11049C13.6014 8.11049 13.9518 8.37863 14.1785 9.34808C14.364 10.235 14.6937 11.6808 15.1677 12.8152C15.4768 13.5578 15.9302 14.5497 16.1981 15.0448C16.363 15.3335 16.5484 15.5811 16.5484 15.6842C16.5484 15.8286 16.2805 16.0555 16.0538 16.3649C15.9096 16.5505 15.8477 16.6743 15.8477 16.8187C15.8477 16.9424 15.9302 17.0662 16.0538 17.2312C16.1775 17.3962 16.3011 17.5612 16.4454 17.5612C16.5484 17.5612 16.6103 17.52 16.6721 17.4375C17.3109 16.633 18.0116 16.0761 18.8172 15.6204C19.7652 15.0842 20.7357 14.816 21.4982 14.651C21.8691 14.5685 21.9722 14.486 21.9722 14.2797C21.9722 14.0322 21.7867 13.8878 21.5394 13.8672C21.3539 13.8466 21.189 13.8672 20.9005 13.8878C20.6944 13.9084 20.5914 13.8053 20.4678 13.5372C20.0968 12.7533 19.3755 11.4314 18.9427 9.73999C18.7573 9.01806 18.5924 8.25487 18.4894 7.26292C18.4275 6.80913 18.51 6.64412 18.7367 6.43785C19.0252 6.19034 19.5404 6.0872 19.9319 6.19034C20.4059 6.3141 20.6532 6.68537 20.9005 8.13111C21.0242 8.81179 21.2303 9.67811 21.4776 10.4225C21.7867 11.3714 22.1782 12.1571 22.7759 13.209C23.1056 13.7866 23.5178 14.3847 23.9506 14.9641C23.8681 15.2117 23.7239 15.3767 23.2499 15.7686C22.7759 16.1605 22.3019 16.573 21.8691 17.3362C21.56 17.8931 21.4157 18.5119 21.4157 18.9245C21.4157 19.3164 21.4982 19.3989 21.7455 19.3989C22.1782 19.3989 22.5286 19.3164 22.5492 19.1307C22.6522 18.3882 22.7759 17.9138 23.188 17.355C23.4353 17.0456 23.8681 16.6537 24.2185 16.3443C24.8779 15.808 25.1046 15.4986 25.3313 14.7354C25.4343 14.3847 25.558 14.0547 25.7229 13.7453C26.1144 13.0234 26.8151 12.1983 27.9092 12.1983C28.2596 12.1983 28.5481 12.3014 28.7335 12.5902C28.8366 12.7552 28.8778 12.9821 28.8778 13.1471C28.8778 13.5184 28.6099 14.0341 28.4863 14.2816C28.0329 15.251 27.291 16.738 27.291 18.45C27.291 22.1853 25.972 24.0436 24.9398 24.9924C23.9299 25.9413 22.3412 26.7682 20.4659 26.7682C19.1263 26.7682 17.7437 26.3763 16.6103 25.6337C15.0234 24.5818 14.0323 22.9298 13.0225 21.2796C12.2188 19.9389 11.6624 18.8851 10.795 16.843C10.306 15.6598 9.85074 14.5047 9.45918 13.2465Z" fill="white"/>
<path d="M14.7578 6.33344C14.7578 5.54963 15.4791 5.24023 16.0767 5.24023C16.7156 5.24023 16.9423 5.54963 17.1072 6.20968C17.2514 6.74598 17.3132 7.24102 17.3751 7.81856C17.4575 8.39611 17.746 9.71808 17.8284 10.0481C18.1376 11.1826 18.7558 12.5252 19.4977 14.1341C19.0649 14.2784 18.4879 14.526 18.0964 14.7322C17.6018 15.0004 17.4987 15.0004 17.2926 14.6085C16.8599 13.804 16.5507 13.2059 16.2828 12.5027C16.0561 11.9251 15.8294 11.2651 15.644 10.5C15.3348 9.20054 15.2936 8.82926 15.0463 8.22922C14.9021 7.61229 14.7578 6.84911 14.7578 6.33344Z" fill="white"/>
<path d="M7.37719 20.1487C6.94067 20.4188 4.62692 21.632 4.10422 21.8251C3.7314 21.9639 3.32672 21.9301 3.08879 21.2251C2.79653 20.3531 3.20682 20.1469 3.79135 19.92C4.30843 19.7193 6.45356 18.943 6.95191 18.808C7.30225 18.7143 7.5458 18.8324 7.71442 19.2543C7.89989 19.7175 7.77249 19.9031 7.37719 20.1487Z" fill="#121212"/>
<path d="M5.46968 15.2344C4.84768 15.2513 2.26415 15.1407 1.67401 15.0825C1.16067 15.0319 0.952715 14.805 1.00892 14.0606C1.06887 13.2618 1.37987 13.213 1.88384 13.2618C2.46836 13.318 5.17554 13.7587 5.60644 13.8918C6.05233 14.0306 6.11416 14.2331 6.05982 14.6231C5.99051 15.1294 5.76194 15.2251 5.46968 15.2344Z" fill="#121212"/>
<path d="M5.79167 9.999C5.07975 9.77398 2.96646 8.49326 2.41566 8.16323C1.91731 7.86321 1.85362 7.59319 2.20021 6.93501C2.50746 6.35372 2.84843 6.25246 3.35427 6.51498C3.94067 6.82063 6.01087 8.43325 6.40617 8.75203C6.78836 9.05955 6.73591 9.21894 6.53544 9.6146C6.33498 10.0103 6.14763 10.1115 5.79167 9.999Z" fill="#121212"/>
</svg>
