<svg width="32" height="32" viewBox="0 0 32 32" fill="none" xmlns="http://www.w3.org/2000/svg">
<path d="M10.0702 14.0147C10.3965 15.0976 10.7915 16.1133 11.2208 17.0931C11.9593 18.8479 12.4573 19.7761 13.1458 20.9277C13.9873 22.3028 14.9162 23.8686 16.4447 24.8827C17.561 25.6218 18.9192 26 20.2244 26C22.0636 26 23.6435 25.1921 24.6583 24.2452C25.6544 23.317 26.944 21.5278 26.944 18.0369C26.944 16.8337 27.4764 15.8008 27.8714 14.9757C27.8714 14.9585 27.8885 14.9241 27.9229 14.8554C28.0774 14.5116 28.2663 14.0647 28.2663 13.6178C28.2663 13.2912 28.1805 12.913 27.9572 12.5865C27.6137 12.002 26.9955 11.7958 26.4272 11.7958C25.1048 11.7958 24.1931 12.724 23.7294 13.6709L23.5748 13.9803C23.3859 13.7053 23.197 13.4131 23.0425 13.1552C22.5616 12.313 22.2868 11.7458 22.0464 11.0223C21.8575 10.455 21.7029 9.80186 21.5999 9.26744C21.3079 7.58137 20.8271 7.03133 20.0355 6.82506C19.4516 6.67036 18.7647 6.79069 18.2651 7.11727C17.9232 6.34378 17.3393 6 16.5649 6C15.4658 6 14.4682 6.72193 14.4682 7.9439C14.4682 8.0986 14.4853 8.2533 14.5025 8.44238C14.3651 8.408 14.2106 8.39081 14.056 8.39081C12.871 8.39081 11.9936 9.21588 11.9936 10.3347C11.9936 10.5925 12.0279 10.8848 12.1138 11.2285C12.0108 11.2113 11.9077 11.2113 11.8047 11.2113C11.2208 11.2457 10.6884 11.4692 10.309 11.9333C9.93277 12.3802 9.77821 13.0677 10.0702 14.0147Z" fill="white"/>
<path d="M11.0477 13.7055C10.8931 13.207 10.9103 12.8288 11.0992 12.5882C11.2881 12.3647 11.5457 12.2616 11.8548 12.2444C12.3872 12.2272 12.5933 12.6054 12.9024 13.5851C13.0913 14.2039 13.4692 15.0993 13.6924 15.5978C13.9844 16.1994 14.3965 17.0073 14.5854 17.2839C14.74 17.5245 14.8774 17.5933 15.032 17.5933C15.3067 17.5933 15.5128 17.4386 15.5128 17.1635C15.5128 17.0088 15.3583 16.751 15.2724 16.5963C15.1178 16.3041 14.7915 15.7197 14.5683 15.2212C14.3278 14.6712 14.0531 13.9836 13.8298 13.3633C13.6924 13.0023 13.5379 12.4866 13.3833 11.971C13.1429 11.1803 13.0227 10.699 13.0227 10.3365C13.0227 9.78641 13.4348 9.42544 14.0531 9.42544C14.4996 9.42544 14.7915 9.6489 14.9804 10.4568C15.135 11.1959 15.4098 12.4007 15.8048 13.3461C16.0624 13.9649 16.4402 14.7915 16.6634 15.204C16.8008 15.4447 16.9554 15.6509 16.9554 15.7369C16.9554 15.8572 16.7321 16.0463 16.5432 16.3041C16.423 16.4588 16.3715 16.5619 16.3715 16.6823C16.3715 16.7854 16.4402 16.8885 16.5432 17.026C16.6463 17.1635 16.7493 17.3011 16.8695 17.3011C16.9554 17.3011 17.0069 17.2667 17.0584 17.1979C17.5908 16.5276 18.1747 16.0635 18.8461 15.6837C19.636 15.2368 20.4448 15.0134 21.0802 14.8759C21.3893 14.8071 21.4752 14.7384 21.4752 14.5665C21.4752 14.3602 21.3206 14.2399 21.1145 14.2227C20.96 14.2055 20.8226 14.2227 20.5821 14.2399C20.4104 14.2571 20.3245 14.1711 20.2215 13.9477C19.9124 13.2945 19.3113 12.1928 18.9507 10.7834C18.7961 10.1818 18.6587 9.54577 18.5728 8.71914C18.5213 8.34099 18.59 8.20347 18.7789 8.03159C19.0193 7.82532 19.4487 7.73938 19.775 7.82532C20.17 7.92845 20.3761 8.23785 20.5821 9.44263C20.6852 10.0099 20.8569 10.7318 21.063 11.3522C21.3206 12.1428 21.6469 12.7976 22.1449 13.6742C22.4197 14.1555 22.7632 14.654 23.1238 15.1368C23.0551 15.3431 22.9349 15.4806 22.5399 15.8072C22.1449 16.1338 21.7499 16.4776 21.3893 17.1135C21.1317 17.5776 21.0115 18.0933 21.0115 18.4371C21.0115 18.7637 21.0802 18.8324 21.2863 18.8324C21.6469 18.8324 21.9389 18.7637 21.956 18.609C22.0419 17.9902 22.1449 17.5948 22.4884 17.1292C22.6945 16.8713 23.0551 16.5448 23.3471 16.2869C23.8966 15.84 24.0856 15.5822 24.2745 14.9462C24.3603 14.654 24.4634 14.379 24.6008 14.1211C24.9271 13.5195 25.511 12.832 26.4227 12.832C26.7147 12.832 26.9551 12.9179 27.1097 13.1585C27.1955 13.2961 27.2299 13.4851 27.2299 13.6226C27.2299 13.932 27.0066 14.3618 26.9036 14.568C26.5258 15.3759 25.9075 16.6151 25.9075 18.0417C25.9075 21.1545 24.8084 22.703 23.9482 23.4937C23.1067 24.2844 21.7827 24.9735 20.2199 24.9735C19.1037 24.9735 17.9515 24.6469 17.0069 24.0281C15.6846 23.1515 14.8587 21.7748 14.0172 20.3997C13.3474 19.2825 12.8837 18.4043 12.1608 16.7026C11.7534 15.7166 11.374 14.754 11.0477 13.7055Z" fill="black"/>
<path d="M15.4648 7.9447C15.4648 7.29152 16.0659 7.03369 16.564 7.03369C17.0963 7.03369 17.2852 7.29152 17.4226 7.84157C17.5428 8.28848 17.5944 8.70101 17.6459 9.1823C17.7146 9.66358 17.955 10.7652 18.0237 11.0403C18.2813 11.9856 18.7965 13.1045 19.4148 14.4452C19.0541 14.5655 18.5733 14.7718 18.247 14.9437C17.8348 15.1671 17.7489 15.1671 17.5772 14.8405C17.2165 14.1702 16.9589 13.6717 16.7357 13.0857C16.5468 12.6044 16.3579 12.0544 16.2033 11.4168C15.9457 10.3339 15.9114 10.0245 15.7053 9.52451C15.5851 9.01041 15.4648 8.37442 15.4648 7.9447Z" fill="black"/>
<path d="M9.31433 19.4574C8.95056 19.6824 7.02243 20.6934 6.58685 20.8544C6.27616 20.97 5.93894 20.9419 5.74066 20.3543C5.49711 19.6277 5.83902 19.4558 6.32612 19.2667C6.75702 19.0995 8.54464 18.4526 8.95992 18.3401C9.25188 18.262 9.45484 18.3604 9.59535 18.712C9.74991 19.098 9.64375 19.2527 9.31433 19.4574Z" fill="white"/>
<path d="M7.72473 15.3619C7.2064 15.376 5.05346 15.2838 4.56167 15.2354C4.13389 15.1932 3.9606 15.0041 4.00743 14.3837C4.05739 13.7181 4.31656 13.6774 4.73653 13.7181C5.22363 13.7649 7.47962 14.1322 7.8387 14.2431C8.21028 14.3587 8.2618 14.5275 8.21652 14.8525C8.15875 15.2744 7.96828 15.3541 7.72473 15.3619Z" fill="white"/>
<path d="M7.99273 10.999C7.39947 10.8115 5.63839 9.74422 5.17939 9.4692C4.7641 9.21918 4.71102 8.99416 4.99985 8.44568C5.25589 7.96127 5.54004 7.87689 5.96157 8.09565C6.45024 8.35036 8.1754 9.69421 8.50482 9.95986C8.82331 10.2161 8.7796 10.349 8.61254 10.6787C8.44549 11.0084 8.28937 11.0928 7.99273 10.999Z" fill="white"/>
</svg>
