<svg width="32" height="32" viewBox="0 0 32 32" fill="none" xmlns="http://www.w3.org/2000/svg">
<rect width="32" height="32" rx="8" fill="white"/>
<path d="M8.28419 13.6176C8.67575 14.9171 9.14974 16.1359 9.66495 17.3117C10.5511 19.4175 11.1487 20.5313 11.975 21.9133C12.9848 23.5634 14.0995 25.4423 15.9336 26.6593C17.2732 27.5462 18.9031 28 20.4693 28C22.6763 28 24.5722 27.0305 25.79 25.8942C26.9853 24.7804 28.5328 22.6333 28.5328 18.4443C28.5328 17.0004 29.1716 15.7609 29.6456 14.7708C29.6456 14.7502 29.6662 14.709 29.7074 14.6265C29.8929 14.2139 30.1196 13.6776 30.1196 13.1413C30.1196 12.7494 30.0166 12.2956 29.7487 11.9037C29.3365 11.2024 28.5946 10.9549 27.9127 10.9549C26.3258 10.9549 25.2317 12.0688 24.6753 13.2051L24.4898 13.5764C24.2631 13.2463 24.0364 12.8957 23.8509 12.5863C23.2739 11.5756 22.9442 10.8949 22.6557 10.0267C22.429 9.34604 22.2435 8.56223 22.1199 7.92093C21.7695 5.89765 21.1925 5.2376 20.2426 4.99008C19.5419 4.80444 18.7176 4.94882 18.1181 5.34073C17.7078 4.41253 17.0071 4 16.0779 4C14.7589 4 13.5618 4.86632 13.5618 6.33268C13.5618 6.51832 13.5824 6.70396 13.603 6.93085C13.4381 6.8896 13.2527 6.86897 13.0672 6.86897C11.6452 6.86897 10.5923 7.85905 10.5923 9.20166C10.5923 9.51106 10.6335 9.86171 10.7366 10.2742C10.6129 10.2536 10.4893 10.2536 10.3656 10.2536C9.66495 10.2949 9.02609 10.563 8.57084 11.1199C8.11933 11.6562 7.93385 12.4813 8.28419 13.6176Z" fill="#1F1F1A"/>
<path d="M9.45723 13.2465C9.27175 12.6483 9.29236 12.1946 9.51905 11.9058C9.74574 11.6376 10.0549 11.5139 10.4258 11.4932C11.0647 11.4726 11.312 11.9264 11.6829 13.1021C11.9096 13.8447 12.363 14.9191 12.6309 15.5173C12.9812 16.2392 13.4758 17.2087 13.7025 17.5406C13.888 17.8294 14.0529 17.9119 14.2383 17.9119C14.5681 17.9119 14.8154 17.7262 14.8154 17.3962C14.8154 17.2106 14.6299 16.9012 14.5269 16.7155C14.3414 16.3649 13.9498 15.6636 13.6819 15.0654C13.3934 14.4054 13.0637 13.5803 12.7958 12.8359C12.6309 12.4027 12.4454 11.7839 12.26 11.1651C11.9714 10.2163 11.8272 9.63873 11.8272 9.2037C11.8272 8.54364 12.3218 8.11049 13.0637 8.11049C13.5995 8.11049 13.9498 8.37863 14.1765 9.34808C14.362 10.235 14.6917 11.6808 15.1657 12.8152C15.4748 13.5578 15.9282 14.5497 16.1961 15.0448C16.361 15.3335 16.5465 15.5811 16.5465 15.6842C16.5465 15.8286 16.2786 16.0555 16.0519 16.3649C15.9076 16.5505 15.8458 16.6743 15.8458 16.8187C15.8458 16.9424 15.9282 17.0662 16.0519 17.2312C16.1755 17.3962 16.2992 17.5612 16.4434 17.5612C16.5465 17.5612 16.6083 17.52 16.6701 17.4375C17.309 16.633 18.0097 16.0761 18.8153 15.6204C19.7632 15.0842 20.7337 14.816 21.4962 14.651C21.8672 14.5685 21.9702 14.486 21.9702 14.2797C21.9702 14.0322 21.7847 13.8878 21.5374 13.8672C21.352 13.8466 21.1871 13.8672 20.8986 13.8878C20.6925 13.9084 20.5894 13.8053 20.4658 13.5372C20.0949 12.7533 19.3736 11.4314 18.9408 9.73999C18.7553 9.01806 18.5904 8.25487 18.4874 7.26292C18.4256 6.80913 18.508 6.64412 18.7347 6.43785C19.0232 6.19034 19.5384 6.0872 19.93 6.19034C20.404 6.3141 20.6513 6.68537 20.8986 8.13111C21.0222 8.81179 21.2283 9.67811 21.4756 10.4225C21.7847 11.3714 22.1763 12.1571 22.7739 13.209C23.1037 13.7866 23.5158 14.3847 23.9486 14.9641C23.8662 15.2117 23.7219 15.3767 23.2479 15.7686C22.7739 16.1605 22.2999 16.573 21.8672 17.3362C21.558 17.8931 21.4138 18.5119 21.4138 18.9245C21.4138 19.3164 21.4962 19.3989 21.7435 19.3989C22.1763 19.3989 22.5266 19.3164 22.5472 19.1307C22.6503 18.3882 22.7739 17.9138 23.1861 17.355C23.4334 17.0456 23.8662 16.6537 24.2165 16.3443C24.876 15.808 25.1027 15.4986 25.3294 14.7354C25.4324 14.3847 25.556 14.0547 25.7209 13.7453C26.1125 13.0234 26.8132 12.1983 27.9073 12.1983C28.2576 12.1983 28.5461 12.3014 28.7316 12.5902C28.8346 12.7552 28.8759 12.9821 28.8759 13.1471C28.8759 13.5184 28.6079 14.0341 28.4843 14.2816C28.0309 15.251 27.289 16.738 27.289 18.45C27.289 22.1853 25.9701 24.0436 24.9378 24.9924C23.928 25.9413 22.3393 26.7682 20.4639 26.7682C19.1244 26.7682 17.7418 26.3763 16.6083 25.6337C15.0215 24.5818 14.0304 22.9298 13.0206 21.2796C12.2169 19.9389 11.6604 18.8851 10.793 16.843C10.304 15.6598 9.84878 14.5047 9.45723 13.2465Z" fill="#FFE450"/>
<path d="M14.7578 6.33369C14.7578 5.54988 15.4791 5.24048 16.0767 5.24048C16.7156 5.24048 16.9423 5.54988 17.1072 6.20993C17.2514 6.74622 17.3132 7.24126 17.3751 7.8188C17.4575 8.39635 17.746 9.71833 17.8284 10.0484C18.1376 11.1828 18.7558 12.5254 19.4977 14.1343C19.0649 14.2787 18.4879 14.5262 18.0964 14.7325C17.6018 15.0006 17.4987 15.0006 17.2926 14.6087C16.8599 13.8043 16.5507 13.2061 16.2828 12.5029C16.0561 11.9254 15.8294 11.2653 15.644 10.5003C15.3348 9.20079 15.2936 8.82951 15.0463 8.22946C14.9021 7.61254 14.7578 6.84935 14.7578 6.33369Z" fill="#FFE450"/>
<path d="M7.37719 20.1487C6.94067 20.4188 4.62692 21.632 4.10422 21.8251C3.7314 21.9639 3.32672 21.9301 3.08879 21.2251C2.79653 20.3531 3.20682 20.1469 3.79135 19.92C4.30843 19.7193 6.45356 18.943 6.95191 18.808C7.30225 18.7143 7.5458 18.8324 7.71442 19.2543C7.89989 19.7175 7.77249 19.9031 7.37719 20.1487Z" fill="#1F1F1A"/>
<path d="M5.46968 15.2344C4.84768 15.2513 2.26415 15.1407 1.67401 15.0825C1.16067 15.0319 0.952715 14.805 1.00892 14.0606C1.06887 13.2618 1.37987 13.213 1.88384 13.2618C2.46836 13.318 5.17554 13.7587 5.60644 13.8918C6.05233 14.0306 6.11416 14.2331 6.05982 14.6231C5.99051 15.1294 5.76194 15.2251 5.46968 15.2344Z" fill="#1F1F1A"/>
<path d="M5.79167 9.99876C5.07975 9.77374 2.96646 8.49301 2.41566 8.16299C1.91731 7.86296 1.85362 7.59294 2.20021 6.93477C2.50746 6.35347 2.84843 6.25221 3.35427 6.51473C3.94067 6.82038 6.01087 8.43301 6.40617 8.75178C6.78836 9.05931 6.73591 9.2187 6.53544 9.61435C6.33498 10.01 6.14763 10.1113 5.79167 9.99876Z" fill="#1F1F1A"/>
</svg>
