<svg width="32" height="32" viewBox="0 0 32 32" fill="none" xmlns="http://www.w3.org/2000/svg">
<rect width="32" height="32" rx="8" fill="#F6F6F6"/>
<path d="M29.5172 24.6853H4.48277C4.08954 24.6853 3.71241 24.5403 3.43434 24.2821C3.15627 24.0239 3.00004 23.6738 3 23.3086V9.3768C3.00002 9.01164 3.15625 8.66145 3.43432 8.40325C3.71239 8.14505 4.08953 8 4.48277 8H29.5172C29.9105 8 30.2876 8.14505 30.5657 8.40325C30.8438 8.66145 31 9.01164 31 9.3768V23.3086C31 23.6738 30.8437 24.0239 30.5657 24.2821C30.2876 24.5403 29.9105 24.6853 29.5172 24.6853Z" fill="#66CCFF"/>
<path d="M6.95929 24.6853H4.37686C4.01172 24.6853 3.66153 24.5403 3.40332 24.2821C3.14511 24.0239 3.00003 23.6738 3 23.3086V9.3768C3 9.19599 3.03561 9.01695 3.10481 8.84991C3.174 8.68286 3.27542 8.53108 3.40328 8.40323C3.53113 8.27538 3.68292 8.17397 3.84996 8.10478C4.01701 8.0356 4.19605 7.99999 4.37686 8H6.95929C6.77848 7.99999 6.59944 8.0356 6.4324 8.10478C6.26535 8.17397 6.11356 8.27538 5.98571 8.40323C5.85785 8.53108 5.75643 8.68286 5.68724 8.84991C5.61805 9.01695 5.58243 9.19599 5.58243 9.3768V23.3086C5.58246 23.6738 5.72754 24.0239 5.98575 24.2821C6.24396 24.5403 6.59415 24.6853 6.95929 24.6853Z" fill="#4DA6FF"/>
<path d="M14.2323 21.86H5.77242C5.61677 21.86 5.46749 21.7981 5.35743 21.6881C5.24738 21.578 5.18555 21.4287 5.18555 21.2731V18.7561C5.18548 18.473 5.28324 18.1986 5.46226 17.9794C5.64128 17.7601 5.89056 17.6095 6.16792 17.5529L8.53142 17.071H11.4734L13.8368 17.5529C14.1141 17.6094 14.3634 17.7601 14.5424 17.9793C14.7215 18.1985 14.8192 18.4728 14.8192 18.7558V21.2728C14.8193 21.3499 14.8041 21.4262 14.7746 21.4975C14.7451 21.5687 14.7019 21.6335 14.6474 21.688C14.5929 21.7425 14.5282 21.7858 14.457 21.8153C14.3857 21.8448 14.3094 21.86 14.2323 21.86Z" fill="#393939"/>
<path d="M5.58349 21.8282C5.46749 21.7888 5.36674 21.7141 5.29537 21.6145C5.22401 21.5149 5.1856 21.3955 5.18555 21.273V18.756C5.18558 18.586 5.22098 18.4179 5.28948 18.2623C5.35799 18.1067 5.45811 17.967 5.58349 17.8522V21.8282Z" fill="#343434"/>
<path d="M11.4713 16.8663C11.4713 18.9092 8.5293 18.9092 8.5293 16.8663L8.69017 15.5826H11.2791L11.4713 16.8663Z" fill="#EABD8C"/>
<path d="M12.5346 13.6607C12.5346 15.0604 11.4001 16.4868 10.0006 16.4868C8.60119 16.4868 7.4668 15.0601 7.4668 13.6607C7.4668 13.2527 7.49617 12.6401 7.55141 12.3402C7.83894 10.7773 8.82659 10.5719 10.0006 10.5719C11.1649 10.5719 12.1457 10.9373 12.4423 12.3834C12.5025 12.6755 12.5346 13.2745 12.5346 13.6607Z" fill="#FFD9B3"/>
<path d="M16.8379 12.4925C16.8379 12.3759 16.8842 12.2642 16.9666 12.1818C17.049 12.0994 17.1607 12.0531 17.2773 12.0531H26.2507C26.3672 12.0531 26.479 12.0994 26.5614 12.1818C26.6438 12.2642 26.6901 12.3759 26.6901 12.4925C26.6901 12.609 26.6438 12.7208 26.5614 12.8032C26.479 12.8856 26.3672 12.9318 26.2507 12.9318H17.2773C17.1607 12.9318 17.049 12.8856 16.9666 12.8032C16.8842 12.7208 16.8379 12.609 16.8379 12.4925ZM16.8379 15.1991C16.8379 15.0825 16.8842 14.9708 16.9666 14.8884C17.049 14.806 17.1607 14.7597 17.2773 14.7597H26.2507C26.3672 14.7597 26.479 14.806 26.5614 14.8884C26.6438 14.9708 26.6901 15.0825 26.6901 15.1991C26.6901 15.3156 26.6438 15.4273 26.5614 15.5097C26.479 15.5921 26.3672 15.6384 26.2507 15.6384H17.2773C17.1607 15.6384 17.049 15.5921 16.9666 15.5097C16.8842 15.4273 16.8379 15.3156 16.8379 15.1991ZM16.8379 17.9056C16.8379 17.7891 16.8842 17.6774 16.9666 17.595C17.049 17.5126 17.1607 17.4663 17.2773 17.4663H26.2507C26.3672 17.4663 26.479 17.5126 26.5614 17.595C26.6438 17.6774 26.6901 17.7891 26.6901 17.9056C26.6901 18.0222 26.6438 18.1339 26.5614 18.2163C26.479 18.2987 26.3672 18.345 26.2507 18.345H17.2773C17.1607 18.345 17.049 18.2987 16.9666 18.2163C16.8842 18.1339 16.8379 18.0222 16.8379 17.9056ZM16.8379 20.6122C16.8379 20.4957 16.8842 20.3839 16.9666 20.3015C17.049 20.2191 17.1607 20.1729 17.2773 20.1729H26.2507C26.3672 20.1729 26.479 20.2191 26.5614 20.3015C26.6438 20.3839 26.6901 20.4957 26.6901 20.6122C26.6901 20.7288 26.6438 20.8405 26.5614 20.9229C26.479 21.0053 26.3672 21.0516 26.2507 21.0516H17.2773C17.1607 21.0516 17.049 21.0053 16.9666 20.9229C16.8842 20.8405 16.8379 20.7288 16.8379 20.6122Z" fill="#68544F"/>
</svg>
