<svg width="32" height="32" viewBox="0 0 32 32" fill="none" xmlns="http://www.w3.org/2000/svg">
<rect width="32" height="32" rx="8" fill="#EF3E56"/>
<path d="M26.4736 8.99586C25.6239 9.8757 24.801 10.7318 23.9574 11.567C23.3888 12.13 22.7983 12.1325 22.1886 11.5843C20.8669 10.3959 19.3224 9.82702 17.5526 9.95734C14.425 10.1877 11.958 12.7924 11.9487 16.0225C11.9396 19.1544 14.398 21.7892 17.5471 22.0194C19.2659 22.1451 20.7765 21.6403 22.0711 20.4991C22.908 19.7614 23.3723 19.7752 24.1735 20.5657C24.8522 21.2354 25.532 21.9041 26.2066 22.5779C26.9027 23.2731 26.9016 23.894 26.2022 24.5659C24.4681 26.232 22.4206 27.2987 20.0517 27.7169C19.238 27.8606 18.4003 28.0482 17.5903 27.9887C16.5227 27.9101 15.4421 27.7029 14.4183 27.3858C8.76881 25.6364 5.34213 20.1339 6.10596 14.4681C6.66616 10.3128 8.66874 7.09129 12.5169 5.28994C17.2978 3.05192 22.3602 3.70854 26.1591 7.39705C26.7049 7.92697 26.7777 8.26278 26.4736 8.99586ZM20.404 23.2685C20.5389 23.5108 20.6738 23.7531 20.8183 24.0127C20.3332 24.1828 19.9078 24.4326 19.4659 24.4663C18.5124 24.5389 17.5664 24.7204 16.5882 24.4223C15.547 24.1051 14.4999 23.8383 13.5702 23.2487C11.438 21.8964 10.1494 19.9683 9.64123 17.5035C9.5443 17.0334 9.34572 16.9243 8.84444 17.0613C8.48852 17.1586 8.53254 17.4434 8.60743 17.7058C8.80389 18.3942 8.96314 19.0989 9.22625 19.7617C10.6611 23.3766 14.6418 25.863 18.5188 25.5494C19.4758 25.472 20.4213 25.2512 21.4255 25.0877C21.5165 25.2188 21.6552 25.4187 21.844 25.6906C22.2839 24.907 22.6897 24.1841 23.1535 23.4093C23.2584 23.2217 23.3136 23.0656 22.9938 23.068C22.1837 23.074 21.3735 23.0695 20.5635 23.0787C20.5057 23.0793 20.4489 23.1575 20.404 23.2685ZM23.1499 8.94219C23.1349 8.81889 23.1199 8.6956 23.0938 8.50837C22.6891 7.80354 22.2844 7.0987 21.8346 6.31546C21.6499 6.59759 21.5179 6.79919 21.3789 7.01147C21.2508 6.97464 21.1397 6.94707 21.0314 6.91088C19.1082 6.26776 17.1745 6.26815 15.2411 6.84524C13.0606 7.49606 11.3513 8.79664 10.077 10.6736C9.31634 11.7941 8.82867 13.0255 8.59103 14.3605C8.52737 14.7181 8.62062 14.9699 8.96838 15.0588C9.32793 15.1507 9.53307 14.939 9.62945 14.6087C9.65743 14.5128 9.67094 14.4127 9.69134 14.3146C10.0741 12.4732 10.9557 10.9081 12.3703 9.67422C14.8415 7.51864 17.665 7.01572 20.8398 7.95376C20.7188 8.17233 20.6062 8.33704 20.5349 8.51803C20.486 8.64217 20.4946 8.78894 20.5244 8.94638C20.5411 8.94301 20.5579 8.93963 20.6679 8.95063C21.4736 8.94623 22.2793 8.94183 23.1499 8.94219Z" fill="#FFFDFD"/>
</svg>
