<svg width="32" height="32" viewBox="0 0 32 32" fill="none" xmlns="http://www.w3.org/2000/svg">
<path d="M27.8859 7.8285C26.8945 8.85499 25.9345 9.85377 24.9504 10.8282C24.287 11.485 23.598 11.488 22.8867 10.8484C21.3447 9.46189 19.5428 8.79818 17.4781 8.95023C13.8292 9.21894 10.951 12.2578 10.9401 16.0262C10.9296 19.6802 13.7977 22.754 17.4717 23.0226C19.4769 23.1692 21.2392 22.5803 22.7497 21.2489C23.726 20.3883 24.2677 20.4044 25.2024 21.3266C25.9942 22.108 26.7873 22.8881 27.5744 23.6742C28.3865 24.4853 28.3852 25.2097 27.5693 25.9935C25.5461 27.9373 23.1573 29.1818 20.3937 29.6697C19.4444 29.8374 18.4671 30.0563 17.522 29.9868C16.2765 29.8952 15.0158 29.6534 13.8214 29.2835C7.23027 27.2424 3.23248 20.8229 4.12362 14.2128C4.77719 9.36497 7.11354 5.60651 11.603 3.50493C17.1807 0.893906 23.0869 1.65996 27.519 5.96323C28.1557 6.58146 28.2407 6.97324 27.8859 7.8285ZM20.8046 24.4799C20.962 24.7626 21.1194 25.0452 21.288 25.3481C20.7221 25.5466 20.2258 25.8381 19.7103 25.8773C18.5978 25.9621 17.4941 26.1738 16.3529 25.8261C15.1382 25.456 13.9166 25.1447 12.8319 24.4568C10.3443 22.8791 8.841 20.6297 8.2481 17.7541C8.13502 17.2056 7.90334 17.0783 7.31851 17.2382C6.90327 17.3517 6.95463 17.684 7.042 17.9901C7.2712 18.7933 7.457 19.6154 7.76396 20.3887C9.43799 24.6061 14.0821 27.5068 18.6053 27.141C19.7218 27.0507 20.8248 26.7931 21.9964 26.6023C22.1026 26.7553 22.2644 26.9885 22.4847 27.3057C22.9979 26.3914 23.4713 25.5481 24.0124 24.6442C24.1348 24.4254 24.1992 24.2432 23.8261 24.246C22.881 24.253 21.9358 24.2477 20.9907 24.2585C20.9234 24.2592 20.857 24.3504 20.8046 24.4799ZM24.0082 7.76589C23.9907 7.62204 23.9732 7.4782 23.9428 7.25977C23.4706 6.43746 22.9984 5.61515 22.4737 4.70137C22.2582 5.03052 22.1042 5.26572 21.942 5.51339C21.7926 5.47041 21.663 5.43825 21.5367 5.39602C19.2929 4.64572 17.037 4.64618 14.7812 5.31945C12.2373 6.07873 10.2432 7.59608 8.75655 9.78585C7.86907 11.0931 7.30012 12.5297 7.02287 14.0872C6.9486 14.5045 7.05739 14.7983 7.46311 14.902C7.88259 15.0092 8.12192 14.7622 8.23436 14.3768C8.267 14.2649 8.28277 14.1482 8.30656 14.0337C8.75317 11.8855 9.7817 10.0594 11.432 8.61993C14.3151 6.10508 17.6092 5.51834 21.3131 6.61272C21.1719 6.86772 21.0406 7.05988 20.9574 7.27104C20.9004 7.41586 20.9104 7.5871 20.9451 7.77078C20.9646 7.76684 20.9842 7.7629 21.1126 7.77574C22.0525 7.7706 22.9925 7.76547 24.0082 7.76589Z" fill="#121212"/>
</svg>
