<svg width="32" height="32" viewBox="0 0 32 32" fill="none" xmlns="http://www.w3.org/2000/svg">
<rect width="32" height="32" rx="8" fill="#FFC107"/>
<path d="M11.7529 16L5 20.3912V11.6088L11.7529 16ZM20.3524 16L27.1053 20.3912V11.6088L20.3524 16ZM19.3657 16.6435L16.3465 18.6062C16.2575 18.6627 16.1551 18.6923 16.0526 18.6923C15.9502 18.6923 15.8478 18.6627 15.7588 18.6062L12.7395 16.6435L5.4475 21.3846L5.02426 21.6592C5.15635 22.4185 5.81951 23 6.61746 23H25.4878C26.2858 23 26.9489 22.4212 27.081 21.6592L26.6551 21.3846L19.3657 16.6435ZM16.0526 17.5104L26.6551 10.6154L27.081 10.3408C26.9489 9.57885 26.2858 9 25.4878 9H6.61746C5.81951 9 5.15635 9.58154 5.02426 10.3408L5.4475 10.6154L16.0526 17.5104Z" fill="white"/>
</svg>
