<svg width="32" height="32" viewBox="0 0 32 32" fill="none" xmlns="http://www.w3.org/2000/svg">
<path d="M11.1999 15.5L3 20.8321V10.1679L11.1999 15.5ZM21.6422 15.5L29.8421 20.8321V10.1679L21.6422 15.5ZM20.4441 16.2813L16.7779 18.6646C16.6698 18.7333 16.5454 18.7692 16.4211 18.7692C16.2967 18.7692 16.1723 18.7333 16.0642 18.6646L12.398 16.2813L3.54339 22.0385L3.02946 22.3719C3.18986 23.2938 3.99512 24 4.96406 24H27.878C28.847 24 29.6522 23.2971 29.8126 22.3719L29.2954 22.0385L20.4441 16.2813ZM16.4211 17.334L29.2954 8.96154L29.8126 8.62808C29.6522 7.70288 28.847 7 27.878 7H4.96406C3.99512 7 3.18986 7.70615 3.02946 8.62808L3.54339 8.96154L16.4211 17.334Z" fill="#121212"/>
</svg>
