<svg width="20" height="18" viewBox="0 0 20 18" fill="none" xmlns="http://www.w3.org/2000/svg">
<path d="M3.31671 5.85214C2.54745 6.76152 1.96045 7.83001 1.61206 9.00123C2.68814 12.615 6.03602 15.25 9.99934 15.25C10.8265 15.25 11.6268 15.1352 12.3853 14.9207M5.18979 4.18969C6.57 3.27965 8.22319 2.75 10.0001 2.75C13.9634 2.75 17.3113 5.38504 18.3874 8.99877C17.7941 10.9932 16.5089 12.6898 14.8101 13.81M5.18979 4.18969L2.5001 1.5M5.18979 4.18969L8.23233 7.23223M14.8101 13.81L17.5001 16.5M14.8101 13.81L11.7679 10.7678M11.7679 10.7678C12.2203 10.3154 12.5001 9.69036 12.5001 9C12.5001 7.61929 11.3808 6.5 10.0001 6.5C9.30974 6.5 8.68474 6.77982 8.23233 7.23223M11.7679 10.7678L8.23233 7.23223" stroke="#1A1A1A" stroke-width="1.5" stroke-linecap="round" stroke-linejoin="round"/>
</svg>
