<svg width="32" height="32" viewBox="0 0 32 32" fill="none" xmlns="http://www.w3.org/2000/svg">
<path d="M5 19.7785V12.2215C5 10.138 6.12727 9 8.23221 9H17.4667C19.561 9 20.6989 10.138 20.6989 12.2215V19.7785C20.6989 21.862 19.561 23 17.4667 23H8.23221C6.13795 23 5 21.862 5 19.7785ZM21.324 13.7521L25.3843 10.4425C25.6672 10.1747 26.0347 10.0141 26.4234 9.98836C26.9763 9.98836 27.3503 10.373 27.3503 11.0569V21.2076C27.3503 21.8994 26.9763 22.2761 26.4234 22.2761C26.0338 22.254 25.6651 22.0929 25.3843 21.822L21.324 18.4829V13.7521Z" fill="white"/>
<rect x="0.5" y="0.5" width="31" height="31" rx="7.5" stroke="white"/>
</svg>
