<svg width="32" height="32" viewBox="0 0 32 32" fill="none" xmlns="http://www.w3.org/2000/svg">
<g clip-path="url(#clip0_1926_117815)">
<path d="M19.6831 10.7C21.2184 9.77887 23.0223 9.35667 24.8262 9.27991C25.402 9.24153 25.9777 9.24153 26.5534 9.31829C26.9372 9.39505 27.321 9.51019 27.6281 9.77886C27.4745 9.77886 27.321 9.74048 27.1675 9.7021C26.7453 9.62534 26.2847 9.66372 25.8625 9.62534C24.5959 9.62534 23.3294 9.74048 22.1012 10.0859C21.4487 10.2778 20.8346 10.5081 20.2589 10.8535C19.2609 11.3909 18.3398 12.1201 17.6106 13.0029C16.3056 14.4998 15.538 16.4188 15.1541 18.3379C14.9622 19.3742 14.7703 20.4105 14.6168 21.4468C14.3481 21.4852 14.0795 21.4468 13.8108 21.4468C12.6594 21.4468 11.5079 21.4468 10.3565 21.4084C10.1262 21.4084 9.85753 21.37 9.62724 21.37C7.55465 21.37 5.44368 21.37 3.37109 21.37H3.40948C4.94473 21.2165 6.51835 21.0246 8.0536 20.8711C10.011 20.8711 11.9685 20.8711 13.9643 20.8711C14.0411 20.8711 14.1179 20.9094 14.1562 20.7943C14.3098 19.9499 14.4633 19.1055 14.6552 18.2611C14.8855 17.0713 15.2309 15.9199 15.7682 14.8452C16.651 13.1564 18.0327 11.6979 19.6831 10.7Z" fill="white" fill-opacity="0.4"/>
<path d="M19.6831 10.7C21.2184 9.77885 23.0223 9.35665 24.8262 9.27989C25.0565 9.24151 25.2868 9.24151 25.5171 9.24151C25.8625 9.24151 26.208 9.27989 26.5534 9.31827C26.9372 9.39503 27.321 9.51018 27.6281 9.77884H27.5897C27.4362 9.77884 27.321 9.70208 27.1675 9.70208C26.8988 9.6637 26.5918 9.62532 26.2847 9.62532C26.208 9.62532 26.1696 9.62532 26.0928 9.62532C26.016 9.62532 25.9009 9.62532 25.8241 9.62532C24.5576 9.62532 23.291 9.74046 22.0628 10.0859C21.4103 10.2778 20.7962 10.5081 20.2205 10.8535C19.2226 11.3909 18.3014 12.1201 17.5722 13.0029C16.2672 14.4997 15.4996 16.4188 15.1158 18.3379C14.9239 19.3742 14.7319 20.4105 14.5784 21.4468C14.4633 21.4468 14.3481 21.4468 14.233 21.4468C14.0795 21.4468 13.9643 21.4468 13.8108 21.4468C12.6594 21.4468 11.5079 21.4468 10.3565 21.4084H10.2797C10.0878 21.4084 9.89591 21.37 9.70401 21.37H9.62724C9.0899 21.37 8.59094 21.37 8.0536 21.37C6.47997 21.37 4.90635 21.37 3.37109 21.37H3.40948C4.94473 21.2165 6.51835 21.0246 8.0536 20.871C8.89799 20.871 9.74238 20.871 10.5484 20.871C11.6614 20.871 12.8129 20.871 13.9259 20.871H13.9643H14.0027H14.0795L14.1179 20.7943C14.2714 19.9499 14.4249 19.1055 14.6168 18.2611C14.8471 17.0713 15.1925 15.9199 15.7299 14.8452C16.651 13.1564 18.0327 11.6979 19.6831 10.7C18.0327 11.6595 16.651 13.118 15.8066 14.8452C15.2693 15.9199 14.8855 17.0713 14.6936 18.2611C14.54 19.1055 14.3865 19.9499 14.1946 20.7943L14.1562 20.8327H14.0795H14.0411H14.0027C12.8896 20.8327 11.7382 20.8327 10.6252 20.8327C9.78077 20.8327 8.93638 20.8327 8.13037 20.8327C6.59512 20.9862 5.02148 21.1781 3.48623 21.3316H3.44785C5.02148 21.3316 6.59512 21.3316 8.13037 21.3316C8.66771 21.3316 9.16667 21.3316 9.70401 21.3316H9.78076C9.97267 21.3316 10.1646 21.37 10.3565 21.37H10.4332C11.5847 21.37 12.7361 21.37 13.8876 21.4084C14.0411 21.4084 14.1562 21.4084 14.3098 21.4084C14.4249 21.4084 14.54 21.4084 14.6552 21.4084C14.8087 20.3721 15.039 19.3358 15.1925 18.2995C15.5763 16.3804 16.344 14.4614 17.6489 12.9645C18.3782 12.0817 19.2993 11.3525 20.2972 10.8151C20.873 10.4697 21.5254 10.2394 22.1395 10.0475C23.3677 9.70209 24.6343 9.58694 25.9009 9.58694C25.9777 9.58694 26.0928 9.58694 26.1696 9.58694C26.2463 9.58694 26.2847 9.58694 26.3615 9.58694C26.6685 9.58694 26.9372 9.58694 27.2442 9.66371C27.3978 9.70209 27.5129 9.74047 27.6664 9.74047H27.7048C27.3978 9.4718 27.014 9.39504 26.6302 9.27989C26.2847 9.24151 25.9393 9.20312 25.5939 9.20312C25.3636 9.20312 25.1333 9.20313 24.903 9.24151C23.0223 9.35665 21.2184 9.81723 19.6831 10.7Z" fill="white" fill-opacity="0.4"/>
<path d="M22.1009 10.0859C23.3291 9.74049 24.5957 9.62534 25.8622 9.62534C26.2844 9.62534 26.745 9.58696 27.1672 9.7021C27.3207 9.74049 27.4742 9.77887 27.6278 9.77887C27.8581 9.97077 28.0116 10.2778 28.1267 10.5465C28.357 11.2374 28.5105 11.9666 28.6257 12.6958C28.6257 13.0029 28.6641 13.3099 28.5105 13.5786C28.357 13.8473 28.0884 13.9624 27.7813 14.0392C26.7834 14.3079 25.7087 14.0392 24.7108 14.3079C23.8664 14.4998 23.0988 14.9603 22.5998 15.6128C21.9857 16.3805 21.6403 17.34 21.4484 18.2995C21.2949 19.1439 21.1413 20.0267 20.9878 20.8711C20.911 21.063 20.8727 21.2549 20.8343 21.4852C21.8322 21.4852 22.7917 21.4852 23.7896 21.4852C24.1735 21.4852 24.5573 21.4852 24.9027 21.4852C25.0946 21.9841 25.0562 22.5215 24.9795 23.0204C24.9027 23.5961 24.7492 24.1719 24.5189 24.6708C24.2886 25.1314 23.9432 25.5152 23.4826 25.6687C23.2139 25.7839 22.9453 25.7455 22.6766 25.7455C21.7938 25.7455 20.911 25.7455 20.0283 25.7455C19.8748 26.398 19.798 27.0505 19.6828 27.7029C19.4526 28.9695 19.2223 30.2361 18.992 31.5027C18.992 31.5411 18.992 31.6178 18.992 31.6946C16.7275 31.6946 14.4246 31.6946 12.1601 31.6946V31.6178V31.5027C12.1601 31.5411 12.1601 31.6178 12.1601 31.6562C12.3136 31.6562 12.5439 31.733 12.5823 31.5411C12.9277 29.622 13.2732 27.7029 13.6186 25.7839C13.4651 25.7455 13.3499 25.7455 13.1964 25.7839C13.158 25.8606 13.158 25.9374 13.1196 26.0142C13.1196 25.9374 13.158 25.8606 13.158 25.7839C11.7379 25.7839 10.3178 25.7839 8.8977 25.7839C8.55227 25.7839 8.20683 25.7839 7.8614 25.7455C7.28568 25.7071 6.67159 25.7455 6.09587 25.6687C5.36663 25.6687 4.63738 25.592 3.90813 25.592C3.33241 25.5536 2.75669 25.5536 2.18097 25.5152C1.79716 25.4768 1.41335 25.4768 1.02954 25.4768C0.415435 25.4 -0.237045 25.4384 -0.851145 25.4001C-1.50363 25.4001 -2.15611 25.3617 -2.80859 25.3233V25.2849C-2.57831 25.2849 -2.38639 25.2849 -2.15611 25.2849C-1.65715 25.2081 -1.19658 25.2465 -0.697623 25.2081C-0.198666 25.2081 0.300289 25.1314 0.799246 25.1314C1.25982 25.0546 1.7204 25.093 2.14259 25.0546C2.67993 25.0546 3.17889 24.9779 3.71623 24.9779C4.13842 24.9395 4.59899 24.9395 5.02119 24.9011C5.52014 24.9011 6.0191 24.8243 6.51806 24.8243C7.01701 24.786 7.51598 24.786 8.01494 24.7476C7.97655 24.5557 7.93817 24.3638 7.89978 24.1718C7.8614 24.0567 7.70789 24.0951 7.63112 24.0567C6.47968 23.9032 5.36662 23.7497 4.25356 23.5577C4.33032 23.5194 4.40709 23.5194 4.52224 23.5194C5.40501 23.4426 6.28777 23.3658 7.13216 23.3275C7.32407 23.3275 7.51597 23.2891 7.70788 23.2891C7.63112 23.0204 7.55436 22.7134 7.43922 22.4831C5.55853 22.2144 3.67785 21.9457 1.83555 21.6387C2.3345 21.5619 2.79507 21.5235 3.29403 21.4852C5.36662 21.4852 7.4776 21.4852 9.55019 21.4852C9.78048 21.4852 10.0491 21.5235 10.2794 21.5235C11.4309 21.5235 12.5823 21.5235 13.7337 21.5619C14.0024 21.5619 14.2711 21.5619 14.5398 21.5619C14.6933 20.5256 14.9236 19.4893 15.0771 18.453C15.4609 16.534 16.2285 14.6149 17.5335 13.118C18.2627 12.2353 19.1839 11.506 20.1818 10.9687C20.8343 10.4697 21.4868 10.2778 22.1009 10.0859Z" fill="white"/>
<path d="M22.101 10.0859C23.3292 9.7405 24.5957 9.66374 25.8623 9.66374C25.9391 9.66374 26.0542 9.66374 26.131 9.66374C26.2078 9.66374 26.2461 9.66374 26.3229 9.66374C26.6299 9.66374 26.8986 9.66374 27.2057 9.7405C27.3592 9.77889 27.4743 9.81727 27.6279 9.81727H27.6662C27.8965 10.0092 28.0501 10.3162 28.1652 10.5849C28.3955 11.2758 28.549 12.005 28.6642 12.7342C28.6642 12.8494 28.6642 13.0029 28.6642 13.1181C28.6642 13.31 28.6258 13.4635 28.549 13.617C28.3955 13.8857 28.1268 14.0008 27.8198 14.0776C26.8219 14.3463 25.7472 14.0776 24.7493 14.3463C23.9049 14.5382 23.1373 14.9987 22.5999 15.6512C21.9858 16.4189 21.6404 17.3784 21.4485 18.3379C21.295 19.1823 21.1414 20.0651 20.9879 20.9095C20.9111 21.1014 20.8728 21.2933 20.8344 21.5236C21.2182 21.5236 21.602 21.5236 21.9858 21.5236C22.2929 21.5236 22.5999 21.5236 22.9453 21.5236C23.2524 21.5236 23.5211 21.5236 23.8281 21.5236C23.9049 21.5236 24.02 21.5236 24.0968 21.5236C24.2119 21.5236 24.3271 21.5236 24.4806 21.5236C24.6341 21.5236 24.826 21.5236 24.9796 21.5236C25.0947 21.7922 25.1331 22.0609 25.1331 22.3296C25.1331 22.5599 25.0947 22.7901 25.0947 23.0204C25.0179 23.5961 24.8644 24.1719 24.6341 24.6708C24.4038 25.1314 24.0584 25.5152 23.5978 25.6687C23.4059 25.7455 23.2524 25.7455 23.0605 25.7455C22.9837 25.7455 22.907 25.7455 22.8302 25.7455C22.2545 25.7455 21.6788 25.7455 21.0647 25.7455C20.7576 25.7455 20.4889 25.7455 20.1819 25.7455C20.0284 26.398 19.9516 27.0505 19.8365 27.7029C19.6062 28.9695 19.3759 30.2361 19.1456 31.5027C19.1456 31.5411 19.1456 31.6178 19.1456 31.6946C17.6104 31.6946 16.1135 31.6946 14.5782 31.6946C13.8106 31.6946 13.043 31.6946 12.3137 31.6946V31.6178V31.5027C12.3137 31.5411 12.3137 31.6178 12.3137 31.6562C12.3905 31.6562 12.4673 31.6946 12.544 31.6946C12.6592 31.6946 12.7359 31.6562 12.7359 31.5411C13.0814 29.622 13.4268 27.7029 13.7722 25.7839C13.6955 25.7839 13.6187 25.7455 13.5419 25.7455C13.4652 25.7455 13.3884 25.7455 13.35 25.7455C13.3116 25.8223 13.3116 25.899 13.2733 25.9758C13.2733 25.899 13.3116 25.8223 13.3116 25.7455C12.6208 25.7455 11.8915 25.7455 11.1623 25.7455C10.433 25.7455 9.74218 25.7455 9.01293 25.7455C8.6675 25.7455 8.32208 25.7455 7.97665 25.7071C7.40093 25.6687 6.78682 25.7071 6.2111 25.6304C5.48186 25.6304 4.75261 25.5536 4.02337 25.5536C3.44765 25.5152 2.87193 25.5152 2.29621 25.4768C1.9124 25.4384 1.52858 25.4385 1.14477 25.4385C0.530669 25.3617 -0.121811 25.4001 -0.735911 25.3617H-0.812667C-1.42677 25.3617 -2.07926 25.3233 -2.69336 25.2849V25.2465H-2.61659C-2.42469 25.2465 -2.23278 25.2465 -2.04087 25.2465C-1.54192 25.1698 -1.08135 25.2082 -0.582388 25.1698C-0.0834316 25.1698 0.415535 25.093 0.914491 25.093C1.37507 25.0163 1.83564 25.0546 2.25784 25.0163C2.79517 25.0163 3.29412 24.9395 3.83146 24.9395C4.25365 24.9011 4.71424 24.9011 5.13643 24.8627H5.17481C5.63538 24.8627 6.13434 24.786 6.59492 24.786H6.6333C7.13226 24.7476 7.63121 24.7476 8.13017 24.7092C8.09179 24.5173 8.05341 24.3254 8.01503 24.1335C7.97665 24.0183 7.82312 24.0567 7.74636 24.0183C6.59492 23.8648 5.48186 23.7113 4.36881 23.5194C4.40719 23.481 4.48395 23.481 4.52233 23.481H4.56071H4.63747C5.52024 23.4042 6.40302 23.3275 7.2474 23.2891C7.43931 23.2891 7.63122 23.2507 7.82312 23.2507C7.74636 22.982 7.66959 22.675 7.55445 22.4447C5.67377 22.176 3.79308 21.9074 1.95078 21.6003C2.44974 21.5236 2.91032 21.4852 3.40928 21.4468C4.98291 21.4468 6.55653 21.4468 8.09179 21.4468C8.62912 21.4468 9.12808 21.4468 9.66542 21.4468H9.74219C9.93409 21.4468 10.126 21.4852 10.3179 21.4852H10.3947C11.5461 21.4852 12.6975 21.4852 13.849 21.5236C14.0025 21.5236 14.1177 21.5236 14.2712 21.5236C14.3863 21.5236 14.5015 21.5236 14.6166 21.5236C14.7701 20.4873 15.0004 19.451 15.1539 18.4147C15.5378 16.4956 16.3054 14.5765 17.6104 13.0797C18.3396 12.1969 19.2607 11.4677 20.2587 10.9303C20.8344 10.5081 21.4869 10.2778 22.101 10.0859C21.4485 10.2778 20.8344 10.5081 20.2587 10.8536C19.2607 11.3909 18.3396 12.1201 17.6104 13.0029C16.3054 14.4998 15.5378 16.4189 15.1539 18.3379C14.962 19.3742 14.7701 20.4105 14.6166 21.4468C14.5015 21.4468 14.3863 21.4468 14.2712 21.4468C14.1177 21.4468 13.9641 21.4468 13.849 21.4468C12.6975 21.4468 11.5461 21.4468 10.3947 21.4084H10.3179C10.126 21.4084 9.93409 21.37 9.74219 21.37H9.66542C9.12808 21.37 8.62912 21.37 8.09179 21.37C6.51815 21.37 4.94453 21.37 3.40928 21.37C2.91032 21.4084 2.44974 21.4468 1.95078 21.5236C3.83146 21.8306 5.71215 22.0993 7.55445 22.368C7.66959 22.6366 7.70798 22.9053 7.82312 23.1739C7.63122 23.1739 7.43931 23.2123 7.2474 23.2123C6.36463 23.2891 5.48186 23.3659 4.63747 23.4042H4.56071H4.52233C4.48395 23.4042 4.40719 23.4042 4.36881 23.4426C5.48186 23.5961 6.6333 23.7497 7.74636 23.9416C7.82312 23.9416 7.97665 23.9416 8.01503 24.0567C8.05341 24.2486 8.09179 24.4405 8.13017 24.6324C7.63121 24.6708 7.13226 24.6708 6.6333 24.7092H6.59492C6.13434 24.7092 5.63538 24.786 5.17481 24.786H5.13643C4.71424 24.8243 4.25365 24.8244 3.83146 24.8627C3.29412 24.8627 2.79517 24.9395 2.25784 24.9395C1.79726 25.0163 1.33669 24.9779 0.914491 25.0163C0.415535 25.0163 -0.0834316 25.093 -0.582388 25.093C-1.08135 25.1698 -1.54192 25.1314 -2.04087 25.1698C-2.23278 25.1698 -2.42469 25.1698 -2.61659 25.1698H-2.69336V25.2082C-2.07926 25.2082 -1.42677 25.2849 -0.812667 25.2849H-0.735911C-0.121811 25.3617 0.530669 25.3233 1.14477 25.3617C1.52858 25.3617 1.9124 25.3617 2.29621 25.4001C2.87193 25.4385 3.44765 25.4001 4.02337 25.4768C4.75261 25.4768 5.48186 25.5536 6.2111 25.5536C6.78682 25.592 7.40093 25.592 7.97665 25.6304C8.32208 25.6687 8.6675 25.6687 9.01293 25.6687C9.74218 25.6687 10.433 25.6687 11.1623 25.6687C11.8915 25.6687 12.5824 25.6687 13.3116 25.6687C13.3116 25.7455 13.2733 25.8223 13.2733 25.899C13.3116 25.8223 13.3116 25.7455 13.35 25.6687C13.4268 25.6687 13.5036 25.6687 13.5419 25.6687C13.6187 25.6687 13.6955 25.6687 13.7722 25.7071C13.3884 27.6262 13.0814 29.5452 12.7359 31.4643C12.6975 31.5795 12.6208 31.6178 12.544 31.6178C12.4673 31.6178 12.3905 31.6178 12.3137 31.5795C12.3137 31.5411 12.3137 31.4643 12.3137 31.4259V31.5411V31.6178C13.0814 31.6178 13.849 31.6178 14.5782 31.6178C16.1135 31.6178 17.6104 31.6178 19.1456 31.6178C19.1456 31.5795 19.1456 31.4643 19.1456 31.4259C19.3759 30.1593 19.6062 28.8928 19.8365 27.6262C19.9516 26.9737 20.0667 26.3212 20.1819 25.6687C20.4889 25.6687 20.7576 25.6687 21.0647 25.6687C21.6404 25.6687 22.2161 25.6687 22.8302 25.6687C22.907 25.6687 22.9837 25.6687 23.0605 25.6687C23.2524 25.6687 23.4443 25.6687 23.5978 25.592C24.0968 25.4385 24.4422 25.0163 24.6725 24.5941C24.9412 24.0567 25.0563 23.5194 25.1331 22.9437C25.1715 22.7134 25.1715 22.4831 25.1715 22.2528C25.1715 21.9841 25.1331 21.6771 25.0179 21.4468C24.8644 21.4468 24.6725 21.4468 24.519 21.4468C24.4038 21.4468 24.2887 21.4468 24.1352 21.4468C24.0584 21.4468 23.9433 21.4468 23.8665 21.4468C23.5594 21.4468 23.2908 21.4468 22.9837 21.4468C22.6767 21.4468 22.3696 21.4468 22.0242 21.4468C21.6404 21.4468 21.2566 21.4468 20.8728 21.4468C20.9111 21.2549 20.9495 21.0246 21.0263 20.8327C21.1798 19.9883 21.3333 19.1055 21.4869 18.2611C21.6788 17.3016 21.9858 16.3421 22.6383 15.5745C23.1756 14.922 23.9433 14.4614 24.7493 14.2695C25.7472 14.0392 26.8219 14.2695 27.8198 14.0008C28.0884 13.9241 28.3955 13.8089 28.549 13.5402C28.6258 13.3867 28.6642 13.1948 28.6642 13.0413C28.6642 12.9261 28.6642 12.7726 28.6642 12.6575C28.549 11.9282 28.3955 11.199 28.1652 10.5081C28.0501 10.2011 27.8965 9.93241 27.6662 9.7405H27.6279C27.4743 9.7405 27.3592 9.66374 27.2057 9.66374C26.937 9.62536 26.6299 9.58698 26.3229 9.58698C26.2461 9.58698 26.2078 9.58698 26.131 9.58698C26.0542 9.58698 25.9391 9.58698 25.8623 9.58698C24.5957 9.62536 23.3292 9.7405 22.101 10.0859Z" fill="white"/>
<path d="M20.9901 20.871C21.9881 20.871 22.986 20.871 23.9839 20.871C24.3677 20.871 24.7899 21.1013 24.9434 21.4851C24.5596 21.5235 24.1758 21.4851 23.8304 21.4851C22.8324 21.4851 21.8729 21.4851 20.875 21.4851C20.9134 21.2932 20.9518 21.0629 20.9901 20.871Z" fill="white" fill-opacity="0.4"/>
<path d="M20.9888 20.871C21.2191 20.871 21.4494 20.871 21.6796 20.871C22.0635 20.871 22.4856 20.871 22.8695 20.871C23.2533 20.871 23.5987 20.871 23.9825 20.871C24.3663 20.871 24.7885 21.1013 24.942 21.4468C24.7885 21.4468 24.5966 21.4468 24.4431 21.4468C24.328 21.4468 24.2128 21.4468 24.0593 21.4468C23.9825 21.4468 23.8674 21.4468 23.7906 21.4468C23.4836 21.4468 23.2149 21.4468 22.9078 21.4468C22.6008 21.4468 22.2937 21.4468 21.9483 21.4468C21.5645 21.4468 21.1807 21.4468 20.7969 21.4468C20.912 21.2932 20.9504 21.0629 20.9888 20.871C20.912 21.0629 20.8736 21.2548 20.8353 21.4851C21.2191 21.4851 21.6029 21.4851 21.9867 21.4851C22.2937 21.4851 22.6008 21.4851 22.9462 21.4851C23.2533 21.4851 23.5219 21.4851 23.829 21.4851C23.9058 21.4851 24.0209 21.4851 24.0977 21.4851C24.2128 21.4851 24.328 21.4851 24.4815 21.4851C24.635 21.4851 24.8269 21.4851 24.9804 21.4851C24.8269 21.1013 24.4047 20.871 24.0209 20.871C23.6371 20.871 23.2917 20.871 22.9078 20.871C22.524 20.871 22.1018 20.871 21.718 20.871C21.4494 20.871 21.2191 20.871 20.9888 20.871Z" fill="white" fill-opacity="0.4"/>
<path d="M13.3136 25.7455C13.4672 25.7071 13.6207 25.7071 13.7358 25.7455C13.352 27.6645 13.045 29.5836 12.6995 31.5027C12.6612 31.6946 12.3925 31.6178 12.2773 31.6178C12.2773 31.5794 12.2773 31.5027 12.2773 31.4643C12.6228 29.622 12.9298 27.7797 13.2753 25.9374C13.2753 25.899 13.2753 25.8222 13.3136 25.7455Z" fill="white" fill-opacity="0.4"/>
<path d="M13.313 25.7454C13.3897 25.7454 13.4665 25.7454 13.5049 25.7454C13.5816 25.7454 13.6584 25.7454 13.7351 25.7838C13.3513 27.7029 13.0443 29.6219 12.6988 31.541C12.6605 31.6561 12.5837 31.6945 12.5069 31.6945C12.4302 31.6945 12.3534 31.6945 12.2767 31.6561C12.2767 31.6178 12.2767 31.541 12.2767 31.5026C12.6221 29.6603 12.9291 27.818 13.2746 25.9757C13.2746 25.8989 13.2746 25.8222 13.313 25.7454C13.2746 25.8222 13.2746 25.8989 13.2362 25.9757C12.8908 27.818 12.5837 29.6603 12.2383 31.5026C12.2383 31.541 12.2383 31.6178 12.2383 31.6561C12.315 31.6561 12.3918 31.6945 12.4686 31.6945C12.5837 31.6945 12.6605 31.6561 12.6605 31.541C13.0059 29.6219 13.3513 27.7029 13.6968 25.7838C13.62 25.7838 13.5432 25.7454 13.4665 25.7454C13.4281 25.7454 13.3897 25.7454 13.313 25.7454Z" fill="white" fill-opacity="0.4"/>
</g>
<defs>
<clipPath id="clip0_1926_117815">
<rect width="32" height="32" rx="8" fill="white"/>
</clipPath>
</defs>
</svg>
