<svg width="32" height="32" viewBox="0 0 32 32" fill="none" xmlns="http://www.w3.org/2000/svg">
<g clip-path="url(#clip0_1924_105846)">
<path d="M17.6762 19.985C16.8363 19.97 15.9967 19.9561 15.1574 19.9431C13.7742 19.9214 12.5391 19.493 11.9642 18.1615C11.6337 17.3952 11.6898 16.6139 11.8296 15.7758C12.1267 13.9989 12.4399 12.2247 12.7694 10.4533C13.141 8.45635 14.6235 7.0949 16.6138 6.76369C16.7573 6.73977 17.1114 6.71709 17.6762 6.69566C19.3015 6.6336 20.9441 6.67024 22.556 6.67472C22.5657 6.67478 22.5752 6.67696 22.5839 6.68111C22.5926 6.68526 22.6003 6.69127 22.6065 6.69874C22.6127 6.7062 22.6172 6.71494 22.6197 6.72435C22.6222 6.73376 22.6227 6.74361 22.6211 6.75322C21.8002 11.5105 20.9972 16.2655 20.115 20.9995C19.9929 21.655 19.8705 22.1369 19.7479 22.4455C18.8888 24.6084 16.9181 25.3194 14.723 25.3246C13.1634 25.3281 11.6101 25.3284 10.0629 25.3254C10.0514 25.3253 10.04 25.3223 10.03 25.3165C10.02 25.3108 10.0116 25.3026 10.0056 25.2927C9.99971 25.2827 9.99643 25.2715 9.99612 25.2599C9.99581 25.2484 9.99848 25.2369 10.0039 25.2267C10.3951 24.496 10.7971 23.7738 11.2098 23.06C11.3825 22.761 11.4962 22.7131 11.858 22.7124C13.0886 22.7084 14.3193 22.7027 15.5499 22.6952C17.0153 22.6862 17.2672 22.1569 17.5595 20.8575C17.6218 20.5823 17.6714 20.3042 17.7083 20.0231C17.709 20.0184 17.7086 20.0136 17.7073 20.009C17.706 20.0044 17.7037 20.0002 17.7007 19.9966C17.6976 19.993 17.6939 19.9901 17.6897 19.9881C17.6854 19.9861 17.6808 19.985 17.6762 19.985ZM14.3731 16.3537C14.3656 17.5507 15.92 17.3323 16.6609 17.3271C16.6843 17.3271 16.7071 17.3339 16.7267 17.3466C16.8171 17.4056 17.6963 17.3638 17.8653 17.363C18.0619 17.3623 18.2062 17.2434 18.2376 17.061C18.606 14.8938 18.9756 12.7274 19.3464 10.5617C19.4959 9.68697 18.9292 9.33707 18.1636 9.30492C16.9592 9.25334 15.6187 9.16511 15.3248 10.6552C15.1668 11.4561 14.9316 12.7682 14.6191 14.5915C14.4566 15.541 14.3746 16.1284 14.3731 16.3537Z" fill="#121212"/>
</g>
<rect x="1" y="1" width="30" height="30" rx="7" stroke="#121212" stroke-width="2"/>
<defs>
<clipPath id="clip0_1924_105846">
<rect width="32" height="32" rx="8" fill="white"/>
</clipPath>
</defs>
</svg>
