<svg width="32" height="32" viewBox="0 0 32 32" fill="none" xmlns="http://www.w3.org/2000/svg">
<path d="M8.55905 15.9506V25.5009H4.81771C4.09054 25.5009 3.5 24.9122 3.5 24.1831V12.1562L8.55905 15.9506Z" fill="white" stroke="white" stroke-linecap="round"/>
<path d="M23.6016 26.0009H27.8429C28.8487 26.0009 29.6606 25.1859 29.6606 24.1831V11.1562L23.6016 15.7006" fill="white"/>
<mask id="mask0_80_6664" style="mask-type:luminance" maskUnits="userSpaceOnUse" x="23" y="11" width="7" height="15">
<path d="M23.6016 26.0009H27.8429C28.8487 26.0009 29.6606 25.1859 29.6606 24.1831V11.1562L23.6016 15.7006" fill="white"/>
</mask>
<g mask="url(#mask0_80_6664)">
<path d="M23.6015 25.0009C23.0492 25.0009 22.6015 25.4487 22.6015 26.0009C22.6015 26.5532 23.0492 27.0009 23.6015 27.0009V25.0009ZM29.6605 11.1563H30.6605V9.15625L29.0605 10.3563L29.6605 11.1563ZM23.0015 14.9006C22.5596 15.2319 22.4701 15.8587 22.8015 16.3006C23.1328 16.7424 23.7596 16.8319 24.2015 16.5006L23.0015 14.9006ZM23.6015 27.0009H27.8428V25.0009H23.6015V27.0009ZM27.8428 27.0009C29.402 27.0009 30.6605 25.7372 30.6605 24.1832H28.6605C28.6605 24.6348 28.2952 25.0009 27.8428 25.0009V27.0009ZM30.6605 24.1832V11.1563H28.6605V24.1832H30.6605ZM29.0605 10.3563L23.0015 14.9006L24.2015 16.5006L30.2605 11.9563L29.0605 10.3563Z" fill="white"/>
</g>
<path d="M23.6016 7.82287V15.6996L29.6606 11.1553V8.73173C29.6606 6.48382 27.0946 5.20233 25.2981 6.55047" fill="#121212" fill-opacity="0.7"/>
<mask id="mask1_80_6664" style="mask-type:luminance" maskUnits="userSpaceOnUse" x="23" y="6" width="7" height="10">
<path d="M23.6016 7.82287V15.6996L29.6606 11.1553V8.73173C29.6606 6.48382 27.0946 5.20233 25.2981 6.55047" fill="white"/>
</mask>
<g mask="url(#mask1_80_6664)">
<path d="M24.6016 7.82272C24.6016 7.27044 24.1538 6.82272 23.6016 6.82272C23.0493 6.82272 22.6016 7.27044 22.6016 7.82272H24.6016ZM23.6016 15.6995H22.6016V17.6995L24.2016 16.4995L23.6016 15.6995ZM29.6606 11.1552L30.2606 11.9552L30.6606 11.6552V11.1552H29.6606ZM24.6979 5.75048C24.2561 6.08197 24.1668 6.7088 24.4983 7.15054C24.8297 7.59227 25.5583 9.83149 26 9.5L24.6979 5.75048ZM22.6016 7.82272V15.6995H24.6016V7.82272H22.6016ZM24.2016 16.4995L30.2606 11.9552L25.2981 6.55032L22 9L24.2016 16.4995ZM30.6606 11.1552V8.73158L28 10.5L28.6606 11.1552H30.6606ZM30.6606 8.73158C30.6606 5.65938 27.1535 3.90774 24.6979 5.75048L26 9.5C27.1374 8.64647 28 9.07638 28 10.5L30.6606 8.73158Z" fill="white"/>
</g>
<path d="M9.06055 15.699V7.82227L16.3314 13.2754L23.6023 7.82227V15.699L16.3314 21.1522" fill="white"/>
<mask id="mask2_80_6664" style="mask-type:luminance" maskUnits="userSpaceOnUse" x="9" y="7" width="15" height="15">
<path d="M9.06055 15.699V7.82227L16.3314 13.2754L23.6023 7.82227V15.699L16.3314 21.1522" fill="white"/>
</mask>
<g mask="url(#mask2_80_6664)">
<path d="M8.06055 15.699C8.06055 16.2513 8.50826 16.699 9.06055 16.699C9.61283 16.699 10.0605 16.2513 10.0605 15.699H8.06055ZM9.06055 7.82227L9.66055 7.02227L8.06055 5.82227V7.82227H9.06055ZM16.3314 13.2754L15.7314 14.0754L16.3314 14.5254L16.9314 14.0754L16.3314 13.2754ZM23.6023 7.82227H24.6023V5.82227L23.0023 7.02227L23.6023 7.82227ZM23.6023 15.699L24.2023 16.499L24.6023 16.199V15.699H23.6023ZM15.7314 20.3522C15.2896 20.6836 15.2 21.3104 15.5314 21.7522C15.8628 22.194 16.4896 22.2836 16.9314 21.9522L15.7314 20.3522ZM10.0605 15.699V7.82227H8.06055V15.699H10.0605ZM8.46055 8.62227L15.7314 14.0754L16.9314 12.4754L9.66055 7.02227L8.46055 8.62227ZM16.9314 14.0754L24.2023 8.62227L23.0023 7.02227L15.7314 12.4754L16.9314 14.0754ZM22.6023 7.82227V15.699H24.6023V7.82227H22.6023ZM23.0023 14.899L15.7314 20.3522L16.9314 21.9522L24.2023 16.499L23.0023 14.899Z" fill="white"/>
</g>
<path d="M3 8.73173V11.1553L9.05905 15.6996V7.82287L7.36252 6.55047C5.56298 5.20233 3 6.48382 3 8.73173Z" fill="#121212" fill-opacity="0.8"/>
<mask id="mask3_80_6664" style="mask-type:luminance" maskUnits="userSpaceOnUse" x="3" y="6" width="7" height="10">
<path d="M3 8.73173V11.1553L9.05905 15.6996V7.82287L7.36252 6.55047C5.56298 5.20233 3 6.48382 3 8.73173Z" fill="white"/>
</mask>
<g mask="url(#mask3_80_6664)">
<path d="M4 8.73126C4 8.17897 3.55228 7.73126 3 7.73126C2.44772 7.73126 2 8.17897 2 8.73126H4ZM3 11.1548H2V11.6548L2.4 11.9548L3 11.1548ZM9.05905 15.6991L8.45905 16.4991L10.059 17.6991V15.6991H9.05905ZM9.05905 7.8224H10.059V7.3224L9.65905 7.0224L9.05905 7.8224ZM2 8.73126C2 9.28354 2.44772 9.73126 3 9.73126C3.55228 9.73126 4 9.28354 4 8.73126H2ZM2 8.73126V11.1548H4V8.73126H2ZM2.4 11.9548L8.45905 16.4991V8C8.45905 8 6.36982 6.68237 5 7C2.87127 7.4936 2.4 11.9548 2.4 11.9548ZM10.059 15.6991V7.8224H8.05905V15.6991H10.059ZM9.65905 7.0224L7.96252 5.75L6.76251 7.35L8.45905 8.6224L9.65905 7.0224ZM7.96252 5.75C5.50433 3.90842 2 5.65875 2 8.73126H4C4 7.30795 5.62163 6.49531 6.76251 7.35L7.96252 5.75Z" fill="white"/>
</g>
</svg>
