<svg width="32" height="33" viewBox="0 0 32 33" fill="none" xmlns="http://www.w3.org/2000/svg">
<path d="M8.55905 16.4496V25.9999H4.81771C4.09054 25.9999 3.5 25.4113 3.5 24.6822V12.6553L8.55905 16.4496Z" fill="#121212" stroke="#121212" stroke-linecap="round"/>
<path d="M23.6016 26.4999H27.8429C28.8487 26.4999 29.6606 25.685 29.6606 24.6822V11.6553L23.6016 16.1996" fill="#121212"/>
<path d="M23.6016 8.32287V16.1996L29.6606 11.6553V9.23173C29.6606 6.98382 27.0946 5.70233 25.2981 7.05047" fill="#121212"/>
<path d="M9.06055 16.2V8.32324L16.3314 13.7764L23.6023 8.32324V16.2L16.3314 21.6532" fill="#121212"/>
<path d="M3 9.23173V11.6553L9.05905 16.1996V8.32287L7.36252 7.05047C5.56298 5.70233 3 6.98382 3 9.23173Z" fill="#121212"/>
</svg>
