<svg width="32" height="32" viewBox="0 0 32 32" fill="none" xmlns="http://www.w3.org/2000/svg">
<path d="M4.81771 25.9999H9.05905V15.6996L3 11.1553V24.1822C3 25.188 3.81494 25.9999 4.81771 25.9999Z" fill="#4285F4"/>
<path d="M23.6016 25.9999H27.8429C28.8487 25.9999 29.6606 25.185 29.6606 24.1822V11.1553L23.6016 15.6996" fill="#34A853"/>
<path d="M23.6016 7.82287V15.6996L29.6606 11.1553V8.73173C29.6606 6.48382 27.0946 5.20233 25.2981 6.55047" fill="#FBBC04"/>
<path d="M9.06055 15.6996V7.82288L16.3314 13.276L23.6023 7.82288V15.6996L16.3314 21.1528" fill="#EA4335"/>
<path d="M3 8.73173V11.1553L9.05905 15.6996V7.82287L7.36252 6.55047C5.56298 5.20233 3 6.48382 3 8.73173" fill="#C5221F"/>
</svg>
