<svg width="32" height="32" viewBox="0 0 32 32" fill="none" xmlns="http://www.w3.org/2000/svg">
<path d="M18.146 4.163C17.613 4.058 17.0635 4 16.5 4C14.145 4 12.01 4.965 10.47 6.52L13.93 9.316L18.146 4.163ZM13.2975 10.089L9.81 7.275C8.675 8.715 8 10.535 8 12.5C8 13.6405 8.226 14.7435 8.652 15.767L13.2975 10.089ZM15.304 9.216C15.6765 9.0795 16.077 9 16.5 9C18.435 9 20 10.565 20 12.5C20 12.669 19.984 12.8335 19.961 12.996L23.847 8.2465C22.818 6.477 21.173 5.1125 19.2045 4.449L15.304 9.216ZM17.6705 15.7955C17.304 15.9255 16.911 16 16.5 16C14.565 16 13 14.435 13 12.5C13 12.323 13.017 12.15 13.042 11.9805L9.1405 16.749C9.3335 17.082 9.545 17.4065 9.785 17.715C9.97 17.965 10.22 18.285 10.51 18.66C11.1435 19.4765 11.9895 20.568 12.805 21.742L17.6705 15.7955ZM13.389 22.6075C14.43 24.1995 15.315 25.856 15.475 27.135C15.545 27.63 15.97 28 16.47 28C16.98 28 17.405 27.625 17.465 27.125C17.77 24.71 20.75 20.885 22.355 18.825C22.635 18.465 22.88 18.15 23.105 17.855C24.325 16.345 25 14.445 25 12.5C25 11.339 24.7645 10.232 24.3405 9.2225L13.389 22.6075Z" fill="#121212"/>
</svg>
