<svg width="32" height="32" viewBox="0 0 32 32" fill="none" xmlns="http://www.w3.org/2000/svg">
<g clip-path="url(#clip0_1934_105515)">
<path d="M2.66667 32H23.1111L32 23.1111V2.66667C32 1.15556 30.8444 0 29.3333 0H2.66667C1.15556 0 0 1.15556 0 2.66667V29.3333C0 30.8444 1.15556 32 2.66667 32Z" fill="#FFC107"/>
<path d="M23.1099 32V23.1111H31.9988L23.1099 32Z" fill="#FFECB3"/>
<path d="M19.5556 26.6666H12.4444V19.6443C9.68889 18.311 8 15.5554 8 12.4443C8 7.99989 11.5556 4.44434 16 4.44434C20.4444 4.44434 24 7.99989 24 12.4443C24 15.5554 22.3111 18.2221 19.5556 19.6443V26.6666ZM14.2222 24.8888H17.7778V18.3999L18.3111 18.1332C20.7111 17.1554 22.2222 14.9332 22.2222 12.3554C22.2222 8.88878 19.4667 6.13322 16 6.13322C12.5333 6.13322 9.77778 8.88878 9.77778 12.3554C9.77778 14.9332 11.2889 17.1554 13.6889 18.1332L14.2222 18.3999V24.8888Z" fill="white"/>
<path d="M14.2219 25.7777H17.7775V28.4444H14.2219V25.7777ZM13.333 21.3333H18.6663V23.111H13.333V21.3333Z" fill="white"/>
</g>
<defs>
<clipPath id="clip0_1934_105515">
<rect width="32" height="32" rx="8" fill="white"/>
</clipPath>
</defs>
</svg>
