<svg width="25" height="24" viewBox="0 0 25 24" fill="none" xmlns="http://www.w3.org/2000/svg">
<rect width="24" height="24" transform="translate(0.5)" fill="white"/>
<path fill-rule="evenodd" clip-rule="evenodd" d="M20.66 12.1918C20.66 11.589 20.606 11.0095 20.5055 10.4531H12.5V13.7411H17.0746C16.8775 14.8036 16.2787 15.7038 15.3784 16.3065V18.4393H18.1255C19.7328 16.9595 20.66 14.7804 20.66 12.1918Z" fill="#4285F4"/>
<path fill-rule="evenodd" clip-rule="evenodd" d="M12.5 20.5022C14.795 20.5022 16.7191 19.7411 18.1255 18.4429L15.3784 16.3101C14.6173 16.8201 13.6436 17.1215 12.5 17.1215C10.2861 17.1215 8.41227 15.6263 7.74386 13.6172H4.90408V15.8195C6.30272 18.5974 9.17727 20.5022 12.5 20.5022Z" fill="#34A853"/>
<path fill-rule="evenodd" clip-rule="evenodd" d="M7.74378 13.612C7.57378 13.102 7.47719 12.5572 7.47719 11.997C7.47719 11.4367 7.57378 10.892 7.74378 10.382V8.17969H4.904C4.32832 9.32719 3.99991 10.6254 3.99991 11.997C3.99991 13.3686 4.32832 14.6667 4.904 15.8142L7.74378 13.612Z" fill="#FBBC05"/>
<path fill-rule="evenodd" clip-rule="evenodd" d="M12.5 6.88069C13.748 6.88069 14.8684 7.30955 15.7493 8.15183L18.1873 5.71387C16.7152 4.34227 14.7911 3.5 12.5 3.5C9.17727 3.5 6.30272 5.40478 4.90408 8.18273L7.74386 10.385C8.41227 8.37592 10.2861 6.88069 12.5 6.88069Z" fill="#EA4335"/>
</svg>
