<svg width="32" height="32" viewBox="0 0 32 32" fill="none" xmlns="http://www.w3.org/2000/svg">
<path d="M5.03086 2C3.81646 2 3 2.87646 3 4.18086V28.618C3 29.923 3.81646 30.8 5.03086 30.8C5.69566 30.8 6.14263 30.6205 6.60703 30.3523L27.4617 18.4168C27.7923 18.226 28.8 17.6468 28.8 16.4C28.8 15.152 27.7929 14.5728 27.4617 14.382L25.9219 13.4973C24.5406 8.93885 20.3051 5.61172 15.3 5.61172C14.4017 5.61172 13.533 5.73068 12.6961 5.93281L6.60937 2.44766C6.14257 2.17886 5.69566 2 5.03086 2ZM15.3 6.81172C20.7747 6.81172 25.2 11.237 25.2 16.7117C25.2 17.2959 25.1376 17.8636 25.0406 18.4191L20.809 20.8414C21.6782 19.6871 22.2 18.2562 22.2 16.7C22.2 12.8894 19.1106 9.8 15.3 9.8C11.4894 9.8 8.4 12.8894 8.4 16.7C8.4 20.5106 11.4894 23.6 15.3 23.6C15.5597 23.6 15.8153 23.5834 16.0676 23.5555L11.8254 25.9836C8.07365 24.5772 5.4 20.9616 5.4 16.7117C5.4 11.237 9.82526 6.81172 15.3 6.81172ZM15.6 12.8H18V14.525H16.5V18.425C16.5 19.3016 15.6666 20 14.775 20C13.9008 20 13.2 19.2956 13.2 18.4016C13.2 17.525 13.9021 16.8043 14.7937 16.8043C15.0853 16.8043 15.36 16.8896 15.6 17.027V12.8Z" fill="white"/>
</svg>
