<svg width="32" height="32" viewBox="0 0 32 32" fill="none" xmlns="http://www.w3.org/2000/svg">
<rect width="32" height="32" rx="8" fill="white"/>
<path fill-rule="evenodd" clip-rule="evenodd" d="M23.5455 13.1014L23.5453 13.1401C23.5453 13.1564 23.5451 13.1726 23.5449 13.1889C23.5453 13.2079 23.5455 13.2271 23.5455 13.2464C23.5455 16.2793 21.1825 18.964 19.6012 20.7606C19.1424 21.2819 18.7494 21.7284 18.4991 22.087C17.6085 23.3623 17.1385 24.744 17.0148 25.2754C17.0148 25.6756 16.6826 26 16.2727 26C15.8629 26 15.5306 25.6756 15.5306 25.2754C15.4069 24.744 14.9369 23.3623 14.0464 22.087C13.796 21.7284 13.403 21.2819 12.9442 20.7606C11.363 18.964 9 16.2793 9 13.2464C9 13.2271 9.00018 13.2079 9.00054 13.1889C9.00018 13.1598 9 13.1306 9 13.1014C9 9.17942 12.2561 6 16.2727 6C20.2894 6 23.5455 9.17942 23.5455 13.1014ZM16.2727 15.7101C17.8302 15.7101 19.0928 14.4773 19.0928 12.9565C19.0928 11.4357 17.8302 10.2029 16.2727 10.2029C14.7153 10.2029 13.4527 11.4357 13.4527 12.9565C13.4527 14.4773 14.7153 15.7101 16.2727 15.7101Z" fill="#34A851"/>
<path d="M22.732 9.83509C21.8415 8.15954 20.2872 6.87437 18.4093 6.31165L14.2324 11.0559C14.746 10.5305 15.4702 10.2032 16.2727 10.2032C17.8302 10.2032 19.0928 11.436 19.0928 12.9568C19.0928 13.5772 18.8826 14.1497 18.5281 14.6101L22.732 9.83509Z" fill="#4285F5"/>
<path d="M13.0283 20.8565C13.0004 20.8248 12.9723 20.7929 12.9439 20.7607C11.9016 19.5765 10.5197 18.0063 9.69873 16.2049L14.0399 11.274C13.6716 11.7394 13.4524 12.323 13.4524 12.9566C13.4524 14.4774 14.715 15.7102 16.2725 15.7102C17.0614 15.7102 17.7747 15.3939 18.2865 14.884L13.0283 20.8565Z" fill="#F9BB0E"/>
<path d="M10.7208 8.51428C9.64734 9.75176 9 11.3529 9 13.1016C9 13.1308 9.00018 13.16 9.00054 13.1891C9.00018 13.2081 9 13.2272 9 13.2465C9 14.2803 9.27451 15.2736 9.69899 16.205L14.0329 11.2824L10.7208 8.51428Z" fill="#E74335"/>
<path d="M18.4092 6.3114C17.7336 6.10898 17.0161 6 16.2726 6C14.0469 6 12.0548 6.97624 10.7207 8.51412L14.0328 11.2822L14.04 11.2741C14.1002 11.198 14.1645 11.125 14.2324 11.0555L18.4092 6.3114Z" fill="#1A73E6"/>
</svg>
