<svg width="32" height="32" viewBox="0 0 32 32" fill="none" xmlns="http://www.w3.org/2000/svg">
<path d="M4.66667 2C3.20178 2 2 3.20178 2 4.66667V27.3333C2 28.7982 3.20178 30 4.66667 30H22.6094L22.8047 29.8047L30 22.6094V4.66667C30 3.20178 28.7982 2 27.3333 2H4.66667ZM4.66667 3.33333H27.3333C28.0778 3.33333 28.6667 3.92222 28.6667 4.66667V21.3333H24C22.5351 21.3333 21.3333 22.5351 21.3333 24V28.6667H4.66667C3.92222 28.6667 3.33333 28.0778 3.33333 27.3333V4.66667C3.33333 3.92222 3.92222 3.33333 4.66667 3.33333ZM16 6.66667C12.8904 6.66667 10.3204 9.04568 10.0273 12.0846V12.0859C10.0095 12.2759 10 12.4699 10 12.6667C10 15.0048 11.3704 16.9947 13.3307 17.9831C13.3323 19.4018 13.3333 22.6667 13.3333 22.6667V23.3333H14.6667V24.6667H17.3333V23.3333H18.6667V22.6667C18.6667 22.6667 18.6677 19.4018 18.6693 17.9831C20.6296 16.9947 22 15.0048 22 12.6667C22 9.36099 19.3057 6.66667 16 6.66667ZM16 8C18.585 8 20.6667 10.0817 20.6667 12.6667C20.6667 14.6303 19.4587 16.3018 17.7513 16.9935L17.3359 17.1615V17.6107C17.3353 18.0102 17.335 18.655 17.3346 19.3333H14.6654C14.665 18.655 14.6647 18.0102 14.6641 17.6107V17.1615L14.2487 16.9935C12.5413 16.3018 11.3333 14.6303 11.3333 12.6667C11.3333 12.5145 11.3414 12.3631 11.3555 12.2122C11.5837 9.84586 13.5682 8 16 8ZM14.6654 20.6667H17.3346C17.3345 21.1432 17.3333 21.7601 17.3333 22H14.6667C14.6667 21.7601 14.6655 21.1432 14.6654 20.6667ZM24 22.6667H28.0573L22.6667 28.0573V24C22.6667 23.2556 23.2556 22.6667 24 22.6667Z" fill="white"/>
</svg>
