<svg width="32" height="32" viewBox="0 0 32 32" fill="none" xmlns="http://www.w3.org/2000/svg">
<path d="M15.8021 16.3962V19.0359H14.959V12.5199H17.1952C17.7346 12.5095 18.2531 12.7121 18.6459 13.0862C19.0386 13.4344 19.2586 13.9384 19.2481 14.458C19.2586 14.9828 19.0386 15.4869 18.6459 15.8402C18.2531 16.2091 17.7713 16.3962 17.2004 16.3962H15.8021ZM15.8021 13.3201V15.596H17.2162C17.5304 15.6064 17.8341 15.4817 18.0488 15.2582C18.494 14.8322 18.4992 14.1307 18.0698 13.689L18.0488 13.6682C17.8341 13.4396 17.5304 13.3149 17.2162 13.3253L15.8021 13.3201ZM21.1911 14.432C21.8143 14.432 22.3066 14.5983 22.6679 14.9257C23.0293 15.2582 23.2073 15.7103 23.2073 16.2871V19.0307H22.4008V18.4123H22.3642C22.0133 18.9215 21.5524 19.1762 20.9711 19.1762C20.4788 19.1762 20.0599 19.0307 19.7299 18.7397C19.4052 18.4695 19.2219 18.0694 19.2324 17.6485C19.2324 17.186 19.4105 16.8223 19.7614 16.5469C20.1122 16.2715 20.5836 16.1364 21.1701 16.1364C21.6729 16.1364 22.0814 16.2299 22.4061 16.4066V16.2143C22.4061 15.9285 22.2804 15.6583 22.0604 15.4765C21.8352 15.279 21.5472 15.1699 21.2487 15.1699C20.7774 15.1699 20.4055 15.3674 20.128 15.7623L19.3843 15.2998C19.7875 14.723 20.3898 14.432 21.1911 14.432ZM20.1018 17.6693C20.1018 17.8875 20.2065 18.0902 20.3793 18.2149C20.5679 18.3604 20.7983 18.4383 21.034 18.4331C21.3901 18.4331 21.7305 18.2928 21.9819 18.0434C22.2594 17.7836 22.4008 17.477 22.4008 17.1237C22.139 16.9158 21.7724 16.8119 21.3011 16.8119C20.9606 16.8119 20.6726 16.895 20.4422 17.0561C20.217 17.2224 20.1018 17.425 20.1018 17.6693ZM27.8369 14.5775L25.0194 21H24.15L25.1974 18.7553L23.3435 14.5827H24.26L25.5954 17.7836H25.6164L26.9204 14.5827L27.8369 14.5775Z" fill="white"/>
<path d="M12.3903 15.8246C12.3903 15.57 12.3693 15.3154 12.3274 15.0659H8.77148V16.5053H10.8087C10.7249 16.9678 10.4526 17.3834 10.0546 17.6433V18.5786H11.2696C11.9818 17.929 12.3903 16.9678 12.3903 15.8246Z" fill="white"/>
<path d="M8.77172 19.4827C9.78771 19.4827 10.6466 19.1501 11.2698 18.5786L10.0548 17.6433C9.71439 17.8719 9.27972 18.0018 8.77172 18.0018C7.78716 18.0018 6.95446 17.3419 6.65595 16.4585H5.4043V17.425C6.04322 18.6825 7.34724 19.4827 8.77172 19.4827Z" fill="white"/>
<path d="M6.65621 16.4585C6.4991 15.9961 6.4991 15.4921 6.65621 15.0244V14.0631H5.40456C5.1386 14.5832 5 15.1582 5 15.7415C5 16.3247 5.1386 16.8997 5.40456 17.4198L6.65621 16.4585Z" fill="white"/>
<path d="M8.77172 13.4811C9.31114 13.4707 9.82961 13.6734 10.2171 14.0423L11.2907 12.9771C10.6099 12.338 9.70916 11.9898 8.77172 12.0002C7.34724 12.0002 6.04322 12.8004 5.4043 14.0631L6.65595 15.0296C6.95446 14.1411 7.78716 13.4811 8.77172 13.4811Z" fill="white"/>
<rect x="0.5" y="0.5" width="31" height="31" rx="7.5" stroke="white"/>
</svg>
