<svg width="32" height="32" viewBox="0 0 32 32" fill="none" xmlns="http://www.w3.org/2000/svg">
<rect width="32" height="32" rx="8" fill="white"/>
<path d="M15.0013 15.8847V18.8176H14.0645V11.5776H16.5491C17.1485 11.5661 17.7246 11.7912 18.161 12.2069C18.5974 12.5937 18.8418 13.1538 18.8302 13.7311C18.8418 14.3143 18.5974 14.8743 18.161 15.2669C17.7246 15.6768 17.1892 15.8847 16.555 15.8847H15.0013ZM15.0013 12.4667V14.9955H16.5724C16.9216 15.0071 17.259 14.8685 17.4976 14.6202C17.9922 14.1468 17.9981 13.3674 17.5209 12.8766L17.4976 12.8536C17.259 12.5995 16.9216 12.461 16.5724 12.4725L15.0013 12.4667ZM20.989 13.7023C21.6814 13.7023 22.2284 13.887 22.6299 14.2507C23.0314 14.6202 23.2293 15.1225 23.2293 15.7634V18.8118H22.3332V18.1248H22.2924C21.9026 18.6906 21.3905 18.9735 20.7446 18.9735C20.1976 18.9735 19.7321 18.8118 19.3655 18.4885C19.0047 18.1883 18.8011 17.7437 18.8127 17.2761C18.8127 16.7622 19.0105 16.3581 19.4004 16.0521C19.7903 15.7461 20.314 15.596 20.9657 15.596C21.5243 15.596 21.9782 15.6999 22.339 15.8962V15.6826C22.339 15.365 22.1993 15.0648 21.9549 14.8627C21.7047 14.6433 21.3847 14.5221 21.053 14.5221C20.5293 14.5221 20.1161 14.7415 19.8077 15.1803L18.9815 14.6664C19.4295 14.0256 20.0987 13.7023 20.989 13.7023ZM19.7786 17.2992C19.7786 17.5417 19.895 17.7668 20.0871 17.9054C20.2965 18.067 20.5526 18.1536 20.8144 18.1479C21.2101 18.1479 21.5883 17.992 21.8676 17.7149C22.1761 17.4262 22.3332 17.0855 22.3332 16.6929C22.0422 16.462 21.6349 16.3465 21.1112 16.3465C20.733 16.3465 20.4129 16.4389 20.1569 16.6179C19.9067 16.8026 19.7786 17.0278 19.7786 17.2992ZM28.3732 13.8639L25.2426 21H24.2767L25.4405 18.5058L23.3806 13.8697H24.3989L25.8827 17.4262H25.906L27.3549 13.8697L28.3732 13.8639Z" fill="#5F6368"/>
<path d="M11.2123 15.2496C11.2123 14.9666 11.189 14.6837 11.1425 14.4066H7.19141V16.0059H9.45497C9.36187 16.5197 9.05929 16.9816 8.61705 17.2703V18.3095H9.96704C10.7584 17.5878 11.2123 16.5197 11.2123 15.2496Z" fill="#4285F4"/>
<path d="M7.1908 19.3141C8.31967 19.3141 9.27398 18.9446 9.96643 18.3095L8.61644 17.2703C8.2382 17.5243 7.75523 17.6687 7.1908 17.6687C6.09684 17.6687 5.17162 16.9354 4.83994 15.9539H3.44922V17.0278C4.15913 18.425 5.60804 19.3141 7.1908 19.3141Z" fill="#34A853"/>
<path d="M4.84023 15.9539C4.66567 15.4401 4.66567 14.88 4.84023 14.3604V13.2923H3.44951C3.154 13.8702 3 14.5091 3 15.1572C3 15.8052 3.154 16.4441 3.44951 17.022L4.84023 15.9539Z" fill="#FBBC04"/>
<path d="M7.1908 12.6457C7.79015 12.6342 8.36622 12.8593 8.79682 13.2692L9.98971 12.0857C9.23324 11.3755 8.23239 10.9887 7.1908 11.0003C5.60805 11.0003 4.15913 11.8894 3.44922 13.2923L4.83994 14.3662C5.17162 13.3789 6.09684 12.6457 7.1908 12.6457Z" fill="#EA4335"/>
</svg>
