<svg width="32" height="32" viewBox="0 0 32 32" fill="none" xmlns="http://www.w3.org/2000/svg">
<g clip-path="url(#clip0_1926_106936)">
<path d="M8.43735 13.5639C8.46568 13.7216 8.51367 13.8787 8.5188 14.0372C8.53754 14.6163 8.45304 15.1799 8.2189 15.7149C7.79709 16.6789 7.0468 17.2693 6.06142 17.5708C5.58721 17.7159 5.0878 17.7485 4.59695 17.6979C3.54936 17.5897 2.66706 17.1334 1.98027 16.3316C1.78727 16.1063 1.64747 15.8355 1.48153 15.5652C1.47009 15.5293 1.46039 15.5137 1.45068 15.4982C1.45068 15.4982 1.45272 15.4984 1.45148 15.4903C1.44041 15.4675 1.43058 15.4527 1.42076 15.438C1.42076 15.438 1.42258 15.4379 1.42282 15.4279C1.40464 15.3824 1.38622 15.3469 1.3678 15.3115C1.3678 15.3115 1.36425 15.3012 1.36188 15.2867C1.34979 15.257 1.34007 15.2419 1.33036 15.2267C1.33036 15.2267 1.33211 15.2268 1.33256 15.2148C1.31542 15.1252 1.30349 15.0457 1.27933 14.9702C1.09564 14.3956 1.06462 13.8118 1.17628 13.221C1.21975 12.991 1.27923 12.7641 1.33162 12.5367C1.33182 12.5376 1.32988 12.5375 1.33917 12.5321C1.37281 12.4593 1.39716 12.3919 1.42203 12.3253C1.42256 12.3261 1.42071 12.3261 1.42764 12.3202C1.44035 12.2974 1.44614 12.2804 1.45212 12.2645C1.45232 12.2655 1.45019 12.2659 1.45719 12.26C1.47017 12.237 1.47616 12.22 1.48233 12.204C1.48252 12.2051 1.48039 12.2055 1.48746 12.1996C1.50054 12.1769 1.50656 12.1601 1.51288 12.1441C1.51319 12.145 1.51127 12.1451 1.51839 12.1391C1.5319 12.1159 1.53829 12.0987 1.54569 12.0745C1.54671 12.0676 1.55011 12.054 1.55433 12.0496C1.56412 12.039 1.5679 12.0319 1.56998 12.0222C1.57006 12.0205 1.57343 12.0204 1.58289 12.0178C1.60574 11.9872 1.61913 11.9593 1.63421 11.9243C1.63588 11.9172 1.64022 11.9032 1.64859 11.9003C1.66915 11.8784 1.68135 11.8595 1.69381 11.8416C1.69407 11.8425 1.69212 11.8423 1.69886 11.8364C1.7117 11.8139 1.71781 11.7973 1.72426 11.7815C1.72461 11.7824 1.72281 11.782 1.7302 11.7784C1.74365 11.7659 1.74971 11.7569 1.75681 11.7427C1.75786 11.7375 1.76175 11.7275 1.76683 11.722C1.77812 11.7086 1.7823 11.6997 1.78477 11.6907C1.78509 11.6916 1.78322 11.6914 1.78954 11.6869C1.80235 11.6745 1.80883 11.6666 1.81518 11.6601C1.81504 11.6616 1.81208 11.6613 1.81962 11.6552C1.83353 11.6312 1.83989 11.6132 1.84943 11.5879C1.86899 11.5673 1.88537 11.5541 1.91244 11.5387C1.9479 11.4966 1.97268 11.4566 1.9994 11.41C2.0068 11.395 2.01451 11.3904 2.03108 11.3857C2.04398 11.3739 2.05027 11.366 2.05865 11.3514C2.0658 11.3361 2.07333 11.3311 2.09069 11.3266C2.1043 11.3147 2.11055 11.3062 2.11717 11.2983C2.11755 11.2991 2.11621 11.2981 2.12317 11.2949C2.13576 11.2835 2.14138 11.2752 2.14739 11.2677C2.14777 11.2686 2.14599 11.2681 2.15276 11.2645C2.16549 11.2527 2.17147 11.2446 2.17762 11.2374C2.1778 11.2383 2.17591 11.238 2.18274 11.2344C2.19561 11.2226 2.20164 11.2144 2.20785 11.2072C2.20802 11.2081 2.20612 11.2078 2.21294 11.2042C2.2258 11.1923 2.23183 11.184 2.23799 11.1768C2.2381 11.1778 2.23611 11.1776 2.24292 11.1739C2.25578 11.162 2.26184 11.1538 2.26805 11.1466C2.2682 11.1475 2.26623 11.1473 2.27306 11.1433C2.28597 11.1309 2.29205 11.1225 2.29839 11.1155C2.29865 11.1169 2.29578 11.1174 2.30203 11.1133C2.31611 11.103 2.32249 11.0955 2.33115 11.0783C2.36194 11.0456 2.38902 11.0212 2.426 10.9955C2.46051 10.9741 2.48511 10.954 2.50978 10.9349C2.50985 10.9359 2.50785 10.9356 2.51504 10.9323C2.52819 10.9205 2.53417 10.912 2.54022 10.9046C2.5403 10.9056 2.53823 10.9055 2.54616 10.9028C2.56181 10.8867 2.56953 10.8734 2.5786 10.8566C2.57995 10.8531 2.5872 10.8511 2.59676 10.8544C2.62453 10.8423 2.64275 10.8269 2.66365 10.8046C2.67271 10.7896 2.68098 10.7845 2.69995 10.7812C2.72307 10.7704 2.73736 10.7607 2.75409 10.7444C2.76233 10.7295 2.77027 10.7249 2.78691 10.7211C2.80148 10.7126 2.80868 10.7063 2.82432 10.694C3.34969 10.3632 3.90701 10.154 4.51662 10.0894C4.55448 10.0854 4.58908 10.0506 4.6252 10.0302C4.64786 10.0302 4.67051 10.0302 4.69707 10.0419C4.80026 10.0639 4.8995 10.0749 4.99902 10.082C5.00408 10.0823 5.01158 10.0482 5.01795 10.0302C5.05017 10.0302 5.0824 10.0302 5.12671 10.0302C5.16556 10.0505 5.19162 10.0875 5.2192 10.0887C5.965 10.1205 6.61865 10.4022 7.21753 10.8274C7.33838 10.9132 7.44176 11.0236 7.54859 11.1186C7.30073 11.3705 7.05826 11.6168 6.81028 11.8688C6.4027 11.479 5.91461 11.2402 5.3595 11.1562C4.75032 11.0641 4.16756 11.1706 3.62775 11.47C3.28306 11.6612 2.98864 11.9116 2.75877 12.2399C2.51481 12.5882 2.33946 12.9635 2.27092 13.3816C2.14751 14.1346 2.27904 14.8442 2.70196 15.4825C2.94759 15.8533 3.28103 16.1384 3.68081 16.3439C4.08986 16.5543 4.52091 16.656 4.98059 16.6484C5.36724 16.6421 5.74724 16.5817 6.09558 16.4211C6.81551 16.0891 7.26278 15.5307 7.41026 14.7195C7.41565 14.6644 7.40881 14.6283 7.40197 14.5922C7.40197 14.5922 7.4049 14.5917 7.39643 14.5839C7.22162 14.5703 7.05527 14.5645 6.8784 14.5526C6.80825 14.5415 6.74864 14.5326 6.689 14.5324C6.12155 14.5307 5.55408 14.5305 4.98641 14.5158C4.98666 14.1997 4.98712 13.8978 5.00175 13.5956C6.05005 13.5953 7.08418 13.5957 8.11831 13.594C8.18167 13.5938 8.24501 13.5765 8.32122 13.5666C8.36851 13.5653 8.40293 13.5646 8.43735 13.5639Z" fill="white"/>
<path d="M31.0305 14.6405C30.6867 14.7891 30.3423 14.9239 29.9995 15.0626C29.5696 15.2365 29.1404 15.412 28.7122 15.5899C28.3945 15.7219 28.0789 15.8587 27.7519 15.9978C27.9526 16.3838 28.2402 16.6363 28.6509 16.7027C29.2542 16.8002 29.7378 16.584 30.095 16.0857C30.1091 16.066 30.1652 16.051 30.1822 16.0625C30.3959 16.2079 30.6053 16.3595 30.8171 16.5077C30.9841 16.6246 30.9795 16.6193 30.8567 16.778C30.5354 17.1929 30.1202 17.4734 29.6192 17.6107C28.835 17.8256 28.0964 17.7081 27.4476 17.2081C26.8303 16.7323 26.5479 16.0863 26.5266 15.3057C26.511 14.7366 26.65 14.2249 26.9535 13.7497C27.2828 13.2343 27.7707 12.9163 28.3494 12.8249C29.0039 12.7216 29.6455 12.8128 30.1796 13.2958C30.5497 13.6304 30.7966 14.0319 30.9705 14.4893C30.9787 14.5109 30.9972 14.5286 31.0207 14.5399C31.0305 14.564 31.0305 14.5962 31.0305 14.6405ZM28.781 14.6544C29.0978 14.5224 29.4146 14.3905 29.7304 14.259C29.6194 13.9284 29.0941 13.6651 28.7044 13.7489C28.0016 13.9002 27.559 14.4347 27.5928 15.116C27.6215 15.1122 27.6526 15.1143 27.6784 15.1037C28.0385 14.9555 28.3979 14.8055 28.781 14.6544Z" fill="white"/>
<path d="M10.5006 22.1148C10.4534 22.088 10.4244 22.0498 10.3866 22.0362C10.0266 21.9068 9.80717 21.5772 9.78738 21.1964C9.76661 20.7968 9.88974 20.475 10.2357 20.2711C10.7551 19.9651 11.4922 20.1669 11.6324 20.872C11.6564 20.993 11.6608 21.1178 11.6762 21.2587C11.2181 21.2587 10.7783 21.2587 10.338 21.2587C10.3477 21.4963 10.4486 21.6037 10.729 21.6734C10.9503 21.7284 11.1281 21.6056 11.316 21.5063C11.3921 21.6174 11.4646 21.7233 11.5565 21.8574C11.386 21.9367 11.2194 22.0143 11.0566 22.1033C10.8786 22.1148 10.6967 22.1148 10.5006 22.1148ZM10.6437 20.5546C10.4543 20.6078 10.3394 20.7253 10.3162 20.9249C10.5965 20.9249 10.8701 20.9249 11.1439 20.9249C11.1307 20.6695 10.9667 20.543 10.6437 20.5546Z" fill="white"/>
<path d="M5.54553 22.1148C5.49831 22.088 5.46933 22.0498 5.43152 22.0362C5.0715 21.9068 4.85209 21.5772 4.8323 21.1964C4.81153 20.7968 4.93466 20.475 5.28066 20.2711C5.80004 19.9651 6.53716 20.1669 6.67731 20.872C6.70136 20.993 6.70573 21.1178 6.72224 21.2688C6.48444 21.2688 6.26564 21.2688 6.04684 21.2688C5.82575 21.2688 5.60466 21.2688 5.38337 21.2688C5.39259 21.4963 5.49351 21.6037 5.77389 21.6734C5.99521 21.7284 6.17304 21.6056 6.36087 21.5063C6.43701 21.6174 6.50952 21.7233 6.60139 21.8574C6.43095 21.9367 6.26428 22.0143 6.1015 22.1033C5.92349 22.1148 5.74159 22.1148 5.54553 22.1148ZM5.96608 20.9366C6.03972 20.9366 6.11336 20.9366 6.1865 20.9366C6.18961 20.697 6.04068 20.576 5.79375 20.5461C5.57972 20.5201 5.40907 20.6787 5.36357 20.9366C5.55575 20.9366 5.74629 20.9366 5.96608 20.9366Z" fill="white"/>
<path d="M15.3048 22.1148C15.2663 22.0944 15.245 22.064 15.217 22.0554C15.0408 22.0013 14.8654 21.948 14.7441 21.7855C14.8197 21.6708 14.8943 21.5574 14.973 21.438C15.1754 21.5943 15.3784 21.7033 15.6247 21.6908C15.6781 21.688 15.7392 21.6844 15.7814 21.6573C15.8283 21.6273 15.8819 21.5723 15.8868 21.5236C15.8907 21.4854 15.8325 21.416 15.7888 21.4022C15.6198 21.349 15.4462 21.3096 15.2731 21.2703C14.8706 21.179 14.6984 20.8303 14.877 20.4629C14.9607 20.2907 15.1198 20.2055 15.2887 20.1721C15.6181 20.107 15.942 20.1273 16.2395 20.319C16.3203 20.371 16.3289 20.4133 16.2869 20.4863C16.2379 20.5715 16.1902 20.6574 16.1363 20.7531C15.9559 20.6139 15.7688 20.5193 15.5436 20.5448C15.4953 20.5502 15.4407 20.5563 15.4028 20.5823C15.3669 20.607 15.3283 20.6589 15.3297 20.6974C15.3309 20.7324 15.3785 20.7851 15.4158 20.7963C15.5953 20.8503 15.7817 20.8825 15.9593 20.9417C16.3077 21.0579 16.4026 21.2206 16.3793 21.5906C16.3664 21.7959 16.1824 21.9856 15.9165 22.0559C15.8949 22.0616 15.8765 22.0798 15.8606 22.1035C15.6828 22.1148 15.5009 22.1148 15.3048 22.1148Z" fill="white"/>
<path d="M1.0293 13.5791C1.04894 13.5324 1.07793 13.5022 1.08676 13.467C1.16356 13.1607 1.23675 12.8535 1.32084 12.5411C1.27849 12.7641 1.21901 12.9911 1.17554 13.2211C1.06388 13.8119 1.09491 14.3957 1.2786 14.9702C1.30276 15.0458 1.31468 15.1253 1.33117 15.2155C1.17937 14.9352 1.12732 14.6169 1.08728 14.2951C1.08274 14.2586 1.06508 14.2238 1.0414 14.1938C1.0293 13.9973 1.0293 13.7953 1.0293 13.5791Z" fill="white"/>
<path d="M24.2567 17.5546C24.2046 18.474 23.8927 19.2522 23.0173 19.6804C22.5705 19.899 22.0852 19.9509 21.5831 19.8833C21.05 19.8116 20.5972 19.5871 20.2333 19.2069C20.0285 18.993 19.8794 18.7257 19.6892 18.4601C20.0405 18.3147 20.3506 18.1865 20.6406 18.0665C20.7886 18.2528 20.9132 18.4371 21.0653 18.5947C21.2902 18.8277 21.5836 18.9461 21.9027 18.9386C22.3834 18.9273 22.8076 18.7581 23.0323 18.3045C23.1431 18.0807 23.1808 17.8175 23.2303 17.568C23.2558 17.4395 23.2348 17.3018 23.2348 17.1561C23.0709 17.2732 22.936 17.4026 22.7755 17.4761C22.56 17.5746 22.3289 17.6737 22.0973 17.6952C21.4625 17.7543 20.9065 17.5448 20.4118 17.1376C20.0177 16.8131 19.7669 16.3995 19.6225 15.9279C19.4969 15.518 19.5016 15.0921 19.6015 14.6669C19.7161 14.1795 19.958 13.7689 20.3127 13.4261C20.6772 13.0739 21.1249 12.8443 21.6215 12.7957C22.1941 12.7396 22.7413 12.8662 23.171 13.3005C23.177 13.3066 23.1892 13.3065 23.235 13.3201C23.235 13.2042 23.235 13.0977 23.2492 12.9764C23.5853 12.9623 23.9071 12.963 24.23 12.9776C24.2315 14.4545 24.2316 15.9175 24.2332 17.3805C24.2333 17.4385 24.2485 17.4965 24.2567 17.5546ZM23.2036 15.7769C23.3054 15.3925 23.3223 15.0077 23.1736 14.6328C22.8962 13.9336 22.3162 13.6299 21.6278 13.8196C21.0292 13.9846 20.698 14.4853 20.6419 15.1064C20.595 15.6265 20.7481 16.0922 21.1693 16.4376C21.5649 16.7621 22.0184 16.8006 22.4536 16.625C22.8277 16.474 23.0618 16.1776 23.2036 15.7769Z" fill="white"/>
<path d="M16.2032 17.673C15.8639 17.6097 15.5557 17.4932 15.2805 17.3115C14.7398 16.9543 14.3935 16.4512 14.2351 15.8231C14.1503 15.487 14.1469 15.144 14.2065 14.8042C14.2698 14.444 14.3975 14.1049 14.613 13.8061C14.9133 13.3898 15.309 13.1008 15.794 12.9286C16.0211 12.8479 16.2503 12.8221 16.4902 12.8026C17.1474 12.749 17.7234 12.947 18.23 13.3359C18.4454 13.5013 18.6198 13.7332 18.7756 13.9604C19.0997 14.4333 19.176 14.9783 19.121 15.5336C19.0724 16.0245 18.8771 16.4655 18.5516 16.8463C18.1893 17.2702 17.7328 17.5442 17.1939 17.6486C16.9074 17.7041 16.6033 17.6692 16.3072 17.6748C16.277 17.6754 16.2468 17.6737 16.2032 17.673ZM17.1016 16.6334C17.5017 16.4895 17.7794 16.212 17.9118 15.8154C17.9806 15.6096 18.0076 15.3798 18.0037 15.1617C17.9945 14.6479 17.7844 14.2362 17.3318 13.9567C16.8524 13.6607 16.1642 13.7207 15.7232 14.1423C15.2375 14.6065 15.1396 15.5545 15.5631 16.1522C15.8951 16.6207 16.5186 16.8701 17.1016 16.6334Z" fill="white"/>
<path d="M11.8275 12.8402C12.1398 12.9203 12.4315 13.0222 12.6893 13.2016C13.3027 13.6287 13.6603 14.2065 13.7533 14.9553C13.8305 15.5764 13.6981 16.1493 13.3475 16.6513C12.9457 17.2267 12.3855 17.5773 11.6738 17.6764C11.0285 17.7663 10.4317 17.6447 9.89929 17.2807C9.23353 16.8254 8.87332 16.1909 8.85123 15.3701C8.83871 14.9051 8.89586 14.4627 9.12495 14.0495C9.36771 13.6117 9.69563 13.2651 10.1532 13.0506C10.4268 12.9224 10.7067 12.8013 11.0138 12.8082C11.281 12.8143 11.5513 12.7654 11.8275 12.8402ZM12.6634 15.2706C12.6628 15.1651 12.6824 15.0547 12.6583 14.9548C12.5143 14.3572 12.1885 13.9331 11.5526 13.7933C11.0847 13.6904 10.486 13.9193 10.2132 14.3203C9.98733 14.6522 9.91731 15.0163 9.94088 15.4104C9.96303 15.7805 10.0985 16.1075 10.3656 16.3502C10.7717 16.7191 11.3354 16.895 11.9273 16.551C12.4143 16.2679 12.652 15.8545 12.6634 15.2706Z" fill="white"/>
<path d="M26.0501 10.3332C26.0594 10.3308 26.0664 10.3338 26.0608 10.3574C26.0482 10.3976 26.0441 10.4225 26.0441 10.4474C26.0436 12.7362 26.0433 15.0249 26.0444 17.3137C26.0444 17.3558 26.0612 17.398 26.0701 17.4402C26.0684 17.4651 26.0667 17.4901 26.0422 17.5191C25.6767 17.5222 25.3339 17.5213 24.9904 17.5064C24.9898 15.1072 24.99 12.7219 25.004 10.3347C25.362 10.3328 25.706 10.333 26.0501 10.3332Z" fill="white"/>
<path d="M2.99389 19.4865C3.33946 19.4966 3.67079 19.4964 4.00038 19.5202C4.24485 19.5379 4.44451 19.6683 4.56168 19.8809C4.73384 20.1934 4.74358 20.522 4.52844 20.8186C4.44291 20.9365 4.29855 21.0118 4.16137 21.1222C4.32493 21.3964 4.50456 21.6975 4.69883 22.0231C4.47634 22.0231 4.27606 22.0368 4.07983 22.0146C4.02281 22.0081 3.96793 21.9045 3.92844 21.836C3.81232 21.6346 3.70697 21.4269 3.59088 21.2254C3.57065 21.1903 3.52069 21.1562 3.48102 21.1516C3.38735 21.1409 3.2916 21.1482 3.18188 21.1482C3.18188 21.4386 3.18188 21.7183 3.18188 22.011C2.99516 22.011 2.82294 22.011 2.64062 22.011C2.64062 21.1764 2.64062 20.343 2.64062 19.4865C2.75198 19.4865 2.86543 19.4865 2.99389 19.4865ZM4.03798 20.1531C3.78768 19.8975 3.47569 20.0371 3.18811 19.9973C3.18811 20.2331 3.18811 20.4456 3.18811 20.6643C3.35735 20.6643 3.51365 20.6721 3.66892 20.6628C4.01918 20.6417 4.15503 20.4632 4.03798 20.1531Z" fill="white"/>
<path d="M14.0836 20.5182C14.1763 20.2115 14.1763 20.2115 14.4959 20.2115C14.5609 20.2116 14.626 20.2115 14.7085 20.2115C14.522 20.8224 14.3396 21.4202 14.1553 22.024C13.997 22.024 13.8411 22.0288 13.6859 22.0206C13.647 22.0185 13.5869 21.9817 13.5762 21.9483C13.4643 21.5978 13.3605 21.2448 13.2426 20.8529C13.1622 21.1028 13.0927 21.3164 13.0249 21.5306C12.9817 21.6672 12.9472 21.807 12.8953 21.94C12.8806 21.9776 12.8209 22.0124 12.7768 22.0204C12.7037 22.0337 12.6265 22.0242 12.551 22.0242C12.3019 22.0242 12.3072 22.0226 12.2391 21.7865C12.1363 21.4305 12.025 21.077 11.9178 20.7222C11.8679 20.5569 11.8191 20.3912 11.7656 20.2118C11.9203 20.2118 12.0694 20.2047 12.2169 20.2165C12.2569 20.2197 12.3139 20.2735 12.3265 20.3152C12.4263 20.6461 12.5173 20.9797 12.6239 21.358C12.7601 20.9541 12.8837 20.5878 13.0065 20.2238C13.0203 20.2197 13.0298 20.2147 13.0394 20.2143C13.4652 20.198 13.4654 20.198 13.6017 20.6092C13.6419 20.7304 13.68 20.8522 13.7194 20.9735C13.7589 21.0949 13.7989 21.2162 13.848 21.3658C13.9321 21.0658 14.0071 20.7982 14.0836 20.5182Z" fill="white"/>
<path d="M28.6969 21.1102C28.4078 21.2796 28.512 21.5351 28.5318 21.7695C28.5387 21.8515 28.5501 21.933 28.5637 22.0507C28.3643 21.9537 28.2005 21.8647 28.0288 21.7954C27.9654 21.7698 27.8746 21.7687 27.8116 21.7941C27.6396 21.8635 27.4758 21.953 27.2714 22.0527C27.2946 21.8551 27.309 21.695 27.3335 21.5364C27.3524 21.414 27.3577 21.3097 27.2494 21.2126C27.1172 21.0942 27.0054 20.9528 26.8652 20.8001C27.0681 20.7616 27.2433 20.7239 27.4201 20.6964C27.5176 20.6813 27.5846 20.6499 27.6307 20.5514C27.71 20.3824 27.8094 20.2229 27.9177 20.0283C28.0168 20.2051 28.1134 20.3565 28.1883 20.518C28.2445 20.6393 28.321 20.6873 28.4537 20.6995C28.6178 20.7146 28.7789 20.7628 28.9624 20.801C28.8698 20.9093 28.7872 21.006 28.6969 21.1102Z" fill="white"/>
<path d="M25.2057 20.5556C25.3023 20.3827 25.3929 20.22 25.4988 20.03C25.5832 20.1778 25.6771 20.296 25.722 20.4306C25.7977 20.6581 25.9662 20.7059 26.1699 20.7271C26.2894 20.7395 26.4068 20.7723 26.552 20.8013C26.416 20.95 26.304 21.0897 26.1736 21.2096C26.0643 21.31 26.0643 21.415 26.0894 21.5457C26.1189 21.6996 26.1258 21.8578 26.1462 22.0478C25.9705 21.9643 25.8183 21.9063 25.6817 21.8229C25.5501 21.7426 25.4409 21.7556 25.314 21.8281C25.1785 21.9054 25.0321 21.9636 24.855 22.0468C24.8764 21.8564 24.8867 21.6962 24.9146 21.5391C24.9379 21.4082 24.9324 21.3031 24.8224 21.2041C24.6938 21.0885 24.5848 20.9509 24.4473 20.8009C24.6478 20.7623 24.8226 20.726 24.9984 20.6959C25.0864 20.6808 25.1739 20.6733 25.2057 20.5556Z" fill="white"/>
<path d="M22.4799 21.6618C22.5715 21.3975 22.4615 21.2252 22.2722 21.071C22.1865 21.0012 22.1257 20.9007 22.043 20.8013C22.2211 20.7635 22.381 20.7141 22.544 20.6998C22.6828 20.6877 22.7606 20.6385 22.8172 20.509C22.8856 20.3523 22.9829 20.2083 23.0831 20.0317C23.166 20.1767 23.2596 20.2946 23.3044 20.4288C23.38 20.6551 23.5462 20.7067 23.751 20.7271C23.871 20.7391 23.9888 20.772 24.1365 20.8013C24.0013 20.9487 23.8899 21.0885 23.7592 21.2072C23.6493 21.3071 23.6479 21.4124 23.6719 21.5427C23.7005 21.6973 23.7095 21.8555 23.7313 22.051C23.5291 21.9528 23.3614 21.863 23.1865 21.7908C23.1274 21.7665 23.0414 21.7663 22.9824 21.7906C22.8106 21.8615 22.6463 21.9503 22.4417 22.0505C22.4567 21.9028 22.4683 21.7892 22.4799 21.6618Z" fill="white"/>
<path d="M21.4841 20.7552C21.5623 20.7693 21.6276 20.7833 21.7183 20.8028C21.5838 20.9497 21.4719 21.0894 21.3416 21.2089C21.2323 21.3092 21.2316 21.4142 21.2565 21.5449C21.2858 21.6991 21.2933 21.8574 21.3138 22.047C21.1212 21.9561 20.9542 21.886 20.7963 21.7995C20.7019 21.7477 20.6289 21.7513 20.536 21.8024C20.3819 21.8871 20.2186 21.955 20.0232 22.0469C20.044 21.8573 20.0536 21.6974 20.0812 21.5406C20.1042 21.4103 20.1017 21.3048 19.9912 21.2054C19.8623 21.0897 19.7534 20.9518 19.6152 20.8012C19.8139 20.7626 19.9878 20.7225 20.1638 20.6972C20.2688 20.6822 20.3367 20.6446 20.3847 20.5435C20.4642 20.3763 20.562 20.2177 20.6666 20.0293C20.7526 20.18 20.8471 20.2988 20.8915 20.4341C20.9644 20.6564 21.1293 20.7056 21.3262 20.7257C21.3751 20.7307 21.4229 20.7451 21.4841 20.7552Z" fill="white"/>
<path d="M18.0192 21.8512C17.8856 21.9152 17.7615 21.9727 17.6039 22.0457C17.6266 21.8548 17.6416 21.6945 17.6659 21.5357C17.6845 21.4134 17.6892 21.309 17.5809 21.2121C17.4487 21.0937 17.3371 20.9523 17.1973 20.7998C17.4005 20.7614 17.5758 20.7239 17.7527 20.6964C17.8501 20.6813 17.9169 20.6493 17.963 20.551C18.0423 20.3821 18.1416 20.2227 18.2498 20.0282C18.3489 20.2051 18.4455 20.3566 18.5204 20.5182C18.5766 20.6396 18.6532 20.6874 18.7859 20.6996C18.9499 20.7146 19.1109 20.7628 19.3018 20.8026C19.1654 20.9515 19.0511 21.0953 18.9166 21.217C18.8134 21.3104 18.8168 21.4123 18.8328 21.5282C18.8551 21.6888 18.8757 21.8498 18.9018 22.0467C18.7415 21.9723 18.608 21.9235 18.4885 21.8515C18.3316 21.757 18.1839 21.7318 18.0192 21.8512Z" fill="white"/>
<path d="M8.28162 21.4501C8.20467 21.645 8.1308 21.8284 8.05211 22.0239C7.89924 22.0239 7.73856 22.0285 7.57849 22.0207C7.53851 22.0187 7.47879 21.9857 7.46481 21.9518C7.22986 21.3824 7.00074 20.8106 6.75977 20.2131C6.94336 20.2131 7.10617 20.2089 7.26834 20.2172C7.29619 20.2186 7.33256 20.2687 7.34599 20.3036C7.47189 20.631 7.59311 20.9601 7.71747 21.2881C7.72926 21.3192 7.7532 21.3456 7.78179 21.3904C7.91162 21.0445 8.04322 20.7172 8.15544 20.3833C8.19947 20.2523 8.259 20.1962 8.3978 20.2092C8.51591 20.2203 8.63588 20.2115 8.78623 20.2115C8.61214 20.6375 8.44842 21.0381 8.28162 21.4501Z" fill="white"/>
<path d="M8.97656 21.3897C8.97656 20.9937 8.97656 20.6127 8.97656 20.2217C9.13823 20.2217 9.28655 20.2217 9.44751 20.2217C9.44751 20.8148 9.44751 21.4092 9.44751 22.014C9.2983 22.014 9.14998 22.014 8.97656 22.014C8.97656 21.8122 8.97656 21.6085 8.97656 21.3897Z" fill="white"/>
<path d="M9.49033 19.7258C9.49182 19.9605 9.33774 20.0147 9.15803 20.0009C8.98266 19.9875 8.90942 19.8942 8.91648 19.6782C8.92214 19.5051 9.00923 19.4269 9.1974 19.426C9.40611 19.4251 9.4838 19.5012 9.49033 19.7258Z" fill="white"/>
<path d="M24.9891 10.3368C24.9889 12.722 24.9888 15.1072 24.9823 17.5074C24.976 17.5223 24.9617 17.5236 24.9617 17.5236C24.9601 17.4935 24.957 17.4634 24.957 17.4333C24.9571 15.0753 24.9574 12.7172 24.9666 10.3459C24.9754 10.3327 24.9891 10.3368 24.9891 10.3368Z" fill="white"/>
<path d="M26.0717 17.4256C26.0605 17.3981 26.0437 17.3559 26.0437 17.3137C26.0426 15.025 26.0429 12.7362 26.0434 10.4475C26.0434 10.4226 26.0475 10.3976 26.0596 10.3635C26.0712 11.2841 26.074 12.2138 26.0745 13.1436C26.0752 14.566 26.0743 15.9885 26.0717 17.4256Z" fill="white"/>
<path d="M24.2591 17.5404C24.2485 17.4966 24.2332 17.4385 24.2331 17.3805C24.2315 15.9175 24.2314 14.4545 24.2307 12.9706C24.2302 12.9497 24.2307 12.9355 24.2307 12.9355C24.2411 12.9791 24.2606 13.0226 24.2606 13.0661C24.2621 14.5528 24.2617 16.0396 24.2591 17.5404Z" fill="white"/>
<path d="M8.42886 13.5531C8.40242 13.5646 8.368 13.5654 8.30686 13.5661C7.23524 13.5659 6.19035 13.5652 5.14546 13.5667C5.09265 13.5668 5.03987 13.5857 4.98708 13.5958C4.98661 13.8978 4.98615 14.1998 4.98605 14.5235C4.98697 14.5503 4.98753 14.5554 4.9787 14.552C4.96588 14.2091 4.96243 13.8747 4.95898 13.5403C6.11295 13.541 7.26691 13.5417 8.42886 13.5531Z" fill="white"/>
<path d="M4.94652 13.5435C4.96289 13.8747 4.96634 14.2091 4.99324 14.5525C5.64076 14.5606 6.26482 14.5597 6.88887 14.5589C7.05522 14.5646 7.22156 14.5704 7.39664 14.5855C6.58327 14.5947 5.76116 14.5947 4.93359 14.5947C4.93359 14.2362 4.93359 13.8914 4.94652 13.5435Z" fill="white"/>
<path d="M24.9679 17.5353C24.9627 17.5236 24.9769 17.5223 24.984 17.5214C25.3338 17.5214 25.6766 17.5223 26.0336 17.5238C26.0267 17.5338 26.0056 17.5513 25.9844 17.5513C25.6473 17.5512 25.3103 17.5489 24.9679 17.5353Z" fill="white"/>
<path d="M25.0034 10.3347C24.9895 10.3368 24.9758 10.3326 24.9688 10.3317C24.9758 10.3213 24.99 10.3036 25.0041 10.3036C25.3482 10.3044 25.6924 10.3071 26.043 10.3214C25.7055 10.3331 25.3614 10.3329 25.0034 10.3347Z" fill="white"/>
<path d="M24.2174 12.9333C24.2313 12.9355 24.2308 12.9496 24.2301 12.9567C23.9076 12.963 23.5858 12.9623 23.25 12.9629C23.2705 12.953 23.305 12.9322 23.3395 12.9319C23.6275 12.9295 23.9155 12.9309 24.2174 12.9333Z" fill="white"/>
<path d="M1.36523 15.3223C1.38641 15.347 1.40483 15.3824 1.42265 15.4288C1.40219 15.4041 1.38233 15.3686 1.36523 15.3223Z" fill="white"/>
<path d="M7.40234 14.6049C7.40895 14.6284 7.41579 14.6645 7.41671 14.7096C7.40805 14.6849 7.40532 14.6512 7.40234 14.6049Z" fill="white"/>
<path d="M1.45117 15.5081C1.46011 15.5138 1.46982 15.5294 1.48059 15.5543C1.47175 15.5485 1.46184 15.5332 1.45117 15.5081Z" fill="white"/>
<path d="M1.33203 15.2366C1.3412 15.2419 1.35091 15.2571 1.36201 15.2814C1.35312 15.2759 1.34285 15.2611 1.33203 15.2366Z" fill="white"/>
<path d="M1.42188 15.4475C1.43054 15.4528 1.44037 15.4675 1.45121 15.4914C1.44249 15.486 1.43277 15.4715 1.42188 15.4475Z" fill="white"/>
<path d="M5.00195 13.5956C5.04058 13.5857 5.09337 13.5667 5.14618 13.5667C6.19106 13.5652 7.23596 13.5659 8.2947 13.5667C8.24521 13.5766 8.18188 13.5939 8.11852 13.594C7.08438 13.5958 6.05025 13.5953 5.00195 13.5956Z" fill="white"/>
<path d="M6.87795 14.5526C6.26442 14.5597 5.64036 14.5606 5.00222 14.561C4.98759 14.5554 4.98703 14.5504 4.98633 14.5376C5.55364 14.5305 6.1211 14.5308 6.68855 14.5325C6.74819 14.5327 6.8078 14.5416 6.87795 14.5526Z" fill="white"/>
<path d="M1.33984 12.5322C1.35439 12.4694 1.37821 12.4012 1.41211 12.3289C1.39783 12.3921 1.37348 12.4594 1.33984 12.5322Z" fill="white"/>
<path d="M1.91211 11.5388C1.92691 11.5023 1.95239 11.4635 1.9875 11.4208C1.97235 11.4567 1.94757 11.4967 1.91211 11.5388Z" fill="white"/>
<path d="M1.58398 12.0178C1.58815 11.9931 1.60177 11.9658 1.6245 11.9349C1.62023 11.9594 1.60683 11.9873 1.58398 12.0178Z" fill="white"/>
<path d="M2.42578 10.9956C2.44034 10.9763 2.4648 10.9556 2.49937 10.9344C2.48489 10.9541 2.46029 10.9742 2.42578 10.9956Z" fill="white"/>
<path d="M2.59766 10.8544C2.60676 10.8387 2.62541 10.8263 2.65296 10.8127C2.64365 10.8269 2.62543 10.8423 2.59766 10.8544Z" fill="white"/>
<path d="M1.64844 11.9003C1.65225 11.8844 1.66442 11.8656 1.68499 11.8438C1.68119 11.8596 1.669 11.8785 1.64844 11.9003Z" fill="white"/>
<path d="M1.5181 12.1392C1.51585 12.1263 1.52072 12.1075 1.53499 12.0851C1.538 12.0988 1.53161 12.116 1.5181 12.1392Z" fill="white"/>
<path d="M1.8189 11.6553C1.81656 11.6422 1.82177 11.6231 1.83625 11.5996C1.83916 11.6133 1.8328 11.6312 1.8189 11.6553Z" fill="white"/>
<path d="M2.54688 10.9028C2.54775 10.8935 2.55656 10.8814 2.57166 10.8647C2.57024 10.8735 2.56253 10.8868 2.54688 10.9028Z" fill="white"/>
<path d="M2.69922 10.7813C2.70438 10.7729 2.71838 10.7633 2.74165 10.7524C2.73663 10.7608 2.72234 10.7704 2.69922 10.7813Z" fill="white"/>
<path d="M1.48693 12.1997C1.48453 12.187 1.48918 12.1685 1.50295 12.1466C1.50604 12.1601 1.50002 12.177 1.48693 12.1997Z" fill="white"/>
<path d="M1.6997 11.8364C1.6976 11.8241 1.70224 11.8059 1.71582 11.7842C1.71866 11.7973 1.71255 11.8139 1.6997 11.8364Z" fill="white"/>
<path d="M1.45762 12.26C1.45526 12.2474 1.45989 12.2289 1.47355 12.2067C1.47659 12.22 1.47061 12.237 1.45762 12.26Z" fill="white"/>
<path d="M1.42841 12.3203C1.42589 12.3077 1.43029 12.2892 1.44369 12.2671C1.44691 12.2804 1.44112 12.2974 1.42841 12.3203Z" fill="white"/>
<path d="M2.1839 11.2344C2.18223 11.2287 2.1874 11.2193 2.20069 11.2081C2.20279 11.2145 2.19676 11.2227 2.1839 11.2344Z" fill="white"/>
<path d="M2.78714 10.7212C2.78663 10.7155 2.79269 10.7068 2.80703 10.6986C2.80891 10.7064 2.80171 10.7127 2.78714 10.7212Z" fill="white"/>
<path d="M1.55526 12.0496C1.54479 12.0436 1.54673 12.0349 1.56385 12.026C1.56883 12.032 1.56505 12.0391 1.55526 12.0496Z" fill="white"/>
<path d="M2.51596 10.9324C2.51416 10.9264 2.51954 10.9171 2.533 10.9058C2.53509 10.9121 2.52912 10.9206 2.51596 10.9324Z" fill="white"/>
<path d="M2.30282 11.1134C2.30199 11.1086 2.30741 11.0998 2.32053 11.0889C2.32328 11.0956 2.31689 11.1031 2.30282 11.1134Z" fill="white"/>
<path d="M2.27377 11.1434C2.27203 11.1377 2.27711 11.128 2.29052 11.1162C2.29276 11.1225 2.28668 11.131 2.27377 11.1434Z" fill="white"/>
<path d="M2.24247 11.1739C2.24086 11.1683 2.24606 11.1589 2.25936 11.1476C2.2614 11.1538 2.25534 11.162 2.24247 11.1739Z" fill="white"/>
<path d="M2.21319 11.2043C2.21154 11.1985 2.21671 11.1892 2.23 11.1779C2.23208 11.1841 2.22604 11.1924 2.21319 11.2043Z" fill="white"/>
<path d="M2.15265 11.2646C2.15097 11.2589 2.15606 11.2496 2.16924 11.2384C2.17137 11.2447 2.16539 11.2528 2.15265 11.2646Z" fill="white"/>
<path d="M2.12348 11.295C2.12147 11.289 2.12642 11.2798 2.13934 11.2688C2.14169 11.2753 2.13606 11.2836 2.12348 11.295Z" fill="white"/>
<path d="M2.09016 11.3267C2.0884 11.3205 2.09401 11.311 2.10794 11.2996C2.11001 11.3063 2.10376 11.3148 2.09016 11.3267Z" fill="white"/>
<path d="M2.03139 11.3858C2.03027 11.3806 2.03576 11.3716 2.04907 11.3604C2.05058 11.366 2.04429 11.374 2.03139 11.3858Z" fill="white"/>
<path d="M1.73084 11.7785C1.72893 11.7724 1.73441 11.7628 1.74815 11.7506C1.75035 11.757 1.74429 11.7659 1.73084 11.7785Z" fill="white"/>
<path d="M1.76676 11.722C1.76392 11.717 1.76616 11.7066 1.77639 11.693C1.78223 11.6997 1.77805 11.7086 1.76676 11.722Z" fill="white"/>
<path d="M1.78915 11.6869C1.78829 11.6822 1.79376 11.673 1.80707 11.6613C1.80843 11.6666 1.80195 11.6745 1.78915 11.6869Z" fill="white"/>
</g>
<defs>
<clipPath id="clip0_1926_106936">
<rect width="30" height="12.0846" fill="white" transform="translate(1 10)"/>
</clipPath>
</defs>
</svg>
