<svg width="48" height="48" viewBox="0 0 48 48" fill="none" xmlns="http://www.w3.org/2000/svg">
<rect width="48" height="48" rx="24" fill="white" fill-opacity="0.28"/>
<path d="M21.5 24.6287L23.375 26.5037L26.5 22.1287M24 16.2656C22.2079 17.9628 19.788 19.0038 17.125 19.0038C17.0827 19.0038 17.0404 19.0035 16.9982 19.003C16.6749 19.9864 16.5 21.0372 16.5 22.1288C16.5 26.7884 19.6869 30.7036 24 31.8137C28.3131 30.7036 31.5 26.7884 31.5 22.1288C31.5 21.0372 31.3251 19.9864 31.0018 19.003C30.9596 19.0035 30.9173 19.0038 30.875 19.0038C28.212 19.0038 25.7921 17.9628 24 16.2656Z" stroke="white" stroke-width="1.5" stroke-linecap="round" stroke-linejoin="round"/>
</svg>
