<?xml version="1.0" encoding="utf-8"?>
<svg width="386" height="773" viewBox="0 0 386 773" fill="none" xmlns="http://www.w3.org/2000/svg">
  <g filter="url(#filter0_ddddd_4446_83869)" style="" transform="matrix(1.270868, 0, 0, 1.270868, -23.047572, -9.375402)">
    <path d="M 317.409 56.275 L 317.409 566.725 C 317.409 592.834 296.245 614 270.137 614 L 69.808 614 C 43.7 614 22.535 592.834 22.535 566.725 L 22.535 56.275 C 22.535 30.166 43.7 9 69.808 9 L 270.137 9 C 296.245 9 317.409 30.166 317.409 56.275 Z M 37.014 67.044 L 37.014 555.044 C 37.014 579.345 56.713 599.044 81.014 599.044 L 259.014 599.044 C 283.315 599.044 303.014 579.345 303.014 555.044 L 303.014 67.044 C 303.014 42.743 283.315 23.044 259.014 23.044 L 81.014 23.044 C 56.713 23.044 37.014 42.743 37.014 67.044 Z" fill="#393836"/>
    <g style="mix-blend-mode:screen">
      <path d="M269.77 10.4102H70.1741C44.6437 10.4102 23.9434 31.1115 23.9434 56.6431V566.347C23.9434 591.878 44.6437 612.58 70.1741 612.58H269.77C295.301 612.58 316.001 591.878 316.001 566.347V56.6431C316.001 31.1115 295.301 10.4102 269.77 10.4102ZM314.593 565.98C314.593 590.949 294.357 611.185 269.39 611.185H70.5543C45.5872 611.185 25.3515 590.949 25.3515 565.98V57.0234C25.3515 32.055 45.5872 11.8184 70.5543 11.8184H269.404C294.371 11.8184 314.607 32.055 314.607 57.0234V565.995L314.593 565.98Z" fill="#706F6F"/>
    </g>
    <path d="M 312.425 57.09 L 312.425 565.906 C 312.425 589.916 292.963 609.379 268.955 609.379 L 71.006 609.379 C 46.998 609.379 27.535 589.916 27.535 565.906 L 27.535 57.09 C 27.535 33.081 46.998 13.617 71.006 13.617 L 268.955 13.617 C 292.963 13.617 312.425 33.081 312.425 57.09 Z M 37 67 L 37 555 C 37 579.301 56.699 599 81 599 L 259 599 C 283.301 599 303 579.301 303 555 L 303 67 C 303 42.699 283.301 23 259 23 L 81 23 C 56.699 23 37 42.699 37 67 Z" fill="#1D1D1B"/>
    <path d="M319.14 163.57H317.408V236.49H319.14V163.57Z" fill="url(#paint0_linear_4446_83869)"/>
    <path d="M319.141 236.503V163.598L320 164.541C319.563 172.301 319.591 227.8 320 235.545L319.141 236.489V236.503Z" fill="url(#paint1_linear_4446_83869)"/>
    <path d="M21.4779 206.34H20.4922V252.531H21.4779V206.34Z" fill="url(#paint2_linear_4446_83869)"/>
    <path d="M20.4929 252.528V206.352L20 206.957C20.2535 211.872 20.2253 247.036 20 251.937L20.4929 252.542V252.528Z" fill="url(#paint3_linear_4446_83869)"/>
    <path d="M22.5347 206.352H21.4785V252.542H22.5347V206.352Z" fill="url(#paint4_linear_4446_83869)"/>
    <path d="M21.4779 148.234H20.4922V194.425H21.4779V148.234Z" fill="url(#paint5_linear_4446_83869)"/>
    <path d="M20.4929 194.427V148.25L20 148.856C20.2535 153.77 20.2253 188.934 20 193.835L20.4929 194.441V194.427Z" fill="url(#paint6_linear_4446_83869)"/>
    <path d="M22.5347 148.234H21.4785V194.425H22.5347V148.234Z" fill="url(#paint7_linear_4446_83869)"/>
    <path d="M21.4779 104.594H20.4922V128.309H21.4779V104.594Z" fill="url(#paint8_linear_4446_83869)"/>
    <path d="M20.4929 128.295V104.594L20 105.157C20.2535 109.804 20.2253 123.084 20 127.717L20.4929 128.281V128.295Z" fill="url(#paint9_linear_4446_83869)"/>
    <path d="M22.5347 104.594H21.4785V128.309H22.5347V104.594Z" fill="url(#paint10_linear_4446_83869)"/>
    <path d="M192.25 51.3195H145.146C139.852 51.3195 135.557 47.0243 135.557 41.7293C135.557 36.4343 139.852 32.125 145.146 32.125H192.25C197.545 32.125 201.84 36.4202 201.84 41.7293C201.84 47.0243 197.545 51.3195 192.25 51.3195Z" fill="#1D1D1B"/>
    <path d="M189.589 45.9244C191.907 45.9244 193.785 44.0456 193.785 41.7278C193.785 39.4101 191.907 37.5312 189.589 37.5312C187.271 37.5312 185.393 39.4101 185.393 41.7278C185.393 44.0456 187.271 45.9244 189.589 45.9244Z" fill="url(#paint11_linear_4446_83869)"/>
    <path d="M189.589 44.1201C190.911 44.1201 191.983 43.0482 191.983 41.7261C191.983 40.4039 190.911 39.332 189.589 39.332C188.267 39.332 187.195 40.4039 187.195 41.7261C187.195 43.0482 188.267 44.1201 189.589 44.1201Z" fill="url(#paint12_linear_4446_83869)"/>
    <path d="M191.687 41.7272C191.687 42.882 190.743 43.8255 189.588 43.8255C188.434 43.8255 187.49 42.882 187.49 41.7272C187.49 40.5724 188.42 39.6289 189.588 39.6289C190.757 39.6289 191.687 40.5584 191.687 41.7272Z" fill="url(#paint13_linear_4446_83869)"/>
    <path style="mix-blend-mode:multiply" d="M191.687 41.7272C191.687 42.882 190.743 43.8255 189.588 43.8255C188.434 43.8255 187.49 42.882 187.49 41.7272C187.49 40.5724 188.42 39.6289 189.588 39.6289C190.757 39.6289 191.687 40.5584 191.687 41.7272Z" fill="url(#paint14_radial_4446_83869)"/>
    <path style="mix-blend-mode:screen" d="M191.491 42.8245C191.491 42.4161 191.153 42.0781 190.744 42.0781C190.336 42.0781 189.998 42.4161 189.998 42.8245C189.998 43.2329 190.336 43.5709 190.744 43.5709C191.153 43.5709 191.491 43.2329 191.491 42.8245Z" fill="url(#paint15_radial_4446_83869)"/>
  </g>
  <defs>
    <!-- <filter id="filter0_ddddd_4446_83869" x="0" y="0" width="403" height="773" filterUnits="userSpaceOnUse" color-interpolation-filters="sRGB">
      <feFlood flood-opacity="0" result="BackgroundImageFix"/>
      <feColorMatrix in="SourceAlpha" type="matrix" values="0 0 0 0 0 0 0 0 0 0 0 0 0 0 0 0 0 0 127 0" result="hardAlpha"/>
      <feOffset/>
      <feColorMatrix type="matrix" values="0 0 0 0 0 0 0 0 0 0 0 0 0 0 0 0 0 0 0.1 0"/>
      <feBlend mode="normal" in2="BackgroundImageFix" result="effect1_dropShadow_4446_83869"/>
      <feColorMatrix in="SourceAlpha" type="matrix" values="0 0 0 0 0 0 0 0 0 0 0 0 0 0 0 0 0 0 127 0" result="hardAlpha"/>
      <feOffset dx="2" dy="7"/>
      <feGaussianBlur stdDeviation="8"/>
      <feColorMatrix type="matrix" values="0 0 0 0 0 0 0 0 0 0 0 0 0 0 0 0 0 0 0.1 0"/>
      <feBlend mode="normal" in2="effect1_dropShadow_4446_83869" result="effect2_dropShadow_4446_83869"/>
      <feColorMatrix in="SourceAlpha" type="matrix" values="0 0 0 0 0 0 0 0 0 0 0 0 0 0 0 0 0 0 127 0" result="hardAlpha"/>
      <feOffset dx="9" dy="28"/>
      <feGaussianBlur stdDeviation="14.5"/>
      <feColorMatrix type="matrix" values="0 0 0 0 0 0 0 0 0 0 0 0 0 0 0 0 0 0 0.09 0"/>
      <feBlend mode="normal" in2="effect2_dropShadow_4446_83869" result="effect3_dropShadow_4446_83869"/>
      <feColorMatrix in="SourceAlpha" type="matrix" values="0 0 0 0 0 0 0 0 0 0 0 0 0 0 0 0 0 0 127 0" result="hardAlpha"/>
      <feOffset dx="20" dy="63"/>
      <feGaussianBlur stdDeviation="20"/>
      <feColorMatrix type="matrix" values="0 0 0 0 0 0 0 0 0 0 0 0 0 0 0 0 0 0 0.05 0"/>
      <feBlend mode="normal" in2="effect3_dropShadow_4446_83869" result="effect4_dropShadow_4446_83869"/>
      <feColorMatrix in="SourceAlpha" type="matrix" values="0 0 0 0 0 0 0 0 0 0 0 0 0 0 0 0 0 0 127 0" result="hardAlpha"/>
      <feOffset dx="36" dy="112"/>
      <feGaussianBlur stdDeviation="23.5"/>
      <feColorMatrix type="matrix" values="0 0 0 0 0 0 0 0 0 0 0 0 0 0 0 0 0 0 0.01 0"/>
      <feBlend mode="normal" in2="effect4_dropShadow_4446_83869" result="effect5_dropShadow_4446_83869"/>
      <feBlend mode="normal" in="SourceGraphic" in2="effect5_dropShadow_4446_83869" result="shape"/>
    </filter> -->
    <linearGradient id="paint0_linear_4446_83869" x1="318.267" y1="163.57" x2="318.267" y2="236.49" gradientUnits="userSpaceOnUse">
      <stop stop-color="#383838"/>
      <stop offset="0.02" stop-color="#8A8A8A"/>
      <stop offset="0.04" stop-color="#8D8D8B"/>
      <stop offset="0.08" stop-color="#242424"/>
      <stop offset="0.11" stop-color="#5C5C5C"/>
      <stop offset="0.9" stop-color="#595959"/>
      <stop offset="0.94" stop-color="#242424"/>
      <stop offset="0.96" stop-color="#8D8D8B"/>
      <stop offset="0.98" stop-color="#6E6E6E"/>
      <stop offset="1" stop-color="#545454"/>
    </linearGradient>
    <linearGradient id="paint1_linear_4446_83869" x1="319.563" y1="163.584" x2="319.563" y2="236.489" gradientUnits="userSpaceOnUse">
      <stop stop-color="#636363"/>
      <stop offset="0.06" stop-color="#595959"/>
      <stop offset="0.19" stop-color="#737373"/>
      <stop offset="0.81" stop-color="#737373"/>
      <stop offset="0.92" stop-color="#595959"/>
      <stop offset="1" stop-color="#636363"/>
    </linearGradient>
    <linearGradient id="paint2_linear_4446_83869" x1="-1214.84" y1="206.34" x2="-1214.84" y2="252.531" gradientUnits="userSpaceOnUse">
      <stop stop-color="#383838"/>
      <stop offset="0.02" stop-color="#8A8A8A"/>
      <stop offset="0.04" stop-color="#8D8D8B"/>
      <stop offset="0.08" stop-color="#262626"/>
      <stop offset="0.11" stop-color="#5C5C5C"/>
      <stop offset="0.9" stop-color="#595959"/>
      <stop offset="0.94" stop-color="#262626"/>
      <stop offset="0.96" stop-color="#8D8D8B"/>
      <stop offset="0.98" stop-color="#6E6E6E"/>
      <stop offset="1" stop-color="#545454"/>
    </linearGradient>
    <linearGradient id="paint3_linear_4446_83869" x1="20.2535" y1="206.352" x2="20.2535" y2="252.528" gradientUnits="userSpaceOnUse">
      <stop stop-color="#636363"/>
      <stop offset="0.06" stop-color="#595959"/>
      <stop offset="0.19" stop-color="#737373"/>
      <stop offset="0.81" stop-color="#737373"/>
      <stop offset="0.92" stop-color="#595959"/>
      <stop offset="1" stop-color="#636363"/>
    </linearGradient>
    <linearGradient id="paint4_linear_4446_83869" x1="19.9999" y1="252.542" x2="21.4082" y2="206.352" gradientUnits="userSpaceOnUse">
      <stop stop-color="#383838"/>
      <stop offset="0.05" stop-color="#262626"/>
      <stop offset="0.52" stop-color="#8D8D8B"/>
      <stop offset="0.96" stop-color="#262626"/>
      <stop offset="1" stop-color="#545454"/>
    </linearGradient>
    <linearGradient id="paint5_linear_4446_83869" x1="20.9851" y1="148.22" x2="20.9851" y2="194.411" gradientUnits="userSpaceOnUse">
      <stop stop-color="#383838"/>
      <stop offset="0.02" stop-color="#8A8A8A"/>
      <stop offset="0.04" stop-color="#8D8D8B"/>
      <stop offset="0.08" stop-color="#262626"/>
      <stop offset="0.11" stop-color="#5C5C5C"/>
      <stop offset="0.9" stop-color="#595959"/>
      <stop offset="0.94" stop-color="#262626"/>
      <stop offset="0.96" stop-color="#8D8D8B"/>
      <stop offset="0.98" stop-color="#6E6E6E"/>
      <stop offset="1" stop-color="#545454"/>
    </linearGradient>
    <linearGradient id="paint6_linear_4446_83869" x1="20.2535" y1="148.236" x2="20.2535" y2="194.413" gradientUnits="userSpaceOnUse">
      <stop stop-color="#636363"/>
      <stop offset="0.06" stop-color="#595959"/>
      <stop offset="0.19" stop-color="#737373"/>
      <stop offset="0.81" stop-color="#737373"/>
      <stop offset="0.92" stop-color="#595959"/>
      <stop offset="1" stop-color="#636363"/>
    </linearGradient>
    <linearGradient id="paint7_linear_4446_83869" x1="21.9995" y1="194.439" x2="21.9995" y2="148.234" gradientUnits="userSpaceOnUse">
      <stop stop-color="#383838"/>
      <stop offset="0.05" stop-color="#262626"/>
      <stop offset="0.52" stop-color="#8D8D8B"/>
      <stop offset="0.96" stop-color="#262626"/>
      <stop offset="1" stop-color="#545454"/>
    </linearGradient>
    <linearGradient id="paint8_linear_4446_83869" x1="-1214.84" y1="104.58" x2="-1214.84" y2="128.295" gradientUnits="userSpaceOnUse">
      <stop stop-color="#383838"/>
      <stop offset="0.02" stop-color="#8A8A8A"/>
      <stop offset="0.04" stop-color="#8D8D8B"/>
      <stop offset="0.08" stop-color="#262626"/>
      <stop offset="0.11" stop-color="#5C5C5C"/>
      <stop offset="0.9" stop-color="#595959"/>
      <stop offset="0.94" stop-color="#262626"/>
      <stop offset="0.96" stop-color="#8D8D8B"/>
      <stop offset="0.98" stop-color="#6E6E6E"/>
      <stop offset="1" stop-color="#545454"/>
    </linearGradient>
    <linearGradient id="paint9_linear_4446_83869" x1="20.2535" y1="104.594" x2="20.2535" y2="128.295" gradientUnits="userSpaceOnUse">
      <stop stop-color="#636363"/>
      <stop offset="0.06" stop-color="#595959"/>
      <stop offset="0.19" stop-color="#737373"/>
      <stop offset="0.81" stop-color="#737373"/>
      <stop offset="0.92" stop-color="#595959"/>
      <stop offset="1" stop-color="#636363"/>
    </linearGradient>
    <linearGradient id="paint10_linear_4446_83869" x1="19.9999" y1="128.309" x2="21.9997" y2="104.594" gradientUnits="userSpaceOnUse">
      <stop stop-color="#383838"/>
      <stop offset="0.05" stop-color="#262626"/>
      <stop offset="0.52" stop-color="#8D8D8B"/>
      <stop offset="0.96" stop-color="#262626"/>
      <stop offset="1" stop-color="#545454"/>
    </linearGradient>
    <linearGradient id="paint11_linear_4446_83869" x1="189.589" y1="45.6569" x2="189.589" y2="37.4045" gradientUnits="userSpaceOnUse">
      <stop stop-color="#666666"/>
      <stop offset="1" stop-color="#010104"/>
    </linearGradient>
    <linearGradient id="paint12_linear_4446_83869" x1="189.603" y1="39.4869" x2="189.603" y2="44.2046" gradientUnits="userSpaceOnUse">
      <stop stop-color="#0B131C"/>
      <stop offset="1" stop-color="#354039"/>
    </linearGradient>
    <linearGradient id="paint13_linear_4446_83869" x1="191.067" y1="43.2059" x2="188.11" y2="40.2487" gradientUnits="userSpaceOnUse">
      <stop stop-color="#231F20"/>
      <stop offset="0.08" stop-color="#212226"/>
      <stop offset="0.2" stop-color="#1F2C37"/>
      <stop offset="0.33" stop-color="#1A3C53"/>
      <stop offset="0.47" stop-color="#13537B"/>
      <stop offset="0.62" stop-color="#0A70AE"/>
      <stop offset="0.78" stop-color="#0095EE"/>
      <stop offset="0.8" stop-color="#0387D6"/>
      <stop offset="0.84" stop-color="#0D689F"/>
      <stop offset="0.88" stop-color="#154D71"/>
      <stop offset="0.91" stop-color="#1B394E"/>
      <stop offset="0.95" stop-color="#1F2A34"/>
      <stop offset="0.98" stop-color="#222225"/>
      <stop offset="1" stop-color="#231F20"/>
    </linearGradient>
    <radialGradient id="paint14_radial_4446_83869" cx="0" cy="0" r="1" gradientUnits="userSpaceOnUse" gradientTransform="translate(189.588 41.7272) scale(2.09819 2.0983)">
      <stop stop-color="#231F20"/>
      <stop offset="0.2" stop-color="#165068"/>
      <stop offset="0.38" stop-color="#0C78A1"/>
      <stop offset="0.54" stop-color="#0594CB"/>
      <stop offset="0.66" stop-color="#01A6E4"/>
      <stop offset="0.73" stop-color="#00ADEE"/>
      <stop offset="0.76" stop-color="#01A5E3"/>
      <stop offset="0.81" stop-color="#0693C8"/>
      <stop offset="0.87" stop-color="#0D749B"/>
      <stop offset="0.94" stop-color="#184A5E"/>
      <stop offset="1" stop-color="#231F20"/>
    </radialGradient>
    <radialGradient id="paint15_radial_4446_83869" cx="0" cy="0" r="1" gradientUnits="userSpaceOnUse" gradientTransform="translate(190.744 42.8245) scale(0.746338 0.746374)">
      <stop stop-color="#CCCCCC"/>
      <stop offset="0.02" stop-color="#C4C4C4"/>
      <stop offset="0.22" stop-color="#898989"/>
      <stop offset="0.41" stop-color="#585858"/>
      <stop offset="0.59" stop-color="#313131"/>
      <stop offset="0.75" stop-color="#161616"/>
      <stop offset="0.89" stop-color="#050505"/>
      <stop offset="1"/>
    </radialGradient>
  </defs>
</svg>