<svg width="32" height="32" viewBox="0 0 32 32" fill="none" xmlns="http://www.w3.org/2000/svg">
<path d="M26.033 22.754C26.698 20.652 26.1744 18.4626 24.8099 17.0571C23.1945 15.3931 19.9101 12.0357 19.9101 12.0357L17.3926 14.6289C17.3926 14.6289 20.8963 18.1574 22.319 19.6229C22.988 20.312 22.988 21.4293 22.319 22.1184C21.6588 22.7985 20.5937 22.8074 19.9229 22.1452L17.4318 24.7112C18.8769 26.1792 20.9446 26.6062 22.7519 25.9922C22.8135 27.6638 24.1881 29 25.8747 29C27.6006 29 28.9997 27.6009 28.9997 25.875C28.9997 24.2022 27.6853 22.8364 26.033 22.754Z" fill="white"/>
<path d="M22.7534 6.96671C20.6515 6.30173 18.462 6.82531 17.0565 8.18982C15.3925 9.80526 12.0352 13.0896 12.0352 13.0896L14.6283 15.6071C14.6283 15.6071 18.1568 12.1035 19.6223 10.6807C20.3114 10.0117 21.4287 10.0117 22.1178 10.6807C22.7979 11.3409 22.8069 12.406 22.1447 13.0768L24.7107 15.5679C26.1787 14.1228 26.6056 12.0551 25.9917 10.2478C27.6632 10.1862 28.9994 8.81165 28.9994 7.12501C28.9994 5.39912 27.6003 4.00001 25.8744 4.00001C24.2016 4.00001 22.8358 5.31438 22.7534 6.96671Z" fill="white"/>
<path d="M6.96699 10.246C6.30201 12.348 6.82559 14.5374 8.19009 15.9429C9.80553 17.6069 13.0899 20.9643 13.0899 20.9643L15.6074 18.3711C15.6074 18.3711 12.1037 14.8426 10.681 13.3771C10.012 12.688 10.012 11.5707 10.681 10.8816C11.3412 10.2015 12.4062 10.1926 13.0771 10.8548L15.5682 8.28878C14.1231 6.82077 12.0554 6.3938 10.2481 7.00777C10.1865 5.3362 8.81193 3.99999 7.12528 4C5.39939 4 4.00028 5.39912 4.00028 7.125C4.00029 8.79779 5.31465 10.1636 6.96699 10.246Z" fill="white"/>
<path d="M10.2466 26.0333C12.3485 26.6983 14.538 26.1747 15.9435 24.8102C17.6075 23.1947 20.9648 19.9104 20.9648 19.9104L18.3717 17.3929C18.3717 17.3929 14.8432 20.8965 13.3777 22.3193C12.6886 22.9883 11.5713 22.9883 10.8822 22.3193C10.2021 21.6591 10.1931 20.594 10.8553 19.9232L8.28934 17.4321C6.82134 18.8772 6.39436 20.9449 7.00834 22.7522C5.33677 22.8138 4.00056 24.1883 4.00056 25.875C4.00056 27.6009 5.39968 29 7.12556 29C8.79836 29 10.1642 27.6856 10.2466 26.0333Z" fill="white"/>
</svg>
