<svg width="32" height="32" viewBox="0 0 32 32" fill="none" xmlns="http://www.w3.org/2000/svg">
<path fill-rule="evenodd" clip-rule="evenodd" d="M6.2749 4.66675C5.38634 4.66675 4.66602 5.38707 4.66602 6.27563V25.7245C4.66602 26.613 5.38634 27.3334 6.2749 27.3334H25.7238C26.6124 27.3334 27.3327 26.613 27.3327 25.7245V6.27563C27.3327 5.38707 26.6124 4.66675 25.7238 4.66675H6.2749ZM9.75364 11.7059C10.8396 11.7059 11.72 10.8255 11.72 9.73956C11.72 8.65359 10.8396 7.77323 9.75364 7.77323C8.66767 7.77323 7.78731 8.65359 7.78731 9.73956C7.78731 10.8255 8.66767 11.7059 9.75364 11.7059ZM13.5208 13.1591H16.7796V14.652C16.7796 14.652 17.664 12.8833 20.0701 12.8833C22.2165 12.8833 23.9945 13.9406 23.9945 17.1636V23.9598H20.6174V17.9871C20.6174 16.0859 19.6024 15.8768 18.829 15.8768C17.2238 15.8768 16.949 17.2613 16.949 18.2351V23.9598H13.5208V13.1591ZM11.4677 13.1591H8.03954V23.9598H11.4677V13.1591Z" fill="#121212"/>
</svg>
