<svg width="32" height="32" viewBox="0 0 32 32" fill="none" xmlns="http://www.w3.org/2000/svg">
<g clip-path="url(#clip0_1752_94442)">
<rect width="32" height="32" fill="#1265BF"/>
<path d="M7.18224 9.93773C8.71538 9.93773 9.95824 8.69487 9.95824 7.16174C9.95824 5.6286 8.71538 4.38574 7.18224 4.38574C5.6491 4.38574 4.40625 5.6286 4.40625 7.16174C4.40625 8.69487 5.6491 9.93773 7.18224 9.93773Z" fill="white"/>
<path d="M12.5006 11.9893H17.1013V14.0969C17.1013 14.0969 18.3498 11.5999 21.7466 11.5999C24.7768 11.5999 27.287 13.0927 27.287 17.6427V27.2373H22.5194V18.8053C22.5194 16.1212 21.0864 15.826 19.9945 15.826C17.7283 15.826 17.3404 17.7807 17.3404 19.1554V27.2373H12.5006V11.9893Z" fill="white"/>
<path d="M4.76234 11.9893H9.60215V27.2373H4.76234V11.9893Z" fill="white"/>
</g>
<defs>
<clipPath id="clip0_1752_94442">
<rect width="32" height="32" rx="8" fill="white"/>
</clipPath>
</defs>
</svg>
