<svg width="32" height="32" viewBox="0 0 32 32" fill="none" xmlns="http://www.w3.org/2000/svg">
<rect width="32" height="32" rx="8" fill="black"/>
<path d="M17.2812 15.6794C17.2812 18.816 14.7558 21.3586 11.6407 21.3586C8.5256 21.3586 6 18.816 6 15.6794C6 12.5429 8.52541 10 11.6407 10C14.756 10 17.2812 12.5429 17.2812 15.6794Z" fill="white"/>
<path d="M23.4688 15.6794C23.4688 18.6318 22.2061 21.0261 20.6485 21.0261C19.0908 21.0261 17.8281 18.6318 17.8281 15.6794C17.8281 12.727 19.0906 10.3327 20.6483 10.3327C22.2059 10.3327 23.4686 12.7263 23.4686 15.6794" fill="white"/>
<path d="M25.9993 15.6794C25.9993 18.324 25.5552 20.4692 25.0074 20.4692C24.4595 20.4692 24.0156 18.3246 24.0156 15.6794C24.0156 13.0342 24.4597 10.8896 25.0074 10.8896C25.5551 10.8896 25.9993 13.034 25.9993 15.6794Z" fill="white"/>
</svg>
