<svg width="32" height="32" viewBox="0 0 32 32" fill="none" xmlns="http://www.w3.org/2000/svg">
<path d="M17.5375 15.8153C17.5375 19.5792 14.507 22.6304 10.7689 22.6304C7.03074 22.6304 4 19.5792 4 15.8153C4 12.0514 7.03051 9 10.7689 9C14.5072 9 17.5375 12.0514 17.5375 15.8153Z" fill="#121212"/>
<path d="M24.9622 15.8153C24.9622 19.3582 23.447 22.2314 21.5778 22.2314C19.7086 22.2314 18.1934 19.3582 18.1934 15.8153C18.1934 12.2725 19.7084 9.39925 21.5776 9.39925C23.4467 9.39925 24.962 12.2715 24.962 15.8153" fill="#121212"/>
<path d="M27.9995 15.8154C27.9995 18.9889 27.4667 21.5632 26.8092 21.5632C26.1517 21.5632 25.6191 18.9896 25.6191 15.8154C25.6191 12.6411 26.152 10.0676 26.8092 10.0676C27.4665 10.0676 27.9995 12.6409 27.9995 15.8154Z" fill="#121212"/>
</svg>
