<svg width="32" height="32" viewBox="0 0 32 32" fill="none" xmlns="http://www.w3.org/2000/svg">
<rect width="32" height="32" rx="8" fill="#F43397"/>
<mask id="mask0_1926_107851" style="mask-type:luminance" maskUnits="userSpaceOnUse" x="2" y="13" width="28" height="7">
<path d="M30 13H2V19.462H30V13Z" fill="white"/>
</mask>
<g mask="url(#mask0_1926_107851)">
<path d="M6.13181 15.1877C6.60144 15.1936 6.9938 15.3541 7.32077 15.6752C7.64773 15.9962 7.80824 16.3766 7.80824 16.8344L7.79635 18.9626C7.79635 19.2183 7.58234 19.4204 7.31482 19.4204C7.05325 19.4204 6.83924 19.2123 6.84518 18.9567L6.85707 16.8285C6.86302 16.6382 6.78573 16.4539 6.64306 16.3231C6.50633 16.1864 6.33393 16.1151 6.12586 16.1151C5.92374 16.1091 5.72756 16.1924 5.59083 16.335C5.4541 16.4718 5.38871 16.6561 5.38871 16.8463L5.37682 18.9448C5.37682 19.2004 5.15686 19.4085 4.88934 19.4085C4.62183 19.4085 4.40781 19.1945 4.40781 18.9389L4.4197 16.8285C4.42565 16.6442 4.35431 16.4599 4.22353 16.3291C4.08085 16.1805 3.90251 16.1091 3.68849 16.1032C3.49232 16.0972 3.30803 16.1686 3.1713 16.3053C3.02862 16.442 2.95728 16.6085 2.95728 16.8047L2.94539 18.927C2.94539 19.1826 2.73138 19.3907 2.46387 19.3847C2.20229 19.3847 1.98828 19.1766 1.98828 18.921L2.00017 16.8047C2.00017 16.4064 2.14879 16.0259 2.41631 15.7346C2.76705 15.3601 3.19508 15.1699 3.69444 15.1758C4.17002 15.1817 4.58021 15.3482 4.90718 15.6811C5.25198 15.3482 5.65622 15.1877 6.13181 15.1877ZM12.1479 17.5478L9.41928 17.5299C9.44306 17.8569 9.55006 18.1185 9.74624 18.3147C9.94242 18.5049 10.1921 18.6059 10.4893 18.6059C10.7271 18.6059 10.9233 18.5524 11.0779 18.4454C11.167 18.38 11.2681 18.2849 11.3751 18.1482C11.5118 17.9758 11.7556 17.9282 11.9518 18.0293L11.9815 18.0471C12.2252 18.1779 12.2787 18.493 12.1004 18.7011C12.0707 18.7367 12.0409 18.7724 12.0053 18.8021C11.8745 18.9389 11.7259 19.0637 11.5594 19.1588C11.3989 19.2539 11.2265 19.3193 11.0482 19.3609C10.8639 19.4026 10.6677 19.4263 10.4477 19.4263C9.83541 19.4204 9.342 19.2302 8.96747 18.8437C8.5989 18.4573 8.41461 17.9461 8.42055 17.31C8.4265 16.6798 8.61079 16.1686 8.97342 15.7822C9.342 15.4017 9.82352 15.2115 10.4239 15.2174C11.0303 15.2234 11.5118 15.4136 11.8566 15.7881C12.2014 16.1626 12.3738 16.6798 12.3738 17.3338C12.3738 17.4527 12.2668 17.5478 12.1479 17.5478ZM11.3989 16.7868C11.2681 16.2934 10.953 16.0497 10.4418 16.0437C10.3288 16.0437 10.2218 16.0556 10.1148 16.0913C10.0138 16.121 9.91864 16.1745 9.83541 16.2399C9.75219 16.3053 9.68085 16.3826 9.6214 16.4718C9.55601 16.5669 9.5144 16.6679 9.48467 16.7809L11.3989 16.7868ZM16.6898 17.5478L13.9611 17.5299C13.9849 17.8569 14.0919 18.1185 14.2881 18.3147C14.4842 18.5049 14.7339 18.6059 15.0312 18.6059C15.269 18.6059 15.4651 18.5524 15.6197 18.4454C15.7148 18.38 15.8099 18.2849 15.9169 18.1482C16.0537 17.9758 16.2974 17.9282 16.4936 18.0293L16.5233 18.0471C16.767 18.1779 16.8206 18.493 16.6422 18.7011C16.6125 18.7367 16.5828 18.7724 16.5471 18.8021C16.4163 18.9389 16.2677 19.0637 16.1012 19.1588C15.9407 19.2539 15.7683 19.3193 15.59 19.3609C15.4057 19.4026 15.2095 19.4263 14.9896 19.4263C14.3772 19.4204 13.8779 19.2302 13.5093 18.8437C13.1407 18.4573 12.9564 17.9461 12.9624 17.31C12.9683 16.6798 13.1526 16.1686 13.5152 15.7822C13.8838 15.4017 14.3654 15.2115 14.9658 15.2174C15.5721 15.2234 16.0537 15.4136 16.3985 15.7881C16.7433 16.1626 16.9157 16.6798 16.9157 17.3338C16.9157 17.4527 16.8146 17.5478 16.6898 17.5478ZM15.9407 16.7868C15.8099 16.2934 15.4949 16.0497 14.9836 16.0437C14.8707 16.0437 14.7637 16.0556 14.6566 16.0913C14.4545 16.1567 14.2821 16.2875 14.1632 16.4658C14.0978 16.5609 14.0562 16.662 14.0265 16.7749L15.9407 16.7868ZM21.945 13C22.2125 13 22.4265 13.214 22.4265 13.4756L22.4087 15.5622C22.7594 15.265 23.1399 15.1936 23.562 15.1996C23.9781 15.1996 24.418 15.3839 24.7034 15.6811C24.9471 15.9427 25.06 16.3588 25.06 16.9295L25.0482 18.9567C25.0482 19.2183 24.8282 19.4263 24.5607 19.4263C24.2932 19.4263 24.0732 19.2123 24.0792 18.9507L24.091 17.0127C24.091 16.6858 24.0375 16.448 23.9186 16.3053C23.7997 16.1567 23.6095 16.0854 23.342 16.0854C23.0031 16.0854 22.7594 16.1864 22.6227 16.3826C22.4859 16.5907 22.4146 16.9414 22.4087 17.4467L22.3968 18.9507C22.3968 19.2123 22.1768 19.4204 21.9034 19.4144C21.6358 19.4144 21.4218 19.2004 21.4218 18.9389L21.4634 13.4815C21.4575 13.2021 21.6775 12.9941 21.945 13ZM25.6367 17.3278C25.6426 16.7631 25.8507 16.2875 26.2728 15.8951C26.6889 15.5028 27.2002 15.3066 27.8006 15.3125C28.401 15.3185 28.9123 15.5206 29.3284 15.9189C29.7386 16.3172 29.9407 16.8106 29.9407 17.3873C29.9348 17.9758 29.7267 18.4573 29.3046 18.8556C28.8825 19.248 28.3654 19.4382 27.759 19.4323C27.1526 19.4263 26.6473 19.2242 26.2431 18.82C25.8329 18.4276 25.6307 17.9282 25.6367 17.3278ZM26.5879 17.3516C26.5879 17.744 26.6889 18.0471 26.9029 18.279C27.1229 18.5108 27.4142 18.6297 27.7768 18.6297C28.1394 18.6297 28.4307 18.5227 28.6507 18.2968C28.8707 18.0709 28.9836 17.7677 28.9836 17.3932C28.9836 17.0127 28.8825 16.7096 28.6626 16.4837C28.4426 16.2518 28.1513 16.1329 27.7887 16.1329C27.432 16.1329 27.1467 16.2459 26.9208 16.4718C26.7068 16.6917 26.5938 16.989 26.5879 17.3516ZM20.3458 17.2684C20.6371 17.4824 20.7857 17.7618 20.7917 18.1006V18.1125C20.7917 18.5287 20.6312 18.8675 20.322 19.0994C20.0426 19.3134 19.6562 19.4263 19.2044 19.4263C18.7229 19.4263 18.2176 19.2896 17.7777 19.0459C17.5458 18.921 17.4745 18.6297 17.6231 18.4098C17.7123 18.2849 17.8549 18.2076 18.0095 18.2076C18.0927 18.2076 18.17 18.2255 18.2354 18.2671C18.5683 18.4514 18.9131 18.5524 19.2282 18.5524C19.7216 18.5524 19.7751 18.3147 19.7751 18.2076V18.1958C19.7751 17.9877 19.4898 17.8866 19.0261 17.7499C18.9963 17.738 18.9607 17.7321 18.931 17.7202C18.6218 17.6369 18.3008 17.5299 18.0511 17.3516C17.7539 17.1376 17.6112 16.8582 17.6112 16.4896V16.4777C17.6112 15.7287 18.2414 15.2055 19.1331 15.2055C19.5076 15.2055 19.9237 15.2947 20.2983 15.4671C20.4112 15.5206 20.5063 15.6157 20.5479 15.7346C20.5896 15.8535 20.5717 15.9843 20.5123 16.0913C20.429 16.234 20.2745 16.3231 20.108 16.3231C20.0426 16.3231 19.9713 16.3113 19.9118 16.2815C19.6206 16.1507 19.3471 16.0794 19.1152 16.0794C18.8239 16.0794 18.6337 16.1983 18.6337 16.3826V16.3945C18.6337 16.6085 19.0082 16.7274 19.4125 16.8522L19.4898 16.876C19.7751 16.9711 20.0902 17.0841 20.3458 17.2684Z" fill="white"/>
</g>
</svg>
