<svg width="32" height="32" viewBox="0 0 32 32" fill="none" xmlns="http://www.w3.org/2000/svg">
<mask id="mask0_1926_107858" style="mask-type:luminance" maskUnits="userSpaceOnUse" x="3" y="13" width="26" height="7">
<path d="M29 13H3V19.0004H29V13Z" fill="white"/>
</mask>
<g mask="url(#mask0_1926_107858)">
<path d="M6.83584 15.0314C7.27193 15.0369 7.63626 15.186 7.93987 15.4841C8.24348 15.7822 8.39253 16.1354 8.39253 16.5605L8.38149 18.5367C8.38149 18.7741 8.18276 18.9618 7.93435 18.9618C7.69147 18.9618 7.49274 18.7686 7.49826 18.5312L7.5093 16.555C7.51482 16.3783 7.44306 16.2072 7.31057 16.0858C7.18361 15.9588 7.02352 15.8926 6.83032 15.8926C6.64263 15.887 6.46047 15.9643 6.3335 16.0968C6.20654 16.2238 6.14582 16.3949 6.14582 16.5715L6.13478 18.5202C6.13478 18.7575 5.93053 18.9507 5.68212 18.9507C5.43372 18.9507 5.23499 18.752 5.23499 18.5146L5.24603 16.555C5.25155 16.3839 5.18531 16.2127 5.06387 16.0913C4.93138 15.9533 4.76578 15.887 4.56705 15.8815C4.38488 15.876 4.21376 15.9422 4.08679 16.0692C3.95431 16.1962 3.88807 16.3507 3.88807 16.5329L3.87703 18.5036C3.87703 18.741 3.6783 18.9342 3.4299 18.9287C3.18701 18.9287 2.98828 18.7354 2.98828 18.4981L2.99932 16.5329C2.99932 16.1631 3.13733 15.8098 3.38573 15.5393C3.71142 15.1915 4.10888 15.0149 4.57257 15.0204C5.01418 15.0259 5.39508 15.1805 5.69868 15.4896C6.01885 15.1805 6.39423 15.0314 6.83584 15.0314ZM12.4223 17.2229L9.88849 17.2064C9.91057 17.51 10.0099 17.7529 10.1921 17.935C10.3743 18.1117 10.6061 18.2055 10.8821 18.2055C11.1029 18.2055 11.2851 18.1558 11.4286 18.0565C11.5114 17.9957 11.6053 17.9074 11.7046 17.7805C11.8316 17.6204 12.0579 17.5762 12.2401 17.6701L12.2677 17.6866C12.494 17.8081 12.5437 18.1006 12.3781 18.2938C12.3505 18.327 12.3229 18.3601 12.2898 18.3877C12.1683 18.5146 12.0303 18.6306 11.8758 18.7189C11.7267 18.8072 11.5666 18.8679 11.401 18.9066C11.2299 18.9452 11.0477 18.9673 10.8435 18.9673C10.2749 18.9618 9.81673 18.7851 9.46896 18.4263C9.12671 18.0675 8.95558 17.5928 8.9611 17.0021C8.96662 16.417 9.13775 15.9422 9.47448 15.5834C9.81673 15.2301 10.2639 15.0535 10.8214 15.059C11.3845 15.0645 11.8316 15.2412 12.1518 15.589C12.4719 15.9367 12.632 16.417 12.632 17.0242C12.632 17.1346 12.5327 17.2229 12.4223 17.2229ZM11.7267 16.5163C11.6053 16.0582 11.3127 15.8318 10.838 15.8263C10.7331 15.8263 10.6337 15.8374 10.5344 15.8705C10.4405 15.8981 10.3522 15.9478 10.2749 16.0085C10.1976 16.0692 10.1314 16.141 10.0762 16.2238C10.0155 16.3121 9.97682 16.4059 9.94921 16.5108L11.7267 16.5163ZM16.6397 17.2229L14.1059 17.2064C14.128 17.51 14.2273 17.7529 14.4095 17.935C14.5917 18.1117 14.8235 18.2055 15.0995 18.2055C15.3203 18.2055 15.5025 18.1558 15.646 18.0565C15.7344 17.9957 15.8227 17.9074 15.922 17.7805C16.049 17.6204 16.2753 17.5762 16.4575 17.6701L16.4851 17.6866C16.7114 17.8081 16.7611 18.1006 16.5955 18.2938C16.5679 18.327 16.5403 18.3601 16.5072 18.3877C16.3857 18.5146 16.2477 18.6306 16.0932 18.7189C15.9441 18.8072 15.784 18.8679 15.6184 18.9066C15.4473 18.9452 15.2651 18.9673 15.0609 18.9673C14.4923 18.9618 14.0286 18.7851 13.6864 18.4263C13.3441 18.0675 13.173 17.5928 13.1785 17.0021C13.184 16.417 13.3552 15.9422 13.6919 15.5834C14.0341 15.2301 14.4813 15.0535 15.0388 15.059C15.6019 15.0645 16.049 15.2412 16.3692 15.589C16.6893 15.9367 16.8494 16.417 16.8494 17.0242C16.8494 17.1346 16.7556 17.2229 16.6397 17.2229ZM15.9441 16.5163C15.8227 16.0582 15.5301 15.8318 15.0554 15.8263C14.9505 15.8263 14.8511 15.8374 14.7518 15.8705C14.5641 15.9312 14.404 16.0526 14.2936 16.2183C14.2329 16.3066 14.1942 16.4004 14.1666 16.5053L15.9441 16.5163ZM21.5195 13C21.7679 13 21.9666 13.1987 21.9666 13.4416L21.9501 15.3792C22.2758 15.1032 22.629 15.0369 23.021 15.0425C23.4074 15.0425 23.8159 15.2136 24.0809 15.4896C24.3072 15.7325 24.4121 16.1189 24.4121 16.6488L24.401 18.5312C24.401 18.7741 24.1968 18.9673 23.9484 18.9673C23.7 18.9673 23.4957 18.7686 23.5012 18.5257L23.5123 16.7261C23.5123 16.4225 23.4626 16.2017 23.3522 16.0692C23.2418 15.9312 23.0651 15.865 22.8167 15.865C22.5021 15.865 22.2758 15.9588 22.1488 16.141C22.0218 16.3342 21.9556 16.6599 21.9501 17.1291L21.939 18.5257C21.939 18.7686 21.7348 18.9618 21.4809 18.9563C21.2324 18.9563 21.0337 18.7575 21.0337 18.5146L21.0724 13.4471C21.0668 13.1877 21.2711 12.9945 21.5195 13ZM24.9475 17.0187C24.953 16.4943 25.1462 16.0526 25.5382 15.6883C25.9246 15.324 26.3993 15.1418 26.9569 15.1473C27.5144 15.1529 27.9891 15.3405 28.3755 15.7104C28.7564 16.0802 28.9441 16.5384 28.9441 17.0739C28.9386 17.6204 28.7454 18.0675 28.3535 18.4374C27.9615 18.8017 27.4813 18.9783 26.9182 18.9728C26.3552 18.9673 25.8859 18.7796 25.5106 18.4042C25.1297 18.0399 24.942 17.5762 24.9475 17.0187ZM25.8307 17.0408C25.8307 17.4051 25.9246 17.6866 26.1233 17.9019C26.3276 18.1172 26.598 18.2276 26.9348 18.2276C27.2715 18.2276 27.542 18.1282 27.7462 17.9185C27.9505 17.7087 28.0554 17.4272 28.0554 17.0794C28.0554 16.7261 27.9615 16.4446 27.7573 16.2348C27.553 16.0195 27.2825 15.9091 26.9458 15.9091C26.6146 15.9091 26.3496 16.014 26.1399 16.2238C25.9411 16.428 25.8363 16.704 25.8307 17.0408ZM20.0346 16.9635C20.3051 17.1622 20.4431 17.4216 20.4486 17.7363V17.7473C20.4486 18.1338 20.2995 18.4484 20.0125 18.6637C19.753 18.8624 19.3942 18.9673 18.9747 18.9673C18.5276 18.9673 18.0583 18.8403 17.6499 18.614C17.4346 18.4981 17.3683 18.2276 17.5063 18.0233C17.5891 17.9074 17.7216 17.8357 17.8651 17.8357C17.9424 17.8357 18.0142 17.8522 18.0749 17.8909C18.384 18.062 18.7042 18.1558 18.9968 18.1558C19.4549 18.1558 19.5046 17.935 19.5046 17.8357V17.8246C19.5046 17.6314 19.2397 17.5376 18.8091 17.4106C18.7815 17.3996 18.7484 17.394 18.7208 17.383C18.4337 17.3057 18.1356 17.2064 17.9038 17.0408C17.6278 16.842 17.4953 16.5826 17.4953 16.2403V16.2293C17.4953 15.5338 18.0804 15.048 18.9085 15.048C19.2562 15.048 19.6426 15.1308 19.9904 15.2909C20.0953 15.3405 20.1836 15.4289 20.2223 15.5393C20.2609 15.6497 20.2443 15.7711 20.1891 15.8705C20.1118 16.003 19.9683 16.0858 19.8138 16.0858C19.753 16.0858 19.6868 16.0747 19.6316 16.0471C19.3611 15.9257 19.1072 15.8594 18.8919 15.8594C18.6214 15.8594 18.4448 15.9698 18.4448 16.141V16.152C18.4448 16.3507 18.7925 16.4611 19.1679 16.5771L19.2397 16.5991C19.5046 16.6875 19.7972 16.7924 20.0346 16.9635Z" fill="#121212"/>
</g>
<rect x="0.5" y="0.5" width="31" height="31" rx="7.5" stroke="#121212"/>
</svg>
