<svg width="32" height="32" viewBox="0 0 32 32" fill="none" xmlns="http://www.w3.org/2000/svg">
<path d="M7.09246 24.3107C7.14669 24.6062 6.97194 24.8836 6.6827 24.9439C6.40552 24.9982 6.1223 24.8233 6.06807 24.5338C6.01384 24.2564 6.18858 23.9608 6.46577 23.9005C6.73694 23.8402 7.0322 24.0151 7.09246 24.3107ZM14.444 27.9837C14.1186 28.2189 14.0342 28.6712 14.2512 29.015C14.4862 29.3527 14.9381 29.4432 15.2816 29.208C15.607 28.9728 15.6913 28.5204 15.4563 28.1767C15.2394 27.8389 14.7875 27.7484 14.444 27.9837ZM10.027 4.20264C10.3524 4.13027 10.5573 3.80459 10.485 3.48493C10.4308 3.14719 10.1054 2.94212 9.77999 3.0145C9.45459 3.08687 9.24971 3.41256 9.30997 3.73221C9.38228 4.07599 9.70165 4.28105 10.027 4.20264ZM3.77222 14.6426C3.26003 14.2868 2.555 14.4195 2.19948 14.9502C1.84395 15.4629 1.97652 16.1866 2.49474 16.5425C3.00694 16.9104 3.71196 16.7777 4.06749 16.2469C4.41699 15.7102 4.28442 15.0045 3.77222 14.6426ZM17.7522 5.84916C18.2945 5.52348 18.4572 4.81783 18.1499 4.29311C17.8245 3.7503 17.1375 3.5754 16.6073 3.89505C16.077 4.21471 15.9022 4.92639 16.2276 5.4692C16.5289 5.99994 17.2219 6.17485 17.7522 5.84916ZM7.93005 8.8346C8.32776 8.55717 8.41212 8.01436 8.15301 7.6163C7.8939 7.21824 7.34555 7.13381 6.96592 7.39315C6.56821 7.67058 6.48385 8.21339 6.74296 8.61145C7.00207 9.01554 7.5444 9.09998 7.93005 8.8346ZM27.0621 16.8561C26.6825 16.9405 26.4294 17.3265 26.5198 17.7246C26.5921 18.1046 26.9777 18.3579 27.3574 18.2674C27.737 18.195 27.9901 17.809 27.8997 17.411C27.8214 17.037 27.4417 16.7837 27.0621 16.8561ZM29.0988 13.937C29.0446 13.6415 28.7614 13.4666 28.4842 13.5269C28.1889 13.5812 28.0142 13.8827 28.0744 14.1722C28.1287 14.4496 28.4119 14.6426 28.7072 14.5823C28.9843 14.51 29.1711 14.2325 29.0988 13.937ZM24.9772 10.1434C24.5373 10.451 24.4348 11.0541 24.7241 11.4944C25.0193 11.9346 25.6159 12.0372 26.0618 11.7477C26.4896 11.4401 26.5921 10.837 26.2968 10.3967C26.0016 9.95038 25.399 9.83578 24.9772 10.1434ZM24.6518 17.3145C26.0016 19.5339 25.4291 22.4591 23.302 23.9548C22.4102 24.5881 21.3978 24.8655 20.3794 24.8354C19.7648 27.2599 16.8121 28.1586 14.9803 26.512C14.9261 26.5603 14.8477 26.5965 14.7875 26.6628C12.7809 28.056 10.0451 27.5554 8.65315 25.5169C8.15301 24.7811 7.89992 23.9428 7.87582 23.1044C4.5134 22.5435 3.24797 18.2674 5.76075 15.9213C4.30852 13.5088 5.79088 10.3967 8.50251 10.0107C9.79204 6.60306 14.0342 4.99273 16.9086 7.22427C20.3734 6.07835 23.9106 8.7381 23.6334 12.4232C25.7485 13.0685 26.3511 15.8609 24.6518 17.3145ZM21.0543 21.1382C20.8977 20.0768 18.9513 20.903 18.8368 19.745C18.6802 18.0985 21.0845 14.5461 20.8916 13.159C20.7169 11.9226 19.8974 11.6632 19.1743 11.6451C18.4873 11.627 18.3066 11.7477 18.0715 11.8804C17.9209 11.9648 17.7341 12.1337 17.469 11.8623C17.1436 11.5547 16.8965 11.2591 16.4747 11.1988C15.842 11.0963 15.5648 11.3014 15.1068 11.6994C14.9321 11.8502 14.4922 12.3629 14.0764 12.1699C13.9017 12.0854 13.287 11.7718 12.8411 11.5848C12.0035 11.2169 10.7863 11.82 10.3464 12.6162C9.68357 13.7922 8.39404 18.4363 8.20122 19.0515C7.76133 20.4205 8.76162 21.5484 10.0994 21.476C10.6718 21.4458 11.0394 21.2408 11.407 20.5834C11.6118 20.2034 13.5522 15.0467 13.6968 14.7934C13.7992 14.6185 14.1547 14.3833 14.45 14.5341C14.7453 14.6909 14.8055 15.0166 14.7573 15.3121C14.7031 15.8127 13.3172 18.961 13.275 19.3108C13.1002 20.4869 14.6549 20.6799 15.2575 19.5159C15.4503 19.148 17.6076 14.7512 17.7944 14.4617C18.0173 14.136 18.174 14.0335 18.3969 14.0516C18.5536 14.0516 18.8248 14.0998 18.7645 14.6125C18.6922 15.095 16.9628 18.3337 16.7639 19.1238C16.5289 20.1853 17.1014 21.2528 18.0414 21.7293C18.6319 22.0007 21.2592 22.5134 21.0543 21.1382ZM21.3496 25.8848C20.8193 26.2648 20.6868 27.0187 21.0543 27.5615C21.4219 28.1043 22.1571 28.237 22.6994 27.8691C23.2417 27.4891 23.3743 26.7352 23.0067 26.1924C22.6271 25.6496 21.8919 25.4988 21.3496 25.8848Z" fill="white"/>
</svg>
