<svg width="32" height="32" viewBox="0 0 32 32" fill="none" xmlns="http://www.w3.org/2000/svg">
<path d="M8.07096 24.2207C8.12497 24.515 7.95096 24.7912 7.66294 24.8513C7.38692 24.9054 7.1049 24.7312 7.0509 24.4429C6.99689 24.1666 7.1709 23.8724 7.44692 23.8123C7.71694 23.7522 8.01096 23.9264 8.07096 24.2207ZM15.3915 27.8782C15.0674 28.1124 14.9834 28.5628 15.1994 28.9052C15.4335 29.2415 15.8835 29.3316 16.2255 29.0974C16.5495 28.8631 16.6335 28.4127 16.3995 28.0704C16.1835 27.7341 15.7335 27.644 15.3915 27.8782ZM10.9932 4.19757C11.3172 4.1255 11.5212 3.80119 11.4492 3.48289C11.3952 3.14656 11.0712 2.94237 10.7471 3.01444C10.4231 3.08651 10.2191 3.41082 10.2791 3.72912C10.3511 4.07145 10.6691 4.27564 10.9932 4.19757ZM4.76474 14.5935C4.25471 14.2392 3.55266 14.3713 3.19864 14.8998C2.84461 15.4103 2.97662 16.131 3.49266 16.4853C4.00269 16.8517 4.70474 16.7195 5.05876 16.191C5.40678 15.6565 5.27478 14.9538 4.76474 14.5935ZM18.6857 5.83713C19.2257 5.51282 19.3877 4.81015 19.0817 4.28765C18.7577 3.74714 18.0736 3.57297 17.5456 3.89128C17.0176 4.20958 16.8436 4.91826 17.1676 5.45877C17.4676 5.98728 18.1576 6.16144 18.6857 5.83713ZM8.90502 8.80997C9.30105 8.53371 9.38505 7.99319 9.12704 7.59682C8.86902 7.20044 8.32298 7.11636 7.94496 7.3746C7.54893 7.65087 7.46492 8.19138 7.72294 8.58776C7.98096 8.99015 8.52099 9.07423 8.90502 8.80997ZM27.9563 16.7976C27.5783 16.8817 27.3263 17.2661 27.4163 17.6624C27.4883 18.0408 27.8723 18.293 28.2503 18.2029C28.6283 18.1309 28.8804 17.7465 28.7904 17.3501C28.7124 16.9778 28.3343 16.7255 27.9563 16.7976ZM29.9844 13.8908C29.9304 13.5965 29.6484 13.4224 29.3724 13.4824C29.0784 13.5365 28.9044 13.8368 28.9644 14.1251C29.0184 14.4013 29.3004 14.5935 29.5944 14.5334C29.8704 14.4614 30.0564 14.1851 29.9844 13.8908ZM25.8802 10.1132C25.4421 10.4195 25.3401 11.0201 25.6281 11.4585C25.9222 11.8969 26.5162 11.999 26.9602 11.7107C27.3863 11.4045 27.4883 10.8039 27.1943 10.3655C26.9002 9.92104 26.3002 9.80693 25.8802 10.1132ZM25.5561 17.254C26.9002 19.4642 26.3302 22.3769 24.212 23.8664C23.324 24.497 22.3159 24.7732 21.3019 24.7432C20.6898 27.1575 17.7496 28.0524 15.9255 26.4128C15.8715 26.4608 15.7935 26.4969 15.7335 26.5629C13.7353 27.9503 11.0112 27.4518 9.62507 25.4218C9.12703 24.6891 8.87502 23.8543 8.85102 23.0195C5.50279 22.461 4.24271 18.2029 6.74487 15.8667C5.29878 13.4644 6.77488 10.3655 9.47506 9.98109C10.7591 6.58785 14.9834 4.98432 17.8456 7.20644C21.2959 6.06535 24.8181 8.71388 24.5421 12.3834C26.6482 13.026 27.2483 15.8067 25.5561 17.254ZM21.9739 21.0617C21.8179 20.0047 19.8798 20.8275 19.7658 19.6744C19.6097 18.0348 22.0039 14.4974 21.8119 13.1161C21.6379 11.8849 20.8218 11.6267 20.1018 11.6086C19.4177 11.5906 19.2377 11.7107 19.0037 11.8429C18.8537 11.927 18.6677 12.0951 18.4037 11.8249C18.0796 11.5186 17.8336 11.2243 17.4136 11.1642C16.7836 11.0621 16.5075 11.2663 16.0515 11.6627C15.8775 11.8128 15.4395 12.3233 15.0254 12.1311C14.8514 12.0471 14.2394 11.7348 13.7953 11.5486C12.9613 11.1822 11.7492 11.7828 11.3112 12.5756C10.6511 13.7467 9.36705 18.3711 9.17504 18.9837C8.73701 20.347 9.73308 21.4701 11.0652 21.398C11.6352 21.368 12.0012 21.1638 12.3673 20.5092C12.5713 20.1308 14.5034 14.9959 14.6474 14.7436C14.7494 14.5695 15.1034 14.3353 15.3975 14.4854C15.6915 14.6415 15.7515 14.9659 15.7035 15.2601C15.6495 15.7586 14.2694 18.8936 14.2274 19.2419C14.0534 20.4131 15.6015 20.6052 16.2015 19.4461C16.3935 19.0798 18.5417 14.7016 18.7277 14.4133C18.9497 14.089 19.1057 13.9869 19.3277 14.0049C19.4837 14.0049 19.7538 14.053 19.6937 14.5635C19.6217 15.0439 17.8996 18.269 17.7016 19.0558C17.4676 20.1128 18.0376 21.1758 18.9737 21.6502C19.5617 21.9205 22.1779 22.431 21.9739 21.0617ZM22.2679 25.7882C21.7399 26.1666 21.6079 26.9173 21.9739 27.4578C22.3399 27.9983 23.072 28.1304 23.612 27.7641C24.152 27.3857 24.2841 26.635 23.918 26.0945C23.54 25.554 22.808 25.4038 22.2679 25.7882Z" fill="#121212"/>
</svg>
