<svg width="32" height="32" viewBox="0 0 32 32" fill="none" xmlns="http://www.w3.org/2000/svg">
<rect width="32" height="32" rx="5.70302" fill="#ED1C40"/>
<path d="M9.26606 23.0145C9.31023 23.2551 9.16792 23.481 8.93239 23.5302C8.70666 23.5744 8.47604 23.4319 8.43187 23.1962C8.38771 22.9703 8.53001 22.7296 8.75573 22.6805C8.97655 22.6314 9.21699 22.7738 9.26606 23.0145ZM15.2526 26.0055C14.9876 26.197 14.9189 26.5654 15.0956 26.8453C15.2869 27.1204 15.655 27.194 15.9347 27.0025C16.1996 26.8109 16.2683 26.4426 16.077 26.1626C15.9003 25.8876 15.5323 25.8139 15.2526 26.0055ZM11.6558 6.63999C11.9207 6.58105 12.0876 6.31584 12.0287 6.05554C11.9845 5.7805 11.7196 5.61352 11.4546 5.67245C11.1896 5.73139 11.0228 5.9966 11.0718 6.2569C11.1307 6.53685 11.3908 6.70384 11.6558 6.63999ZM6.56231 15.1416C6.14521 14.8518 5.57109 14.9598 5.28158 15.392C4.99207 15.8095 5.10002 16.3989 5.52202 16.6886C5.93912 16.9882 6.51324 16.8802 6.80275 16.448C7.08736 16.0109 6.9794 15.4362 6.56231 15.1416ZM17.9465 7.98079C18.3882 7.71558 18.5207 7.14095 18.2704 6.71366C18.0054 6.27164 17.446 6.12921 17.0142 6.38951C16.5824 6.64981 16.4401 7.22935 16.7051 7.67137C16.9504 8.10357 17.5147 8.246 17.9465 7.98079ZM9.94813 10.4119C10.272 10.186 10.3407 9.74397 10.1297 9.41982C9.91869 9.09567 9.47216 9.02691 9.16302 9.2381C8.83915 9.46402 8.77046 9.90604 8.98146 10.2302C9.19246 10.5593 9.63409 10.628 9.94813 10.4119ZM25.5279 16.944C25.2187 17.0128 25.0126 17.3271 25.0862 17.6513C25.1451 17.9607 25.4592 18.1669 25.7683 18.0933C26.0774 18.0343 26.2835 17.72 26.2099 17.3959C26.1461 17.0914 25.837 16.8851 25.5279 16.944ZM27.1864 14.5669C27.1423 14.3263 26.9116 14.1838 26.6859 14.2329C26.4455 14.2772 26.3032 14.5227 26.3522 14.7585C26.3964 14.9844 26.627 15.1416 26.8675 15.0924C27.0932 15.0335 27.2453 14.8076 27.1864 14.5669ZM23.83 11.4777C23.4718 11.7282 23.3884 12.2193 23.6239 12.5778C23.8644 12.9364 24.3502 13.0198 24.7133 12.7841C25.0617 12.5336 25.1451 12.0425 24.9047 11.684C24.6642 11.3205 24.1735 11.2272 23.83 11.4777ZM23.5651 17.3173C24.6642 19.1247 24.1981 21.5067 22.4659 22.7247C21.7396 23.2404 20.9153 23.4663 20.086 23.4417C19.5855 25.4161 17.181 26.1479 15.6893 24.8071C15.6452 24.8464 15.5814 24.8759 15.5323 24.9299C13.8983 26.0644 11.6705 25.6568 10.537 23.9967C10.1297 23.3975 9.9236 22.7149 9.90397 22.0322C7.16587 21.5754 6.1354 18.0933 8.18162 16.1828C6.99903 14.2182 8.20615 11.684 10.4143 11.3696C11.4644 8.59471 14.9189 7.28338 17.2596 9.10058C20.0811 8.16742 22.9615 10.3333 22.7358 13.3342C24.4581 13.8597 24.9488 16.1336 23.5651 17.3173ZM20.6356 20.4311C20.508 19.5667 18.923 20.2395 18.8298 19.2966C18.7022 17.9558 20.6601 15.063 20.5031 13.9334C20.3608 12.9265 19.6934 12.7153 19.1046 12.7006C18.5452 12.6859 18.398 12.7841 18.2066 12.8921C18.0839 12.9609 17.9318 13.0984 17.7159 12.8774C17.4509 12.6269 17.2497 12.3863 16.9063 12.3372C16.391 12.2537 16.1653 12.4207 15.7924 12.7448C15.6501 12.8676 15.2919 13.2851 14.9533 13.1279C14.811 13.0591 14.3105 12.8037 13.9473 12.6515C13.2653 12.3519 12.2741 12.843 11.9158 13.4913C11.3761 14.449 10.326 18.2308 10.1689 18.7318C9.81074 19.8466 10.6253 20.7651 11.7147 20.7061C12.1808 20.6816 12.4801 20.5146 12.7795 19.9792C12.9463 19.6698 14.5264 15.4706 14.6441 15.2643C14.7276 15.1219 15.0171 14.9304 15.2575 15.0531C15.4979 15.1808 15.547 15.4461 15.5078 15.6867C15.4636 16.0944 14.335 18.6581 14.3006 18.9429C14.1583 19.9007 15.4243 20.0578 15.915 19.1099C16.0721 18.8103 17.8288 15.23 17.9809 14.9942C18.1624 14.729 18.29 14.6455 18.4716 14.6602C18.5992 14.6602 18.82 14.6995 18.7709 15.117C18.712 15.5099 17.3037 18.1473 17.1418 18.7907C16.9504 19.6551 17.4166 20.5244 18.1821 20.9124C18.663 21.1334 20.8024 21.5509 20.6356 20.4311ZM20.876 24.2963C20.4442 24.6057 20.3362 25.2197 20.6356 25.6617C20.9349 26.1037 21.5336 26.2118 21.9752 25.9122C22.4168 25.6027 22.5248 24.9888 22.2254 24.5468C21.9163 24.1048 21.3176 23.982 20.876 24.2963Z" fill="white"/>
</svg>
