<svg width="32" height="32" viewBox="0 0 32 32" fill="none" xmlns="http://www.w3.org/2000/svg">
<path d="M13.0875 5.5624C13.0188 5.5874 12.875 5.7124 12.7625 5.8374L12.5625 6.06865V9.1874V12.3124H9.48125C5.98125 12.3124 6.09375 12.2999 5.825 12.8124L5.6875 13.0874V16.6186C5.6875 20.0311 5.69375 20.1561 5.8125 20.3999C6.13125 21.0436 6.86875 21.1186 7.3375 20.5624L7.5 20.3624V17.2436V14.1249H10.5313C13.8563 14.1249 13.8313 14.1249 14.1438 13.7561L14.3125 13.5499V10.4374V7.31865L17.4313 7.2999C20.475 7.28115 20.5563 7.2749 20.725 7.1499C21.3063 6.71865 21.3188 6.03115 20.75 5.6374L20.5438 5.4999L16.8813 5.50615C14.8688 5.50615 13.1625 5.53115 13.0875 5.5624Z" fill="#121212"/>
<path d="M23.7128 10.7438C23.5815 10.8438 20.6378 13.7625 17.1815 17.225C12.094 22.325 10.8753 23.575 10.8128 23.7688C10.669 24.2313 10.894 24.7438 11.3315 24.9375C11.5878 25.0563 11.819 25.0625 18.0003 25.0625C24.1128 25.0625 24.419 25.0563 24.6628 24.9438C24.8065 24.8813 24.9878 24.7313 25.069 24.6188L25.219 24.4063L25.2315 17.8438L25.2503 11.2813L25.1065 11.0375C24.8253 10.5438 24.169 10.4063 23.7128 10.7438Z" fill="#121212"/>
</svg>
