<svg width="32" height="32" viewBox="0 0 32 32" fill="none" xmlns="http://www.w3.org/2000/svg">
<rect width="32" height="32" rx="8" fill="#00AEEF"/>
<g clip-path="url(#clip0_1924_105681)">
<path d="M11.9375 7.875C10.3305 7.875 8.75964 8.35152 7.4235 9.24431C6.08735 10.1371 5.04594 11.406 4.43098 12.8907C3.81602 14.3753 3.65512 16.009 3.96862 17.5851C4.28213 19.1612 5.05596 20.6089 6.19226 21.7452C7.32856 22.8815 8.7763 23.6554 10.3524 23.9689C11.9285 24.2824 13.5622 24.1215 15.0468 23.5065C16.5315 22.8916 17.8004 21.8502 18.6932 20.514C19.586 19.1779 20.0625 17.607 20.0625 16C20.0625 13.8451 19.2065 11.7785 17.6827 10.2548C16.159 8.73102 14.0924 7.875 11.9375 7.875ZM11.9375 18.4375C11.4554 18.4375 10.9841 18.2945 10.5833 18.0267C10.1825 17.7589 9.87004 17.3782 9.68555 16.9328C9.50106 16.4874 9.45279 15.9973 9.54684 15.5245C9.64089 15.0516 9.87304 14.6173 10.2139 14.2764C10.5548 13.9355 10.9891 13.7034 11.462 13.6093C11.9348 13.5153 12.4249 13.5636 12.8703 13.748C13.3157 13.9325 13.6964 14.245 13.9642 14.6458C14.232 15.0466 14.375 15.5179 14.375 16C14.3754 16.3202 14.3127 16.6374 14.1903 16.9333C14.068 17.2292 13.8885 17.4981 13.662 17.7245C13.4356 17.951 13.1667 18.1305 12.8708 18.2528C12.5749 18.3752 12.2577 18.4379 11.9375 18.4375Z" fill="white" fill-opacity="0.7"/>
<path d="M21.07 13.9688C23.1344 14.5629 25.5712 13.9688 25.5712 13.9688C24.864 17.0563 22.6215 18.99 19.3878 19.2253C18.7608 20.6808 17.7209 21.9206 16.3968 22.7914C15.0726 23.6622 13.5223 24.1259 11.9375 24.125L14.375 16.3777C16.8807 8.4145 18.1652 7.875 24.1075 7.875H28.1875C27.505 10.8813 25.1526 13.1777 21.07 13.9688Z" fill="white"/>
</g>
<defs>
<clipPath id="clip0_1924_105681">
<rect width="26" height="26" fill="white" transform="translate(3 3)"/>
</clipPath>
</defs>
</svg>
