<svg width="32" height="32" viewBox="0 0 32 32" fill="none" xmlns="http://www.w3.org/2000/svg">
<g clip-path="url(#clip0_1924_105686)">
<path d="M11.3125 6.625C9.4583 6.625 7.64574 7.17483 6.10403 8.20497C4.56232 9.23511 3.36071 10.6993 2.65113 12.4123C1.94156 14.1254 1.75591 16.0104 2.11764 17.829C2.47938 19.6475 3.37226 21.318 4.68338 22.6291C5.9945 23.9402 7.66496 24.8331 9.48353 25.1949C11.3021 25.5566 13.1871 25.3709 14.9002 24.6614C16.6132 23.9518 18.0774 22.7502 19.1075 21.2085C20.1377 19.6668 20.6875 17.8542 20.6875 16C20.6875 13.5136 19.6998 11.129 17.9416 9.37087C16.1835 7.61272 13.7989 6.625 11.3125 6.625ZM11.3125 18.8125C10.7562 18.8125 10.2125 18.6476 9.74996 18.3385C9.28745 18.0295 8.92696 17.5902 8.71409 17.0763C8.50122 16.5624 8.44552 15.9969 8.55404 15.4513C8.66257 14.9057 8.93043 14.4046 9.32377 14.0113C9.7171 13.6179 10.2182 13.3501 10.7638 13.2415C11.3094 13.133 11.8749 13.1887 12.3888 13.4016C12.9027 13.6145 13.342 13.9749 13.651 14.4375C13.9601 14.9 14.125 15.4437 14.125 16C14.1255 16.3695 14.0531 16.7354 13.9119 17.0769C13.7708 17.4183 13.5636 17.7286 13.3023 17.9898C13.0411 18.2511 12.7308 18.4583 12.3894 18.5994C12.0479 18.7406 11.682 18.813 11.3125 18.8125Z" fill="#121212" fill-opacity="0.7"/>
<path d="M21.85 13.6563C24.232 14.3418 27.0438 13.6563 27.0438 13.6563C26.2278 17.2188 23.6403 19.45 19.909 19.7215C19.1855 21.4009 17.9856 22.8315 16.4578 23.8362C14.93 24.841 13.1411 25.376 11.3125 25.375L14.125 16.4358C17.0163 7.2475 18.4983 6.625 25.3548 6.625H30.0625C29.275 10.0938 26.5608 12.7435 21.85 13.6563Z" fill="#121212"/>
</g>
<defs>
<clipPath id="clip0_1924_105686">
<rect width="30" height="30" fill="white" transform="translate(1 1)"/>
</clipPath>
</defs>
</svg>
