<svg width="32" height="32" viewBox="0 0 32 32" fill="none" xmlns="http://www.w3.org/2000/svg">
<path d="M5.48794 17.8479L5.57545 17.7104L10.8505 9.45836C10.9275 9.33751 11.1088 9.35004 11.1671 9.48126C12.0484 11.4563 12.8088 13.9125 12.4525 15.4417C12.3004 16.0708 11.8838 16.9229 11.415 17.7104C11.3546 17.825 11.288 17.9375 11.2171 18.0459C11.1838 18.0958 11.1275 18.125 11.0671 18.125H5.64209C5.49627 18.125 5.41088 17.9667 5.48794 17.8479Z" fill="white"/>
<path d="M29 19.3813V20.6875C29 20.7625 28.9542 20.8292 28.8875 20.8583C28.4792 21.0333 27.0812 21.675 26.5 22.4833C25.0167 24.5479 23.8833 27.5 21.35 27.5H10.7813C7.03542 27.5 4 24.4542 4 20.6958V20.575C4 20.475 4.08125 20.3937 4.18128 20.3937H10.0729C10.1896 20.3937 10.275 20.5021 10.2646 20.6167C10.2229 21 10.2938 21.3917 10.475 21.7479C10.825 22.4583 11.55 22.9021 12.3334 22.9021H15.25V20.625H12.3667C12.2188 20.625 12.1313 20.4542 12.2167 20.3333C12.2479 20.2854 12.2833 20.2354 12.3208 20.1792C12.5938 19.7917 12.9833 19.1896 13.3709 18.5041C13.6354 18.0417 13.8917 17.5479 14.0979 17.0521C14.1396 16.9625 14.1729 16.8709 14.2062 16.7812C14.2625 16.6229 14.3208 16.475 14.3625 16.3271C14.4042 16.2021 14.4375 16.0708 14.4708 15.9479C14.5688 15.5271 14.6104 15.0812 14.6104 14.6187C14.6104 14.4375 14.6021 14.2479 14.5854 14.0666C14.5771 13.8687 14.5521 13.6708 14.5271 13.4729C14.5104 13.2979 14.4792 13.125 14.4458 12.9438C14.4042 12.6792 14.3458 12.4167 14.2792 12.1521L14.2563 12.0521C14.2062 11.8709 14.1646 11.6979 14.1063 11.5167C13.9417 10.9479 13.7521 10.3937 13.5521 9.875C13.4792 9.66875 13.3958 9.47085 13.3125 9.27294C13.1896 8.97499 13.0646 8.70417 12.95 8.44791C12.8917 8.33125 12.8417 8.22499 12.7917 8.11666C12.7354 7.99374 12.6771 7.87085 12.6188 7.75415C12.5771 7.66456 12.5292 7.58125 12.4959 7.49793L12.1396 6.83958C12.0896 6.75 12.1729 6.64375 12.2708 6.67083L14.5 7.27501H14.5063C14.5104 7.27501 14.5125 7.27708 14.5146 7.27708L14.8084 7.35833L15.1313 7.44998L15.25 7.48333V6.15835C15.25 5.51875 15.7625 5 16.3959 5C16.7125 5 17 5.12915 17.2062 5.33958C17.4125 5.55002 17.5417 5.83751 17.5417 6.15835V8.125L17.7792 8.19165C17.7979 8.19791 17.8167 8.20625 17.8334 8.21873C17.8917 8.26248 17.975 8.3271 18.0812 8.40623C18.1646 8.47292 18.2542 8.55416 18.3625 8.63748C18.5771 8.81043 18.8333 9.03335 19.1146 9.28956C19.1896 9.35418 19.2625 9.42083 19.3292 9.48752C19.6917 9.82498 20.0979 10.2208 20.4854 10.6583C20.5938 10.7812 20.7 10.9062 20.8084 11.0375C20.9167 11.1708 21.0313 11.3021 21.1313 11.4334C21.2625 11.6083 21.4042 11.7896 21.5271 11.9792C21.5854 12.0688 21.6521 12.1604 21.7084 12.25C21.8667 12.4896 22.0063 12.7375 22.1396 12.9854C22.1958 13.1 22.2542 13.225 22.3042 13.3479C22.4521 13.6792 22.5688 14.0167 22.6437 14.3542C22.6667 14.4271 22.6834 14.5063 22.6917 14.5771V14.5937C22.7167 14.6938 22.725 14.8 22.7333 14.9083C22.7667 15.2541 22.75 15.6 22.675 15.9479C22.6437 16.0958 22.6021 16.2354 22.5521 16.3833C22.5021 16.525 22.4521 16.6729 22.3875 16.8125C22.2625 17.1021 22.1146 17.3917 21.9396 17.6625C21.8833 17.7625 21.8167 17.8687 21.75 17.9687C21.6771 18.075 21.6021 18.175 21.5354 18.2729C21.4438 18.3979 21.3458 18.5292 21.2459 18.6458C21.1563 18.7687 21.0646 18.8917 20.9646 19C20.825 19.1646 20.6917 19.3208 20.5521 19.4708C20.4688 19.5688 20.3792 19.6688 20.2875 19.7583C20.1979 19.8583 20.1063 19.9479 20.0229 20.0312C19.8833 20.1708 19.7667 20.2792 19.6688 20.3687L19.4396 20.5792C19.4063 20.6083 19.3625 20.625 19.3167 20.625H17.5417V22.9021H19.775C20.275 22.9021 20.75 22.725 21.1333 22.4C21.2646 22.2854 21.8375 21.7896 22.5146 21.0417C22.5375 21.0167 22.5667 20.9979 22.6 20.9896L28.7687 19.2062C28.8833 19.1729 29 19.2604 29 19.3813Z" fill="white"/>
</svg>
