<svg width="32" height="32" viewBox="0 0 32 32" fill="none" xmlns="http://www.w3.org/2000/svg">
<rect width="32" height="32" rx="8" fill="#2081E2"/>
<path d="M6.36843 17.82L6.44894 17.6936L11.302 10.1016C11.3728 9.99046 11.5396 10.002 11.5933 10.1227C12.404 11.9397 13.1036 14.1995 12.7758 15.6063C12.6359 16.1851 12.2526 16.9691 11.8214 17.6936C11.7658 17.799 11.7045 17.9025 11.6393 18.0022C11.6086 18.0481 11.5569 18.075 11.5013 18.075H6.51026C6.3761 18.075 6.29754 17.9293 6.36843 17.82Z" fill="white"/>
<path d="M28 19.2308V20.4325C28 20.5015 27.9578 20.5628 27.8965 20.5897C27.5208 20.7507 26.2347 21.341 25.7 22.0847C24.3353 23.9841 23.2927 26.7 20.962 26.7H11.2388C7.79259 26.7 5 23.8978 5 20.4402V20.329C5 20.237 5.07475 20.1622 5.16678 20.1622H10.5871C10.6944 20.1622 10.773 20.2619 10.7634 20.3673C10.7251 20.72 10.7903 21.0803 10.957 21.4081C11.279 22.0617 11.946 22.4699 12.6667 22.4699H15.35V20.375H12.6973C12.5613 20.375 12.4808 20.2178 12.5594 20.1067C12.5881 20.0626 12.6207 20.0166 12.6552 19.9648C12.9063 19.6083 13.2647 19.0544 13.6212 18.4238C13.8646 17.9983 14.1003 17.5441 14.2901 17.0879C14.3284 17.0055 14.3591 16.9212 14.3897 16.8387C14.4415 16.6931 14.4952 16.557 14.5335 16.4209C14.5718 16.3059 14.6025 16.1852 14.6332 16.0721C14.7233 15.6849 14.7616 15.2747 14.7616 14.8492C14.7616 14.6825 14.7539 14.5081 14.7386 14.3413C14.7309 14.1592 14.7079 13.9772 14.6849 13.7951C14.6696 13.6341 14.6408 13.475 14.6102 13.3083C14.5718 13.0648 14.5182 12.8233 14.4568 12.5799L14.4358 12.4879C14.3897 12.3212 14.3514 12.1621 14.2978 11.9953C14.1464 11.4721 13.9719 10.9622 13.7879 10.485C13.7208 10.2953 13.6442 10.1132 13.5675 9.9311C13.4544 9.65699 13.3394 9.40784 13.234 9.17208C13.1803 9.06475 13.1343 8.96699 13.0883 8.86733C13.0366 8.75424 12.9829 8.64119 12.9293 8.53381C12.8909 8.4514 12.8468 8.37475 12.8162 8.29809L12.4884 7.69242C12.4424 7.61 12.5191 7.51225 12.6092 7.53716L14.66 8.09301H14.6658C14.6696 8.09301 14.6715 8.09492 14.6734 8.09492L14.9437 8.16966L15.2408 8.25398L15.35 8.28466V7.06568C15.35 6.47725 15.8215 6 16.4042 6C16.6955 6 16.96 6.11881 17.1497 6.31241C17.3395 6.50602 17.4583 6.77051 17.4583 7.06568V8.875L17.6768 8.93631C17.6941 8.94208 17.7114 8.94975 17.7267 8.96123C17.7803 9.00148 17.857 9.06093 17.9547 9.13373C18.0314 9.19508 18.1139 9.26983 18.2135 9.34648C18.4109 9.50559 18.6467 9.71068 18.9054 9.9464C18.9744 10.0058 19.0415 10.0672 19.1028 10.1285C19.4364 10.439 19.8101 10.8032 20.1666 11.2057C20.2663 11.3187 20.364 11.4337 20.4637 11.5545C20.5633 11.6772 20.6688 11.7979 20.7608 11.9187C20.8815 12.0797 21.0118 12.2464 21.1249 12.4208C21.1786 12.5033 21.2399 12.5876 21.2917 12.67C21.4373 12.8904 21.5658 13.1185 21.6884 13.3466C21.7402 13.452 21.7939 13.567 21.8398 13.6801C21.9759 13.9848 22.0833 14.2953 22.1522 14.6058C22.1733 14.6729 22.1887 14.7458 22.1964 14.8109V14.8262C22.2193 14.9183 22.227 15.016 22.2347 15.1157C22.2653 15.4338 22.25 15.752 22.181 16.0721C22.1522 16.2082 22.1139 16.3366 22.0679 16.4727C22.0219 16.603 21.9759 16.7391 21.9165 16.8675C21.8015 17.1339 21.6654 17.4003 21.5044 17.6495C21.4527 17.7415 21.3914 17.8392 21.33 17.9312C21.2629 18.029 21.1939 18.121 21.1326 18.2111C21.0483 18.3261 20.9582 18.4468 20.8662 18.5542C20.7838 18.6672 20.6994 18.7803 20.6074 18.88C20.479 19.0314 20.3564 19.1752 20.2279 19.3132C20.1513 19.4033 20.0689 19.4953 19.9845 19.5777C19.9021 19.6697 19.8178 19.7521 19.7411 19.8287C19.6127 19.9572 19.5053 20.0568 19.4153 20.1392L19.2044 20.3328C19.1738 20.3597 19.1335 20.375 19.0914 20.375H17.4583V22.4699H19.513C19.973 22.4699 20.41 22.307 20.7627 22.008C20.8834 21.9026 21.4105 21.4464 22.0334 20.7583C22.0545 20.7353 22.0814 20.7181 22.112 20.7104L27.7872 19.0697C27.8927 19.0391 28 19.1196 28 19.2308Z" fill="white"/>
</svg>
