<svg width="32" height="32" viewBox="0 0 32 32" fill="none" xmlns="http://www.w3.org/2000/svg">
<g clip-path="url(#clip0_1926_107003)">
<path d="M18.3541 8.79468V15.2981L19.9718 16.6751L29.2301 8.79468H18.3541ZM29.1876 23.1952L22.2704 17.4222L20.6391 18.8108C20.2594 19.134 19.6845 19.1342 19.3046 18.8108L18.3541 18.0017V23.1951H29.1876V23.1952ZM23.8612 16.0682L30.9958 22.0226L31.0007 9.99128L23.8612 16.0682ZM8.67264 13.157C7.14347 13.157 6.45898 14.5929 6.45898 16.016C6.45898 17.6535 7.3761 18.8419 8.63963 18.8419C9.90328 18.8419 10.8204 17.6396 10.8204 15.983C10.8205 15.0056 10.3715 13.157 8.67264 13.157Z" fill="white"/>
<path d="M16.2946 3.35303L1.00013 5.55751L1 26.4405L16.2947 28.6467V28.6466L16.2966 28.6468L16.2946 3.35303ZM8.5732 20.4151C6.17929 20.4151 4.50737 18.6264 4.50737 16.0654C4.50737 13.4266 6.23346 11.5837 8.705 11.5837C11.1085 11.5837 12.7872 13.3723 12.7872 15.9334C12.7872 19.0126 10.6028 20.4151 8.5732 20.4151Z" fill="white"/>
</g>
<defs>
<clipPath id="clip0_1926_107003">
<rect width="30" height="30" fill="white" transform="translate(1 1)"/>
</clipPath>
</defs>
</svg>
