<svg width="32" height="32" viewBox="0 0 32 32" fill="none" xmlns="http://www.w3.org/2000/svg">
<rect width="32" height="32" rx="8" fill="white"/>
<path d="M24.3217 10.1082C24.6094 8.23246 24.3217 6.98196 23.3147 5.82766C22.2119 4.52906 20.1981 4 17.6088 4H10.1768C9.64934 4 9.2178 4.38477 9.1219 4.91383L6.00523 24.6333C5.95728 25.018 6.24497 25.3547 6.62856 25.3547H11.2316L10.896 27.3747C10.8481 27.7114 11.0878 28 11.4714 28H15.3552C15.8347 28 16.2183 27.6633 16.2663 27.2305L17.0814 22.1323C17.1294 21.6994 17.5609 21.3627 17.9924 21.3627H18.5678C22.3078 21.3627 25.2807 19.8236 26.1437 15.3988C26.4794 13.5711 26.3355 11.984 25.3766 10.9259C25.0889 10.5892 24.7532 10.3487 24.3217 10.1082Z" fill="#009CDE"/>
<path d="M24.3217 10.1082C24.6094 8.23246 24.3217 6.98196 23.3147 5.82766C22.2119 4.52906 20.1981 4 17.6088 4H10.1768C9.64934 4 9.2178 4.38477 9.1219 4.91383L6.00523 24.6333C5.95728 25.018 6.24497 25.3547 6.62856 25.3547H11.2316L12.3345 18.2365C12.4304 17.7074 12.8619 17.3226 13.3893 17.3226H15.595C19.9104 17.3226 23.2668 15.5912 24.2258 10.493C24.2737 10.3968 24.2737 10.2525 24.3217 10.1082Z" fill="#012169"/>
<path d="M13.6291 10.1563C13.677 9.81964 14.1086 9.38677 14.5401 9.38677H20.3899C21.0612 9.38677 21.7324 9.43487 22.3078 9.53106C22.8353 9.62725 23.7942 9.86774 24.2737 10.1563C24.5614 8.28056 24.2737 7.03006 23.2668 5.87575C22.2119 4.52906 20.1981 4 17.6088 4H10.1768C9.64934 4 9.2178 4.38477 9.1219 4.91383L6.00523 24.6333C5.95728 25.018 6.24497 25.3547 6.62856 25.3547H11.2316L13.6291 10.1563Z" fill="#003087"/>
</svg>
