<svg width="32" height="32" viewBox="0 0 32 32" fill="none" xmlns="http://www.w3.org/2000/svg">
<rect width="32" height="32" rx="8" fill="white"/>
<path fill-rule="evenodd" clip-rule="evenodd" d="M25.4317 11C25.4098 11.0662 25.3979 11.1323 25.3868 11.1939C25.3737 11.2665 25.3618 11.3327 25.3359 11.3848C24.3769 16.483 21.0205 18.2144 16.7051 18.2144H14.4994C13.972 18.2144 13.5404 18.5992 13.4445 19.1283L12.3417 26.2465L12.0061 28.2665C11.9581 28.6032 12.1979 28.8918 12.5815 28.8918H16.4653C16.9448 28.8918 17.3284 28.5551 17.3763 28.1222L18.1915 23.024C18.2394 22.5912 18.671 22.2545 19.1025 22.2545H19.6779C23.4179 22.2545 26.3907 20.7154 27.2538 16.2906C27.5894 14.4629 27.4456 12.8758 26.4866 11.8176C26.1989 11.481 25.8633 11.2405 25.4317 11Z" fill="#121212"/>
<path d="M24.3217 10.1082C24.6094 8.23246 24.3217 6.98196 23.3147 5.82766C22.2119 4.52906 20.1981 4 17.6088 4H10.1768C9.64934 4 9.2178 4.38477 9.1219 4.91383L6.00523 24.6333C5.95728 25.018 6.24497 25.3547 6.62856 25.3547H11.2316L12.3345 18.2365C12.4304 17.7074 12.8619 17.3226 13.3893 17.3226H15.595C19.9104 17.3226 23.2668 15.5912 24.2258 10.493C24.2737 10.3968 24.2737 10.2525 24.3217 10.1082Z" fill="#121212"/>
<path d="M13.6291 10.1563C13.677 9.81964 14.1086 9.38677 14.5401 9.38677H20.3899C21.0612 9.38677 21.7324 9.43487 22.3078 9.53106C22.8353 9.62725 23.7942 9.86774 24.2737 10.1563C24.5614 8.28056 24.2737 7.03006 23.2668 5.87575C22.2119 4.52906 20.1981 4 17.6088 4H10.1768C9.64934 4 9.2178 4.38477 9.1219 4.91383L6.00523 24.6333C5.95728 25.018 6.24497 25.3547 6.62856 25.3547H11.2316L13.6291 10.1563V10.1563Z" fill="#121212"/>
</svg>
