<svg width="32" height="32" viewBox="0 0 32 32" fill="none" xmlns="http://www.w3.org/2000/svg">
<path d="M27.9181 14.1237C27.6987 13.5275 27.1009 13.0994 26.3987 13.0994H26.3841C25.9276 13.0994 25.5162 13.28 25.2234 13.5699C24.9301 13.28 24.5187 13.0994 24.0628 13.0994H24.0481C23.6468 13.0994 23.2801 13.239 22.9984 13.4702V13.3527C22.9887 13.2357 22.8874 13.1437 22.7623 13.1437H21.6852C21.5535 13.1437 21.4471 13.2448 21.4471 13.3705V18.9303C21.4471 19.056 21.5535 19.1571 21.6852 19.1571H22.7623C22.8823 19.1571 22.9811 19.0719 22.9968 18.9616L22.9963 14.9703C22.9962 14.9569 22.9969 14.9436 22.9984 14.9303C23.0156 14.7521 23.1529 14.6058 23.3697 14.5874H23.5683C23.659 14.5951 23.7355 14.6255 23.7958 14.6712C23.8895 14.742 23.9417 14.8509 23.9417 14.9703L23.9457 18.9418C23.9457 19.0675 24.0526 19.1691 24.1838 19.1691H25.2609C25.388 19.1691 25.4914 19.0728 25.4975 18.9529L25.497 14.965C25.4964 14.834 25.5603 14.7155 25.6723 14.6452C25.7275 14.6115 25.7938 14.5889 25.8703 14.5821H26.0689C26.302 14.6014 26.4428 14.7695 26.4423 14.965L26.4463 18.9312C26.4463 19.0569 26.5532 19.1581 26.6844 19.1581H27.7615C27.8927 19.1581 27.9996 19.0569 27.9996 18.9312V14.6655C27.9996 14.3746 27.9652 14.2508 27.9181 14.1237M20.6266 13.1582H20.0106V12.2066C20.0106 12.0925 19.9133 12 19.7932 12C19.779 12 19.7654 12.0019 19.7522 12.0043C19.0693 12.1825 19.2061 13.0816 17.9593 13.1582H17.8382C17.82 13.1582 17.8028 13.1606 17.786 13.164H17.785L17.786 13.1644C17.6796 13.1871 17.5996 13.2766 17.5996 13.3845V14.4083C17.5996 14.5331 17.7065 14.6347 17.8382 14.6347H18.4882L18.4872 18.9761C18.4872 19.0998 18.5926 19.2 18.7228 19.2H19.7877C19.9173 19.2 20.0227 19.0998 20.0227 18.9761L20.0232 14.6347H20.6266C20.7578 14.6347 20.8647 14.5331 20.8647 14.4083V13.3845C20.8647 13.2598 20.7578 13.1582 20.6266 13.1582" fill="#121212"/>
<path d="M16.5683 13.6002H15.5205C15.3928 13.6002 15.2893 13.6948 15.2893 13.8108V15.7806C15.2868 15.9025 15.1784 16.0002 15.0438 16.0002H14.6052C14.4691 16.0002 14.3592 15.9007 14.3592 15.777L14.3553 13.8108C14.3553 13.6948 14.2513 13.6002 14.1236 13.6002H13.0757C12.9476 13.6002 12.8441 13.6948 12.8441 13.8108V15.9697C12.8441 16.7897 13.4873 17.3745 14.3898 17.3745C14.3898 17.3745 15.067 17.3745 15.0877 17.3781C15.2099 17.3906 15.3051 17.4838 15.3051 17.5985C15.3051 17.7119 15.2119 17.8047 15.0912 17.8186C15.0852 17.8194 15.0798 17.8208 15.0734 17.8217L13.541 17.8266C13.4129 17.8266 13.3094 17.9212 13.3094 18.0372V18.9894C13.3094 19.1059 13.4129 19.2 13.541 19.2H15.2543C16.1573 19.2 16.8 18.6157 16.8 17.7953V13.8108C16.8 13.6948 16.6965 13.6002 16.5683 13.6002M6.42552 15.3458V15.9337C6.42552 16.0569 6.31561 16.1573 6.18007 16.1573L5.51515 16.1577V14.9797H6.18007C6.31561 14.9797 6.42552 15.0792 6.42552 15.2028V15.3458ZM6.51769 13.6H4.22722C4.10153 13.6 4 13.6928 4 13.8066V14.74C4 14.7417 4.00049 14.7435 4.00049 14.7453C4.00049 14.7498 4 14.7543 4 14.7583V18.9829C4 19.0976 4.09463 19.1913 4.21195 19.194H5.27953C5.40719 19.194 5.51118 19.0999 5.51118 18.9834L5.51514 17.5356H6.51768C7.35657 17.5356 7.94115 17.0064 7.94115 16.2406V14.8968C7.94115 14.131 7.35657 13.6 6.51768 13.6L6.51769 13.6ZM10.7734 17.5823V17.731C10.7734 17.7431 10.7714 17.7548 10.7694 17.766C10.767 17.7765 10.7637 17.7868 10.7596 17.7969C10.727 17.8803 10.6354 17.9407 10.5264 17.9407H10.0902C9.95418 17.9407 9.84329 17.8466 9.84329 17.731V17.5514C9.84329 17.5491 9.84279 17.5469 9.84279 17.5446L9.84329 17.0665V16.9169L9.84378 16.9155C9.84427 16.8004 9.95418 16.7072 10.0902 16.7072H10.5264C10.663 16.7072 10.7734 16.8008 10.7734 16.9169L10.7734 17.5823ZM10.6068 13.6055H9.15275C9.02411 13.6055 8.92012 13.6942 8.92012 13.8031V14.1737C8.92012 14.1759 8.92061 14.1786 8.92061 14.1808C8.92061 14.1835 8.92011 14.1862 8.92011 14.1889V14.6966C8.92011 14.8117 9.03053 14.9058 9.16657 14.9058H10.5511C10.6605 14.9215 10.7473 14.9941 10.7596 15.1075V15.2303C10.7473 15.3382 10.6615 15.4171 10.557 15.4261H9.8714C8.95955 15.4261 8.30992 15.9768 8.30992 16.7502V17.8578C8.30992 18.6268 8.86837 19.1739 9.77379 19.1739H11.6739C12.015 19.1739 12.2915 18.9391 12.2915 18.6501V15.0353C12.2915 14.1589 11.7947 13.6055 10.6068 13.6055H10.6068Z" fill="#121212"/>
<rect x="0.5" y="0.5" width="31" height="31" rx="7.5" stroke="#121212"/>
</svg>
