<svg width="32" height="32" viewBox="0 0 32 32" fill="none" xmlns="http://www.w3.org/2000/svg">
<rect width="32" height="32" rx="8" fill="white"/>
<path d="M29.9054 14.4776C29.6495 13.7821 28.952 13.2826 28.1328 13.2826H28.1157C27.5832 13.2826 27.1033 13.4933 26.7616 13.8315C26.4194 13.4933 25.9395 13.2826 25.4075 13.2826H25.3904C24.9223 13.2826 24.4944 13.4455 24.1657 13.7152V13.5781C24.1545 13.4416 24.0363 13.3343 23.8903 13.3343H22.6337C22.4801 13.3343 22.356 13.4523 22.356 13.5989V20.0853C22.356 20.2319 22.4801 20.3499 22.6337 20.3499H23.8903C24.0304 20.3499 24.1456 20.2505 24.164 20.1218L24.1634 15.4653C24.1632 15.4498 24.164 15.4342 24.1657 15.4187C24.1858 15.2108 24.346 15.04 24.599 15.0187H24.8306C24.9364 15.0277 25.0257 15.0631 25.096 15.1164C25.2054 15.199 25.2662 15.326 25.2662 15.4653L25.271 20.0988C25.271 20.2454 25.3957 20.364 25.5488 20.364H26.8053C26.9537 20.364 27.0743 20.2516 27.0814 20.1117L27.0808 15.4592C27.0802 15.3063 27.1547 15.1681 27.2853 15.0861C27.3497 15.0468 27.4271 15.0204 27.5164 15.0125H27.748C28.0199 15.035 28.1842 15.2311 28.1837 15.4592L28.1884 20.0864C28.1884 20.2331 28.3131 20.3511 28.4662 20.3511H29.7227C29.8758 20.3511 30.0005 20.2331 30.0005 20.0864V15.1097C30.0005 14.7704 29.9603 14.626 29.9054 14.4776M21.3987 13.3512H20.68V12.241C20.68 12.1079 20.5665 12 20.4264 12C20.4099 12 20.3939 12.0022 20.3785 12.005C19.5818 12.2129 19.7414 13.2619 18.2868 13.3512H18.1456C18.1243 13.3512 18.1042 13.354 18.0847 13.3579H18.0835L18.0847 13.3585C17.9606 13.3849 17.8672 13.4894 17.8672 13.6153V14.8097C17.8672 14.9553 17.9919 15.0738 18.1456 15.0738H18.9039L18.9027 20.1387C18.9027 20.2831 19.0256 20.4 19.1775 20.4H20.4199C20.5712 20.4 20.6942 20.2831 20.6942 20.1387L20.6947 15.0738H21.3987C21.5518 15.0738 21.6765 14.9553 21.6765 14.8097V13.6153C21.6765 13.4698 21.5518 13.3512 21.3987 13.3512" fill="#00BAF2"/>
<path d="M16.6631 13.8669H15.4405C15.2916 13.8669 15.1708 13.9772 15.1708 14.1126V16.4107C15.168 16.5529 15.0415 16.6669 14.8845 16.6669H14.3727C14.214 16.6669 14.0857 16.5508 14.0857 16.4066L14.0811 14.1126C14.0811 13.9772 13.9598 13.867 13.8109 13.867H12.5883C12.4388 13.867 12.3181 13.9772 12.3181 14.1126V16.6314C12.3181 17.588 13.0685 18.2702 14.1214 18.2702C14.1214 18.2702 14.9115 18.2702 14.9357 18.2744C15.0783 18.2891 15.1892 18.3978 15.1892 18.5316C15.1892 18.6639 15.0806 18.7721 14.9397 18.7883C14.9328 18.7893 14.9265 18.7909 14.919 18.792L13.1312 18.7977C12.9817 18.7977 12.8609 18.908 12.8609 19.0434V20.1543C12.8609 20.2902 12.9817 20.4 13.1312 20.4H15.13C16.1835 20.4 16.9333 19.7183 16.9333 18.7611V14.1126C16.9333 13.9772 16.8126 13.867 16.6631 13.867M4.82978 15.9034V16.5893C4.82978 16.733 4.70154 16.8501 4.54341 16.8501L3.76768 16.8507V15.4763H4.54341C4.70154 15.4763 4.82978 15.5923 4.82978 15.7366V15.9034ZM4.93731 13.8667H2.26509C2.11845 13.8667 2 13.9749 2 14.1077V15.1966C2 15.1987 2.00057 15.2008 2.00057 15.2029C2.00057 15.2081 2 15.2133 2 15.218V20.1467C2 20.2805 2.1104 20.3898 2.24728 20.3929H3.49279C3.64172 20.3929 3.76305 20.2832 3.76305 20.1473L3.76766 18.4582H4.93729C5.916 18.4582 6.59801 17.8408 6.59801 16.9474V15.3796C6.59801 14.4862 5.916 13.8667 4.93729 13.8667L4.93731 13.8667ZM9.90225 18.5126V18.6862C9.90225 18.7003 9.89997 18.7139 9.89767 18.727C9.8948 18.7392 9.89095 18.7513 9.88616 18.7631C9.8482 18.8603 9.74125 18.9309 9.61416 18.9309H9.10526C8.94655 18.9309 8.81717 18.8211 8.81717 18.6862V18.4766C8.81717 18.474 8.81658 18.4713 8.81658 18.4687L8.81717 17.9109V17.7363L8.81774 17.7348C8.81831 17.6004 8.94655 17.4917 9.10526 17.4917H9.61416C9.77345 17.4917 9.90227 17.6009 9.90227 17.7363L9.90225 18.5126ZM9.70792 13.8731H8.01154C7.86146 13.8731 7.74014 13.9766 7.74014 14.1036V14.5359C7.74014 14.5385 7.74071 14.5417 7.74071 14.5443C7.74071 14.5474 7.74012 14.5506 7.74012 14.5537V15.146C7.74012 15.2804 7.86895 15.3901 8.02766 15.3901H9.64293C9.77059 15.4084 9.8718 15.4931 9.88618 15.6254V15.7686C9.8718 15.8946 9.77175 15.9866 9.64983 15.9971H8.84997C7.78614 15.9971 7.02824 16.6396 7.02824 17.5419V18.8342C7.02824 19.7312 7.67976 20.3695 8.73609 20.3695H10.9529C11.3508 20.3695 11.6734 20.0956 11.6734 19.7584V15.5412C11.6734 14.5187 11.0938 13.8731 9.7079 13.8731H9.70792Z" fill="#1F336B"/>
</svg>
