<svg width="32" height="32" viewBox="0 0 32 32" fill="none" xmlns="http://www.w3.org/2000/svg">
<rect width="32" height="32" rx="8" fill="#5F259F"/>
<path d="M23 13.0426C23 12.4468 22.5059 11.9362 21.9294 11.9362H19.9529L15.4235 6.57447C15.0118 6.06383 14.3529 5.89362 13.6941 6.06383L12.1294 6.57447C11.8824 6.65957 11.8 7 11.9647 7.17021L16.9059 12.0213H9.41176C9.16471 12.0213 9 12.1915 9 12.4468V13.2979C9 13.8936 9.49412 14.4043 10.0706 14.4043H11.2235V18.4894C11.2235 21.5532 12.7882 23.3404 15.4235 23.3404C16.2471 23.3404 16.9059 23.2553 17.7294 22.9149V25.6383C17.7294 26.4043 18.3059 27 19.0471 27H20.2C20.4471 27 20.6941 26.7447 20.6941 26.4894V14.3191H22.5882C22.8353 14.3191 23 14.1489 23 13.8936V13.0426ZM17.7294 20.3617C17.2353 20.617 16.5765 20.7021 16.0824 20.7021C14.7647 20.7021 14.1059 20.0213 14.1059 18.4894V14.4043H17.7294V20.3617Z" fill="white"/>
</svg>
