<svg width="32" height="32" viewBox="0 0 32 32" fill="none" xmlns="http://www.w3.org/2000/svg">
<rect width="32" height="32" rx="8" fill="#2196F3"/>
<g clip-path="url(#clip0_1926_106829)">
<path d="M23.2291 19.26L20.6891 18.97C20.0791 18.9 19.4791 19.11 19.0491 19.54L17.2091 21.38C14.3791 19.94 12.0591 17.63 10.6191 14.79L12.4691 12.94C12.8991 12.51 13.1091 11.91 13.0391 11.3L12.7491 8.78001C12.6291 7.77001 11.7791 7.01001 10.7591 7.01001H9.02906C7.89906 7.01001 6.95906 7.95001 7.02906 9.08001C7.55906 17.62 14.3891 24.44 22.9191 24.97C24.0491 25.04 24.9891 24.1 24.9891 22.97V21.24C24.9991 20.23 24.2391 19.38 23.2291 19.26Z" fill="white"/>
</g>
<defs>
<clipPath id="clip0_1926_106829">
<rect width="24" height="24" fill="white" transform="translate(4 4)"/>
</clipPath>
</defs>
</svg>
