<svg width="32" height="32" viewBox="0 0 32 32" fill="none" xmlns="http://www.w3.org/2000/svg">
<g clip-path="url(#clip0_1926_107039)">
<path d="M23.8333 19.5317L21.0816 19.2175C20.4208 19.1417 19.7708 19.3692 19.3049 19.835L17.3116 21.8284C14.2458 20.2684 11.7324 17.7659 10.1724 14.6892L12.1766 12.685C12.6424 12.2192 12.8699 11.5692 12.7941 10.9084L12.4799 8.17836C12.3499 7.0842 11.4291 6.26086 10.3241 6.26086H8.44994C7.22578 6.26086 6.20744 7.2792 6.28328 8.50336C6.85744 17.755 14.2566 25.1434 23.4974 25.7175C24.7216 25.7934 25.7399 24.775 25.7399 23.5509V21.6767C25.7508 20.5825 24.9274 19.6617 23.8333 19.5317Z" fill="white"/>
</g>
<defs>
<clipPath id="clip0_1926_107039">
<rect width="26" height="26" fill="white" transform="translate(3 3)"/>
</clipPath>
</defs>
</svg>
