<svg width="32" height="32" viewBox="0 0 32 32" fill="none" xmlns="http://www.w3.org/2000/svg">
<circle cx="16" cy="16" r="14.5" stroke="white"/>
<path d="M22 13.0365C22 12.5258 21.5765 12.0881 21.0824 12.0881H19.3882L15.5059 7.4924C15.1529 7.05471 14.5882 6.90881 14.0235 7.05471L12.6824 7.4924C12.4706 7.56535 12.4 7.85714 12.5412 8.00304L16.7765 12.1611H10.3529C10.1412 12.1611 10 12.307 10 12.5258V13.2553C10 13.766 10.4235 14.2036 10.9176 14.2036H11.9059V17.7052C11.9059 20.3313 13.2471 21.8632 15.5059 21.8632C16.2118 21.8632 16.7765 21.7903 17.4824 21.4985V23.8328C17.4824 24.4894 17.9765 25 18.6118 25H19.6C19.8118 25 20.0235 24.7812 20.0235 24.5623V14.1307H21.6471C21.8588 14.1307 22 13.9848 22 13.766V13.0365ZM17.4824 19.31C17.0588 19.5289 16.4941 19.6018 16.0706 19.6018C14.9412 19.6018 14.3765 19.0182 14.3765 17.7052V14.2036H17.4824V19.31Z" stroke="white"/>
</svg>
