<svg width="32" height="32" viewBox="0 0 32 32" fill="none" xmlns="http://www.w3.org/2000/svg">
<path d="M17.6372 4.112C14.7664 3.71708 11.8497 4.37422 9.42555 5.96205C7.00144 7.54988 5.23369 9.96118 4.44872 12.7507C3.66374 15.5402 3.91457 18.5195 5.15488 21.1385C6.39519 23.7575 8.54121 25.8393 11.1967 26.9995C11.1249 26.0779 11.1908 25.1506 11.3922 24.2484C11.6142 23.2417 12.9472 17.6938 12.9472 17.6938C12.6818 17.0988 12.5491 16.4532 12.5585 15.8017C12.5585 14.02 13.5867 12.6906 14.8657 12.6906C15.0955 12.6873 15.3233 12.7334 15.5336 12.826C15.7439 12.9185 15.9319 13.0553 16.0846 13.227C16.2374 13.3986 16.3514 13.6012 16.4189 13.8208C16.4864 14.0405 16.5058 14.2721 16.4758 14.4999C16.4758 15.5798 15.7823 17.2139 15.42 18.7473C15.3484 19.0285 15.3438 19.3226 15.4067 19.6059C15.4696 19.8891 15.5982 20.1537 15.7821 20.3782C15.9659 20.6027 16.2 20.7809 16.4653 20.8983C16.7307 21.0158 17.0199 21.0693 17.3097 21.0545C19.5869 21.0545 21.1131 18.1378 21.1131 14.6943C21.1131 12.0547 19.365 10.0774 16.1423 10.0774C15.3713 10.0475 14.6022 10.1745 13.8818 10.4509C13.1613 10.7272 12.5046 11.1471 11.9514 11.685C11.3982 12.223 10.9601 12.8677 10.6637 13.5801C10.3674 14.2925 10.2188 15.0578 10.2272 15.8293C10.1929 16.6852 10.469 17.5246 11.0047 18.1929C11.1048 18.2677 11.1779 18.3729 11.213 18.4928C11.248 18.6127 11.2431 18.7408 11.1991 18.8576C11.1439 19.0784 11.0047 19.6051 10.9495 19.7983C10.938 19.8638 10.9113 19.9257 10.8716 19.979C10.8318 20.0323 10.78 20.0755 10.7205 20.1052C10.661 20.1348 10.5953 20.1501 10.5288 20.1497C10.4623 20.1493 10.3968 20.1333 10.3376 20.103C8.67708 19.4383 7.8948 17.611 7.8948 15.5246C7.8948 12.1087 10.7551 8.01977 16.4782 8.01977C21.0327 8.01977 24.061 11.3516 24.061 14.9151C24.061 19.6051 21.449 23.1314 17.5893 23.1314C17.0124 23.1498 16.4402 23.0225 15.9255 22.7612C15.4109 22.4999 14.9704 22.113 14.6449 21.6364C14.6449 21.6364 13.9514 24.4151 13.8147 24.9407C13.5355 25.8486 13.1235 26.7101 12.5921 27.4975C13.6995 27.8334 14.8501 28.0014 16.0067 27.9966C17.5827 27.9978 19.1436 27.6882 20.5998 27.0854C22.056 26.4826 23.379 25.5985 24.493 24.4837C25.6071 23.3688 26.4903 22.0452 27.092 20.5886C27.6938 19.132 28.0024 17.5709 28 15.9949C27.9985 13.0974 26.9487 10.2982 25.0444 8.11429C23.1401 5.93038 20.51 4.50921 17.6396 4.1132L17.6372 4.112Z" fill="#121212"/>
</svg>
