<svg width="32" height="32" viewBox="0 0 32 32" fill="none" xmlns="http://www.w3.org/2000/svg">
<g clip-path="url(#clip0_1752_94445)">
<rect width="32" height="32" fill="#BB0F23"/>
<path d="M17.5456 4.77228C14.8343 4.39931 12.0796 5.01993 9.79015 6.51955C7.50071 8.01917 5.83116 10.2965 5.0898 12.931C4.34844 15.5656 4.58533 18.3794 5.75673 20.8529C6.92814 23.3264 8.95493 25.2925 11.4629 26.3883C11.3951 25.5178 11.4573 24.6421 11.6476 23.79C11.8572 22.8393 13.1161 17.5996 13.1161 17.5996C12.8655 17.0376 12.7402 16.4278 12.749 15.8126C12.749 14.1298 13.7201 12.8743 14.9281 12.8743C15.1451 12.8712 15.3602 12.9148 15.5589 13.0022C15.7575 13.0896 15.935 13.2187 16.0793 13.3809C16.2236 13.543 16.3312 13.7343 16.395 13.9417C16.4587 14.1492 16.4771 14.3679 16.4487 14.5831C16.4487 15.6029 15.7938 17.1463 15.4516 18.5945C15.3839 18.8601 15.3797 19.1378 15.439 19.4054C15.4984 19.6729 15.6199 19.9228 15.7935 20.1348C15.9672 20.3468 16.1882 20.5151 16.4388 20.626C16.6894 20.737 16.9626 20.7875 17.2363 20.7735C19.387 20.7735 20.8284 18.0188 20.8284 14.7667C20.8284 12.2737 19.1774 10.4063 16.1337 10.4063C15.4055 10.378 14.6792 10.498 13.9988 10.759C13.3184 11.02 12.6981 11.4166 12.1757 11.9246C11.6532 12.4326 11.2395 13.0416 10.9596 13.7144C10.6796 14.3872 10.5394 15.1099 10.5473 15.8386C10.5148 16.6469 10.7756 17.4397 11.2816 18.0709C11.3761 18.1415 11.4451 18.2409 11.4783 18.3542C11.5114 18.4674 11.5068 18.5883 11.4651 18.6987C11.413 18.9072 11.2816 19.4047 11.2294 19.5871C11.2186 19.649 11.1934 19.7074 11.1558 19.7578C11.1183 19.8081 11.0694 19.8489 11.0132 19.8769C10.9569 19.9049 10.8949 19.9193 10.8321 19.919C10.7693 19.9186 10.7075 19.9035 10.6515 19.8749C9.08326 19.2472 8.34444 17.5214 8.34444 15.5508C8.34444 12.3247 11.0459 8.46295 16.451 8.46295C20.7525 8.46295 23.6125 11.6097 23.6125 14.9752C23.6125 19.4047 21.1457 22.735 17.5003 22.735C16.9555 22.7524 16.4151 22.6322 15.929 22.3854C15.443 22.1386 15.027 21.7732 14.7196 21.3231C14.7196 21.3231 14.0646 23.9475 13.9354 24.4438C13.6717 25.3013 13.2826 26.115 12.7807 26.8585C13.8266 27.1758 14.9133 27.3345 16.0057 27.3299C17.4942 27.3311 18.9683 27.0387 20.3436 26.4694C21.7189 25.9001 22.9684 25.0651 24.0205 24.0122C25.0727 22.9593 25.9068 21.7092 26.4752 20.3335C27.0435 18.9578 27.3349 17.4835 27.3327 15.995C27.3313 13.2584 26.3398 10.6148 24.5413 8.55222C22.7428 6.48964 20.2588 5.14742 17.5479 4.77341L17.5456 4.77228Z" fill="white"/>
</g>
<defs>
<clipPath id="clip0_1752_94445">
<rect width="32" height="32" rx="8" fill="white"/>
</clipPath>
</defs>
</svg>
