<svg width="36" height="20" viewBox="0 0 36 20" fill="none" xmlns="http://www.w3.org/2000/svg">
<rect width="36" height="20" rx="10" fill="url(#paint0_linear_921_52234)"/>
<path d="M14.516 8.084C14.516 8.78 14.276 9.36 13.796 9.824C13.324 10.28 12.6 10.508 11.624 10.508H10.016V14H8.924V5.636H11.624C12.568 5.636 13.284 5.864 13.772 6.32C14.268 6.776 14.516 7.364 14.516 8.084ZM11.624 9.608C12.232 9.608 12.68 9.476 12.968 9.212C13.256 8.948 13.4 8.572 13.4 8.084C13.4 7.052 12.808 6.536 11.624 6.536H10.016V9.608H11.624ZM16.9652 8.492C17.1572 8.116 17.4292 7.824 17.7812 7.616C18.1412 7.408 18.5772 7.304 19.0892 7.304V8.432H18.8012C17.5772 8.432 16.9652 9.096 16.9652 10.424V14H15.8732V7.424H16.9652V8.492ZM23.2178 14.108C22.6018 14.108 22.0418 13.968 21.5378 13.688C21.0418 13.408 20.6498 13.012 20.3618 12.5C20.0818 11.98 19.9418 11.38 19.9418 10.7C19.9418 10.028 20.0858 9.436 20.3738 8.924C20.6698 8.404 21.0698 8.008 21.5738 7.736C22.0778 7.456 22.6418 7.316 23.2658 7.316C23.8898 7.316 24.4538 7.456 24.9578 7.736C25.4618 8.008 25.8578 8.4 26.1458 8.912C26.4418 9.424 26.5898 10.02 26.5898 10.7C26.5898 11.38 26.4378 11.98 26.1338 12.5C25.8378 13.012 25.4338 13.408 24.9218 13.688C24.4098 13.968 23.8418 14.108 23.2178 14.108ZM23.2178 13.148C23.6098 13.148 23.9778 13.056 24.3218 12.872C24.6658 12.688 24.9418 12.412 25.1498 12.044C25.3658 11.676 25.4738 11.228 25.4738 10.7C25.4738 10.172 25.3698 9.724 25.1618 9.356C24.9538 8.988 24.6818 8.716 24.3458 8.54C24.0098 8.356 23.6458 8.264 23.2538 8.264C22.8538 8.264 22.4858 8.356 22.1498 8.54C21.8218 8.716 21.5578 8.988 21.3578 9.356C21.1578 9.724 21.0578 10.172 21.0578 10.7C21.0578 11.236 21.1538 11.688 21.3458 12.056C21.5458 12.424 21.8098 12.7 22.1378 12.884C22.4658 13.06 22.8258 13.148 23.2178 13.148Z" fill="white"/>
<defs>
<linearGradient id="paint0_linear_921_52234" x1="36" y1="20" x2="-0.908427" y2="1.847" gradientUnits="userSpaceOnUse">
<stop stop-color="#F54040"/>
<stop offset="1" stop-color="#FE7171"/>
</linearGradient>
</defs>
</svg>
