<svg width="13" height="14" viewBox="0 0 13 14" fill="none" xmlns="http://www.w3.org/2000/svg">
<path d="M1.41494 0.993164H0.941406L0.945349 1.47379H1.41888L1.41494 0.993164Z" fill="white"/>
<path d="M1.41982 1.47363H0.946289L0.950232 1.95426H1.42376L1.41982 1.47363Z" fill="white"/>
<path d="M1.42275 1.9541H0.949219L0.953161 2.43473H1.42669L1.42275 1.9541Z" fill="white"/>
<path d="M1.42714 2.43457H0.953613L0.957556 2.9152H1.43109L1.42714 2.43457Z" fill="white"/>
<path d="M1.43154 2.91699H0.958008L0.96195 3.39762H1.43548L1.43154 2.91699Z" fill="white"/>
<path d="M1.43447 3.39746H0.960938L0.96488 3.87809H1.43841L1.43447 3.39746Z" fill="white"/>
<path d="M1.43935 3.87793H0.96582L0.969763 4.35855H1.44329L1.43935 3.87793Z" fill="white"/>
<path d="M1.44619 4.83691H0.972656L0.976599 5.31754H1.45013L1.44619 4.83691Z" fill="white"/>
<path d="M1.45107 5.31934H0.977539L0.981482 5.79996H1.45501L1.45107 5.31934Z" fill="white"/>
<path d="M1.4872 9.64551H1.01367L1.01761 10.1261H1.49115L1.4872 9.64551Z" fill="white"/>
<path d="M1.49013 10.126H1.0166L1.02054 10.6066H1.49408L1.49013 10.126Z" fill="white"/>
<path d="M1.49404 10.6064H1.02051L1.02445 11.0871H1.49798L1.49404 10.6064Z" fill="white"/>
<path d="M1.49892 11.0869H1.02539L1.02933 11.5675H1.50286L1.49892 11.0869Z" fill="white"/>
<path d="M1.50185 11.5674H1.02832L1.03226 12.048H1.50579L1.50185 11.5674Z" fill="white"/>
<path d="M1.50673 12.0479H1.0332L1.03715 12.5285H1.51068L1.50673 12.0479Z" fill="white"/>
<path d="M1.51064 12.5283H1.03711L1.04105 13.0089H1.51458L1.51064 12.5283Z" fill="white"/>
<path d="M1.88955 0.993164H1.41602L1.41996 1.47379H1.89349L1.88955 0.993164Z" fill="white"/>
<path d="M1.91298 3.87793H1.43945L1.4434 4.35855H1.91693L1.91298 3.87793Z" fill="white"/>
<path d="M1.9208 4.83887H1.44727L1.45121 5.31949H1.92474L1.9208 4.83887Z" fill="white"/>
<path d="M1.9247 5.31934H1.45117L1.45511 5.79996H1.92865L1.9247 5.31934Z" fill="white"/>
<path d="M1.92959 5.7998H1.45605L1.46 6.28043H1.93353L1.92959 5.7998Z" fill="white"/>
<path d="M1.94814 8.20215H1.47461L1.47855 8.68277H1.95208L1.94814 8.20215Z" fill="white"/>
<path d="M1.95205 8.68262H1.47852L1.48246 9.16324H1.95599L1.95205 8.68262Z" fill="white"/>
<path d="M1.95888 9.64551H1.48535L1.48929 10.1261H1.96283L1.95888 9.64551Z" fill="white"/>
<path d="M1.9833 12.5283H1.50977L1.51371 13.0089H1.98724L1.9833 12.5283Z" fill="white"/>
<path d="M2.36318 0.993164H1.88965L1.89359 1.47379H2.36712L2.36318 0.993164Z" fill="white"/>
<path d="M2.37002 1.9541H1.89648L1.90043 2.43473H2.37396L2.37002 1.9541Z" fill="white"/>
<path d="M2.3749 2.43457H1.90137L1.90531 2.9152H2.37884L2.3749 2.43457Z" fill="white"/>
<path d="M2.37783 2.91699H1.9043L1.90824 3.39762H2.38177L2.37783 2.91699Z" fill="white"/>
<path d="M2.38662 3.87793H1.91309L1.91703 4.35855H2.39056L2.38662 3.87793Z" fill="white"/>
<path d="M2.39834 5.31934H1.9248L1.92875 5.79996H2.40228L2.39834 5.31934Z" fill="white"/>
<path d="M2.40127 5.7998H1.92773L1.93168 6.28043H2.40521L2.40127 5.7998Z" fill="white"/>
<path d="M2.41005 6.7627H1.93652L1.94047 7.24332H2.414L2.41005 6.7627Z" fill="white"/>
<path d="M2.41396 7.24121H1.94043L1.94437 7.72184H2.4179L2.41396 7.24121Z" fill="white"/>
<path d="M2.43349 9.64551H1.95996L1.9639 10.1261H2.43743L2.43349 9.64551Z" fill="white"/>
<path d="M2.44228 10.6064H1.96875L1.97269 11.0871H2.44622L2.44228 10.6064Z" fill="white"/>
<path d="M2.44521 11.0869H1.97168L1.97562 11.5675H2.44915L2.44521 11.0869Z" fill="white"/>
<path d="M2.44912 11.5674H1.97559L1.97953 12.048H2.45306L2.44912 11.5674Z" fill="white"/>
<path d="M2.45693 12.5283H1.9834L1.98734 13.0089H2.46087L2.45693 12.5283Z" fill="white"/>
<path d="M2.83584 0.993164H2.3623L2.36625 1.47379H2.83978L2.83584 0.993164Z" fill="white"/>
<path d="M2.84365 1.9541H2.37012L2.37406 2.43473H2.84759L2.84365 1.9541Z" fill="white"/>
<path d="M2.84804 2.43457H2.37451L2.37845 2.9152H2.85199L2.84804 2.43457Z" fill="white"/>
<path d="M2.85244 2.91699H2.37891L2.38285 3.39762H2.85638L2.85244 2.91699Z" fill="white"/>
<path d="M2.86025 3.87793H2.38672L2.39066 4.35855H2.86419L2.86025 3.87793Z" fill="white"/>
<path d="M2.86709 4.83887H2.39355L2.3975 5.31949H2.87103L2.86709 4.83887Z" fill="white"/>
<path d="M2.87197 5.31934H2.39844L2.40238 5.79996H2.87591L2.87197 5.31934Z" fill="white"/>
<path d="M2.87587 5.7998H2.40234L2.40629 6.28043H2.87982L2.87587 5.7998Z" fill="white"/>
<path d="M2.87978 6.28223H2.40625L2.41019 6.76285H2.88372L2.87978 6.28223Z" fill="white"/>
<path d="M2.88466 6.7627H2.41113L2.41508 7.24332H2.88861L2.88466 6.7627Z" fill="white"/>
<path d="M2.90712 9.64551H2.43359L2.43754 10.1261H2.91107L2.90712 9.64551Z" fill="white"/>
<path d="M2.91591 10.6064H2.44238L2.44633 11.0871H2.91986L2.91591 10.6064Z" fill="white"/>
<path d="M2.91884 11.0869H2.44531L2.44926 11.5675H2.92279L2.91884 11.0869Z" fill="white"/>
<path d="M2.92275 11.5674H2.44922L2.45316 12.048H2.92669L2.92275 11.5674Z" fill="white"/>
<path d="M2.93154 12.5283H2.45801L2.46195 13.0089H2.93548L2.93154 12.5283Z" fill="white"/>
<path d="M3.30947 0.993164H2.83594L2.83988 1.47379H3.31341L3.30947 0.993164Z" fill="white"/>
<path d="M3.31679 1.9541H2.84326L2.8472 2.43473H3.32074L3.31679 1.9541Z" fill="white"/>
<path d="M3.32119 2.43457H2.84766L2.8516 2.9152H3.32513L3.32119 2.43457Z" fill="white"/>
<path d="M3.32412 2.91699H2.85059L2.85453 3.39762H3.32806L3.32412 2.91699Z" fill="white"/>
<path d="M3.33388 3.87793H2.86035L2.86429 4.35855H3.33783L3.33388 3.87793Z" fill="white"/>
<path d="M3.34072 4.83887H2.86719L2.87113 5.31949H3.34466L3.34072 4.83887Z" fill="white"/>
<path d="M3.34853 5.7998H2.875L2.87894 6.28043H3.35247L3.34853 5.7998Z" fill="white"/>
<path d="M3.36123 7.24316H2.8877L2.89164 7.72379H3.36517L3.36123 7.24316Z" fill="white"/>
<path d="M3.36513 7.72168H2.8916L2.89554 8.2023H3.36908L3.36513 7.72168Z" fill="white"/>
<path d="M3.37978 9.64551H2.90625L2.91019 10.1261H3.38372L3.37978 9.64551Z" fill="white"/>
<path d="M3.38857 10.6064H2.91504L2.91898 11.0871H3.39251L3.38857 10.6064Z" fill="white"/>
<path d="M3.39248 11.0869H2.91895L2.92289 11.5675H3.39642L3.39248 11.0869Z" fill="white"/>
<path d="M3.39638 11.5674H2.92285L2.92679 12.048H3.40033L3.39638 11.5674Z" fill="white"/>
<path d="M3.4042 12.5283H2.93066L2.93461 13.0089H3.40814L3.4042 12.5283Z" fill="white"/>
<path d="M3.78408 0.993164H3.31055L3.31449 1.47379H3.78802L3.78408 0.993164Z" fill="white"/>
<path d="M3.80752 3.87793H3.33398L3.33793 4.35855H3.81146L3.80752 3.87793Z" fill="white"/>
<path d="M3.83486 7.24316H3.36133L3.36527 7.72379H3.8388L3.83486 7.24316Z" fill="white"/>
<path d="M3.84267 8.20215H3.36914L3.37308 8.68277H3.84661L3.84267 8.20215Z" fill="white"/>
<path d="M3.84658 8.68262H3.37305L3.37699 9.16324H3.85052L3.84658 8.68262Z" fill="white"/>
<path d="M3.85439 9.64551H3.38086L3.3848 10.1261H3.85833L3.85439 9.64551Z" fill="white"/>
<path d="M3.87783 12.5283H3.4043L3.40824 13.0089H3.88177L3.87783 12.5283Z" fill="white"/>
<path d="M4.25722 0.993164H3.78369L3.78763 1.47379H4.26117L4.25722 0.993164Z" fill="white"/>
<path d="M4.26015 1.47363H3.78662L3.79056 1.95426H4.26409L4.26015 1.47363Z" fill="white"/>
<path d="M4.26455 1.9541H3.79102L3.79496 2.43473H4.26849L4.26455 1.9541Z" fill="white"/>
<path d="M4.26943 2.43652H3.7959L3.79984 2.91715H4.27337L4.26943 2.43652Z" fill="white"/>
<path d="M4.27334 2.91699H3.7998L3.80375 3.39762H4.27728L4.27334 2.91699Z" fill="white"/>
<path d="M4.27724 3.39746H3.80371L3.80765 3.87809H4.28118L4.27724 3.39746Z" fill="white"/>
<path d="M4.28115 3.87793H3.80762L3.81156 4.35855H4.28509L4.28115 3.87793Z" fill="white"/>
<path d="M4.28896 4.83887H3.81543L3.81937 5.31949H4.2929L4.28896 4.83887Z" fill="white"/>
<path d="M4.2958 5.7998H3.82227L3.82621 6.28043H4.29974L4.2958 5.7998Z" fill="white"/>
<path d="M4.30361 6.7627H3.83008L3.83402 7.24332H4.30755L4.30361 6.7627Z" fill="white"/>
<path d="M4.3124 7.72168H3.83887L3.84281 8.2023H4.31634L4.3124 7.72168Z" fill="white"/>
<path d="M4.32021 8.68262H3.84668L3.85062 9.16324H4.32415L4.32021 8.68262Z" fill="white"/>
<path d="M4.32802 9.64551H3.85449L3.85843 10.1261H4.33197L4.32802 9.64551Z" fill="white"/>
<path d="M4.33193 10.126H3.8584L3.86234 10.6066H4.33587L4.33193 10.126Z" fill="white"/>
<path d="M4.33584 10.6064H3.8623L3.86625 11.0871H4.33978L4.33584 10.6064Z" fill="white"/>
<path d="M4.33974 11.0869H3.86621L3.87015 11.5675H4.34368L4.33974 11.0869Z" fill="white"/>
<path d="M4.34365 11.5674H3.87012L3.87406 12.048H4.34759L4.34365 11.5674Z" fill="white"/>
<path d="M4.34755 12.0479H3.87402L3.87797 12.5285H4.3515L4.34755 12.0479Z" fill="white"/>
<path d="M4.35146 12.5283H3.87793L3.88187 13.0089H4.3554L4.35146 12.5283Z" fill="white"/>
<path d="M4.76943 5.7998H4.2959L4.29984 6.28043H4.77337L4.76943 5.7998Z" fill="white"/>
<path d="M4.78115 7.24316H4.30762L4.31156 7.72379H4.78509L4.78115 7.24316Z" fill="white"/>
<path d="M4.79287 8.68262H4.31934L4.32328 9.16324H4.79681L4.79287 8.68262Z" fill="white"/>
<path d="M5.20498 0.993164H4.73145L4.73539 1.47379H5.20892L5.20498 0.993164Z" fill="white"/>
<path d="M5.22841 3.87793H4.75488L4.75883 4.35855H5.23236L5.22841 3.87793Z" fill="white"/>
<path d="M5.23134 4.3584H4.75781L4.76176 4.83902H5.23529L5.23134 4.3584Z" fill="white"/>
<path d="M5.24013 5.31934H4.7666L4.77054 5.79996H5.24408L5.24013 5.31934Z" fill="white"/>
<path d="M5.24892 6.28223H4.77539L4.77933 6.76285H5.25286L5.24892 6.28223Z" fill="white"/>
<path d="M5.25087 6.7627H4.77734L4.78129 7.24332H5.25482L5.25087 6.7627Z" fill="white"/>
<path d="M5.25478 7.24121H4.78125L4.78519 7.72184H5.25872L5.25478 7.24121Z" fill="white"/>
<path d="M5.27138 9.16309H4.79785L4.80179 9.64371H5.27533L5.27138 9.16309Z" fill="white"/>
<path d="M5.2831 10.6064H4.80957L4.81351 11.0871H5.28704L5.2831 10.6064Z" fill="white"/>
<path d="M5.28701 11.0869H4.81348L4.81742 11.5675H5.29095L5.28701 11.0869Z" fill="white"/>
<path d="M5.29384 12.0479H4.82031L4.82426 12.5285H5.29779L5.29384 12.0479Z" fill="white"/>
<path d="M5.29775 12.5283H4.82422L4.82816 13.0089H5.30169L5.29775 12.5283Z" fill="white"/>
<path d="M5.68545 1.9541H5.21191L5.21586 2.43473H5.68939L5.68545 1.9541Z" fill="white"/>
<path d="M5.68837 2.43457H5.21484L5.21879 2.9152H5.69232L5.68837 2.43457Z" fill="white"/>
<path d="M5.69326 2.91699H5.21973L5.22367 3.39762H5.6972L5.69326 2.91699Z" fill="white"/>
<path d="M5.70888 4.83887H5.23535L5.23929 5.31949H5.71283L5.70888 4.83887Z" fill="white"/>
<path d="M5.71181 5.31934H5.23828L5.24222 5.79996H5.71575L5.71181 5.31934Z" fill="white"/>
<path d="M5.7206 6.28027H5.24707L5.25101 6.7609H5.72454L5.7206 6.28027Z" fill="white"/>
<path d="M5.72451 6.7627H5.25098L5.25492 7.24332H5.72845L5.72451 6.7627Z" fill="white"/>
<path d="M5.73623 8.20215H5.2627L5.26664 8.68277H5.74017L5.73623 8.20215Z" fill="white"/>
<path d="M5.74404 9.16309H5.27051L5.27445 9.64371H5.74798L5.74404 9.16309Z" fill="white"/>
<path d="M5.74795 9.64551H5.27441L5.27836 10.1261H5.75189L5.74795 9.64551Z" fill="white"/>
<path d="M5.76064 11.0869H5.28711L5.29105 11.5675H5.76458L5.76064 11.0869Z" fill="white"/>
<path d="M5.76748 12.0479H5.29395L5.29789 12.5285H5.77142L5.76748 12.0479Z" fill="white"/>
<path d="M6.15127 0.993164H5.67773L5.68168 1.47379H6.15521L6.15127 0.993164Z" fill="white"/>
<path d="M6.15859 1.9541H5.68506L5.689 2.43473H6.16253L6.15859 1.9541Z" fill="white"/>
<path d="M6.1747 3.87793H5.70117L5.70511 4.35855H6.17865L6.1747 3.87793Z" fill="white"/>
<path d="M6.17861 4.3584H5.70508L5.70902 4.83902H6.18255L6.17861 4.3584Z" fill="white"/>
<path d="M6.18349 4.83887H5.70996L5.7139 5.31949H6.18743L6.18349 4.83887Z" fill="white"/>
<path d="M6.18642 5.31934H5.71289L5.71683 5.79996H6.19036L6.18642 5.31934Z" fill="white"/>
<path d="M6.19033 5.7998H5.7168L5.72074 6.28043H6.19427L6.19033 5.7998Z" fill="white"/>
<path d="M6.19521 6.28223H5.72168L5.72562 6.76285H6.19915L6.19521 6.28223Z" fill="white"/>
<path d="M6.20595 7.72168H5.73242L5.73636 8.2023H6.2099L6.20595 7.72168Z" fill="white"/>
<path d="M6.21377 8.68262H5.74023L5.74418 9.16324H6.21771L6.21377 8.68262Z" fill="white"/>
<path d="M6.22646 10.126H5.75293L5.75687 10.6066H6.2304L6.22646 10.126Z" fill="white"/>
<path d="M6.22939 10.6064H5.75586L5.7598 11.0871H6.23333L6.22939 10.6064Z" fill="white"/>
<path d="M6.23427 11.0869H5.76074L5.76468 11.5675H6.23822L6.23427 11.0869Z" fill="white"/>
<path d="M6.23818 11.5674H5.76465L5.76859 12.048H6.24212L6.23818 11.5674Z" fill="white"/>
<path d="M6.24209 12.0479H5.76855L5.7725 12.5285H6.24603L6.24209 12.0479Z" fill="white"/>
<path d="M6.24502 12.5283H5.77148L5.77543 13.0089H6.24896L6.24502 12.5283Z" fill="white"/>
<path d="M6.64345 3.39746H6.16992L6.17386 3.87809H6.6474L6.64345 3.39746Z" fill="white"/>
<path d="M6.65908 5.31934H6.18555L6.18949 5.79996H6.66302L6.65908 5.31934Z" fill="white"/>
<path d="M6.66396 5.7998H6.19043L6.19437 6.28043H6.6679L6.66396 5.7998Z" fill="white"/>
<path d="M6.67177 6.7627H6.19824L6.20218 7.24332H6.67572L6.67177 6.7627Z" fill="white"/>
<path d="M6.67568 7.24121H6.20215L6.20609 7.72184H6.67962L6.67568 7.24121Z" fill="white"/>
<path d="M6.6874 8.68262H6.21387L6.21781 9.16324H6.69134L6.6874 8.68262Z" fill="white"/>
<path d="M6.69521 9.64551H6.22168L6.22562 10.1261H6.69915L6.69521 9.64551Z" fill="white"/>
<path d="M6.70791 11.0869H6.23438L6.23832 11.5675H6.71185L6.70791 11.0869Z" fill="white"/>
<path d="M6.71084 11.5674H6.2373L6.24125 12.048H6.71478L6.71084 11.5674Z" fill="white"/>
<path d="M7.10195 1.47363H6.62842L6.63236 1.95426H7.10589L7.10195 1.47363Z" fill="white"/>
<path d="M7.11025 2.43457H6.63672L6.64066 2.9152H7.11419L7.11025 2.43457Z" fill="white"/>
<path d="M7.12099 3.87793H6.64746L6.6514 4.35855H7.12493L7.12099 3.87793Z" fill="white"/>
<path d="M7.12587 4.3584H6.65234L6.65629 4.83902H7.12982L7.12587 4.3584Z" fill="white"/>
<path d="M7.12978 4.83887H6.65625L6.66019 5.31949H7.13372L7.12978 4.83887Z" fill="white"/>
<path d="M7.13759 5.7998H6.66406L6.66801 6.28043H7.14154L7.13759 5.7998Z" fill="white"/>
<path d="M7.1415 6.28223H6.66797L6.67191 6.76285H7.14544L7.1415 6.28223Z" fill="white"/>
<path d="M7.15322 7.72168H6.67969L6.68363 8.2023H7.15716L7.15322 7.72168Z" fill="white"/>
<path d="M7.1581 8.20215H6.68457L6.68851 8.68277H7.16204L7.1581 8.20215Z" fill="white"/>
<path d="M7.17275 10.126H6.69922L6.70316 10.6066H7.17669L7.17275 10.126Z" fill="white"/>
<path d="M7.17666 10.6064H6.70312L6.70707 11.0871H7.1806L7.17666 10.6064Z" fill="white"/>
<path d="M7.19326 12.5283H6.71973L6.72367 13.0089H7.1972L7.19326 12.5283Z" fill="white"/>
<path d="M7.57216 0.993164H7.09863L7.10258 1.47379H7.57611L7.57216 0.993164Z" fill="white"/>
<path d="M7.57949 1.9541H7.10596L7.1099 2.43473H7.58343L7.57949 1.9541Z" fill="white"/>
<path d="M7.58291 2.43652H7.10938L7.11332 2.91715H7.58685L7.58291 2.43652Z" fill="white"/>
<path d="M7.59853 4.3584H7.125L7.12894 4.83902H7.60247L7.59853 4.3584Z" fill="white"/>
<path d="M7.60732 5.31934H7.13379L7.13773 5.79996H7.61126L7.60732 5.31934Z" fill="white"/>
<path d="M7.61123 5.7998H7.1377L7.14164 6.28043H7.61517L7.61123 5.7998Z" fill="white"/>
<path d="M7.63466 8.68262H7.16113L7.16508 9.16324H7.63861L7.63466 8.68262Z" fill="white"/>
<path d="M7.64248 9.64551H7.16895L7.17289 10.1261H7.64642L7.64248 9.64551Z" fill="white"/>
<path d="M7.64541 10.126H7.17188L7.17582 10.6066H7.64935L7.64541 10.126Z" fill="white"/>
<path d="M8.04482 0.993164H7.57129L7.57523 1.47379H8.04876L8.04482 0.993164Z" fill="white"/>
<path d="M8.04824 1.47363H7.57471L7.57865 1.95426H8.05218L8.04824 1.47363Z" fill="white"/>
<path d="M8.05263 1.9541H7.5791L7.58304 2.43473H8.05658L8.05263 1.9541Z" fill="white"/>
<path d="M8.06142 2.91699H7.58789L7.59183 3.39762H8.06536L8.06142 2.91699Z" fill="white"/>
<path d="M8.06435 3.39746H7.59082L7.59476 3.87809H8.06829L8.06435 3.39746Z" fill="white"/>
<path d="M8.06826 3.87793H7.59473L7.59867 4.35855H8.0722L8.06826 3.87793Z" fill="white"/>
<path d="M8.07998 5.31934H7.60645L7.61039 5.79996H8.08392L8.07998 5.31934Z" fill="white"/>
<path d="M8.09658 7.24316H7.62305L7.62699 7.72379H8.10052L8.09658 7.24316Z" fill="white"/>
<path d="M8.09951 7.72168H7.62598L7.62992 8.2023H8.10345L8.09951 7.72168Z" fill="white"/>
<path d="M8.10439 8.20215H7.63086L7.6348 8.68277H8.10833L8.10439 8.20215Z" fill="white"/>
<path d="M8.12392 10.6064H7.65039L7.65433 11.0871H8.12786L8.12392 10.6064Z" fill="white"/>
<path d="M8.14052 12.5283H7.66699L7.67093 13.0089H8.14447L8.14052 12.5283Z" fill="white"/>
<path d="M8.53017 2.43652H8.05664L8.06058 2.91715H8.53411L8.53017 2.43652Z" fill="white"/>
<path d="M8.55068 4.83887H8.07715L8.08109 5.31949H8.55462L8.55068 4.83887Z" fill="white"/>
<path d="M8.55361 5.31934H8.08008L8.08402 5.79996H8.55755L8.55361 5.31934Z" fill="white"/>
<path d="M8.55849 5.7998H8.08496L8.0889 6.28043H8.56243L8.55849 5.7998Z" fill="white"/>
<path d="M8.57021 7.24316H8.09668L8.10062 7.72379H8.57415L8.57021 7.24316Z" fill="white"/>
<path d="M8.57412 7.72168H8.10059L8.10453 8.2023H8.57806L8.57412 7.72168Z" fill="white"/>
<path d="M8.58291 8.68262H8.10938L8.11332 9.16324H8.58685L8.58291 8.68262Z" fill="white"/>
<path d="M8.59267 10.126H8.11914L8.12308 10.6066H8.59661L8.59267 10.126Z" fill="white"/>
<path d="M8.59755 10.6064H8.12402L8.12797 11.0871H8.6015L8.59755 10.6064Z" fill="white"/>
<path d="M8.60537 11.5674H8.13184L8.13578 12.048H8.60931L8.60537 11.5674Z" fill="white"/>
<path d="M9.0038 2.43652H8.53027L8.53422 2.91715H9.00775L9.0038 2.43652Z" fill="white"/>
<path d="M9.00771 2.91699H8.53418L8.53812 3.39762H9.01165L9.00771 2.91699Z" fill="white"/>
<path d="M9.01552 3.87793H8.54199L8.54593 4.35855H9.01947L9.01552 3.87793Z" fill="white"/>
<path d="M9.02334 4.83887H8.5498L8.55375 5.31949H9.02728L9.02334 4.83887Z" fill="white"/>
<path d="M9.03505 6.28223H8.56152L8.56547 6.76285H9.039L9.03505 6.28223Z" fill="white"/>
<path d="M9.03896 6.7627H8.56543L8.56937 7.24332H9.0429L9.03896 6.7627Z" fill="white"/>
<path d="M9.04287 7.24316H8.56934L8.57328 7.72379H9.04681L9.04287 7.24316Z" fill="white"/>
<path d="M9.05556 8.68262H8.58203L8.58597 9.16324H9.0595L9.05556 8.68262Z" fill="white"/>
<path d="M9.05849 9.16309H8.58496L8.5889 9.64371H9.06243L9.05849 9.16309Z" fill="white"/>
<path d="M9.06337 9.64551H8.58984L8.59379 10.1261H9.06732L9.06337 9.64551Z" fill="white"/>
<path d="M9.06728 10.126H8.59375L8.59769 10.6066H9.07122L9.06728 10.126Z" fill="white"/>
<path d="M9.07021 10.6064H8.59668L8.60062 11.0871H9.07415L9.07021 10.6064Z" fill="white"/>
<path d="M9.08681 12.5283H8.61328L8.61722 13.0089H9.09075L9.08681 12.5283Z" fill="white"/>
<path d="M9.50185 5.31934H9.02832L9.03226 5.79996H9.50579L9.50185 5.31934Z" fill="white"/>
<path d="M9.5165 7.24316H9.04297L9.04691 7.72379H9.52044L9.5165 7.24316Z" fill="white"/>
<path d="M9.52041 7.72168H9.04688L9.05082 8.2023H9.52435L9.52041 7.72168Z" fill="white"/>
<path d="M9.52529 8.20215H9.05176L9.0557 8.68277H9.52923L9.52529 8.20215Z" fill="white"/>
<path d="M9.5292 8.68262H9.05566L9.05961 9.16324H9.53314L9.5292 8.68262Z" fill="white"/>
<path d="M9.54482 10.6064H9.07129L9.07523 11.0871H9.54876L9.54482 10.6064Z" fill="white"/>
<path d="M9.55263 11.5674H9.0791L9.08304 12.048H9.55658L9.55263 11.5674Z" fill="white"/>
<path d="M9.56142 12.5283H9.08789L9.09183 13.0089H9.56536L9.56142 12.5283Z" fill="white"/>
<path d="M9.94033 0.993164H9.4668L9.47074 1.47379H9.94427L9.94033 0.993164Z" fill="white"/>
<path d="M9.94326 1.47363H9.46973L9.47367 1.95426H9.9472L9.94326 1.47363Z" fill="white"/>
<path d="M9.94668 1.9541H9.47314L9.47709 2.43473H9.95062L9.94668 1.9541Z" fill="white"/>
<path d="M9.95107 2.43457H9.47754L9.48148 2.9152H9.95501L9.95107 2.43457Z" fill="white"/>
<path d="M9.95595 2.91699H9.48242L9.48636 3.39762H9.9599L9.95595 2.91699Z" fill="white"/>
<path d="M9.95888 3.39746H9.48535L9.48929 3.87809H9.96283L9.95888 3.39746Z" fill="white"/>
<path d="M9.96279 3.87793H9.48926L9.4932 4.35855H9.96673L9.96279 3.87793Z" fill="white"/>
<path d="M9.9706 4.83887H9.49707L9.50101 5.31949H9.97454L9.9706 4.83887Z" fill="white"/>
<path d="M9.97841 5.7998H9.50488L9.50883 6.28043H9.98236L9.97841 5.7998Z" fill="white"/>
<path d="M9.98623 6.7627H9.5127L9.51664 7.24332H9.99017L9.98623 6.7627Z" fill="white"/>
<path d="M9.99404 7.72168H9.52051L9.52445 8.2023H9.99798L9.99404 7.72168Z" fill="white"/>
<path d="M10.0019 8.68262H9.52832L9.53226 9.16324H10.0058L10.0019 8.68262Z" fill="white"/>
<path d="M10.0106 9.64551H9.53711L9.54105 10.1261H10.0146L10.0106 9.64551Z" fill="white"/>
<path d="M10.0185 10.6064H9.54492L9.54886 11.0871H10.0224L10.0185 10.6064Z" fill="white"/>
<path d="M10.0224 11.0869H9.54883L9.55277 11.5675H10.0263L10.0224 11.0869Z" fill="white"/>
<path d="M10.4125 0.993164H9.93896L9.94291 1.47379H10.4164L10.4125 0.993164Z" fill="white"/>
<path d="M10.4364 3.87793H9.96289L9.96683 4.35855H10.4404L10.4364 3.87793Z" fill="white"/>
<path d="M10.4491 5.31934H9.97559L9.97953 5.79996H10.4531L10.4491 5.31934Z" fill="white"/>
<path d="M10.452 5.7998H9.97852L9.98246 6.28043H10.456L10.452 5.7998Z" fill="white"/>
<path d="M10.4569 6.28223H9.9834L9.98734 6.76285H10.4609L10.4569 6.28223Z" fill="white"/>
<path d="M10.4726 8.20215H9.99902L10.003 8.68277H10.4765L10.4726 8.20215Z" fill="white"/>
<path d="M10.4755 8.68262H10.002L10.0059 9.16324H10.4794L10.4755 8.68262Z" fill="white"/>
<path d="M10.4931 10.6064H10.0195L10.0235 11.0871H10.497L10.4931 10.6064Z" fill="white"/>
<path d="M10.5038 12.0479H10.0303L10.0342 12.5285H10.5077L10.5038 12.0479Z" fill="white"/>
<path d="M10.8866 0.993164H10.4131L10.417 1.47379H10.8906L10.8866 0.993164Z" fill="white"/>
<path d="M10.8944 1.9541H10.4209L10.4248 2.43473H10.8984L10.8944 1.9541Z" fill="white"/>
<path d="M10.8983 2.43457H10.4248L10.4287 2.9152H10.9023L10.8983 2.43457Z" fill="white"/>
<path d="M10.9022 2.91699H10.4287L10.4327 3.39762H10.9062L10.9022 2.91699Z" fill="white"/>
<path d="M10.9101 3.87793H10.4365L10.4405 4.35855H10.914L10.9101 3.87793Z" fill="white"/>
<path d="M10.9218 5.31738H10.4482L10.4522 5.79801H10.9257L10.9218 5.31738Z" fill="white"/>
<path d="M10.9374 7.24121H10.4639L10.4678 7.72184H10.9413L10.9374 7.24121Z" fill="white"/>
<path d="M10.9413 7.72168H10.4678L10.4717 8.2023H10.9452L10.9413 7.72168Z" fill="white"/>
<path d="M10.9491 8.68262H10.4756L10.4795 9.16324H10.9531L10.9491 8.68262Z" fill="white"/>
<path d="M10.953 9.16309H10.4795L10.4834 9.64371H10.957L10.953 9.16309Z" fill="white"/>
<path d="M10.956 9.64551H10.4824L10.4864 10.1261H10.9599L10.956 9.64551Z" fill="white"/>
<path d="M10.9608 10.126H10.4873L10.4912 10.6066H10.9648L10.9608 10.126Z" fill="white"/>
<path d="M10.9647 10.6064H10.4912L10.4952 11.0871H10.9687L10.9647 10.6064Z" fill="white"/>
<path d="M10.9726 11.5674H10.499L10.503 12.048H10.9765L10.9726 11.5674Z" fill="white"/>
<path d="M10.9774 12.0479H10.5039L10.5078 12.5285H10.9814L10.9774 12.0479Z" fill="white"/>
<path d="M11.3602 0.993164H10.8867L10.8907 1.47379H11.3642L11.3602 0.993164Z" fill="white"/>
<path d="M11.3671 1.9541H10.8936L10.8975 2.43473H11.371L11.3671 1.9541Z" fill="white"/>
<path d="M11.372 2.43457H10.8984L10.9024 2.9152H11.3759L11.372 2.43457Z" fill="white"/>
<path d="M11.3749 2.91699H10.9014L10.9053 3.39762H11.3788L11.3749 2.91699Z" fill="white"/>
<path d="M11.3837 3.87793H10.9102L10.9141 4.35855H11.3876L11.3837 3.87793Z" fill="white"/>
<path d="M11.3954 5.31934H10.9219L10.9258 5.79996H11.3993L11.3954 5.31934Z" fill="white"/>
<path d="M11.3983 5.7998H10.9248L10.9287 6.28043H11.4023L11.3983 5.7998Z" fill="white"/>
<path d="M11.4032 6.28223H10.9297L10.9336 6.76285H11.4072L11.4032 6.28223Z" fill="white"/>
<path d="M11.4159 7.72168H10.9424L10.9463 8.2023H11.4199L11.4159 7.72168Z" fill="white"/>
<path d="M11.4179 8.20215H10.9443L10.9483 8.68277H11.4218L11.4179 8.20215Z" fill="white"/>
<path d="M11.4472 11.5674H10.9736L10.9776 12.048H11.4511L11.4472 11.5674Z" fill="white"/>
<path d="M11.454 12.5283H10.9805L10.9844 13.0089H11.4579L11.454 12.5283Z" fill="white"/>
<path d="M11.8334 0.993164H11.3599L11.3638 1.47379H11.8373L11.8334 0.993164Z" fill="white"/>
<path d="M11.8407 1.9541H11.3672L11.3711 2.43473H11.8447L11.8407 1.9541Z" fill="white"/>
<path d="M11.8451 2.43457H11.3716L11.3755 2.9152H11.8491L11.8451 2.43457Z" fill="white"/>
<path d="M11.8495 2.91699H11.376L11.3799 3.39762H11.8535L11.8495 2.91699Z" fill="white"/>
<path d="M11.8573 3.87793H11.3838L11.3877 4.35855H11.8613L11.8573 3.87793Z" fill="white"/>
<path d="M11.869 5.31934H11.3955L11.3995 5.79996H11.873L11.869 5.31934Z" fill="white"/>
<path d="M11.8778 6.28223H11.4043L11.4082 6.76285H11.8818L11.8778 6.28223Z" fill="white"/>
<path d="M11.8895 7.72168H11.416L11.42 8.2023H11.8935L11.8895 7.72168Z" fill="white"/>
<path d="M11.8935 8.20215H11.4199L11.4239 8.68277H11.8974L11.8935 8.20215Z" fill="white"/>
<path d="M11.8964 8.68262H11.4229L11.4268 9.16324H11.9003L11.8964 8.68262Z" fill="white"/>
<path d="M11.9003 9.16309H11.4268L11.4307 9.64371H11.9042L11.9003 9.16309Z" fill="white"/>
<path d="M11.9208 11.5674H11.4473L11.4512 12.048H11.9247L11.9208 11.5674Z" fill="white"/>
<path d="M11.9247 12.0479H11.4512L11.4551 12.5285H11.9286L11.9247 12.0479Z" fill="white"/>
<path d="M12.3065 0.993164H11.833L11.837 1.47379H12.3105L12.3065 0.993164Z" fill="white"/>
<path d="M12.33 3.87793H11.8564L11.8604 4.35855H12.3339L12.33 3.87793Z" fill="white"/>
<path d="M12.3417 5.31934H11.8682L11.8721 5.79996H12.3456L12.3417 5.31934Z" fill="white"/>
<path d="M12.3505 6.28223H11.877L11.8809 6.76285H12.3544L12.3505 6.28223Z" fill="white"/>
<path d="M12.3583 7.24316H11.8848L11.8887 7.72379H12.3622L12.3583 7.24316Z" fill="white"/>
<path d="M12.3622 7.72168H11.8887L11.8926 8.2023H12.3661L12.3622 7.72168Z" fill="white"/>
<path d="M12.371 8.68262H11.8975L11.9014 9.16324H12.3749L12.371 8.68262Z" fill="white"/>
<path d="M12.3739 9.16309H11.9004L11.9043 9.64371H12.3779L12.3739 9.16309Z" fill="white"/>
<path d="M12.3817 10.126H11.9082L11.9121 10.6066H12.3857L12.3817 10.126Z" fill="white"/>
<path d="M12.3856 10.6064H11.9121L11.9161 11.0871H12.3896L12.3856 10.6064Z" fill="white"/>
<path d="M12.3895 11.0869H11.916L11.92 11.5675H12.3935L12.3895 11.0869Z" fill="white"/>
<path d="M12.3944 11.5674H11.9209L11.9248 12.048H12.3984L12.3944 11.5674Z" fill="white"/>
<path d="M12.3974 12.0479H11.9238L11.9278 12.5285H12.4013L12.3974 12.0479Z" fill="white"/>
<path d="M12.7811 0.993164H12.3076L12.3116 1.47379H12.7851L12.7811 0.993164Z" fill="white"/>
<path d="M12.7841 1.47363H12.3105L12.3145 1.95426H12.788L12.7841 1.47363Z" fill="white"/>
<path d="M12.788 1.9541H12.3145L12.3184 2.43473H12.7919L12.788 1.9541Z" fill="white"/>
<path d="M12.7929 2.43652H12.3193L12.3233 2.91715H12.7968L12.7929 2.43652Z" fill="white"/>
<path d="M12.7958 2.91699H12.3223L12.3262 3.39762H12.7997L12.7958 2.91699Z" fill="white"/>
<path d="M12.8007 3.39746H12.3271L12.3311 3.87809H12.8046L12.8007 3.39746Z" fill="white"/>
<path d="M12.8046 3.87793H12.3311L12.335 4.35855H12.8085L12.8046 3.87793Z" fill="white"/>
<path d="M12.8114 4.83887H12.3379L12.3418 5.31949H12.8154L12.8114 4.83887Z" fill="white"/>
<path d="M12.8192 5.7998H12.3457L12.3496 6.28043H12.8232L12.8192 5.7998Z" fill="white"/>
<path d="M12.8241 6.28223H12.3506L12.3545 6.76285H12.8281L12.8241 6.28223Z" fill="white"/>
<path d="M12.828 6.7627H12.3545L12.3584 7.24332H12.832L12.828 6.7627Z" fill="white"/>
<path d="M12.8368 7.72168H12.3633L12.3672 8.2023H12.8408L12.8368 7.72168Z" fill="white"/>
<path d="M12.8397 8.20215H12.3662L12.3702 8.68277H12.8437L12.8397 8.20215Z" fill="white"/>
<path d="M12.8515 9.64551H12.3779L12.3819 10.1261H12.8554L12.8515 9.64551Z" fill="white"/>
<path d="M12.8632 11.0869H12.3896L12.3936 11.5675H12.8671L12.8632 11.0869Z" fill="white"/>
<path d="M12.8681 11.5674H12.3945L12.3985 12.048H12.872L12.8681 11.5674Z" fill="white"/>
<path d="M12.872 12.0479H12.3984L12.4024 12.5285H12.8759L12.872 12.0479Z" fill="white"/>
<path d="M12.8749 12.5283H12.4014L12.4053 13.0089H12.8788L12.8749 12.5283Z" fill="white"/>
</svg>
