<svg width="32" height="32" viewBox="0 0 32 32" fill="none" xmlns="http://www.w3.org/2000/svg">
<g clip-path="url(#clip0_1752_94448)">
<g clip-path="url(#clip1_1752_94448)">
<path d="M0 10.7333C0 6.93673 0 5.03843 0.750577 3.5935C1.38308 2.37588 2.37588 1.38308 3.5935 0.750577C5.03843 0 6.93673 0 10.7333 0H21.2667C25.0633 0 26.9616 0 28.4065 0.750577C29.6241 1.38308 30.6169 2.37588 31.2494 3.5935C32 5.03843 32 6.93673 32 10.7333V21.2667C32 25.0633 32 26.9616 31.2494 28.4065C30.6169 29.6241 29.6241 30.6169 28.4065 31.2494C26.9616 32 25.0633 32 21.2667 32H10.7333C6.93673 32 5.03843 32 3.5935 31.2494C2.37588 30.6169 1.38308 29.6241 0.750577 28.4065C0 26.9616 0 25.0633 0 21.2667V10.7333Z" fill="#FC471E"/>
<path d="M26.6721 15.9999C26.6557 15.5496 26.5093 15.1136 26.2506 14.7445C25.992 14.3755 25.6321 14.0891 25.2143 13.92C24.7966 13.7509 24.3389 13.7062 23.8963 13.7914C23.4538 13.8765 23.0453 14.0879 22.7201 14.3999C20.9 13.1627 18.7605 12.4791 16.5601 12.432L17.6001 7.43995L21.0241 8.15995C21.0648 8.53832 21.2391 8.8898 21.5156 9.15128C21.7921 9.41277 22.1527 9.56715 22.5327 9.5867C22.9128 9.60625 23.2874 9.4897 23.5892 9.25797C23.8911 9.02624 24.1005 8.6945 24.1798 8.32231C24.2591 7.95011 24.2032 7.56183 24.022 7.22716C23.8409 6.89249 23.5464 6.63334 23.1914 6.49625C22.8364 6.35915 22.4441 6.35307 22.085 6.47911C21.726 6.60515 21.4236 6.85505 21.2321 7.18395L17.3121 6.39995C17.248 6.38588 17.1818 6.38468 17.1172 6.39642C17.0526 6.40815 16.991 6.43259 16.9359 6.4683C16.8809 6.50402 16.8334 6.55031 16.7964 6.6045C16.7594 6.65868 16.7334 6.71967 16.7201 6.78395L15.5361 12.3359C13.3087 12.3695 11.1398 13.0536 9.29613 14.3039C9.04948 14.0719 8.75531 13.8962 8.43402 13.7891C8.11273 13.682 7.77199 13.6461 7.43542 13.6838C7.09885 13.7215 6.77451 13.8319 6.48486 14.0074C6.1952 14.1829 5.94718 14.4193 5.75796 14.7001C5.56875 14.981 5.44287 15.2997 5.38906 15.6341C5.33524 15.9684 5.35477 16.3105 5.4463 16.6366C5.53782 16.9626 5.69916 17.2649 5.91911 17.5224C6.13907 17.7799 6.41239 17.9866 6.72013 18.1279C6.70212 18.3623 6.70212 18.5976 6.72013 18.8319C6.72013 22.4159 10.8961 25.328 16.0481 25.328C21.2001 25.328 25.3761 22.4159 25.3761 18.8319C25.3941 18.5976 25.3941 18.3623 25.3761 18.1279C25.771 17.9317 26.1022 17.6277 26.3315 17.2512C26.5609 16.8746 26.679 16.4408 26.6721 15.9999ZM10.6721 17.5999C10.6721 17.1756 10.8407 16.7686 11.1408 16.4686C11.4408 16.1685 11.8478 15.9999 12.2721 15.9999C12.6965 15.9999 13.1034 16.1685 13.4035 16.4686C13.7036 16.7686 13.8721 17.1756 13.8721 17.5999C13.8721 18.0243 13.7036 18.4313 13.4035 18.7313C13.1034 19.0314 12.6965 19.2 12.2721 19.2C11.8478 19.2 11.4408 19.0314 11.1408 18.7313C10.8407 18.4313 10.6721 18.0243 10.6721 17.5999ZM19.9681 21.9999C18.833 22.8554 17.4363 23.2908 16.0161 23.232C14.596 23.2908 13.1993 22.8554 12.0641 21.9999C11.9961 21.917 11.9613 21.8118 11.9666 21.7047C11.9718 21.5976 12.0168 21.4962 12.0926 21.4204C12.1684 21.3446 12.2698 21.2997 12.3769 21.2944C12.484 21.2891 12.5892 21.3239 12.6721 21.3919C13.6341 22.0975 14.8083 22.4532 16.0001 22.4C17.1934 22.4648 18.3731 22.1205 19.3441 21.4239C19.3851 21.3781 19.435 21.3412 19.4908 21.3155C19.5466 21.2897 19.6071 21.2758 19.6685 21.2744C19.7299 21.2731 19.791 21.2844 19.8478 21.3076C19.9047 21.3309 19.9562 21.3656 19.9991 21.4096C20.042 21.4536 20.0754 21.5059 20.0972 21.5634C20.119 21.6208 20.1287 21.6821 20.1258 21.7435C20.1229 21.8049 20.1074 21.865 20.0803 21.9201C20.0532 21.9752 20.015 22.0242 19.9681 22.0639V21.9999ZM19.6801 19.2639C19.3637 19.2639 19.0543 19.1701 18.7912 18.9943C18.5281 18.8185 18.323 18.5686 18.2019 18.2762C18.0808 17.9839 18.0491 17.6622 18.1109 17.3518C18.1726 17.0414 18.325 16.7563 18.5488 16.5326C18.7725 16.3088 19.0576 16.1564 19.368 16.0947C19.6784 16.033 20.0001 16.0646 20.2924 16.1857C20.5848 16.3068 20.8347 16.5119 21.0105 16.775C21.1863 17.0382 21.2801 17.3475 21.2801 17.6639C21.2888 17.8807 21.2533 18.097 21.1758 18.2997C21.0983 18.5023 20.9804 18.6871 20.8292 18.8427C20.6781 18.9984 20.4968 19.1217 20.2965 19.2051C20.0963 19.2885 19.8811 19.3303 19.6641 19.328L19.6801 19.2639Z" fill="white"/>
</g>
</g>
<defs>
<clipPath id="clip0_1752_94448">
<rect width="32" height="32" rx="8" fill="white"/>
</clipPath>
<clipPath id="clip1_1752_94448">
<rect width="32" height="32" fill="white"/>
</clipPath>
</defs>
</svg>
