<svg width="32" height="32" viewBox="0 0 32 32" fill="none" xmlns="http://www.w3.org/2000/svg">
<path d="M16 28C9.3724 28 4 22.6276 4 16C4 9.3724 9.3724 4 16 4C22.6276 4 28 9.3724 28 16C28 22.6276 22.6276 28 16 28ZM24.004 16C23.9917 15.6622 23.8819 15.3352 23.6879 15.0584C23.4939 14.7817 23.2239 14.5669 22.9106 14.4401C22.5973 14.3132 22.254 14.2797 21.9221 14.3436C21.5902 14.4074 21.2839 14.566 21.04 14.8C19.6749 13.8721 18.0702 13.3594 16.42 13.324L17.2 9.58L19.768 10.12C19.7985 10.4038 19.9292 10.6674 20.1366 10.8635C20.3439 11.0596 20.6144 11.1754 20.8995 11.1901C21.1845 11.2047 21.4654 11.1173 21.6918 10.9435C21.9182 10.7697 22.0753 10.5209 22.1348 10.2418C22.1943 9.96262 22.1523 9.67141 22.0164 9.42041C21.8806 9.1694 21.6597 8.97505 21.3934 8.87222C21.1272 8.7694 20.833 8.76484 20.5637 8.85937C20.2944 8.9539 20.0676 9.14132 19.924 9.388L16.984 8.8C16.9359 8.78945 16.8862 8.78855 16.8378 8.79735C16.7894 8.80615 16.7431 8.82448 16.7018 8.85127C16.6605 8.87805 16.625 8.91277 16.5972 8.95341C16.5694 8.99405 16.55 9.03979 16.54 9.088L15.652 13.252C13.9815 13.2772 12.3547 13.7902 10.972 14.728C10.787 14.5539 10.5664 14.4222 10.3254 14.3419C10.0844 14.2616 9.82889 14.2346 9.57646 14.2629C9.32404 14.2911 9.08078 14.3739 8.86354 14.5056C8.6463 14.6372 8.46028 14.8145 8.31837 15.0251C8.17646 15.2358 8.08205 15.4748 8.04169 15.7256C8.00133 15.9764 8.01598 16.2329 8.08462 16.4775C8.15327 16.722 8.27427 16.9487 8.43923 17.1419C8.6042 17.335 8.80919 17.49 9.04 17.596C9.02649 17.7717 9.02649 17.9483 9.04 18.124C9.04 20.812 12.172 22.996 16.036 22.996C19.9 22.996 23.032 20.812 23.032 18.124C23.0455 17.9483 23.0455 17.7717 23.032 17.596C23.3281 17.4488 23.5765 17.2208 23.7485 16.9384C23.9206 16.656 24.0091 16.3306 24.004 16ZM12.004 17.2C12.004 16.8817 12.1304 16.5765 12.3555 16.3515C12.5805 16.1264 12.8857 16 13.204 16C13.5223 16 13.8275 16.1264 14.0525 16.3515C14.2776 16.5765 14.404 16.8817 14.404 17.2C14.404 17.5183 14.2776 17.8235 14.0525 18.0485C13.8275 18.2736 13.5223 18.4 13.204 18.4C12.8857 18.4 12.5805 18.2736 12.3555 18.0485C12.1304 17.8235 12.004 17.5183 12.004 17.2ZM18.976 20.5C18.1246 21.1416 17.0771 21.4681 16.012 21.424C14.9469 21.4681 13.8994 21.1416 13.048 20.5C12.997 20.4378 12.9709 20.3589 12.9748 20.2786C12.9788 20.1982 13.0125 20.1222 13.0693 20.0653C13.1262 20.0085 13.2022 19.9748 13.2826 19.9708C13.3629 19.9669 13.4418 19.993 13.504 20.044C14.2255 20.5732 15.1061 20.8399 16 20.8C16.895 20.8487 17.7797 20.5904 18.508 20.068C18.5387 20.0336 18.5761 20.0059 18.618 19.9866C18.6598 19.9673 18.7052 19.9569 18.7513 19.9559C18.7973 19.9548 18.8431 19.9633 18.8858 19.9808C18.9284 19.9982 18.967 20.0242 18.9992 20.0572C19.0314 20.0902 19.0564 20.1295 19.0728 20.1726C19.0891 20.2156 19.0964 20.2616 19.0943 20.3077C19.0921 20.3537 19.0805 20.3988 19.0601 20.4401C19.0398 20.4815 19.0111 20.5182 18.976 20.548V20.5ZM18.76 18.448C18.5227 18.448 18.2907 18.3776 18.0933 18.2458C17.896 18.1139 17.7422 17.9265 17.6513 17.7072C17.5605 17.4879 17.5368 17.2467 17.5831 17.0139C17.6294 16.7811 17.7436 16.5673 17.9115 16.3995C18.0793 16.2316 18.2931 16.1174 18.5259 16.0711C18.7587 16.0248 18.9999 16.0485 19.2192 16.1393C19.4385 16.2302 19.6259 16.384 19.7578 16.5813C19.8896 16.7787 19.96 17.0107 19.96 17.248C19.9665 17.4106 19.9399 17.5728 19.8818 17.7248C19.8236 17.8768 19.7352 18.0154 19.6218 18.1321C19.5085 18.2488 19.3725 18.3413 19.2223 18.4038C19.0721 18.4664 18.9107 18.4978 18.748 18.496L18.76 18.448Z" fill="#121212"/>
</svg>
