<svg width="32" height="32" viewBox="0 0 32 32" fill="none" xmlns="http://www.w3.org/2000/svg">
<rect width="32" height="32" rx="8" fill="white"/>
<path d="M15.4968 3.00586C13.7244 3.00586 11.9693 3.35496 10.3318 4.03324C8.69429 4.71152 7.20641 5.70568 5.95312 6.95898C4.69983 8.21227 3.70566 9.70015 3.02738 11.3377C2.3491 12.9752 2 14.7302 2 16.5026C2 18.2751 2.3491 20.0301 3.02738 21.6676C3.70566 23.3052 4.69983 24.793 5.95312 26.0463C7.20641 27.2996 8.69429 28.2938 10.3318 28.9721C11.9693 29.6503 13.7244 29.9994 15.4968 29.9994L15.4968 24.5354C14.4419 24.5354 13.3974 24.3276 12.4228 23.924C11.4482 23.5203 10.5627 22.9286 9.81677 22.1827C9.07086 21.4368 8.47917 20.5512 8.07548 19.5767C7.6718 18.6021 7.46403 17.5575 7.46403 16.5026C7.46403 15.4478 7.6718 14.4032 8.07548 13.4286C8.47917 12.4541 9.07086 11.5685 9.81677 10.8226C10.5627 10.0767 11.4482 9.48503 12.4228 9.08134C13.3974 8.67766 14.4419 8.46989 15.4968 8.46989L15.4968 3.00586Z" fill="#EE2880"/>
<path d="M15.978 3.00563C17.7497 2.95406 19.6036 3.25763 21.2602 3.88798C22.9167 4.51833 24.4329 5.46879 25.7221 6.6851C27.0113 7.9014 28.0483 9.35972 28.774 10.9768C29.4996 12.5939 29.8996 14.3381 29.9512 16.1097L24.4895 16.2687C24.4588 15.2143 24.2207 14.1762 23.7888 13.2138C23.357 12.2513 22.7398 11.3834 21.9725 10.6595C21.2052 9.93562 20.3028 9.36994 19.3169 8.99478C18.331 8.61962 17.0324 8.27727 15.978 8.30796V3.00563Z" fill="#52C2B4"/>
<path d="M29.957 16.5024C29.8142 20.0109 28.2956 23.6525 25.7487 26.0698C23.2018 28.4871 19.4894 30.0397 15.9782 29.9992V24.5304C18.0679 24.5545 20.4713 23.5454 21.9871 22.1067C23.503 20.668 24.3984 18.6952 24.4834 16.6071L29.957 16.5024Z" fill="#F89424"/>
</svg>
