<svg width="32" height="32" viewBox="0 0 32 32" fill="none" xmlns="http://www.w3.org/2000/svg">
<g clip-path="url(#clip0_1924_105870)">
<rect width="32" height="32" rx="8" fill="#1ECCB0"/>
<path d="M13.8051 25.0973C13.2048 24.1032 12.3983 23.2028 11.4041 22.6026C10.41 22.0024 9.39711 21.4959 8.19664 21.1958C8.10285 21.1958 7.99031 21.1958 7.89652 21.2896C7.80273 21.3834 7.80273 21.4959 7.80273 21.5897C7.80273 21.6835 7.80273 21.796 7.89652 21.796C9.19078 23.6905 11.1978 25.0973 13.3924 25.6976H13.4862C13.58 25.6976 13.58 25.6976 13.6925 25.6976C13.6925 25.6976 13.7863 25.6976 13.7863 25.6038L13.8801 25.51C13.8801 25.51 13.8801 25.4162 13.8801 25.3037C13.8801 25.1911 13.8989 25.0973 13.8051 25.0973Z" fill="white"/>
<path d="M25.6034 13.2989V13.2051C25.097 11.4044 24.1028 9.81003 22.6961 8.60956C21.2893 7.40909 19.6949 6.50874 17.8942 6.20862H17.8004C17.7066 6.20862 17.5941 6.20862 17.5003 6.3024C17.4065 6.39619 17.4065 6.50874 17.4065 6.60252V6.69631C18.3068 12.1922 17.7066 17.8006 15.6996 22.9964C15.6996 23.0902 15.6058 23.0902 15.6058 23.2028C15.6058 23.3153 15.512 23.2965 15.3995 23.2965C15.2869 23.2965 15.3057 23.2965 15.1931 23.2965C15.1931 23.2965 15.0993 23.2965 15.0993 23.2028L15.0055 23.109C15.0055 23.109 15.0055 23.0152 15.0055 22.9026C15.0055 22.9026 14.9118 22.2086 14.9118 21.9085C14.3115 17.1066 12.9047 12.5111 10.6163 8.21565C10.6163 8.12187 10.5225 8.12187 10.5225 8.12187L10.4288 8.02808C10.4288 8.02808 10.335 8.02808 10.2224 8.02808C10.1099 8.02808 10.1286 8.02808 10.0161 8.02808C8.6093 9.13476 7.52137 10.5228 6.80859 12.2297C6.80859 12.3235 6.80859 12.4361 6.80859 12.5298C6.80859 12.6236 6.90238 12.7362 7.01492 12.7362C9.20953 14.143 11.0102 15.9437 12.3232 18.2321C13.6175 20.4267 14.3303 23.0339 14.4241 25.5287C14.4241 25.6225 14.4241 25.735 14.5179 25.8288C14.6116 25.9226 14.7242 25.9226 14.7242 25.9226C14.9305 25.9226 15.2306 26.0164 15.4182 26.0164C15.512 26.0164 15.6245 26.0164 15.7183 25.9226C15.8121 25.8288 15.8121 25.8288 15.8121 25.7162C16.3186 23.109 17.4065 20.6142 19.1134 18.5134C20.8203 16.4126 22.9211 14.8182 25.4159 13.7115C25.5096 13.7115 25.5097 13.6178 25.6222 13.6178C25.6034 13.3927 25.6034 13.3927 25.6034 13.2989Z" fill="white"/>
<path d="M24.7041 20.8956C24.7041 20.8018 24.7041 20.6893 24.6103 20.5955C24.5165 20.5017 24.404 20.5017 24.3102 20.5017H24.1977C21.1027 21.1957 18.2891 22.9026 16.3008 25.3036C16.207 25.3974 16.207 25.5099 16.207 25.6037C16.207 25.6975 16.207 25.81 16.3008 25.9038C16.3946 25.9976 16.5071 25.9976 16.6009 25.9976C18.1953 25.9038 19.8084 25.3974 21.1965 24.5908C22.5845 23.7842 23.8038 22.5838 24.5916 21.1957C24.7041 21.1019 24.7041 20.9894 24.7041 20.8956Z" fill="white"/>
</g>
<defs>
<clipPath id="clip0_1924_105870">
<rect width="32" height="32" rx="8" fill="white"/>
</clipPath>
</defs>
</svg>
