<svg width="32" height="32" viewBox="0 0 32 32" fill="none" xmlns="http://www.w3.org/2000/svg">
<path d="M22.2441 32L30.0809 29.9903C30.0809 29.9903 26.7148 6.25401 26.6622 6.09106C26.6622 5.92811 26.5044 5.81947 26.3992 5.81947H24.085L22.2441 3.9184V32Z" fill="white"/>
<path d="M21.319 3.79535L20.3912 4.06603C20.2821 3.68708 20.1184 3.30813 19.9546 2.92918C19.4635 1.7382 18.3174 0.980308 17.0623 0.926172H16.7894L16.6802 0.817895C16.1891 0.276539 15.425 -0.0482748 14.661 0.00586083C13.0784 0.00586083 11.5503 1.1427 10.2951 3.14572C9.42197 4.55324 8.82167 6.06905 8.5488 7.69312L5.49269 8.61342C4.56494 8.88409 4.56495 8.93823 4.4558 9.75027C4.34665 10.3999 2 28.6436 2 28.6436L21.5918 32V3.63295L21.319 3.79535ZM16.7894 5.14874L13.4604 6.17731C13.7333 4.98633 14.3336 3.84948 15.1522 2.92918C15.4796 2.60437 15.8616 2.27955 16.2982 2.11715C16.6802 3.09159 16.844 4.12017 16.7894 5.14874ZM14.7156 1.03443C15.043 1.03443 15.3705 1.08857 15.6433 1.30511C15.2068 1.57579 14.7702 1.84647 14.4427 2.22542C13.4058 3.47054 12.6964 4.9322 12.3689 6.50213L9.64027 7.31417C10.186 4.87806 12.2598 1.1427 14.7156 1.03443ZM11.6595 15.2721C11.7686 16.9503 16.1345 17.3293 16.4074 21.227C16.6257 24.3127 14.7702 26.424 12.1506 26.5323C10.3497 26.6947 8.60338 26.0992 7.23905 24.8541L7.83934 22.0391C8.76709 22.7428 9.85857 23.1759 11.0046 23.2842C11.6595 23.23 12.2052 22.6345 12.2052 21.9849C12.0961 19.8195 8.49423 19.9278 8.27594 16.3548C8.11222 13.3774 10.0769 10.2916 14.4427 10.0209C15.3159 9.91267 16.1891 10.0209 17.0077 10.3458L16.0253 14.0811C15.2613 13.7563 14.4427 13.5939 13.5695 13.648C11.6595 13.7563 11.6049 15.0014 11.6595 15.2721ZM17.8263 4.87806C17.8263 3.90362 17.6626 2.98331 17.3351 2.06301C18.5357 2.27955 19.0815 3.63295 19.3543 4.44499L17.8263 4.87806Z" fill="white"/>
</svg>
