<svg width="32" height="32" viewBox="0 0 32 32" fill="none" xmlns="http://www.w3.org/2000/svg">
<g clip-path="url(#clip0_1926_117772)">
<path d="M14.9918 1.97293C15.2041 1.97293 15.3102 2.08084 15.5224 2.18875C14.249 2.72829 12.9755 4.13108 12.3388 7.15249L10.0041 7.79993C10.7469 5.64178 12.2327 1.97293 14.9918 1.97293ZM16.1592 3.05201C16.3714 3.69945 16.5837 4.4548 16.5837 5.64178C16.5837 5.74969 16.5837 5.74969 16.5837 5.8576L13.5061 6.72086C14.1429 4.4548 15.2041 3.48364 16.1592 3.05201ZM18.9184 4.99434L17.5388 5.42597C17.5388 5.31806 17.5388 5.21015 17.5388 5.10225C17.5388 4.13108 17.4327 3.37573 17.2204 2.72829C17.9633 2.9441 18.6 3.91527 18.9184 4.99434ZM25.8163 6.72086C25.8163 6.61295 25.7102 6.50504 25.6041 6.50504C25.3918 6.50504 23.1633 6.28923 23.1633 6.28923C23.1633 6.28923 21.5714 4.67062 21.3592 4.56271C21.1469 4.3469 20.8286 4.4548 20.7224 4.4548C20.7224 4.4548 20.4041 4.56271 19.8735 4.77852C19.3429 3.26782 18.3878 1.86503 16.7959 1.86503H16.6898C16.2653 1.21758 15.6286 1.00177 15.098 1.00177C11.2776 0.893862 9.47347 5.74969 8.83673 8.23156C7.98775 8.44737 7.13878 8.7711 6.18367 9.09482C5.33469 9.31063 5.33469 9.41854 5.22857 10.1739C5.12245 10.7134 3 27.7628 3 27.7628L19.8735 31L29 28.9498C29 28.9498 25.8163 6.93667 25.8163 6.72086Z" fill="#8DB849"/>
<path d="M25.5465 7.00813C25.4419 7.00813 23.2442 6.79675 23.2442 6.79675C23.2442 6.79675 21.6744 5.21138 21.4651 5.10569C21.3605 5 21.3605 5 21.2558 5L20 31L29 28.9919C29 28.9919 25.8605 7.43089 25.8605 7.21951C25.8605 7.11382 25.6512 7.00813 25.5465 7.00813Z" fill="#5A863E"/>
<path d="M17 12.407L15.8172 15.559C15.8172 15.559 14.8495 15.0665 13.5591 15.0665C11.7312 15.0665 11.6237 16.0515 11.6237 16.347C11.6237 17.726 15.7097 18.317 15.7097 21.666C15.7097 24.3255 13.8817 26 11.4086 26C8.50538 26 7 24.3255 7 24.3255L7.75269 21.9615C7.75269 21.9615 9.25806 23.1435 10.5484 23.1435C11.4086 23.1435 11.7312 22.5525 11.7312 22.06C11.7312 20.1885 8.39785 20.09 8.39785 17.0365C8.39785 14.4755 10.4409 12.013 14.4194 12.013C16.2473 11.9145 17 12.407 17 12.407Z" fill="#FFFFFE"/>
</g>
<defs>
<clipPath id="clip0_1926_117772">
<rect width="32" height="32" rx="8" fill="white"/>
</clipPath>
</defs>
</svg>
