<svg width="32" height="32" viewBox="0 0 32 32" fill="none" xmlns="http://www.w3.org/2000/svg">
<rect width="32" height="32" rx="8" fill="white"/>
<g clip-path="url(#clip0_1924_105752)">
<path d="M12.64 2.40902L12.955 3.68205C11.7158 3.98677 10.5299 4.47717 9.4375 5.13662L8.76375 4.01234C9.96761 3.28556 11.2745 2.74501 12.64 2.40902ZM19.36 2.40902L19.045 3.68205C20.2842 3.98677 21.4701 4.47717 22.5625 5.13662L23.2406 4.01234C22.0354 3.28515 20.727 2.74459 19.36 2.40902ZM4.01249 8.76322C3.28566 9.96699 2.74507 11.2737 2.40905 12.6392L3.68218 12.9541C3.98692 11.7151 4.47737 10.5293 5.13687 9.43692L4.01249 8.76322ZM3.31249 15.9989C3.31207 15.3626 3.3596 14.7272 3.45468 14.0981L2.15749 13.9013C1.9475 15.2918 1.9475 16.706 2.15749 18.0966L3.45468 17.8997C3.3596 17.2706 3.31207 16.6352 3.31249 15.9989ZM23.2363 27.9855L22.5625 26.8612C21.4714 27.5202 20.287 28.0106 19.0494 28.3158L19.3644 29.5888C20.7284 29.2524 22.0338 28.7119 23.2363 27.9855ZM28.6875 15.9989C28.6879 16.6352 28.6404 17.2706 28.5453 17.8997L29.8425 18.0966C30.0525 16.706 30.0525 15.2918 29.8425 13.9013L28.5453 14.0981C28.6404 14.7272 28.6879 15.3626 28.6875 15.9989ZM29.5909 19.3586L28.3178 19.0437C28.0131 20.2827 27.5226 21.4685 26.8631 22.5609L27.9875 23.239C28.7147 22.0338 29.2554 20.7256 29.5909 19.3586ZM17.9009 28.5454C16.6407 28.735 15.3593 28.735 14.0991 28.5454L13.9022 29.8425C15.2928 30.0525 16.7072 30.0525 18.0978 29.8425L17.9009 28.5454ZM26.2134 23.5255C25.4567 24.5503 24.5505 25.4557 23.525 26.2116L24.3038 27.268C25.435 26.4363 26.4349 25.4395 27.27 24.3108L26.2134 23.5255ZM23.525 5.78626C24.5506 6.54276 25.4569 7.44893 26.2134 8.47449L27.27 7.68705C26.4376 6.55899 25.4407 5.56215 24.3125 4.72978L23.525 5.78626ZM5.78656 8.47449C6.54311 7.44893 7.44936 6.54276 8.475 5.78626L7.68749 4.72978C6.55935 5.56215 5.56243 6.55899 4.72999 7.68705L5.78656 8.47449ZM27.9875 8.76322L26.8631 9.43692C27.5222 10.5279 28.0127 11.7122 28.3178 12.9498L29.5909 12.6348C29.2545 11.2709 28.7139 9.96563 27.9875 8.76322ZM14.0991 3.45457C15.3593 3.26498 16.6407 3.26498 17.9009 3.45457L18.0978 2.15748C16.7072 1.94751 15.2928 1.94751 13.9022 2.15748L14.0991 3.45457ZM6.46031 27.6158L3.74999 28.248L4.38218 25.5379L3.10468 25.2382L2.47249 27.9483C2.36897 28.3903 2.50128 28.8545 2.82234 29.1755C3.1434 29.4966 3.60759 29.6289 4.04968 29.5254L6.75781 28.9042L6.46031 27.6158ZM3.37812 24.068L4.65562 24.3654L5.09312 22.4865C4.45543 21.4148 3.97996 20.2546 3.68218 19.0437L2.40905 19.3586C2.69446 20.5185 3.12824 21.6367 3.69968 22.6856L3.37812 24.068ZM9.50312 26.9115L7.62406 27.349L7.92156 28.6264L9.30406 28.3048C10.353 28.8762 11.4713 29.31 12.6312 29.5954L12.9462 28.3223C11.7377 28.021 10.5804 27.5426 9.51187 26.9027L9.50312 26.9115ZM16 4.62478C11.8609 4.62693 8.04958 6.8771 6.04852 10.5001C4.04746 14.1231 4.1725 18.547 6.37499 22.0512L5.28124 26.7168L9.94718 25.6232C14.0398 28.2006 19.3149 27.9084 23.0977 24.8947C26.8805 21.8809 28.3437 16.8048 26.7453 12.2402C25.147 7.6756 20.8367 4.62081 16 4.62478Z" fill="#3A76F0"/>
</g>
<defs>
<clipPath id="clip0_1924_105752">
<rect width="28" height="28" fill="white" transform="translate(2 2)"/>
</clipPath>
</defs>
</svg>
