<svg width="32" height="32" viewBox="0 0 32 32" fill="none" xmlns="http://www.w3.org/2000/svg">
<path d="M27.3993 21.1191C27.2397 20.685 26.9358 20.4526 26.5897 20.2602C26.5245 20.2221 26.4647 20.1916 26.4137 20.1681C26.3104 20.1147 26.2048 20.0631 26.0998 20.0085C25.0209 19.4365 24.1785 18.7149 23.5941 17.8596C23.4282 17.6188 23.2843 17.3635 23.1641 17.0969C23.1142 16.9543 23.1166 16.8734 23.1524 16.7995C23.1879 16.7425 23.2348 16.6936 23.2902 16.6557C23.4756 16.5331 23.6669 16.4087 23.7965 16.3249C24.0277 16.1753 24.2107 16.0567 24.3286 15.9729C24.7716 15.6631 25.0813 15.334 25.2749 14.9661C25.41 14.712 25.4888 14.4318 25.5059 14.1445C25.523 13.8572 25.478 13.5695 25.3741 13.3012C25.0808 12.5291 24.3515 12.0498 23.468 12.0498C23.2816 12.0496 23.0958 12.0693 22.9136 12.1085C22.8649 12.119 22.8162 12.1302 22.7687 12.1425C22.7769 11.6145 22.7652 11.0572 22.7182 10.5086C22.5516 8.58027 21.8764 7.56944 21.1724 6.76336C20.7216 6.25824 20.1905 5.83089 19.6007 5.49851C18.5324 4.88837 17.3209 4.57861 16.0003 4.57861C14.6797 4.57861 13.4741 4.88837 12.4046 5.49851C11.8134 5.83099 11.2813 6.25919 10.83 6.76571C10.126 7.57179 9.45078 8.58437 9.28416 10.511C9.23723 11.0595 9.2255 11.6198 9.23312 12.1449C9.1856 12.1325 9.1375 12.1214 9.0888 12.1108C8.90661 12.0717 8.72076 12.052 8.5344 12.0522C7.6503 12.0522 6.9199 12.5315 6.62774 13.3035C6.52331 13.572 6.4779 13.8598 6.4946 14.1474C6.51131 14.435 6.58973 14.7156 6.72454 14.9702C6.91872 15.3381 7.22848 15.6672 7.67142 15.977C7.78875 16.0591 7.97238 16.1776 8.20352 16.329C8.32848 16.4099 8.51094 16.5284 8.68987 16.6469C8.75247 16.6874 8.80569 16.7408 8.84592 16.8036C8.88347 16.8804 8.88464 16.9631 8.82891 17.1157C8.71037 17.3767 8.56881 17.6266 8.40592 17.8625C7.83451 18.6985 7.0167 19.4072 5.97243 19.9745C5.4192 20.2678 4.84427 20.4638 4.60139 21.1238C4.41835 21.6219 4.53803 22.1886 5.00326 22.6661C5.174 22.8444 5.37203 22.9943 5.58992 23.1102C6.04329 23.3594 6.52538 23.5523 7.0255 23.6846C7.1287 23.7112 7.22668 23.755 7.31531 23.8142C7.48486 23.9627 7.4608 24.1862 7.68667 24.5135C7.80005 24.6827 7.94412 24.8292 8.11142 24.9453C8.58544 25.2727 9.11814 25.2932 9.68251 25.3149C10.1923 25.3343 10.7702 25.3566 11.4302 25.5742C11.7036 25.6646 11.9875 25.8394 12.3166 26.0436C13.1069 26.5293 14.1887 27.194 15.9991 27.194C17.8096 27.194 18.899 26.5258 19.6952 26.0383C20.0219 25.8377 20.3041 25.6646 20.5699 25.5766C21.2299 25.3583 21.8077 25.3366 22.3176 25.3173C22.8819 25.2956 23.4146 25.275 23.8886 24.9477C24.0868 24.8095 24.2519 24.6292 24.3721 24.4197C24.5346 24.1434 24.5305 23.9503 24.683 23.8154C24.7661 23.759 24.8582 23.717 24.9552 23.691C25.4621 23.5583 25.9508 23.3636 26.4101 23.1114C26.6416 22.9872 26.85 22.8241 27.0261 22.6292L27.032 22.6221C27.4685 22.1551 27.5782 21.6049 27.3993 21.1191ZM25.79 21.9838C24.8085 22.5259 24.1562 22.4678 23.6487 22.7946C23.2175 23.0721 23.4727 23.6705 23.1594 23.8864C22.7746 24.1522 21.637 23.8676 20.1674 24.3528C18.9554 24.7535 18.1821 25.9057 16.0021 25.9057C13.822 25.9057 13.067 24.7558 11.835 24.3499C10.3683 23.8647 9.22843 24.1492 8.84299 23.8835C8.5303 23.6676 8.78432 23.0692 8.35371 22.7917C7.84566 22.4649 7.19328 22.523 6.21238 21.9838C5.58758 21.6389 5.94192 21.4253 6.15019 21.3244C9.70539 19.6031 10.2727 16.9455 10.2979 16.7484C10.3284 16.5097 10.3625 16.3219 10.0996 16.079C9.8456 15.8444 8.71862 15.1468 8.40592 14.9286C7.88848 14.5672 7.66086 14.2064 7.82864 13.7629C7.94598 13.4561 8.23227 13.3405 8.53264 13.3405C8.62758 13.3408 8.7222 13.3514 8.81483 13.3722C9.38272 13.4954 9.93419 13.7799 10.2528 13.8567C10.2911 13.8666 10.3305 13.8719 10.3701 13.8726C10.5402 13.8726 10.6001 13.7869 10.5883 13.5922C10.552 12.9709 10.464 11.76 10.5619 10.6283C10.6963 9.07131 11.1979 8.29984 11.7939 7.61755C12.0802 7.2896 13.4254 5.86811 15.998 5.86811C18.5705 5.86811 19.9193 7.28373 20.2056 7.61051C20.8022 8.2928 21.3044 9.06427 21.4376 10.6213C21.5355 11.753 21.451 12.9644 21.4112 13.5851C21.3977 13.7899 21.4593 13.8655 21.6294 13.8655C21.669 13.8649 21.7084 13.8596 21.7467 13.8497C22.0659 13.7729 22.6173 13.4883 23.1852 13.3651C23.2779 13.3444 23.3725 13.3337 23.4674 13.3334C23.7696 13.3334 24.0541 13.4508 24.1714 13.7558C24.3392 14.1994 24.1128 14.5602 23.5947 14.9215C23.282 15.1398 22.155 15.8367 21.901 16.072C21.6376 16.3149 21.6722 16.5026 21.7027 16.7414C21.728 16.9414 22.2947 19.599 25.8505 21.3174C26.0605 21.4224 26.4148 21.6359 25.79 21.9838Z" fill="#121212" stroke="#121212" stroke-linecap="round"/>
</svg>
