<svg width="32" height="32" viewBox="0 0 32 32" fill="none" xmlns="http://www.w3.org/2000/svg">
<g clip-path="url(#clip0_1931_105543)">
<path d="M27.8764 22.4867L23.9145 26.6261C23.8284 26.716 23.7242 26.7877 23.6084 26.8367C23.4926 26.8857 23.3676 26.911 23.2414 26.9109H4.45995C4.37033 26.9109 4.28267 26.8854 4.20773 26.8375C4.13279 26.7896 4.07384 26.7215 4.03812 26.6414C4.0024 26.5613 3.99147 26.4729 4.00666 26.3868C4.02186 26.3008 4.06253 26.2209 4.12366 26.1571L8.08858 22.0177C8.17448 21.9281 8.27834 21.8565 8.39376 21.8075C8.5092 21.7585 8.63371 21.7332 8.75963 21.733H27.5401C27.6297 21.733 27.7173 21.7585 27.7923 21.8063C27.8672 21.8542 27.9261 21.9224 27.962 22.0024C27.9976 22.0825 28.0086 22.171 27.9933 22.257C27.9781 22.3431 27.9375 22.4229 27.8764 22.4867ZM23.9145 14.1513C23.8284 14.0613 23.7242 13.9896 23.6084 13.9406C23.4926 13.8917 23.3676 13.8664 23.2414 13.8665H4.45995C4.37033 13.8665 4.28267 13.892 4.20773 13.9399C4.13279 13.9877 4.07384 14.0559 4.03812 14.136C4.0024 14.216 3.99147 14.3045 4.00666 14.3906C4.02186 14.4766 4.06253 14.5564 4.12366 14.6203L8.08858 18.7596C8.17448 18.8493 8.27834 18.9208 8.39376 18.9698C8.5092 19.0188 8.63371 19.0442 8.75963 19.0444H27.5401C27.6297 19.0444 27.7173 19.0189 27.7923 18.971C27.8672 18.9231 27.9261 18.855 27.962 18.7749C27.9976 18.6949 28.0086 18.6064 27.9933 18.5203C27.9781 18.4343 27.9375 18.3545 27.8764 18.2906L23.9145 14.1513ZM4.45995 11.1779H23.2414C23.3676 11.178 23.4926 11.1528 23.6084 11.1038C23.7242 11.0548 23.8284 10.9831 23.9145 10.8931L27.8764 6.75379C27.9375 6.68996 27.9781 6.61012 27.9933 6.52408C28.0086 6.43804 27.9976 6.34955 27.962 6.26948C27.9261 6.18942 27.8672 6.12126 27.7923 6.07338C27.7173 6.02551 27.6297 6 27.5401 6H8.75963C8.63371 6.00021 8.5092 6.02559 8.39376 6.07458C8.27834 6.12356 8.17448 6.19511 8.08858 6.28479L4.12469 10.4242C4.06361 10.4879 4.02296 10.5677 4.00773 10.6536C3.9925 10.7395 4.00334 10.828 4.03894 10.908C4.07453 10.988 4.13333 11.0562 4.20811 11.1041C4.2829 11.1521 4.37042 11.1777 4.45995 11.1779Z" fill="#121212"/>
</g>
<defs>
<clipPath id="clip0_1931_105543">
<rect width="24" height="20.9109" fill="white" transform="translate(4 6)"/>
</clipPath>
</defs>
</svg>
