<svg width="32" height="32" viewBox="0 0 32 32" fill="none" xmlns="http://www.w3.org/2000/svg">
<rect y="0.000244141" width="32" height="32" rx="5.70302" fill="url(#paint0_linear_1752_95255)"/>
<path d="M5.05089 17.1354C5.00494 17.1354 4.96829 17.1709 4.96248 17.2222L4.80078 18.4511L4.96248 19.6585C4.96306 19.7091 5.00494 19.7447 5.05089 19.7447C5.09567 19.7447 5.13174 19.7097 5.1393 19.6585L5.33066 18.4505L5.1393 17.2216C5.13232 17.1709 5.09567 17.1354 5.05089 17.1354ZM5.95999 16.4642C5.95243 16.4112 5.91463 16.3751 5.86809 16.3751C5.82156 16.3751 5.78259 16.413 5.77619 16.4642C5.77619 16.4642 5.55866 18.4511 5.55866 18.4511L5.77619 20.3938C5.78259 20.4462 5.82098 20.4834 5.86809 20.4834C5.91463 20.4834 5.95243 20.4467 5.95999 20.3943L6.20719 18.4511L5.95999 16.4642ZM9.38354 14.6315C9.29455 14.6315 9.22068 14.7043 9.21661 14.7975L9.04328 18.4528L9.21661 20.8152C9.22126 20.9078 9.29455 20.9806 9.38354 20.9806C9.47195 20.9806 9.54582 20.9078 9.55105 20.8152V20.8153L9.74648 18.4529L9.55105 14.7975C9.54582 14.705 9.47253 14.6316 9.38354 14.6316V14.6315ZM7.61128 15.9019C7.54264 15.9019 7.4868 15.9566 7.48157 16.0294L7.28672 18.4512L7.48157 20.7914C7.4868 20.8642 7.54264 20.9189 7.61128 20.9189C7.67875 20.9189 7.73517 20.8642 7.74098 20.7914L7.96259 18.4512L7.74098 16.0288C7.7404 15.956 7.67933 15.9013 7.61128 15.9013V15.9019ZM11.1843 20.9789C11.2948 20.9789 11.385 20.8898 11.389 20.7757L11.5589 18.4535L11.3896 13.5872C11.385 13.4731 11.2954 13.384 11.1849 13.384C11.0732 13.384 10.9831 13.4737 10.9796 13.5878L10.8289 18.4535L10.9796 20.7769C10.9831 20.8904 11.0732 20.9795 11.1843 20.9795V20.9789ZM14.8707 20.9899C15.0231 20.9899 15.1482 20.8648 15.1511 20.7105V20.7123V20.7105L15.2698 18.4546L15.1511 12.8345C15.1482 12.6808 15.0226 12.555 14.8707 12.555C14.7184 12.555 14.5927 12.6802 14.5904 12.8351L14.4845 18.4535C14.4845 18.457 14.5904 20.7128 14.5904 20.7128C14.5927 20.8654 14.7189 20.9911 14.8707 20.9911V20.9899ZM13.0136 20.9824C13.1462 20.9824 13.2526 20.8758 13.2561 20.7402V20.7419L13.4004 18.4546L13.2561 13.5529C13.2526 13.4172 13.1456 13.3113 13.0136 13.3113C12.8804 13.3113 12.7733 13.4172 12.7704 13.5529L12.6425 18.4546L12.771 20.7414C12.7739 20.8753 12.8804 20.9818 13.0141 20.9818L13.0136 20.9824ZM8.49479 20.9603C8.57331 20.9603 8.63729 20.8974 8.64311 20.8141L8.85192 18.4517L8.64311 16.204C8.64253 16.1208 8.57389 16.0585 8.49479 16.0585C8.4151 16.0585 8.35112 16.1214 8.34647 16.2052L8.16267 18.4517L8.34647 20.8141C8.35171 20.8974 8.4151 20.9603 8.49479 20.9603ZM6.73823 20.831C6.79581 20.831 6.84234 20.7856 6.84874 20.7227L7.08314 18.4512L6.84874 16.094C6.84176 16.0311 6.79523 15.9857 6.73765 15.9857C6.67948 15.9857 6.63295 16.0311 6.62714 16.094L6.42065 18.4512L6.62714 20.7222C6.62772 20.785 6.67948 20.831 6.73765 20.831H6.73823ZM13.9401 13.4708C13.7965 13.4708 13.6813 13.5855 13.6784 13.7316L13.5615 18.4541L13.6784 20.7268C13.6813 20.8712 13.7965 20.9859 13.9401 20.9859C14.0838 20.9859 14.1984 20.8718 14.2019 20.7251V20.7268L14.3333 18.4541L14.2019 13.7304C14.1984 13.5843 14.0838 13.4702 13.9401 13.4702V13.4708ZM10.2822 20.9835C10.3816 20.9835 10.4636 20.9026 10.4683 20.799L10.6509 18.4529L10.4683 13.9615C10.4631 13.8579 10.3816 13.777 10.2822 13.777C10.1821 13.777 10.1001 13.8579 10.0961 13.9615L9.93435 18.4529L10.0961 20.799C10.1001 20.9015 10.1821 20.9824 10.2822 20.9824V20.9835ZM12.3208 20.7612V20.76L12.4779 18.4523L12.3208 13.4219C12.3173 13.2967 12.2185 13.1989 12.0969 13.1989C11.9748 13.1989 11.8765 13.2967 11.873 13.4219L11.734 18.4517L11.8735 20.7606C11.877 20.8846 11.9753 20.9818 12.0975 20.9818C12.219 20.9818 12.3173 20.884 12.3214 20.7594L12.3208 20.7612ZM24.1863 15.5526C23.8141 15.5526 23.4587 15.6283 23.1347 15.7639C22.9183 13.3113 20.864 11.3878 18.3577 11.3878C17.7446 11.3878 17.1467 11.5089 16.6186 11.7132C16.4133 11.7924 16.3586 11.8745 16.3568 12.0334V20.6698C16.3592 20.8363 16.4883 20.9748 16.6506 20.9917C16.6576 20.9918 24.1381 20.9963 24.1863 20.9963C25.6875 20.9963 26.9049 19.7779 26.9049 18.2753C26.9049 16.7722 25.6881 15.5537 24.1863 15.5537V15.5526ZM15.8008 12.0259C15.6374 12.0259 15.5036 12.1598 15.5012 12.3251L15.3785 18.4546L15.5012 20.6791C15.5036 20.8415 15.6374 20.9754 15.8008 20.9754C15.9637 20.9754 16.0974 20.8415 16.1003 20.6767V20.6797L16.2335 18.4546L16.1003 12.3245C16.098 12.1603 15.9637 12.0259 15.8008 12.0259Z" fill="white"/>
<defs>
<linearGradient id="paint0_linear_1752_95255" x1="16.4067" y1="31.7289" x2="15.7287" y2="-0.13509" gradientUnits="userSpaceOnUse">
<stop stop-color="#FF433A"/>
<stop offset="1" stop-color="#FF9436"/>
</linearGradient>
</defs>
</svg>
