<svg width="32" height="32" viewBox="0 0 32 32" fill="none" xmlns="http://www.w3.org/2000/svg">
<path d="M1.33945 16.9757C1.27708 16.9757 1.22735 17.025 1.21946 17.0961L1 18.8014L1.21946 20.4768C1.22025 20.5471 1.27708 20.5964 1.33945 20.5964C1.40023 20.5964 1.44917 20.5479 1.45944 20.4768L1.71915 18.8006L1.45944 17.0952C1.44996 17.025 1.40023 16.9757 1.33945 16.9757V16.9757ZM2.5733 16.0442C2.56303 15.9707 2.51172 15.9207 2.44857 15.9207C2.38542 15.9207 2.33253 15.9732 2.32384 16.0442C2.32384 16.0443 2.0286 18.8014 2.0286 18.8014L2.32384 21.4971C2.33253 21.5698 2.38463 21.6216 2.44857 21.6216C2.51172 21.6216 2.56303 21.5707 2.5733 21.498L2.9088 18.8014L2.5733 16.0442ZM7.21977 13.5012C7.09899 13.5012 6.99874 13.6022 6.99321 13.7314L6.75797 18.8038L6.99321 22.082C6.99953 22.2105 7.09899 22.3114 7.21977 22.3114C7.33976 22.3114 7.44002 22.2105 7.44712 22.082V22.0821L7.71237 18.8039L7.44712 13.7315C7.44002 13.603 7.34055 13.5013 7.21977 13.5013V13.5012ZM4.81444 15.264C4.72129 15.264 4.6455 15.3399 4.6384 15.4409L4.37394 18.8015L4.6384 22.049C4.6455 22.15 4.72129 22.2259 4.81444 22.2259C4.90601 22.2259 4.98258 22.15 4.99047 22.049L5.29124 18.8015L4.99047 15.4401C4.98969 15.3391 4.9068 15.2632 4.81444 15.2632V15.264ZM9.66379 22.3091C9.81378 22.3091 9.93614 22.1855 9.94166 22.0272L10.1722 18.8047L9.94245 12.052C9.93614 11.8937 9.81457 11.7701 9.66458 11.7701C9.51301 11.7701 9.39065 11.8945 9.38592 12.0528L9.18146 18.8047L9.38592 22.0288C9.39065 22.1863 9.51301 22.3099 9.66379 22.3099V22.3091ZM14.6671 22.3244C14.8739 22.3244 15.0436 22.1508 15.0476 21.9367V21.9391V21.9367L15.2086 18.8063L15.0476 11.0075C15.0436 10.7942 14.8731 10.6197 14.6671 10.6197C14.4603 10.6197 14.2897 10.7934 14.2866 11.0083L14.1429 18.8047C14.1429 18.8096 14.2866 21.9399 14.2866 21.9399C14.2897 22.1516 14.461 22.3261 14.6671 22.3261V22.3244ZM12.1465 22.3139C12.3265 22.3139 12.4709 22.1661 12.4757 21.9779V21.9803L12.6714 18.8063L12.4757 12.0043C12.4709 11.8161 12.3257 11.6691 12.1465 11.6691C11.9657 11.6691 11.8205 11.8161 11.8165 12.0043L11.6428 18.8063L11.8173 21.9795C11.8213 22.1653 11.9657 22.3131 12.1473 22.3131L12.1465 22.3139ZM6.01355 22.2832C6.12012 22.2832 6.20696 22.196 6.21485 22.0805L6.49825 18.8023L6.21485 15.6832C6.21406 15.5677 6.12091 15.4813 6.01355 15.4813C5.9054 15.4813 5.81857 15.5685 5.81225 15.6848L5.5628 18.8023L5.81225 22.0805C5.81936 22.196 5.9054 22.2832 6.01355 22.2832V22.2832ZM3.62953 22.1039C3.70768 22.1039 3.77083 22.0409 3.77952 21.9537L4.09765 18.8015L3.77952 15.5305C3.77004 15.4433 3.70689 15.3803 3.62874 15.3803C3.5498 15.3803 3.48665 15.4433 3.47875 15.5305L3.19851 18.8015L3.47875 21.9528C3.47954 22.0401 3.5498 22.1039 3.62874 22.1039H3.62953ZM13.404 11.8904C13.209 11.8904 13.0527 12.0496 13.0488 12.2523L12.8901 18.8055L13.0488 21.9593C13.0527 22.1597 13.209 22.3188 13.404 22.3188C13.599 22.3188 13.7545 22.1605 13.7593 21.9569V21.9593L13.9377 18.8055L13.7593 12.2507C13.7545 12.048 13.599 11.8896 13.404 11.8896V11.8904ZM8.43941 22.3156C8.5744 22.3156 8.68571 22.2033 8.69203 22.0595L8.9399 18.8039L8.69203 12.5714C8.68492 12.4276 8.5744 12.3154 8.43941 12.3154C8.30363 12.3154 8.19233 12.4276 8.1868 12.5714L7.96735 18.8039L8.1868 22.0595C8.19233 22.2017 8.30363 22.3139 8.43941 22.3139V22.3156ZM11.2063 22.007V22.0054L11.4194 18.8031L11.2063 11.8226C11.2016 11.6489 11.0674 11.5132 10.9024 11.5132C10.7366 11.5132 10.6032 11.6489 10.5985 11.8226L10.4098 18.8023L10.5992 22.0062C10.604 22.1782 10.7374 22.3131 10.9032 22.3131C11.0682 22.3131 11.2016 22.1774 11.2071 22.0045L11.2063 22.007ZM27.3103 14.7793C26.8051 14.7793 26.3227 14.8843 25.883 15.0725C25.5894 11.6691 22.8012 9 19.3996 9C18.5676 9 17.756 9.16803 17.0393 9.45158C16.7606 9.56145 16.6864 9.67535 16.684 9.89589V21.8801C16.6872 22.1112 16.8624 22.3034 17.0827 22.3269C17.0922 22.327 27.2448 22.3333 27.3103 22.3333C29.3478 22.3333 31 20.6425 31 18.5575C31 16.4717 29.3486 14.7809 27.3103 14.7809V14.7793ZM15.9293 9.88539C15.7075 9.88539 15.526 10.0712 15.5228 10.3006L15.3562 18.8063L15.5228 21.8931C15.526 22.1185 15.7075 22.3043 15.9293 22.3043C16.1504 22.3043 16.3319 22.1185 16.3359 21.8898V21.8939L16.5167 18.8063L16.3359 10.2998C16.3327 10.072 16.1504 9.88539 15.9293 9.88539" fill="white"/>
</svg>
