<svg width="32" height="32" viewBox="0 0 32 32" fill="none" xmlns="http://www.w3.org/2000/svg">
<g clip-path="url(#clip0_1752_95157)">
<rect width="32" height="32" rx="5.70302" fill="#10BC4C"/>
<path d="M24.0096 8.03418H8V24.058H24.0096V8.03418Z" fill="#10BC4C"/>
<path fill-rule="evenodd" clip-rule="evenodd" d="M16.0048 8.03418C11.6022 8.03418 8 11.6395 8 16.0461C8 20.4526 11.6022 24.058 16.0048 24.058C20.4074 24.058 24.0096 20.4526 24.0096 16.0461C24.0096 11.6395 20.4475 8.03418 16.0048 8.03418ZM19.687 19.6114C19.5269 19.8518 19.2467 19.9319 19.0066 19.7716C17.1255 18.6099 14.7641 18.3696 11.9624 19.0105C11.6822 19.0906 11.4421 18.8903 11.362 18.65C11.282 18.3696 11.4821 18.1292 11.7222 18.0491C14.7641 17.3681 17.4056 17.6485 19.4869 18.9304C19.7671 19.0506 19.8071 19.371 19.687 19.6114ZM20.6476 17.4081C20.4475 17.6885 20.0872 17.8087 19.8071 17.6084C17.6458 16.2865 14.3638 15.8859 11.8423 16.687C11.5221 16.7672 11.1619 16.6069 11.0818 16.2865C11.0018 15.966 11.1619 15.6054 11.4821 15.5253C14.4038 14.644 18.006 15.0847 20.4875 16.6069C20.7276 16.7271 20.8477 17.1277 20.6476 17.4081ZM20.7276 15.1648C18.1661 13.6425 13.8835 13.4823 11.4421 14.2434C11.0418 14.3636 10.6416 14.1232 10.5215 13.7627C10.4014 13.3621 10.6416 12.9615 11.0018 12.8413C13.8435 12.0001 18.5263 12.1603 21.4881 13.9229C21.8483 14.1232 21.9684 14.604 21.7683 14.9645C21.5681 15.2449 21.0878 15.3651 20.7276 15.1648Z" fill="white"/>
</g>
<defs>
<clipPath id="clip0_1752_95157">
<rect width="32" height="32" rx="8" fill="white"/>
</clipPath>
</defs>
</svg>
