<svg width="32" height="32" viewBox="0 0 32 32" fill="none" xmlns="http://www.w3.org/2000/svg">
<path d="M16 2C8.25269 2 2 8.25269 2 16C2 23.7473 8.25269 30 16 30C23.7473 30 30 23.7473 30 16C30 8.25269 23.7473 2 16 2ZM16 3.22876C23.0888 3.22876 28.7712 8.91118 28.7712 16C28.7712 23.0888 23.0888 28.7712 16 28.7712C8.91118 28.7712 3.22876 23.0888 3.22876 16C3.22876 8.91118 8.91118 3.22876 16 3.22876ZM14.1343 9.30719C10.5246 9.30719 7.80823 9.93233 7.67558 9.96316H7.67439V9.96435C6.70036 10.1918 6.08609 11.1808 6.31254 12.1545C6.53897 13.1291 7.52783 13.7418 8.50149 13.5187H8.50624L8.5098 13.5175C8.44068 13.5344 8.54012 13.5103 8.61319 13.4949C8.68626 13.4796 8.79414 13.4583 8.93405 13.432C9.21385 13.3792 9.62005 13.3085 10.126 13.2383C11.1378 13.0978 12.5476 12.9578 14.1343 12.9578H14.1723C16.7964 12.9614 20.5672 13.3641 23.5936 15.1408H23.5948V15.142C23.8822 15.3096 24.2027 15.3916 24.5169 15.3916C25.143 15.3916 25.7549 15.0646 26.0927 14.4896C26.5992 13.627 26.3057 12.4988 25.4427 11.9917C21.6441 9.76155 17.2223 9.31154 14.1771 9.30719H14.1343ZM14.1343 10.5241H14.1771C17.1006 10.5283 21.3249 10.9855 24.8259 13.041C25.1226 13.2153 25.2171 13.5782 25.0434 13.874C24.9272 14.0718 24.7256 14.1747 24.5169 14.1747C24.4134 14.1747 24.3103 14.1492 24.2103 14.0915L24.208 14.0903C20.8755 12.1349 16.9152 11.7447 14.1735 11.7409H14.1343C12.4762 11.7409 11.0146 11.8868 9.9596 12.0333C9.43208 12.1065 9.00541 12.1793 8.70826 12.2353C8.55969 12.2633 8.44348 12.2872 8.36245 12.3042C8.28629 12.3202 8.29175 12.3179 8.23054 12.3327C7.8924 12.4102 7.57511 12.2136 7.49733 11.8788C7.41963 11.5447 7.61662 11.2276 7.95009 11.1491C8.04256 11.1276 10.6654 10.5241 14.1343 10.5241ZM14.1699 14.1759C12.645 14.1886 11.3284 14.3311 10.3672 14.4777C9.406 14.6243 8.86002 14.7568 8.68449 14.8069C7.81366 15.0538 7.29757 15.9768 7.54486 16.8485C7.79294 17.7211 8.71569 18.2346 9.58645 17.9869L9.59002 17.9857H9.59239C9.60818 17.982 9.63283 17.9763 9.66488 17.9691C9.72899 17.9548 9.82358 17.9353 9.94534 17.9109C10.1888 17.8619 10.5399 17.7958 10.9745 17.7302C11.8435 17.599 13.0445 17.4664 14.3708 17.4545C16.7213 17.4338 19.3876 17.7792 21.9893 19.3999C22.2606 19.5702 22.5667 19.6518 22.8639 19.6518C23.415 19.6518 23.957 19.3724 24.2686 18.8734C24.7481 18.1044 24.5092 17.0742 23.7397 16.5954C20.4635 14.5542 16.9496 14.1528 14.1699 14.1759ZM14.1806 15.3916C16.8343 15.3696 20.0916 15.7557 23.0969 17.628C23.307 17.7588 23.3672 18.0188 23.2359 18.2294C23.1508 18.3656 23.0101 18.4349 22.8639 18.4349C22.7839 18.4349 22.7076 18.4147 22.6358 18.3696L22.6346 18.3684C19.7802 16.5898 16.8401 16.2158 14.3601 16.2377C12.9593 16.2502 11.7049 16.3899 10.7926 16.5276C10.3365 16.5965 9.96631 16.6653 9.70529 16.7178C9.57478 16.744 9.47159 16.7656 9.39869 16.7819C9.36224 16.7901 9.33351 16.797 9.31194 16.8021C9.29037 16.8072 9.32437 16.7962 9.24777 16.8188L9.25371 16.8164C9.02077 16.8827 8.78248 16.7517 8.71539 16.5157C8.6476 16.2768 8.77767 16.0449 9.01604 15.9774H9.01723C9.01024 15.9794 9.63621 15.8197 10.5502 15.6803C11.4642 15.541 12.7261 15.4037 14.1806 15.3916ZM14.4789 18.4349C11.8268 18.4355 9.86348 19.0802 9.73856 19.1218C8.94821 19.3848 8.51384 20.2557 8.77718 21.0458C9.04063 21.8361 9.91158 22.2746 10.7035 22.0059L10.694 22.0095C10.755 21.9899 10.791 21.9772 10.9756 21.9275C11.1602 21.8779 11.4317 21.8113 11.7706 21.7445C12.4485 21.6108 13.3989 21.4774 14.4789 21.4771C17.1177 21.4765 18.9199 22.1084 20.328 23.0469V23.0458C20.5858 23.218 20.8816 23.3024 21.1705 23.3024C21.6613 23.3024 22.1469 23.06 22.4373 22.6239C22.8988 21.9311 22.7079 20.9781 22.0154 20.5157C19.7976 19.0374 17.3021 18.4337 14.4789 18.4349ZM14.4789 19.6518C17.1316 19.6507 19.3431 20.1968 21.3405 21.5282C21.4854 21.6259 21.5216 21.8049 21.4248 21.9501C21.3635 22.0421 21.2699 22.0856 21.1705 22.0856C21.1114 22.0856 21.0567 22.0703 21.003 22.0345V22.0333C19.4005 20.9652 17.3161 20.2596 14.4789 20.2602C13.2992 20.2606 12.2737 20.4046 11.5354 20.5502C11.1662 20.623 10.868 20.6962 10.6595 20.7522C10.4511 20.8083 10.2696 20.8677 10.322 20.8509L10.3173 20.852L10.3125 20.8532C10.1504 20.9082 9.98645 20.8268 9.93108 20.6607C9.8757 20.4946 9.95806 20.3307 10.1236 20.2757C10.1593 20.2638 12.0262 19.6524 14.4789 19.6518Z" fill="white"/>
</svg>
