<svg width="22" height="20" viewBox="0 0 22 20" fill="none" xmlns="http://www.w3.org/2000/svg">
<path fill-rule="evenodd" clip-rule="evenodd" d="M8.40087 2.00083C9.55535 -0.000277221 12.4435 -0.000277936 13.598 2.00083L20.9523 14.7483C22.1062 16.7483 20.6627 19.2475 18.3538 19.2475H3.6451C1.33612 19.2475 -0.107305 16.7483 1.04654 14.7483L8.40087 2.00083ZM10.9996 7.24744C11.4138 7.24744 11.7496 7.58322 11.7496 7.99744V11.7474C11.7496 12.1616 11.4138 12.4974 10.9996 12.4974C10.5854 12.4974 10.2496 12.1616 10.2496 11.7474V7.99744C10.2496 7.58322 10.5854 7.24744 10.9996 7.24744ZM10.9996 15.4974C11.4138 15.4974 11.7496 15.1616 11.7496 14.7474C11.7496 14.3332 11.4138 13.9974 10.9996 13.9974C10.5854 13.9974 10.2496 14.3332 10.2496 14.7474C10.2496 15.1616 10.5854 15.4974 10.9996 15.4974Z" fill="#CF2828"/>
</svg>
