<svg id="Layer_1" data-name="Layer 1" xmlns="http://www.w3.org/2000/svg" xmlns:xlink="http://www.w3.org/1999/xlink" viewBox="0 0 2290.02 1129.21"><defs><style>.cls-1{fill:url(#linear-gradient);}.cls-2{fill:url(#linear-gradient-2);}.cls-3{fill:url(#linear-gradient-3);}.cls-4{fill:url(#linear-gradient-4);}.cls-5{fill:#333;}</style><linearGradient id="linear-gradient" x1="-221.66" y1="395.73" x2="2291.86" y2="1181.51" gradientUnits="userSpaceOnUse"><stop offset="0" stop-color="#e40849"/><stop offset="1" stop-color="#fb6609"/></linearGradient><linearGradient id="linear-gradient-2" x1="-146.7" y1="155.93" x2="2366.83" y2="941.7" xlink:href="#linear-gradient"/><linearGradient id="linear-gradient-3" x1="-83.78" y1="-45.33" x2="2429.75" y2="740.44" xlink:href="#linear-gradient"/><linearGradient id="linear-gradient-4" x1="-8.64" y1="-285.68" x2="2504.89" y2="500.09" xlink:href="#linear-gradient"/></defs><path class="cls-1" d="M640.45,274.35q-57.45-5.6-120-9.32c-41.69-2.71-89.82-3.9-144.38-3.9q-102.69,0-163.53,34.23-61,34.32-87.95,101.68-27.2,67.6-27.11,167.08,0,126.07,56.43,188.44,56.43,62.54,154.71,62.53c39.15,0,72.19-7.46,99.64-22.2q40.68-22.11,55.25-66.26h3.22V976.92a33.89,33.89,0,0,0,33.89,33.89H609.78a33.89,33.89,0,0,0,33.89-33.89V276.55Zm-173.69,271c0,42.71-9.32,73.38-28.13,91.68-18.81,18.47-42.87,27.62-72.36,27.62-38.47,0-64.06-10.34-76.93-31.35Q270,601.49,270,537.52q0-69.64,25.92-97.78t86.77-28.3c13.38,0,27.45.51,42.7,1.7,15.08,1.18,28.81,2.37,41.35,3.89Z"/><path class="cls-2" d="M1095.31,266.56a33.76,33.76,0,0,0-32.8,25.16q-19.63,75.69-37,161.75Q1004.87,554.12,988.35,647h-4.41q-16.52-92.79-37.11-193.52-17.4-86.13-36.93-161.68a33.75,33.75,0,0,0-32.81-25.23H704.17v2.2l165.9,536.33h221.14l175.73-535.15v-3.38Z"/><path class="cls-3" d="M2189.12,274.35q-57.45-5.6-120-9.32c-41.52-2.71-89.65-3.9-144.21-3.9q-102.95,0-163.7,34.23t-88,101.68c-18,45.07-27.11,100.66-27.11,167.08q0,126.07,56.43,188.44Q1759,815.1,1857.5,815.09q58.45,0,99.47-22.2t55.24-66.26h3.39V976.92a33.89,33.89,0,0,0,33.89,33.89h109.13a33.89,33.89,0,0,0,33.89-33.89V276.55Zm-173.52,271c0,42.71-9.32,73.38-28.13,91.68-18.81,18.47-43,27.62-72.53,27.62-38.3,0-63.88-10.34-76.76-31.35-12.88-21.18-19.49-53-19.49-95.74,0-46.43,8.81-79,26.1-97.78s46.26-28.3,86.76-28.3c13.22,0,27.45.51,42.53,1.7s29,2.37,41.52,3.89Z"/><circle class="cls-4" cx="1474.86" cy="178.09" r="88.47"/><path class="cls-5" d="M1297.65,868.87l92.95-195a3.09,3.09,0,0,0-2.79-4.42H1276.27A15.59,15.59,0,0,1,1261.48,649l107-319.56a9.33,9.33,0,0,1,13.88-4.89,173.09,173.09,0,0,0,92.55,26.75,171,171,0,0,0,50.15-7.49c8.5-2.6,15.57,6.76,10.61,14.12l-111.4,165.3a3.09,3.09,0,0,0,2.56,4.82h124.88a15.59,15.59,0,0,1,12.28,25.2L1310.74,877C1305,884.27,1293.66,877.22,1297.65,868.87Z"/></svg>