<svg width="32" height="32" viewBox="0 0 32 32" fill="none" xmlns="http://www.w3.org/2000/svg">
<rect width="32" height="32" rx="8" fill="#50AF95"/>
<path fill-rule="evenodd" clip-rule="evenodd" d="M18.2386 16.8933C18.1136 16.9026 17.4677 16.9412 16.027 16.9412C14.8811 16.9412 14.0676 16.9068 13.7821 16.8933C9.3538 16.6985 6.04844 15.9276 6.04844 15.0046C6.04844 14.0817 9.3538 13.3118 13.7821 13.1139V16.1255C14.0717 16.1463 14.9009 16.1953 16.0468 16.1953C17.4219 16.1953 18.1105 16.138 18.2344 16.1265V13.116C22.6534 13.3129 25.9515 14.0837 25.9515 15.0046C25.9515 15.9255 22.6544 16.6964 18.2344 16.8922L18.2386 16.8933ZM18.2381 12.8045V10.1096H24.4051V6H7.61471V10.1096H13.7806V12.8034C8.76893 13.0337 5 14.0264 5 15.2161C5 16.4057 8.76893 17.3974 13.7806 17.6287V26.2645H18.2371V17.6256C23.2373 17.3953 27 16.4036 27 15.215C27 14.0264 23.2404 13.0347 18.2371 12.8034L18.2381 12.8045Z" fill="white"/>
</svg>
