<svg width="225" height="226" viewBox="0 0 225 226" fill="none" xmlns="http://www.w3.org/2000/svg">
<g clip-path="url(#clip0_80_6053)">
<rect width="225" height="225" rx="50" fill="#121212"/>
<path d="M99.9883 173.74C117.484 176.939 133.923 176.494 147.977 164.503C155.499 158.084 159.263 149.947 158.255 139.803C157.506 132.259 153.606 126.876 147.127 122.374C146.363 125.239 145.736 127.868 144.962 130.453C138.891 150.71 117.215 159.637 98.6277 149.522C90.1456 144.906 85.7453 137.802 85.8022 128.05C85.8571 118.64 90.425 111.995 98.4382 107.512C107.88 102.23 118.124 102.097 128.507 102.987C130.139 103.127 131.764 103.348 133.64 103.559C132.352 95.7285 129.045 90.0885 121.146 88.2375C112.206 86.1424 104.342 87.6218 98.0527 95.5076C94.5933 93.1118 91.0954 90.6893 87.3732 88.1116C96.04 75.8885 107.937 72.7031 121.709 74.62C133.676 76.2859 143.49 84.9319 145.63 97.5358C146.856 104.751 150.022 108.621 155.906 112.605C175.535 125.895 177.065 153.387 159.865 171.448C147.272 184.673 131.325 188.872 113.701 188.727C74.0809 188.399 53.9847 162.89 49.9984 128.198C48.3273 113.655 48.9349 99.3178 52.9015 85.1802C61.4308 54.7797 83.9984 38.4614 115.7 39.2573C137.632 39.8079 156.151 46.9613 168.565 65.8446C172.588 71.9649 175.184 79.0237 178.718 86.234C173.746 87.5997 169.796 88.6847 165.411 89.8894C164.461 87.2873 163.65 84.8205 162.673 82.4214C152.695 57.9332 130.477 50.7027 107.806 52.9341C77.5897 55.908 66.4678 75.6296 63.1368 100.105C61.0035 115.78 61.996 131.308 67.8508 146.243C73.6109 160.937 84.1184 170.166 99.9883 173.74ZM110.932 139.643C125.944 140.906 134.492 132.628 133.588 116.329C127.461 116.329 121.2 115.893 115.038 116.486C111.082 116.867 106.835 118.057 103.487 120.128C96.7558 124.293 97.2408 133.276 104.063 137.317C105.869 138.386 108.05 138.82 110.932 139.643Z" fill="#FAFAFA"/>
</g>
<defs>
<clipPath id="clip0_80_6053">
<rect width="225" height="225" fill="white" transform="translate(0 0.5)"/>
</clipPath>
</defs>
</svg>
