<svg width="300" height="300" viewBox="0 0 300 300" fill="none" xmlns="http://www.w3.org/2000/svg">
<g clip-path="url(#clip0_80_10075)">
<path d="M40.833 149.001C40.8692 146.959 40.9054 144.916 40.8877 142.439C41.199 139.601 41.5642 137.199 41.8868 134.393C41.9279 130.597 42.0118 127.204 42.0891 123.438C42.0826 123.066 42.0524 123.018 42.2591 122.942C42.7669 122.663 42.8932 122.381 42.8448 122.02C43.2096 119.617 43.5744 117.214 43.8874 114.399C45.8914 106.604 47.9472 99.2206 50.0392 91.448C50.0754 91.0588 50.0355 91.0151 50.2377 90.9379C50.7277 90.6659 50.859 90.3953 50.8339 90.0488C53.207 84.9555 55.5802 79.8623 58.0132 74.4132C58.0731 74.0574 58.0344 74.014 58.2373 73.9341C58.7271 73.6571 58.8594 73.3848 58.837 73.0373C62.4827 67.8973 66.1283 62.7572 69.946 57.3232C84.998 39.5681 104.385 30.0765 126.408 25.3229C129.08 24.7459 131.881 24.7609 134.824 24.3115C144.183 23.9639 153.34 23.8064 162.768 23.3818C166.083 23.7218 169.127 24.3287 172.578 24.8821C179.884 26.2329 186.809 27.5221 193.664 29.1143C195.636 29.5723 197.404 30.904 199.927 31.9116C202.013 32.3378 203.437 32.6875 205.079 33.3145C210.16 36.4042 215.025 39.2166 220.098 42.2956C224.524 45.7482 228.742 48.9342 233.114 52.4203C235.133 54.8267 236.997 56.933 239.03 59.3406C240.817 62.101 242.436 64.56 244.19 67.3205C246.203 70.0938 248.081 72.5656 249.958 75.0373C251.09 77.5822 252.222 80.1271 253.617 82.8506C254.731 85.2196 255.582 87.41 256.707 89.8189C258.016 93.4373 259.052 96.8372 260.176 100.618C258.651 102.026 257.153 103.383 255.395 104.011C251.924 105.25 248.308 106.086 244.031 107.262C238.179 107.458 239.337 102.758 237.816 99.738C237.162 97.931 236.485 96.4741 235.828 94.6592C234.495 91.5332 233.143 88.765 231.711 85.6699C229.749 82.6349 227.866 79.9269 225.713 76.9966C223.307 74.1312 221.171 71.4879 218.876 68.5538C216.473 66.2407 214.228 64.2186 211.715 62.0263C210.295 60.9847 209.143 60.1133 207.708 59.0667C206.312 58.2377 205.198 57.5838 204.053 56.9415C204.021 56.953 204.083 56.9808 203.977 56.7686C203.675 56.2649 203.402 56.1335 202.823 56.1005C202.593 56.0387 202.123 55.9635 202.001 55.7579C201.673 55.2673 201.395 55.1391 200.815 55.1083C200.586 55.0488 200.119 54.9738 200 54.7655C199.677 54.2686 199.399 54.1377 198.755 54.0229C197.68 53.5732 196.894 53.265 195.864 52.6802C190.765 50.9082 185.913 49.4128 181.04 47.9416C181.019 47.9657 181.08 47.9829 180.976 47.7749C180.682 47.2805 180.416 47.1494 179.665 47.109C174.818 46.4178 170.38 45.7913 165.561 45.1026C163.436 44.7482 161.691 44.456 159.72 44.1352C159.495 44.1067 159.044 44.1668 158.703 44.1247C157.905 44.1107 157.449 44.1388 156.538 44.1126C152.729 44.094 149.376 44.1296 145.649 44.1141C144.525 44.0984 143.775 44.1337 142.637 44.2726C132.65 46.5884 122.702 47.8541 113.531 51.2318C99.3277 56.4633 87.5705 65.4356 79.605 79.1461C76.8541 84.1841 74.3901 89.0401 71.713 94.0304C71.3869 94.4699 71.2739 94.7749 71.0999 95.2812C71.0389 95.4826 70.9573 95.8954 70.6985 96.1006C69.681 98.8947 68.9223 101.484 67.9689 104.4C66.4896 110.164 65.205 115.602 63.9324 121.424C63.3506 126.53 62.7569 131.253 62.0802 136.334C62.0536 140.131 62.11 143.568 62.1069 147.371C62.0921 149.826 62.1369 151.915 62.1347 154.342C62.1191 155.13 62.1504 155.582 62.1455 156.265C62.1092 156.497 62.1712 156.962 62.1144 157.364C62.0966 158.848 62.1355 159.93 62.1256 161.251C62.0768 161.491 62.1425 161.975 62.0988 162.318C62.0906 163.119 62.1261 163.577 62.1069 164.446C62.4271 167.253 62.802 169.648 63.1137 172.397C63.686 176.854 64.3216 180.955 64.9277 185.286C64.947 186.017 64.9957 186.519 65.0673 187.313C65.3848 188.081 65.6795 188.557 65.9852 189.023C65.9962 189.012 65.9664 189.028 65.9847 189.374C67.0258 193.801 68.0487 197.882 68.9258 202.188C70.5129 205.953 72.2456 209.494 74.1127 213.359C75.2526 215.779 76.2581 217.874 77.3411 220.287C79.2778 223.062 81.137 225.519 83.1367 228.275C85.1469 230.397 87.0167 232.222 89.0382 234.335C90.75 236.092 92.3099 237.562 93.9732 239.365C97.3709 241.835 100.665 243.972 104.154 246.391C106.886 247.82 109.423 248.967 112.082 250.374C113.808 251.363 115.413 252.092 117.364 252.888C118.827 253.248 119.943 253.541 121.395 254.036C124.461 254.856 127.192 255.475 130.162 256.327C134.273 256.982 138.147 257.404 142.463 257.882C150.284 257.656 157.661 257.374 165.479 257.053C188.551 255.528 207.174 246.473 220.975 227.663C223.381 222.238 225.601 217.113 228.023 211.623C228.428 208.172 228.633 205.085 228.897 201.584C228.917 199.78 228.879 198.39 228.892 196.657C228.912 195.854 228.881 195.394 228.902 194.535C228.551 191.789 228.149 189.443 227.686 186.795C227.12 185.642 226.615 184.792 226.065 183.581C224.366 180.455 222.712 177.689 220.897 174.628C216.645 170.697 212.553 167.063 208.227 163.221C206.234 171.093 204.603 177.538 202.711 184.218C200.944 187.954 199.438 191.453 197.956 194.973C197.981 194.993 197.984 194.93 197.741 195.033C197.291 195.414 197.083 195.692 196.596 196.16C193.536 199.557 190.757 202.764 187.665 206.106C180.818 211.786 173.137 214.98 164.667 217.133C163.884 217.376 163.4 217.662 162.951 217.959C162.985 217.969 162.951 217.906 162.534 217.94C160.728 218.039 159.337 218.103 157.494 218.109C150.687 217.423 144.332 216.796 137.607 216.089C132.822 214.394 128.408 212.779 123.701 210.968C121.047 208.889 118.685 207.005 116.172 204.893C115.048 203.763 114.075 202.86 113.009 201.618C110.958 198.181 109.001 195.083 106.89 191.64C105.832 188.184 104.928 185.073 104.012 181.515C103.944 178.381 103.887 175.694 103.897 172.609C104.321 169.82 104.678 167.429 105.309 164.809C107.765 160.067 109.947 155.554 112.419 150.885C124.225 138.659 138.594 133.376 155.283 133.151C165.955 133.358 176.346 133.358 187.095 133.358C185.696 126.376 184.414 119.777 178.901 114.604C176.833 112.519 174.92 110.728 172.77 108.659C169.7 107.54 166.866 106.7 163.762 105.578C160.658 104.914 157.823 104.534 154.543 104.1C142.942 103.732 133.22 107.074 125.936 115.798C123.954 118.171 122.734 116.83 120.929 115.666C117.854 113.557 114.955 111.742 111.851 109.657C109.12 107.978 106.78 106.49 109.299 102.926C113.091 99.499 116.357 95.9355 120.131 93.0318C127.732 87.1844 136.893 85.0852 146.414 83.1129C150.867 83.0123 154.957 82.9288 159.424 82.9367C162.536 83.6306 165.27 84.233 168.373 84.899C170.18 85.2551 171.62 85.5477 173.372 86.0175C177.127 87.7414 180.569 89.288 184.304 91.0074C187.061 93.1379 189.524 95.0959 192.159 97.3389C194.527 100.425 196.724 103.226 199.031 106.294C200.414 108.721 201.688 110.88 202.986 113.398C203.437 114.857 203.865 115.956 204.272 117.429C205.286 121.818 206.321 125.834 207.356 129.85C207.659 132.346 207.963 134.842 208.248 137.673C208.94 139.295 209.34 141.046 210.425 141.773C212.861 143.406 215.637 144.53 218.628 145.845C220.855 147.294 222.728 148.761 224.813 150.097C226.139 150.902 227.254 151.838 228.658 152.9C231.058 155.262 233.17 157.496 235.575 159.88C237.39 161.974 238.913 163.917 240.699 165.987C241.811 167.96 242.659 169.805 243.775 171.87C244.987 174.507 245.931 176.926 247.021 179.674C247.783 182.426 248.398 184.848 249.097 187.648C249.471 193.047 249.763 198.068 250.116 203.549C250.115 206.017 250.051 208.025 249.975 210.462C248.975 214.641 247.988 218.391 246.979 222.517C245.399 226.347 243.841 229.8 242.124 233.569C235.714 241.381 229.461 248.876 223.051 256.669C222.34 257.111 221.787 257.255 220.84 257.792C219.953 258.777 219.46 259.369 218.966 259.962C218.966 259.962 218.991 260.001 218.738 260.071C218.285 260.418 218.084 260.696 217.884 260.974C208.49 265.383 199.109 269.818 189.688 274.169C188.379 274.773 186.876 274.956 185.23 275.624C175.904 276.958 166.813 278.002 157.328 279.104C155.941 279.204 154.948 279.246 153.45 279.275C150.317 279.232 147.688 279.202 145.058 279.172C143.976 279.13 142.893 279.088 141.408 279.107C136.279 278.461 131.552 277.753 126.41 277.108C122.268 276.114 118.542 275.057 114.425 273.946C111.267 273.041 108.5 272.19 105.06 271.084C101.942 269.515 99.4971 268.2 96.8549 266.603C94.138 264.856 91.6185 263.392 88.9068 261.65C85.8284 259.244 82.9423 257.116 79.8832 254.712C78.1809 253.279 76.6517 252.121 74.9604 250.666C72.5699 248.231 70.3415 246.092 68.0514 243.606C66.5826 241.171 65.1754 239.082 63.6844 236.674C61.9851 233.892 60.3695 231.428 58.6702 228.636C56.7384 224.862 54.8904 221.416 53.0424 217.97C52.5549 216.453 52.0674 214.935 51.3113 213.2C49.9998 209.571 48.9571 206.16 47.8221 202.364C47.1206 199.848 46.5112 197.717 45.835 194.951C45.5223 193.859 45.2764 193.4 45.0304 192.942C45.0304 192.942 44.9592 192.468 44.8942 192.237C44.5274 189.942 44.2256 187.877 43.8388 185.424C43.3784 181.867 43.003 178.698 42.3504 175.242C41.9277 171.49 41.7822 168.026 41.3528 164.26C41.0286 160.941 40.9884 157.924 40.9473 154.042C40.9086 151.785 40.8708 150.393 40.833 149.001ZM186.549 165.647C186.635 164.777 186.721 163.906 186.821 162.56C186.69 162.241 186.457 162.041 186.312 161.286C186.918 159.834 187.523 158.382 188.589 155.825C183.511 155.224 179.232 154.717 174.029 154.079C164.446 154.409 154.688 153.718 145.322 155.321C132.856 157.455 122.954 165.087 124.631 180.45C126.568 184.655 127.668 189.515 133.3 191.695C135.855 192.805 138.411 193.914 141.511 195.599C143.273 195.978 145.017 196.52 146.799 196.711C162.667 198.415 177.512 193.695 183.609 176.556C184.414 173.059 185.22 169.562 186.549 165.647Z" fill="white"/>
<path d="M1 90C1 86.6387 1 83.2774 1.21233 79.1815C2.80822 76.957 3.96518 75.1079 5.62722 74.0594C8.27249 72.3908 11.2981 71.3394 14.0872 69.8821C41.6186 55.4963 69.1461 41.1027 96.6478 26.6603C105.175 22.1825 113.66 17.6227 122.089 12.9638C129.117 9.07956 136.034 4.99553 143 1C152.021 1 161.042 1 170.413 1.32011C169.831 2.28001 168.953 3.02438 167.958 3.54327C158.821 8.30505 149.563 12.847 140.584 17.8865C138.288 19.1752 136.855 22.0018 134.824 24.3118C131.881 24.7612 129.081 24.7462 126.408 25.3231C104.386 30.0768 84.9981 39.5684 69.7245 57.0452C65.8791 58.2146 62.205 58.9396 59.0125 60.5939C42.5229 69.1389 26.1802 77.9668 9.72417 86.5775C6.97255 88.0173 3.91577 88.8739 1 90Z" fill="#6D43BE"/>
<path d="M165 301C158.979 301 152.958 301 146.541 300.662C147.881 298.658 149.361 296.525 151.398 295.408C159.929 290.729 168.695 286.477 177.226 281.799C180.045 280.254 182.419 277.899 185.23 275.624C186.876 274.956 188.379 274.773 189.688 274.169C199.109 269.819 208.49 265.383 218.095 260.839C218.53 260.457 218.753 260.209 218.984 259.982C218.991 260.001 218.966 259.963 219.267 259.883C220.034 259.175 220.502 258.547 221.101 257.659C221.787 257.256 222.34 257.112 223.269 256.955C231.205 253.241 238.807 249.623 246.316 245.821C261.399 238.186 276.407 230.403 291.504 222.796C294.537 221.267 297.828 220.252 301 219C301 222.031 301 225.061 300.65 228.614C282.187 238.597 264.085 248.08 245.957 257.514C220.152 270.944 194.318 284.321 168.536 297.795C167.171 298.508 166.17 299.916 165 301Z" fill="#F9A748"/>
<path d="M142.531 1C136.034 4.99553 129.117 9.07956 122.089 12.9638C113.66 17.6227 105.175 22.1825 96.6478 26.6603C69.1461 41.1027 41.6186 55.4963 14.0872 69.8821C11.2981 71.3394 8.27249 72.3908 5.62722 74.0594C3.96518 75.1079 2.80822 76.957 1.21233 78.7234C1 73.6451 1 68.2901 1.41734 62.4685C4.53565 61.3449 7.44465 61.1221 9.89746 59.9471C16.4881 56.7898 22.8709 53.2009 29.359 49.8273C55.1688 36.4071 81.0129 23.0529 106.78 9.55093C111.67 6.98814 116.267 3.86474 121 1C128.021 1 135.042 1 142.531 1Z" fill="#6648C3"/>
<path d="M165.469 301C166.17 299.916 167.171 298.508 168.536 297.795C194.318 284.321 220.152 270.944 245.957 257.514C264.085 248.08 282.187 238.597 300.65 229.068C301 231.371 301 233.741 300.714 236.758C298.999 239.097 297.903 241.414 296.088 242.385C280.704 250.611 265.17 258.556 249.718 266.654C230.882 276.525 212.056 286.414 193.31 296.453C191.563 297.389 190.422 299.457 189 301C181.312 301 173.625 301 165.469 301Z" fill="#F9B050"/>
<path d="M189.458 301C190.422 299.457 191.563 297.389 193.31 296.453C212.056 286.414 230.882 276.525 249.718 266.654C265.17 258.556 280.704 250.611 296.088 242.385C297.903 241.414 298.999 239.097 300.714 237.202C301 238.714 301 240.429 300.664 242.767C299.228 247.286 298.128 251.181 296.761 254.948C294.472 255.475 292.315 255.872 290.444 256.829C267.956 268.331 245.477 279.853 223.076 291.525C217.568 294.396 212.351 297.827 207 301C205.286 301 203.571 301 201.317 300.903C200.481 300.683 200.222 300.748 200 301C196.639 301 193.277 301 189.458 301Z" fill="#FAB959"/>
<path d="M120.532 1C116.267 3.86474 111.67 6.98814 106.78 9.55093C81.0129 23.0529 55.1688 36.4071 29.359 49.8273C22.8709 53.2009 16.4881 56.7898 9.89746 59.9471C7.44465 61.1221 4.53565 61.3449 1.41734 62.0009C1 61.25 1 60.5 1.26651 59.2136C2.07935 56.7814 2.62569 54.8856 3.55409 52.9848C6.27015 52.2151 8.75596 51.7444 10.9099 50.6313C17.5257 47.2125 23.9451 43.4131 30.5653 40.003C52.667 28.6184 74.8503 17.3916 96.9057 5.91855C98.651 5.01062 99.6527 2.67312 101 1C107.354 1 113.709 1 120.532 1Z" fill="#624CC6"/>
<path d="M301 82C301 84.7006 301 87.4013 300.685 90.7015C293.453 94.9304 286.541 98.5676 279.619 102.188C257.824 113.587 236.039 125.007 214.201 136.324C212.402 137.256 210.228 137.464 208.248 137.673C207.963 134.842 207.659 132.346 207.571 129.622C216.738 124.656 225.809 120.126 234.58 115.075C238.053 113.074 240.858 109.914 244.36 107.186C248.308 106.087 251.924 105.251 255.395 104.011C257.153 103.383 258.651 102.026 260.59 100.909C270.265 95.8855 279.531 90.7806 289.008 86.1019C292.765 84.2472 296.989 83.3391 301 82Z" fill="#DF3273"/>
<path d="M6.92881 41.9529C14.6628 23.617 28.1164 11.415 46.8274 4.9464C50.666 3.61934 54.6531 2.72151 58.7859 1.31291C62.0306 1 65.0612 1 68.8874 1.22314C73.7887 1.29752 77.8944 1.14876 82 1C82.75 1 83.5 1 84.5829 1.36381C83.8459 2.5822 82.8868 3.66531 81.6851 4.24797C78.2647 5.90631 74.6426 7.16472 71.2826 8.92869C55.452 17.2398 39.7208 25.7406 23.8705 34.0136C18.3468 36.8967 12.583 39.3197 6.92881 41.9529Z" fill="#5953CD"/>
<path d="M208.228 138.009C210.228 137.464 212.402 137.256 214.201 136.324C236.039 125.007 257.824 113.587 279.619 102.188C286.541 98.5676 293.453 94.9304 300.685 91.1506C301 94.3613 301 97.7226 300.646 101.611C292.753 105.98 285.195 109.784 277.679 113.67C259.831 122.9 241.981 132.127 224.198 141.48C222.238 142.511 220.709 144.359 218.628 145.845C215.637 144.53 212.861 143.406 210.426 141.774C209.34 141.046 208.94 139.295 208.228 138.009Z" fill="#E13C6A"/>
<path d="M6.65886 42.1644C12.583 39.3197 18.3468 36.8967 23.8705 34.0136C39.7208 25.7406 55.452 17.2398 71.2826 8.92869C74.6426 7.16472 78.2647 5.90631 81.6851 4.24797C82.8868 3.66531 83.8459 2.5822 84.9579 1.36381C90.0221 1 95.0442 1 100.533 1C99.6527 2.67312 98.651 5.01062 96.9057 5.91855C74.8503 17.3916 52.667 28.6184 30.5653 40.003C23.9451 43.4131 17.5257 47.2125 10.9099 50.6313C8.75596 51.7444 6.27015 52.2151 3.55409 52.9848C4.24432 49.4519 5.31661 45.9139 6.65886 42.1644Z" fill="#5E4FC9"/>
<path d="M243.542 1C244 1 244.013 1.45015 243.948 2.02086C242.365 4.006 241.061 5.81279 239.295 6.77118C227.831 12.9948 216.29 19.0789 204.718 25.1013C201.876 26.5802 199.64 28.2364 199.625 31.8363C197.404 30.9042 195.636 29.5725 193.664 29.1146C186.809 27.5224 179.884 26.2332 173.266 24.6325C184.376 19.0461 195.271 13.7802 206.002 8.1999C209.87 6.18847 213.345 3.42194 217 1C218.714 1 220.428 1 222.902 1.21962C226.774 1.29282 229.887 1.14641 233 1C236.362 1 239.723 1 243.542 1Z" fill="#8035B0"/>
<path d="M301 218.539C297.828 220.252 294.537 221.267 291.504 222.796C276.407 230.403 261.399 238.186 246.316 245.821C238.807 249.623 231.205 253.241 223.427 256.657C229.461 248.877 235.714 241.381 242.155 234.173C243.817 234.663 245.613 235.514 246.711 234.965C254.415 231.121 261.936 226.914 269.588 222.964C280.025 217.577 290.526 212.315 301 207C301 210.693 301 214.386 301 218.539Z" fill="#F89E40"/>
<path d="M218.981 145.828C220.709 144.359 222.238 142.511 224.198 141.48C241.981 132.127 259.831 122.9 277.679 113.67C285.195 109.784 292.753 105.98 300.646 102.069C301 105.361 301 108.723 300.693 112.416C299.273 112.83 298.003 112.591 297.072 113.045C290.667 116.173 284.318 119.417 277.979 122.677C260.32 131.76 242.674 140.869 224.813 150.097C222.729 148.761 220.855 147.295 218.981 145.828Z" fill="#E44462"/>
<path d="M301 169C301 175.354 301 181.709 300.637 188.602C298.55 189.748 296.726 190.165 295.115 190.995C282.1 197.701 269.13 204.497 256.13 211.235C254.05 212.314 251.817 214.546 249.975 210.462C250.051 208.025 250.115 206.018 250.36 203.686C251.271 201.632 251.517 198.998 252.804 198.311C266.224 191.137 279.697 184.034 293.424 177.476C297.477 175.54 300.425 173.589 301 169Z" fill="#F5852C"/>
<path d="M1 90.4541C3.91577 88.8739 6.97255 88.0173 9.72417 86.5775C26.1802 77.9668 42.5229 69.1389 59.0125 60.5939C62.205 58.9396 65.8791 58.2146 69.5525 57.3392C66.1284 62.7575 62.4827 67.8975 58.6771 73.1895C58.3173 73.5609 58.151 73.8033 58.0263 74.0415C58.0345 74.0143 58.0732 74.0577 57.7247 74.1507C54.0112 75.6155 50.5196 76.7427 47.3041 78.4041C36.6581 83.9046 26.2215 89.8209 15.4748 95.1111C10.9453 97.3409 5.84231 98.4057 1 100C1 96.9694 1 93.9388 1 90.4541Z" fill="#733EB9"/>
<path d="M1 119C1 118.25 1 117.5 1.34151 116.301C11.7153 110.442 21.6866 104.915 31.803 99.6671C37.7752 96.569 43.977 93.9135 50.0393 91.4482C47.9473 99.2209 45.8915 106.604 43.6593 113.716C42.8107 109.963 40.9722 110.409 38.4789 111.72C28.0282 117.211 17.5366 122.627 6.99066 127.933C5.52418 128.671 3.67129 128.641 1.99777 128.525C1.66551 125.056 1.33276 122.028 1 119Z" fill="#8035B0"/>
<path d="M50.0755 91.059C43.977 93.9135 37.7752 96.569 31.803 99.6671C21.6866 104.915 11.7153 110.442 1.34151 115.926C1 110.978 1 105.956 1 100.467C5.84231 98.4057 10.9453 97.3409 15.4748 95.1111C26.2215 89.8209 36.6581 83.9046 47.3041 78.4041C50.5196 76.7427 54.0112 75.6155 57.6648 74.5065C55.5803 79.8625 53.2071 84.9558 50.6726 90.1976C50.3111 90.5633 50.1468 90.8049 50.0269 91.0431C50.0355 91.0153 50.0755 91.059 50.0755 91.059Z" fill="#793AB5"/>
<path d="M293.014 264.065C281.973 283.684 265.803 296.281 243.191 300.66C238.311 301 233.621 301 228.475 300.625C229.28 298.7 230.235 296.603 231.857 295.69C240.702 290.711 249.649 285.904 258.678 281.266C270.064 275.417 281.563 269.788 293.014 264.065Z" fill="#FCC766"/>
<path d="M293.043 264.054C281.563 269.788 270.064 275.417 258.678 281.266C249.649 285.904 240.702 290.711 231.857 295.69C230.235 296.603 229.28 298.7 228.009 300.625C221.312 301 214.625 301 207.469 301C212.351 297.827 217.568 294.396 223.076 291.525C245.477 279.853 267.956 268.331 290.444 256.829C292.315 255.872 294.472 255.475 296.761 254.948C296.39 256.199 295.753 257.322 294.801 259.005C294.345 260.373 294.204 261.179 294.062 261.985C294.062 261.985 294.077 262.046 293.854 262.25C293.442 262.962 293.254 263.472 293.065 263.981C293.065 263.981 293.072 264.042 293.043 264.054Z" fill="#FBC261"/>
<path d="M225.023 149.967C242.674 140.869 260.32 131.76 277.979 122.677C284.318 119.417 290.667 116.173 297.072 113.045C298.003 112.591 299.273 112.83 300.693 112.874C301 113.75 301 114.5 300.79 115.915C299.424 118.218 298.636 120.555 297.055 121.388C277.563 131.657 258.01 141.816 238.312 151.684C235.637 153.024 232.09 152.623 228.658 152.901C227.254 151.838 226.139 150.902 225.023 149.967Z" fill="#E64C5B"/>
<path d="M301 168.6C300.425 173.589 297.477 175.54 293.424 177.476C279.697 184.034 266.224 191.137 252.804 198.311C251.517 198.998 251.271 201.632 250.298 203.225C249.763 198.068 249.471 193.047 249.543 187.995C250.85 187.68 251.866 187.535 252.728 187.092C266.975 179.765 281.17 172.335 295.484 165.143C296.971 164.396 299.145 165.015 301 165C301 166.067 301 167.133 301 168.6Z" fill="#F27932"/>
<path d="M216.531 1C213.345 3.42194 209.87 6.18847 206.002 8.1999C195.271 13.7802 184.376 19.0461 172.859 24.6861C169.127 24.329 166.083 23.7221 162.793 22.897C161.523 22.0537 160.5 21.4286 158.831 20.4097C160.92 19.0228 162.321 17.9194 163.87 17.0939C170.881 13.3575 178.017 9.84542 184.913 5.91123C186.645 4.92286 187.657 2.67113 189 1C198.021 1 207.042 1 216.531 1Z" fill="#793AB5"/>
<path d="M301 142C301 145.362 301 148.724 300.646 152.612C298.186 154.096 296.039 154.974 293.98 156.025C278.366 163.999 262.77 172.007 247.021 179.674C245.931 176.926 244.987 174.508 244.355 171.925C259.135 164.273 273.621 156.821 288.058 149.275C292.442 146.983 296.69 144.432 301 142Z" fill="#ED6843"/>
<path d="M301 206.583C290.526 212.315 280.025 217.577 269.588 222.964C261.936 226.914 254.415 231.121 246.711 234.965C245.613 235.514 243.817 234.663 242.313 233.856C243.841 229.8 245.399 226.347 247.229 223.115C249.165 223.002 251.018 223.029 252.468 222.279C266.444 215.051 280.319 207.625 294.319 200.445C296.278 199.441 298.76 199.456 301 199C301 199.444 301 199.889 300.912 200.782C300.703 201.517 300.762 201.773 301 202C301 203.389 301 204.778 301 206.583Z" fill="#F79638"/>
<path d="M1 236C1 232.638 1 229.276 1.37432 225.433C5.32617 223.305 8.9594 221.769 12.4711 219.992C24.2475 214.034 35.9805 207.99 47.8222 202.364C48.9571 206.16 49.9999 209.571 50.7337 212.863C49.4643 212.76 48.3351 212.449 47.5693 212.843C39.1827 217.164 30.9206 221.73 22.4864 225.953C15.4192 229.491 8.16911 232.665 1 236Z" fill="#DB2B7A"/>
<path d="M1 236.375C8.16911 232.665 15.4192 229.491 22.4864 225.953C30.9206 221.73 39.1827 217.164 47.5693 212.843C48.3351 212.449 49.4643 212.76 51.0024 213.081C52.0675 214.935 52.555 216.453 52.9998 218.328C51.4348 220.059 50.1137 221.809 48.3583 222.746C34.4294 230.18 20.4009 237.428 6.4586 244.837C5.10254 245.558 4.12187 246.985 2.96694 248.084C2.51122 247.143 2.05551 246.201 1.2999 245.13C1 243.933 1 242.867 1.15756 241.225C1.21008 240.1 1.10504 239.55 1 239C1 238.25 1 237.5 1 236.375Z" fill="#DF3273"/>
<path d="M228.946 153.028C232.09 152.623 235.637 153.024 238.312 151.684C258.01 141.816 277.563 131.657 297.055 121.388C298.636 120.555 299.424 118.218 300.79 116.29C301 119.693 301 123.386 300.625 127.562C299.298 128.307 298.264 128.41 297.405 128.853C283.718 135.903 270.083 143.053 256.373 150.055C249.605 153.511 242.706 156.713 235.575 159.881C233.17 157.496 231.058 155.262 228.946 153.028Z" fill="#E75355"/>
<path d="M247.168 180.005C262.77 172.007 278.366 163.999 293.98 156.025C296.039 154.974 298.186 154.096 300.646 153.069C301 156.693 301 160.386 301 164.539C299.145 165.015 296.971 164.396 295.484 165.143C281.17 172.335 266.975 179.765 252.728 187.092C251.866 187.535 250.85 187.68 249.46 187.617C248.398 184.848 247.783 182.426 247.168 180.005Z" fill="#EF703B"/>
<path d="M188.532 1C187.657 2.67113 186.645 4.92286 184.913 5.91123C178.017 9.84542 170.881 13.3575 163.87 17.0939C162.321 17.9194 160.92 19.0228 158.831 20.4097C160.5 21.4286 161.523 22.0537 162.522 23.164C153.34 23.8066 144.183 23.9642 135.025 24.1218C136.855 22.0018 138.288 19.1752 140.584 17.8865C149.563 12.847 158.821 8.30505 167.958 3.54327C168.953 3.02438 169.831 2.28001 170.882 1.32011C176.688 1 182.376 1 188.532 1Z" fill="#733EB9"/>
<path d="M301 198.546C298.76 199.456 296.278 199.441 294.319 200.445C280.319 207.625 266.444 215.051 252.468 222.279C251.018 223.029 249.165 223.002 247.25 222.738C247.988 218.391 248.975 214.641 249.963 210.892C251.817 214.546 254.05 212.314 256.13 211.235C269.13 204.497 282.1 197.701 295.115 190.995C296.726 190.165 298.55 189.748 300.637 189.07C301 192.031 301 195.061 301 198.546Z" fill="#F68E32"/>
<path d="M184.996 275.914C182.419 277.899 180.045 280.254 177.226 281.799C168.695 286.477 159.929 290.729 151.398 295.408C149.361 296.525 147.881 298.658 146.073 300.662C138.646 301 131.291 301 123.575 300.676C124.359 299.46 125.406 298.376 126.671 297.706C134.856 293.369 143.173 289.273 151.251 284.748C153.487 283.496 155.059 281.057 157.328 279.105C166.813 278.002 175.904 276.958 184.996 275.914Z" fill="#F79E40"/>
<path d="M301 141.667C296.69 144.432 292.442 146.983 288.058 149.275C273.621 156.821 259.135 164.273 244.087 171.706C242.659 169.805 241.811 167.96 241.157 165.822C241.713 165.19 242.02 164.745 242.443 164.526C258.517 156.222 274.587 147.91 290.697 139.677C294.052 137.963 297.562 136.551 301 135C301 135.444 301 135.889 300.813 136.885C300.751 138.291 300.875 139.145 301 140C301 140.444 301 140.889 301 141.667Z" fill="#EB5F4A"/>
<path d="M1.99727 128.966C3.67129 128.641 5.52418 128.671 6.99066 127.933C17.5366 122.627 28.0282 117.211 38.4789 111.72C40.9722 110.409 42.8107 109.963 43.711 114.128C43.5745 117.214 43.2097 119.617 42.6801 122.171C42.3123 122.544 42.1479 122.792 42.0373 123.042C42.0525 123.018 42.0827 123.066 41.6872 123.058C39.2655 123.665 37.0972 123.999 35.237 124.942C25.962 129.642 16.8065 134.578 7.51448 139.243C5.54532 140.232 3.18182 140.435 1 141C1 140.556 1 140.111 1.20929 139.042C1.27906 136.612 1.13953 134.806 1 133C1 131.933 1 130.867 1.24934 129.392C1.49867 128.984 1.99727 128.966 1.99727 128.966Z" fill="#8A33A9"/>
<path d="M92 301C85.6456 301 79.2912 301 72.4996 300.644C73.2881 299.067 74.3129 297.476 75.7716 296.686C87.0185 290.594 98.3955 284.742 109.608 278.588C111.402 277.603 112.574 275.485 114.425 273.946C118.543 275.057 122.268 276.114 126.124 277.451C125.227 279.126 124.501 281.069 123.124 281.823C114.711 286.426 106.064 290.603 97.6963 295.284C95.4382 296.547 93.8797 299.06 92 301Z" fill="#F5872C"/>
<path d="M1 141.463C3.18182 140.435 5.54532 140.232 7.51448 139.243C16.8065 134.578 25.962 129.642 35.237 124.942C37.0972 123.999 39.2655 123.665 41.6937 123.43C42.0118 127.204 41.928 130.597 41.4919 134.067C36.3273 136.382 31.4616 138.514 26.7143 140.884C18.1057 145.182 9.56755 149.62 1 154C1 149.975 1 145.951 1 141.463Z" fill="#9431A4"/>
<path d="M1 205C1 202.629 1 200.259 1.21305 197.169C2.55838 195.145 3.44097 193.376 4.86375 192.609C13.6317 187.886 22.4631 183.27 31.4008 178.877C34.7838 177.215 38.5058 176.242 42.3504 175.242C43.003 178.698 43.3785 181.867 43.3949 185.057C34.8464 189.06 26.6812 193.093 18.4587 197.005C12.6795 199.755 6.82235 202.341 1 205Z" fill="#C22D8A"/>
<path d="M42.0732 174.955C38.5058 176.242 34.7838 177.215 31.4008 178.877C22.4631 183.27 13.6317 187.886 4.86375 192.609C3.44097 193.376 2.55838 195.145 1.21305 196.725C1 192.311 1 187.621 1.37458 182.443C10.0372 177.944 18.2809 173.837 26.6305 169.959C31.3535 167.766 36.2504 165.947 41.3529 164.261C41.7823 168.026 41.9278 171.491 42.0732 174.955Z" fill="#B82E90"/>
<path d="M301 81.5368C296.989 83.3391 292.765 84.2472 289.008 86.1019C279.531 90.7806 270.265 95.8855 260.501 100.529C259.052 96.8375 258.016 93.4376 257.382 90.0285C259.085 89.8211 260.552 89.9452 261.665 89.3755C274.807 82.6437 287.897 75.8082 301 69C301 73.0245 301 77.0491 301 81.5368Z" fill="#DB2B7B"/>
<path d="M301 134.562C297.562 136.551 294.052 137.963 290.697 139.677C274.587 147.91 258.517 156.222 242.443 164.526C242.02 164.745 241.713 165.19 240.894 165.694C238.913 163.917 237.39 161.974 235.867 160.031C242.706 156.713 249.605 153.511 256.373 150.055C270.083 143.053 283.718 135.903 297.405 128.853C298.264 128.41 299.298 128.307 300.625 128.023C301 130.042 301 132.083 301 134.562Z" fill="#E9594F"/>
<path d="M298.034 49.9034C298.81 52.7941 299.587 55.6849 300.682 58.7878C301 60.0667 301 61.1333 300.705 62.4244C298.589 62.4458 296.465 61.5404 295.001 62.1694C290.301 64.1888 285.859 66.8068 281.289 69.1363C272.163 73.7876 263.018 78.4007 253.617 82.8509C252.222 80.1274 251.09 77.5825 250.335 75.0039C251.821 74.6356 253.013 74.4615 254.027 73.9417C265.887 67.8667 277.757 61.8094 289.534 55.5779C292.529 53.993 295.209 51.811 298.034 49.9034Z" fill="#CB2C85"/>
<path d="M47.7301 201.979C35.9805 207.99 24.2475 214.034 12.4711 219.992C8.9594 221.769 5.32617 223.305 1.37432 224.976C1 224.25 1 223.5 1.09259 222.262C1.30677 221.483 1.24505 221.225 1 221C1 220.556 1 220.111 1.10062 219.223C1.33053 218.477 1.26344 218.217 1 218C1 217.25 1 216.5 1.37109 215.353C12.3384 209.63 22.9817 204.395 33.5065 198.931C37.4234 196.898 41.0631 194.33 44.8943 192.237C44.9593 192.468 45.0305 192.942 45.0523 193.201C45.2738 193.926 45.4735 194.391 45.7875 195.221C46.5113 197.717 47.1207 199.848 47.7301 201.979Z" fill="#D22B80"/>
<path d="M253.88 83.0296C263.018 78.4007 272.163 73.7876 281.289 69.1363C285.859 66.8068 290.301 64.1888 295.001 62.1694C296.465 61.5404 298.589 62.4458 300.705 62.8244C301 64.7144 301 66.4287 301 68.5715C287.897 75.8082 274.807 82.6437 261.665 89.3755C260.552 89.9452 259.085 89.8211 257.108 89.81C255.582 87.4102 254.731 85.2199 253.88 83.0296Z" fill="#D22B80"/>
<path d="M114.034 273.892C112.574 275.485 111.402 277.603 109.608 278.588C98.3955 284.742 87.0185 290.594 75.7716 296.686C74.3129 297.476 73.2881 299.067 72.0312 300.644C71.25 301 70.5 301 69.1572 300.812C67.7096 300.75 66.8548 300.875 66 301C63.6294 301 61.2589 301 58.4442 301C57.2502 300.653 56.5004 300.306 55.6855 299.699C67.0098 293.317 78.4757 287.332 89.755 281.014C95.0222 278.064 99.9285 274.469 105.366 271.253C108.5 272.19 111.267 273.041 114.034 273.892Z" fill="#F4802D"/>
<path d="M44.8292 192.006C41.0631 194.33 37.4234 196.898 33.5065 198.931C22.9817 204.395 12.3384 209.63 1.37109 214.978C1 211.969 1 208.939 1 205.454C6.82235 202.341 12.6795 199.755 18.4587 197.005C26.6812 193.093 34.8464 189.06 43.48 185.446C44.2257 187.877 44.5275 189.942 44.8292 192.006Z" fill="#CB2C85"/>
<path d="M41.0689 163.959C36.2504 165.947 31.3535 167.766 26.6305 169.959C18.2809 173.837 10.0372 177.944 1.37458 181.977C1 176.978 1 171.956 1.24699 166.471C1.49397 166.008 1.98798 166.011 1.99238 166.42C2.39021 172.474 2.88393 172.659 7.71775 170.242C18.7141 164.742 29.7934 159.408 40.8936 154.457C40.9885 157.924 41.0287 160.942 41.0689 163.959Z" fill="#AE2F95"/>
<path d="M92.4676 301C93.8797 299.06 95.4382 296.547 97.6963 295.284C106.064 290.603 114.711 286.426 123.124 281.823C124.501 281.069 125.227 279.126 126.54 277.389C131.552 277.753 136.279 278.461 140.768 279.393C137.504 281.836 134.651 284.358 131.415 286.208C125.102 289.817 118.498 292.915 112.196 296.541C110.753 297.37 110.046 299.48 109 301C103.645 301 98.2901 301 92.4676 301Z" fill="#F68E32"/>
<path d="M109.417 301C110.046 299.48 110.753 297.37 112.196 296.541C118.498 292.915 125.102 289.817 131.415 286.208C134.651 284.358 137.504 281.836 141.17 279.332C142.893 279.089 143.976 279.131 145.415 279.366C148.359 279.68 150.947 279.8 153.744 279.605C154.948 279.246 155.941 279.205 156.935 279.163C155.059 281.057 153.487 283.496 151.251 284.748C143.173 289.273 134.856 293.369 126.671 297.706C125.406 298.376 124.359 299.46 123.106 300.676C120.629 301 118.259 301 115.333 300.903C114.481 300.683 114.222 300.747 114 301C112.611 301 111.222 301 109.417 301Z" fill="#F79638"/>
<path d="M1 154.428C9.56755 149.62 18.1057 145.182 26.7143 140.884C31.4616 138.514 36.3273 136.382 41.5346 134.469C41.5643 137.199 41.1991 139.602 40.4924 142.08C37.5058 143.503 34.876 144.882 32.2125 146.192C22.1505 151.141 12.0776 156.068 1.86328 160.815C1.50817 160.383 1.26889 160.174 1 160C1 158.286 1 156.571 1 154.428Z" fill="#9E319E"/>
<path d="M2.0087 161.004C12.0776 156.068 22.1505 151.141 32.2125 146.192C34.876 144.882 37.5058 143.503 40.5464 142.515C40.9055 144.917 40.8693 146.959 40.4543 149.008C32.9287 152.312 25.809 155.67 18.6266 158.888C13.1214 161.354 7.53709 163.643 1.98799 166.011C1.98799 166.011 1.49397 166.008 1.24699 166.004C1 165.556 1 165.111 1.2051 164.082C1.6097 162.667 1.8092 161.835 2.0087 161.004Z" fill="#A4309B"/>
<path d="M81.5368 1C77.8944 1.14876 73.7887 1.29752 69.3415 1.22314C73.0245 1 77.0491 1 81.5368 1Z" fill="#5E4FC9"/>
<path d="M232.546 1C229.887 1.14641 226.774 1.29282 223.33 1.21962C226.031 1 229.061 1 232.546 1Z" fill="#793AB5"/>
<path d="M1.99777 128.525C1.99727 128.966 1.49867 128.984 1.24934 128.992C1 125.969 1 122.939 1 119.454C1.33276 122.028 1.66551 125.056 1.99777 128.525Z" fill="#793AB5"/>
<path d="M1 133.428C1.13953 134.806 1.27906 136.612 1.20929 138.709C1 137.286 1 135.571 1 133.428Z" fill="#9431A4"/>
<path d="M1.86328 160.815C1.8092 161.835 1.6097 162.667 1.2051 163.749C1 162.933 1 161.867 1 160.4C1.26889 160.174 1.50817 160.383 1.86328 160.815Z" fill="#9431A4"/>
<path d="M66.375 301C66.8548 300.875 67.7096 300.75 68.7822 300.812C68.25 301 67.5 301 66.375 301Z" fill="#F5872C"/>
<path d="M301 139.625C300.875 139.145 300.751 138.291 300.813 137.218C301 137.75 301 138.5 301 139.625Z" fill="#E9594F"/>
<path d="M1 239.333C1.10504 239.55 1.21008 240.1 1.15756 240.825C1 240.556 1 240.111 1 239.333Z" fill="#DB2B7A"/>
<path d="M1 218.25C1.26344 218.217 1.33053 218.477 1.10062 218.89C1 219 1 218.5 1 218.25Z" fill="#CB2C85"/>
<path d="M200.25 301C200.222 300.748 200.481 300.683 200.889 300.903C201 301 200.5 301 200.25 301Z" fill="#FBC261"/>
<path d="M114.25 301C114.222 300.747 114.481 300.683 114.889 300.903C115 301 114.5 301 114.25 301Z" fill="#F79E40"/>
<path d="M301 201.75C300.762 201.773 300.703 201.517 300.912 201.115C301 201 301 201.5 301 201.75Z" fill="#F89E40"/>
<path d="M1 221.25C1.24505 221.225 1.30677 221.483 1.09259 221.887C1 222 1 221.5 1 221.25Z" fill="#DB2B7A"/>
<path d="M219.267 259.883C219.46 259.37 219.953 258.777 220.707 258.051C220.502 258.547 220.034 259.175 219.267 259.883Z" fill="#F89E40"/>
<path d="M218.095 260.839C218.084 260.696 218.285 260.418 218.731 260.051C218.753 260.209 218.53 260.457 218.095 260.839Z" fill="#F89E40"/>
<path d="M237.792 100.088C239.338 102.758 238.179 107.459 243.639 107.359C240.858 109.914 238.053 113.074 234.58 115.075C225.809 120.126 216.738 124.656 207.571 129.622C206.321 125.834 205.286 121.818 204.657 117.414C211.56 114.227 218.205 111.72 224.506 108.533C229.167 106.176 233.38 102.935 237.792 100.088Z" fill="#DB2B7B"/>
<path d="M294.327 261.794C294.204 261.179 294.345 260.373 294.66 259.308C294.753 259.901 294.673 260.752 294.327 261.794Z" fill="#FCC766"/>
<path d="M293.306 263.83C293.254 263.472 293.442 262.962 293.824 262.257C293.86 262.601 293.704 263.14 293.306 263.83Z" fill="#FCC766"/>
<path d="M232.959 52.1205C228.742 48.9345 224.524 45.7484 220.444 42.2167C223.948 39.8011 227.216 37.547 230.697 35.6938C244.448 28.3739 258.266 21.1798 272.059 13.939C275.155 16.5622 278.251 19.1855 281.432 22.2671C267.297 30.1745 253.07 37.6112 238.862 45.0828C235.959 46.6089 232.601 47.827 232.959 52.1205Z" fill="#A0319D"/>
<path d="M244.056 67.0193C242.436 64.5603 240.817 62.1012 239.3 59.1264C240.161 57.9777 240.837 57.1893 241.692 56.7353C256.711 48.753 271.739 40.7879 286.82 32.923C287.679 32.4749 289.004 32.9197 290.112 32.949C291.69 35.7483 293.269 38.5476 294.532 41.8579C279.244 50.1712 264.289 58.0075 249.272 65.7242C247.721 66.5212 245.803 66.6047 244.056 67.0193Z" fill="#B82E90"/>
<path d="M290.027 32.6125C289.004 32.9197 287.679 32.4749 286.82 32.923C271.739 40.7879 256.711 48.753 241.692 56.7353C240.837 57.1893 240.161 57.9777 239.132 58.825C236.998 56.9333 235.133 54.827 233.114 52.4206C232.601 47.827 235.959 46.6089 238.862 45.0828C253.07 37.6112 267.297 30.1745 281.712 22.4645C282.221 22.3346 282.537 22.4657 283.029 23.0953C283.513 24.0435 283.821 24.4933 284.128 24.9431C286.066 27.3874 288.004 29.8317 290.027 32.6125Z" fill="#AC2F96"/>
<path d="M204.862 33.0374C203.437 32.6877 202.013 32.3381 200.286 31.9128C199.64 28.2364 201.876 26.5802 204.718 25.1013C216.29 19.0789 227.831 12.9948 239.295 6.77118C241.061 5.81279 242.365 4.006 243.964 2.24546C248.228 3.05403 252.41 4.20871 256.941 5.96403C258.681 10.6615 255.076 11.3106 252.856 12.4879C241.594 18.4582 230.181 24.143 218.909 30.0939C214.449 32.4486 210.072 34.5599 204.862 33.0374Z" fill="#8B33A9"/>
<path d="M205.079 33.3148C210.072 34.5599 214.449 32.4486 218.909 30.0939C230.181 24.143 241.594 18.4582 252.856 12.4879C255.076 11.3106 258.681 10.6615 257.172 6.24645C261.906 8.42377 266.759 10.9193 271.835 13.6769C258.266 21.1798 244.448 28.3739 230.697 35.6938C227.216 37.547 223.948 39.8011 220.236 41.9501C215.025 39.2169 210.16 36.4045 205.079 33.3148Z" fill="#9532A3"/>
<path d="M244.19 67.3208C245.803 66.6047 247.721 66.5212 249.272 65.7242C264.289 58.0075 279.244 50.1712 294.516 42.2186C295.875 44.434 296.934 46.7997 298.014 49.5344C295.209 51.811 292.529 53.993 289.534 55.5779C277.757 61.8094 265.887 67.8667 254.027 73.9417C253.013 74.4615 251.821 74.6356 250.335 75.0039C248.081 72.5658 246.203 70.094 244.19 67.3208Z" fill="#C22D8A"/>
<path d="M284.064 24.669C283.821 24.4933 283.513 24.0435 283.171 23.3196C283.424 23.4952 283.712 23.945 284.064 24.669Z" fill="#A0319D"/>
<path d="M63.7683 236.993C65.1755 239.082 66.5827 241.171 67.7039 243.686C49.5726 253.422 31.7274 262.733 13.8822 272.043C12.2776 269.925 10.673 267.807 9.14177 265.026C9.69224 263.92 10.1003 263.346 10.6565 263.054C23.169 256.482 35.6344 249.814 48.255 243.456C53.2447 240.941 58.5867 239.127 63.7683 236.993Z" fill="#E64D5A"/>
<path d="M13.9671 272.381C31.7274 262.733 49.5726 253.422 67.7655 244.032C70.3416 246.092 72.57 248.231 74.6079 250.744C58.6545 259.392 42.935 267.749 27.0925 275.866C23.9235 277.49 22.6099 279.573 22.9809 282.948C20.0046 279.538 17.0283 276.128 13.9671 272.381Z" fill="#E85752"/>
<path d="M80.0563 254.988C82.9424 257.116 85.8285 259.244 88.613 261.833C86.2909 263.721 84.1598 265.317 81.8356 266.547C68.0783 273.831 54.2847 281.047 40.4799 288.24C38.4015 289.323 36.6136 290.383 37.9831 293.142C34.2069 290.82 30.4306 288.498 26.6486 285.783C43.4013 276.606 60.1833 267.864 76.8749 258.954C78.2494 258.22 79.0103 256.337 80.0563 254.988Z" fill="#ED6843"/>
<path d="M63.6845 236.674C58.5867 239.127 53.2447 240.941 48.255 243.456C35.6344 249.814 23.169 256.482 10.6565 263.054C10.1003 263.346 9.69224 263.92 9.08582 264.679C8.02483 263.2 7.09319 261.404 6.09128 258.899C7.94219 256.163 9.50845 253.476 11.844 252.219C24.0712 245.638 36.4673 239.368 48.8657 233.11C52.0484 231.504 55.4519 230.335 58.754 228.965C60.3696 231.429 61.9852 233.892 63.6845 236.674Z" fill="#E44462"/>
<path d="M58.6702 228.637C55.4519 230.335 52.0484 231.504 48.8657 233.11C36.4673 239.368 24.0712 245.638 11.844 252.219C9.50845 253.476 7.94219 256.163 6.01358 258.556C5.00453 255.574 4.00292 252.225 2.98412 248.48C4.12187 246.985 5.10254 245.558 6.4586 244.837C20.4009 237.428 34.4294 230.18 48.3583 222.746C50.1137 221.809 51.4348 220.059 52.9998 218.328C54.8905 221.416 56.7385 224.862 58.6702 228.637Z" fill="#E13C6A"/>
<path d="M38.1725 293.418C36.6136 290.383 38.4015 289.323 40.4799 288.24C54.2847 281.047 68.0783 273.831 81.8356 266.547C84.1598 265.317 86.2909 263.721 88.8052 262.112C91.6186 263.393 94.1381 264.856 96.6672 266.894C95.7568 268.16 94.911 268.994 93.9052 269.523C79.7862 276.955 65.6127 284.285 51.5413 291.805C49.1475 293.085 47.1689 295.141 44.9984 296.838C42.7863 295.79 40.5741 294.741 38.1725 293.418Z" fill="#EF703B"/>
<path d="M79.8832 254.712C79.0103 256.337 78.2494 258.22 76.8749 258.954C60.1833 267.864 43.4013 276.606 26.3756 285.577C25.5637 285.201 25.019 284.639 24.0957 283.765C23.5343 283.281 23.3266 283.148 23.0939 283.054C23.0939 283.054 22.9893 283.053 22.9851 283C22.6099 279.573 23.9235 277.49 27.0925 275.866C42.935 267.749 58.6545 259.392 74.77 251.041C76.6518 252.121 78.181 253.279 79.8832 254.712Z" fill="#EB5F4A"/>
<path d="M45.3732 296.921C47.1689 295.141 49.1475 293.085 51.5413 291.805C65.6127 284.285 79.7862 276.955 93.9052 269.523C94.911 268.994 95.7568 268.16 96.8647 267.177C99.4972 268.201 101.942 269.515 104.692 270.998C99.9285 274.469 95.0222 278.064 89.755 281.014C78.4757 287.332 67.0098 293.317 55.3561 299.629C51.9772 298.881 48.8625 297.943 45.3732 296.921Z" fill="#F27933"/>
<path d="M23.1743 283.239C23.3266 283.148 23.5343 283.281 23.8426 283.591C23.6691 283.771 23.4312 283.67 23.1743 283.239Z" fill="#E85752"/>
<path d="M58.6771 73.1895C58.8595 73.385 58.7272 73.6573 58.2292 73.9616C58.151 73.8033 58.3173 73.5609 58.6771 73.1895Z" fill="#793AB5"/>
<path d="M50.6726 90.1976C50.8591 90.3955 50.7278 90.6662 50.2291 90.9659C50.1468 90.8049 50.3111 90.5633 50.6726 90.1976Z" fill="#8035B0"/>
<path d="M42.6801 122.171C42.8933 122.381 42.767 122.663 42.244 122.966C42.1479 122.792 42.3123 122.544 42.6801 122.171Z" fill="#9431A4"/>
<path d="M45.0523 193.201C45.2764 193.401 45.5224 193.859 45.7208 194.587C45.4735 194.391 45.2738 193.926 45.0523 193.201Z" fill="#CB2C85"/>
<path d="M40.4543 149.008C40.8709 150.393 40.9087 151.785 40.8927 153.592C29.7933 159.408 18.7141 164.742 7.71775 170.242C2.88393 172.659 2.39021 172.474 1.99238 166.42C7.53709 163.643 13.1214 161.354 18.6266 158.888C25.809 155.67 32.9287 152.312 40.4543 149.008Z" fill="#A73099"/>
<path d="M145.415 279.366C147.688 279.202 150.317 279.232 153.24 279.591C150.947 279.8 148.359 279.68 145.415 279.366Z" fill="#F79E40"/>
<path d="M146.051 83.1303C136.893 85.0855 127.732 87.1847 120.132 93.0321C116.357 95.9357 113.091 99.4993 109.125 102.646C106.58 102.708 104.209 102.298 102.476 103.165C91.5584 108.626 80.8196 114.444 69.9212 119.945C68.1802 120.824 65.9334 120.7 63.9205 121.04C65.2051 115.602 66.4896 110.164 68.1578 104.656C69.7158 108.52 72.0386 107.561 74.6937 106.178C100.932 92.5103 127.197 78.8937 153.45 65.2548C160.823 61.424 168.283 57.7405 175.491 53.6188C177.709 52.3505 179.224 49.8527 181.061 47.9178C185.913 49.4131 190.766 50.9084 195.514 52.7597C191.051 55.5216 186.738 58.0147 182.324 60.316C171.413 66.0052 160.446 71.5862 149.527 77.2596C147.213 78.4618 144.286 79.4479 146.051 83.1303Z" fill="#9631A3"/>
<path d="M181.04 47.9419C179.224 49.8527 177.709 52.3505 175.491 53.6188C168.283 57.7405 160.823 61.424 153.45 65.2548C127.197 78.8937 100.932 92.5103 74.6937 106.178C72.0386 107.561 69.7158 108.52 68.3526 104.329C68.9224 101.484 69.6811 98.895 70.7416 96.2887C71.2394 96.4053 71.4354 96.5393 71.6314 96.6733C71.4746 96.1423 71.3178 95.6112 71.161 95.0802C71.274 94.7751 71.387 94.4701 72.1065 94.05C74.8982 93.2453 77.2393 92.8571 79.2451 91.8203C104.011 79.0196 128.759 66.1843 153.427 53.197C157.797 50.8965 161.78 47.8611 165.941 45.165C170.38 45.7915 174.818 46.418 179.812 47.2677C180.582 47.6878 180.819 47.8519 181.08 47.9832C181.08 47.9832 181.019 47.966 181.04 47.9419Z" fill="#8B33A9"/>
<path d="M165.038 257.092C157.661 257.374 150.284 257.656 142.487 257.532C143.732 255.42 145.1 253.151 147.107 252.094C172.248 238.846 197.468 225.747 222.725 212.723C224.167 211.98 226.111 212.21 227.822 211.987C225.601 217.113 223.381 222.239 220.671 227.52C218.315 228.02 216.233 227.946 214.615 228.776C199.43 236.566 184.289 244.447 169.24 252.496C167.514 253.419 166.423 255.531 165.038 257.092Z" fill="#F4822C"/>
<path d="M63.177 172.043C62.8021 169.648 62.4272 167.253 62.3735 164.62C65.1049 164.098 67.8511 164.47 69.8738 163.432C92.4989 151.82 115.048 140.058 137.542 128.194C149.439 121.919 161.19 115.365 173.006 108.938C174.92 110.728 176.833 112.519 178.71 114.895C177.026 116.531 175.442 117.701 173.721 118.613C168.345 121.46 162.928 124.23 157.505 126.988C154.951 128.287 153.754 130.083 155.002 132.944C138.594 133.377 124.225 138.66 112.02 150.881C109.139 151.729 106.807 152.145 104.781 153.167C93.0482 159.081 81.43 165.224 69.6593 171.06C67.7945 171.984 65.3522 171.744 63.177 172.043Z" fill="#C42D88"/>
<path d="M165.562 45.1028C161.78 47.8611 157.797 50.8965 153.427 53.197C128.759 66.1843 104.011 79.0196 79.2451 91.8203C77.2393 92.8571 74.8982 93.2453 72.3195 93.9156C74.3902 89.0403 76.8542 84.1843 80.0038 79.1502C82.7243 78.3487 84.8912 77.9901 86.7695 77.0531C92.7001 74.0947 98.504 70.8835 104.391 67.836C116.44 61.5988 128.561 55.4968 140.503 49.0632C141.836 48.3453 142.207 45.8437 143.025 44.1693C143.775 44.134 144.526 44.0986 145.822 44.4437C150.022 46.4353 153.625 47.2067 156.992 44.1671C157.449 44.139 157.905 44.1109 158.806 44.2015C159.251 44.3201 159.619 44.3548 159.619 44.3548L159.946 44.1641C161.691 44.4563 163.436 44.7485 165.562 45.1028Z" fill="#8134AF"/>
<path d="M228.023 211.623C226.111 212.21 224.167 211.98 222.725 212.723C197.468 225.747 172.248 238.846 147.107 252.094C145.1 253.151 143.732 255.42 142.043 257.476C138.147 257.404 134.274 256.983 130.202 255.958C131.594 253.608 132.862 251.258 134.825 250.209C150.829 241.659 166.982 233.39 183.049 224.956C191.889 220.315 200.569 215.365 209.472 210.851C215.797 207.644 222.373 204.931 228.837 201.998C228.633 205.085 228.428 208.172 228.023 211.623Z" fill="#F27933"/>
<path d="M174.952 154.21C179.232 154.717 183.511 155.224 188.589 155.826C187.523 158.382 186.918 159.834 185.855 161.697C168.793 170.649 152.171 179.159 135.619 187.8C134.471 188.4 133.833 189.976 132.958 191.098C127.668 189.515 126.568 184.655 125.187 180.204C127.74 179.182 129.844 178.606 131.718 177.6C146.155 169.851 160.547 162.018 174.952 154.21Z" fill="#E13B6B"/>
<path d="M117.018 252.822C115.413 252.092 113.808 251.363 112.113 250.002C113.403 247.887 114.514 245.906 116.203 245C130.23 237.476 144.402 230.222 158.418 222.679C160.254 221.691 161.455 219.526 162.951 217.907C162.951 217.907 162.985 217.97 163.229 217.928C163.971 217.65 164.469 217.413 164.967 217.176C173.137 214.981 180.818 211.787 188.063 206.111C191.732 205.037 194.886 204.477 197.613 203.082C207.734 197.903 217.714 192.448 227.746 187.097C228.149 189.443 228.552 191.79 228.682 194.328C226.777 194.594 224.905 194.175 223.555 194.83C217.739 197.655 212.097 200.835 206.354 203.813C178.515 218.252 150.638 232.617 122.866 247.185C120.564 248.392 118.951 250.912 117.018 252.822Z" fill="#EE6C3F"/>
<path d="M172.77 108.659C161.19 115.365 149.439 121.919 137.542 128.194C115.048 140.058 92.4989 151.82 69.8738 163.432C67.8511 164.47 65.1049 164.098 62.4282 164.208C62.1262 163.577 62.0907 163.119 62.2627 162.177C62.6758 161.489 62.8513 161.261 63.2389 160.77C72.8761 155.575 82.2568 150.593 91.6694 145.673C114.62 133.674 137.601 121.733 160.51 109.654C161.95 108.895 162.87 107.148 164.032 105.86C166.866 106.7 169.7 107.541 172.77 108.659Z" fill="#BE2D8C"/>
<path d="M163.762 105.578C162.87 107.148 161.95 108.895 160.51 109.654C137.601 121.733 114.62 133.674 91.6694 145.673C82.2568 150.593 72.8761 155.575 63.0333 160.769C62.5857 161.01 62.1746 161.012 62.1746 161.012C62.1356 159.93 62.0967 158.849 62.194 157.26C62.433 156.486 62.3834 156.247 62.1818 156.033C62.1505 155.582 62.1191 155.131 62.4742 154.264C71.9043 149.233 80.9807 144.682 89.9848 139.991C110.657 129.223 131.308 118.412 151.913 107.516C153.178 106.847 153.975 105.294 154.989 104.153C157.824 104.534 160.658 104.915 163.762 105.578Z" fill="#B82E90"/>
<path d="M154.544 104.1C153.975 105.294 153.178 106.847 151.913 107.516C131.308 118.412 110.657 129.223 89.9848 139.991C80.9807 144.682 71.9043 149.233 62.5212 153.927C62.137 151.916 62.0922 149.826 62.4616 147.343C63.9318 146.506 65.0328 146.146 66.0373 145.606C84.4 135.736 102.751 125.845 121.105 115.959C122.734 116.83 123.955 118.171 125.936 115.798C133.22 107.074 142.942 103.733 154.544 104.1Z" fill="#B32F92"/>
<path d="M63.9325 121.424C65.9334 120.7 68.1802 120.824 69.9212 119.945C80.8196 114.444 91.5584 108.626 102.476 103.165C104.209 102.298 106.58 102.708 108.83 102.808C106.78 106.49 109.12 107.979 111.667 109.95C109.965 111.754 108.365 113.226 106.503 114.199C94.9168 120.254 83.3008 126.255 71.6265 132.138C68.5969 133.665 65.3243 134.709 62.1633 135.975C62.757 131.253 63.3507 126.531 63.9325 121.424Z" fill="#A0319D"/>
<path d="M142.638 44.2729C142.207 45.8437 141.836 48.3453 140.503 49.0632C128.561 55.4968 116.44 61.5988 104.391 67.836C98.504 70.8835 92.7001 74.0947 86.7695 77.0531C84.8912 77.9901 82.7243 78.3487 80.2908 78.9682C87.5705 65.4359 99.3278 56.4636 113.531 51.2321C122.702 47.8543 132.65 46.5887 142.638 44.2729Z" fill="#7D37B2"/>
<path d="M174.491 154.145C160.547 162.018 146.155 169.851 131.718 177.6C129.844 178.606 127.74 179.182 125.368 179.979C122.955 165.088 132.856 157.455 145.322 155.321C154.688 153.718 164.446 154.409 174.491 154.145Z" fill="#DD3176"/>
<path d="M228.897 201.584C222.373 204.931 215.797 207.644 209.472 210.851C200.569 215.365 191.889 220.315 183.049 224.956C166.982 233.39 150.829 241.659 134.825 250.209C132.862 251.258 131.594 253.608 129.963 255.725C127.192 255.475 124.461 254.856 121.623 253.808C124.572 251.14 127.41 248.49 130.721 246.732C143.489 239.955 156.441 233.524 169.261 226.842C178.096 222.237 186.719 217.215 195.632 212.769C206.596 207.301 217.762 202.238 228.84 197C228.879 198.39 228.917 199.78 228.897 201.584Z" fill="#F07338"/>
<path d="M62.0803 136.335C65.3243 134.709 68.5969 133.665 71.6265 132.138C83.3008 126.255 94.9168 120.254 106.503 114.199C108.365 113.226 109.965 111.754 111.871 110.219C114.955 111.742 117.854 113.557 120.929 115.666C102.751 125.845 84.4 135.736 66.0373 145.606C65.0328 146.146 63.9318 146.506 62.5211 146.978C62.1101 143.568 62.0537 140.131 62.0803 136.335Z" fill="#AB2F97"/>
<path d="M133.129 191.397C133.833 189.976 134.471 188.4 135.619 187.8C152.171 179.159 168.793 170.649 185.76 162.034C186.457 162.041 186.69 162.241 186.64 163.065C186.314 164.402 186.17 165.234 186.025 166.066C185.22 169.563 184.414 173.059 183.063 176.565C180.724 176.365 178.614 175.445 177.195 176.077C171.779 178.491 166.566 181.367 161.314 184.141C154.512 187.734 147.747 191.393 140.966 195.024C138.411 193.915 135.855 192.805 133.129 191.397Z" fill="#E44562"/>
<path d="M137.978 216.169C144.332 216.796 150.687 217.424 157.162 218.297C155.033 218.953 152.509 218.844 150.578 219.86C141.517 224.627 132.591 229.654 123.671 234.685C117.057 238.416 110.527 242.296 103.96 246.109C100.665 243.972 97.371 241.836 94.3014 239.394C95.6401 238.96 96.9108 239.134 97.8444 238.653C108.146 233.349 118.447 228.037 128.63 222.51C131.923 220.723 134.872 218.301 137.978 216.169Z" fill="#EB5F4A"/>
<path d="M146.414 83.1132C144.286 79.4479 147.213 78.4618 149.527 77.2596C160.446 71.5862 171.413 66.0052 182.324 60.316C186.738 58.0147 191.051 55.5216 195.76 53.0364C196.895 53.2653 197.68 53.5734 198.914 54.1835C199.591 54.6863 199.843 54.8492 200.119 54.974C200.119 54.974 200.586 55.049 200.975 55.2672C201.592 55.6834 201.845 55.8428 202.123 55.9637C202.123 55.9637 202.593 56.039 202.975 56.2601C203.577 56.6791 203.819 56.8457 204.083 56.981C204.083 56.981 204.021 56.9533 203.804 57.1874C194.691 62.1312 185.697 66.6663 176.933 71.6102C170.808 75.0657 164.998 79.0805 159.047 82.8455C154.957 82.929 150.867 83.0125 146.414 83.1132Z" fill="#9E319E"/>
<path d="M165.479 257.053C166.423 255.531 167.514 253.419 169.24 252.496C184.289 244.447 199.43 236.566 214.615 228.776C216.233 227.946 218.315 228.02 220.485 227.818C207.174 246.473 188.551 255.528 165.479 257.053Z" fill="#F68B2F"/>
<path d="M137.607 216.089C134.872 218.301 131.923 220.723 128.63 222.51C118.447 228.037 108.146 233.349 97.8444 238.653C96.9108 239.134 95.6401 238.96 94.1979 239.061C92.31 237.562 90.7501 236.093 89.3347 234.16C92.6807 231.617 95.7548 229.299 99.1105 227.509C105.721 223.982 112.624 220.986 119.111 217.257C121.212 216.05 122.392 213.241 123.994 211.164C128.408 212.779 132.822 214.394 137.607 216.089Z" fill="#E85752"/>
<path d="M69.0716 201.963C68.0487 197.882 67.0259 193.802 66.3916 189.366C74.2909 185.717 81.791 182.399 89.3161 179.138C94.1349 177.051 98.9907 175.048 103.83 173.007C103.887 175.694 103.944 178.381 103.891 181.837C98.3759 185.477 92.9193 188.255 87.5789 191.241C81.3567 194.72 75.2362 198.381 69.0716 201.963Z" fill="#DB2B7B"/>
<path d="M228.892 196.657C217.762 202.238 206.596 207.301 195.632 212.769C186.719 217.215 178.096 222.237 169.261 226.842C156.441 233.524 143.489 239.955 130.721 246.732C127.41 248.49 124.572 251.14 121.288 253.607C119.943 253.542 118.827 253.248 117.364 252.888C118.951 250.912 120.564 248.392 122.866 247.185C150.638 232.617 178.515 218.252 206.354 203.813C212.097 200.835 217.739 197.655 223.555 194.83C224.905 194.175 226.777 194.594 228.629 194.727C228.881 195.394 228.912 195.854 228.892 196.657Z" fill="#EF703B"/>
<path d="M225.983 77.2191C227.866 79.9271 229.749 82.6352 231.378 85.7486C221.308 91.3307 211.447 96.423 201.733 101.783C200.416 102.51 199.84 104.579 198.921 106.027C196.724 103.226 194.527 100.425 192.26 97.0121C193.124 95.4876 193.91 94.289 195.019 93.7081C204.417 88.787 213.881 83.9911 223.303 79.1174C224.266 78.6194 225.093 77.8582 225.983 77.2191Z" fill="#C22D8A"/>
<path d="M225.713 76.9969C225.093 77.8582 224.266 78.6194 223.303 79.1174C213.881 83.9911 204.417 88.787 195.019 93.7081C193.91 94.289 193.124 95.4876 192.088 96.727C189.524 95.0962 187.061 93.1382 184.385 90.6831C187.004 88.0128 189.649 85.5233 192.703 83.7268C201.391 78.6149 210.246 73.7855 219.035 68.845C221.171 71.4882 223.307 74.1314 225.713 76.9969Z" fill="#B82E90"/>
<path d="M68.9259 202.188C75.2362 198.381 81.3567 194.72 87.5789 191.241C92.9193 188.255 98.3759 185.477 103.903 182.285C104.928 185.073 105.832 188.184 106.596 191.814C104.692 193.528 103.016 194.891 101.146 195.888C93.4502 199.992 85.6187 203.85 78.0199 208.123C76.297 209.092 75.3062 211.362 73.9784 213.034C72.2457 209.494 70.513 205.954 68.9259 202.188Z" fill="#DF3273"/>
<path d="M123.701 210.969C122.392 213.241 121.212 216.05 119.111 217.257C112.624 220.986 105.721 223.982 99.1105 227.509C95.7548 229.299 92.6807 231.617 89.1829 233.872C87.0167 232.222 85.147 230.398 83.17 227.92C84.4405 225.979 85.6236 224.33 87.2287 223.462C95.4013 219.042 103.766 214.973 111.865 210.425C113.749 209.367 114.858 206.926 116.323 205.121C118.685 207.005 121.047 208.889 123.701 210.969Z" fill="#E64D5A"/>
<path d="M141.239 195.312C147.747 191.393 154.512 187.734 161.314 184.141C166.566 181.367 171.779 178.491 177.195 176.077C178.614 175.445 180.724 176.365 182.782 176.801C177.512 193.695 162.668 198.415 146.799 196.712C145.017 196.52 143.273 195.978 141.239 195.312Z" fill="#E64C5B"/>
<path d="M63.1138 172.398C65.3522 171.744 67.7945 171.984 69.6593 171.06C81.43 165.224 93.0482 159.081 104.781 153.167C106.807 152.145 109.139 151.729 111.73 151.038C109.947 155.555 107.765 160.067 105.046 164.578C102.275 164.584 99.6847 163.85 97.8672 164.724C88.8103 169.078 79.8491 173.666 71.0998 178.606C68.6266 180.003 66.9819 182.866 64.9572 185.057C64.3217 180.956 63.6861 176.854 63.1138 172.398Z" fill="#CB2C85"/>
<path d="M64.9278 185.286C66.9819 182.866 68.6266 180.003 71.0998 178.606C79.8491 173.666 88.8103 169.078 97.8672 164.724C99.6847 163.85 102.275 164.584 104.772 164.808C104.678 167.43 104.321 169.82 103.897 172.609C98.9907 175.048 94.1349 177.051 89.3161 179.138C81.791 182.399 74.2909 185.717 66.3733 189.02C65.9665 189.028 65.9963 189.012 65.9358 188.743C65.5984 187.99 65.3215 187.506 65.0446 187.022C64.9958 186.52 64.947 186.018 64.9278 185.286Z" fill="#D22B80"/>
<path d="M155.283 133.151C153.754 130.083 154.951 128.287 157.505 126.988C162.928 124.23 168.345 121.46 173.721 118.613C175.442 117.701 177.026 116.531 178.864 115.189C184.414 119.777 185.696 126.377 187.095 133.359C176.346 133.359 165.955 133.359 155.283 133.151Z" fill="#CE2D82"/>
<path d="M74.1128 213.359C75.3062 211.362 76.297 209.092 78.0199 208.123C85.6187 203.85 93.4502 199.992 101.146 195.888C103.016 194.891 104.692 193.528 106.75 192.159C109.001 195.083 110.958 198.181 112.598 201.628C106.784 204.187 101.07 205.983 95.8436 208.712C89.4374 212.057 83.4386 216.182 77.2636 219.969C76.2582 217.874 75.2527 215.779 74.1128 213.359Z" fill="#E13C6A"/>
<path d="M218.877 68.554C210.246 73.7855 201.391 78.6149 192.703 83.7268C189.649 85.5233 187.004 88.0128 184.092 90.5104C180.569 89.2883 177.127 87.7417 173.616 85.7998C185.163 79.2755 196.827 73.2337 208.34 66.9164C209.937 66.0401 210.787 63.8036 211.983 62.1968C214.228 64.2189 216.473 66.241 218.877 68.554Z" fill="#AE2F95"/>
<path d="M77.3412 220.287C83.4386 216.182 89.4374 212.057 95.8436 208.712C101.07 205.983 106.784 204.187 112.692 201.967C114.075 202.86 115.048 203.763 116.172 204.894C114.858 206.926 113.749 209.367 111.865 210.425C103.766 214.973 95.4013 219.042 87.2287 223.462C85.6236 224.33 84.4405 225.979 83.0295 227.622C81.1371 225.52 79.2779 223.062 77.3412 220.287Z" fill="#E44462"/>
<path d="M104.154 246.391C110.527 242.296 117.057 238.416 123.671 234.685C132.591 229.654 141.517 224.627 150.578 219.86C152.509 218.844 155.033 218.953 157.615 218.356C159.337 218.104 160.728 218.039 162.534 217.94C161.455 219.526 160.254 221.691 158.418 222.679C144.402 230.222 130.23 237.476 116.203 245C114.514 245.906 113.403 247.887 111.992 249.743C109.423 248.967 106.886 247.82 104.154 246.391Z" fill="#ED6743"/>
<path d="M199.031 106.295C199.84 104.579 200.416 102.51 201.733 101.783C211.447 96.423 221.308 91.3307 231.457 86.0756C233.143 88.7653 234.495 91.5335 235.45 94.663C233.043 95.6787 230.911 96.0906 229.046 97.0311C222.292 100.436 215.54 103.865 208.978 107.618C206.688 108.928 204.952 111.205 202.962 113.04C201.688 110.88 200.414 108.721 199.031 106.295Z" fill="#CB2C85"/>
<path d="M202.986 113.398C204.952 111.205 206.688 108.928 208.978 107.618C215.54 103.865 222.292 100.436 229.046 97.0311C230.911 96.0906 233.043 95.6787 235.43 95.0208C236.485 96.4743 237.162 97.9313 237.816 99.7383C233.38 102.935 229.167 106.176 224.506 108.533C218.205 111.72 211.56 114.227 204.677 117.041C203.865 115.957 203.437 114.857 202.986 113.398Z" fill="#D22B80"/>
<path d="M159.424 82.9369C164.998 79.0805 170.808 75.0657 176.933 71.6102C185.697 66.6663 194.691 62.1312 203.836 57.1759C205.198 57.5841 206.312 58.2379 207.619 59.3818C205.61 61.5473 203.579 63.5443 201.171 64.8408C192.114 69.7174 182.858 74.2256 173.855 79.1966C171.565 80.461 169.937 82.9237 168.005 84.8358C165.27 84.2333 162.536 83.6308 159.424 82.9369Z" fill="#A4309B"/>
<path d="M168.373 84.8993C169.937 82.9237 171.565 80.461 173.855 79.1966C182.858 74.2256 192.114 69.7174 201.171 64.8408C203.579 63.5443 205.61 61.5473 207.903 59.557C209.143 60.1136 210.295 60.985 211.715 62.0266C210.787 63.8036 209.937 66.0401 208.34 66.9164C196.827 73.2337 185.163 79.2755 173.303 85.6226C171.62 85.5479 170.18 85.2553 168.373 84.8993Z" fill="#A73099"/>
<path d="M227.686 186.795C217.714 192.448 207.734 197.903 197.613 203.082C194.886 204.477 191.732 205.037 188.376 205.975C190.758 202.764 193.536 199.557 196.811 196.022C197.533 195.44 197.758 195.185 197.984 194.93C197.984 194.93 197.981 194.994 198.336 194.962C203.953 192.541 209.153 189.999 214.499 187.812C218.266 186.272 222.232 185.215 226.109 183.942C226.615 184.792 227.12 185.643 227.686 186.795Z" fill="#ED6743"/>
<path d="M226.065 183.581C222.232 185.215 218.266 186.272 214.499 187.812C209.153 189.999 203.953 192.541 198.311 194.942C199.438 191.454 200.944 187.954 203.067 184.156C209.475 180.88 215.266 177.902 221.058 174.924C222.712 177.69 224.366 180.455 226.065 183.581Z" fill="#EB5F4A"/>
<path d="M220.897 174.628C215.266 177.902 209.475 180.88 203.328 183.92C204.603 177.538 206.234 171.093 208.227 163.221C212.553 167.063 216.645 170.698 220.897 174.628Z" fill="#E85752"/>
<path d="M156.538 44.1129C153.625 47.2067 150.022 46.4353 146.195 44.4948C149.376 44.1298 152.73 44.0942 156.538 44.1129Z" fill="#7D37B2"/>
<path d="M71.1 95.2815C71.3178 95.6112 71.4746 96.1423 71.6314 96.6733C71.4354 96.5393 71.2394 96.4053 71.0004 96.0835C70.9574 95.8956 71.039 95.4829 71.1 95.2815Z" fill="#8134AF"/>
<path d="M186.287 165.857C186.17 165.234 186.314 164.402 186.633 163.303C186.721 163.906 186.635 164.777 186.287 165.857Z" fill="#E13B6B"/>
<path d="M65.0674 187.314C65.3215 187.506 65.5984 187.99 65.9248 188.754C65.6796 188.558 65.3849 188.081 65.0674 187.314Z" fill="#DB2B7B"/>
<path d="M164.668 217.133C164.469 217.413 163.971 217.65 163.195 217.918C163.4 217.663 163.884 217.376 164.668 217.133Z" fill="#ED6743"/>
<path d="M197.741 195.033C197.758 195.185 197.533 195.44 197.092 195.832C197.084 195.692 197.291 195.414 197.741 195.033Z" fill="#EB5F4A"/>
<path d="M62.1257 161.251C62.1746 161.012 62.5857 161.01 62.7912 161.01C62.8513 161.261 62.6758 161.489 62.3064 161.834C62.1426 161.976 62.0768 161.491 62.1257 161.251Z" fill="#C42D88"/>
<path d="M62.1456 156.265C62.3835 156.247 62.433 156.486 62.2508 156.857C62.1713 156.962 62.1093 156.497 62.1456 156.265Z" fill="#B32F92"/>
<path d="M159.72 44.1355C159.946 44.1641 159.619 44.3548 159.619 44.3548C159.619 44.3548 159.251 44.3201 159.147 44.2436C159.044 44.167 159.495 44.1069 159.72 44.1355Z" fill="#7D37B2"/>
<path d="M180.976 47.7752C180.819 47.8519 180.582 47.6878 180.22 47.3325C180.416 47.1497 180.682 47.2808 180.976 47.7752Z" fill="#9631A3"/>
<path d="M200 54.7658C199.843 54.8492 199.59 54.6863 199.205 54.3251C199.399 54.138 199.677 54.2689 200 54.7658Z" fill="#9631A3"/>
<path d="M202.001 55.7581C201.845 55.8428 201.592 55.6834 201.203 55.3267C201.395 55.1394 201.673 55.2676 202.001 55.7581Z" fill="#9631A3"/>
<path d="M203.977 56.7689C203.819 56.8457 203.577 56.6791 203.205 56.3219C203.402 56.1337 203.675 56.2652 203.977 56.7689Z" fill="#A4309B"/>
</g>
<defs>
<clipPath id="clip0_80_10075">
<rect width="300" height="300" fill="white"/>
</clipPath>
</defs>
</svg>
