<svg width="225" height="225" viewBox="0 0 225 225" fill="none" xmlns="http://www.w3.org/2000/svg">
<g clip-path="url(#clip0_82_12588)">
<rect x="5.5" y="5" width="214" height="214" rx="44.5" fill="white" stroke="black" stroke-width="11"/>
<path d="M99.9882 173.24C117.484 176.439 133.923 175.994 147.977 164.003C155.499 157.584 159.263 149.447 158.255 139.303C157.506 131.759 153.606 126.376 147.127 121.874C146.363 124.739 145.736 127.368 144.962 129.953C138.891 150.21 117.215 159.137 98.6277 149.022C90.1455 144.406 85.7452 137.302 85.8022 127.55C85.8571 118.14 90.425 111.495 98.4382 107.012C107.88 101.73 118.124 101.597 128.507 102.487C130.139 102.627 131.764 102.848 133.64 103.059C132.352 95.2285 129.045 89.5885 121.146 87.7375C112.206 85.6424 104.342 87.1218 98.0527 95.0076C94.5932 92.6118 91.0953 90.1893 87.3731 87.6116C96.0399 75.3885 107.937 72.2031 121.709 74.12C133.676 75.7859 143.49 84.4319 145.63 97.0358C146.856 104.251 150.022 108.121 155.906 112.105C175.535 125.395 177.065 152.887 159.865 170.948C147.272 184.173 131.325 188.372 113.701 188.227C74.0808 187.899 53.9847 162.39 49.9984 127.698C48.3273 113.155 48.9349 98.8178 52.9014 84.6802C61.4308 54.2797 83.9983 37.9614 115.7 38.7573C137.632 39.3079 156.151 46.4613 168.565 65.3446C172.588 71.4649 175.184 78.5237 178.718 85.734C173.746 87.0997 169.796 88.1847 165.411 89.3894C164.461 86.7873 163.65 84.3205 162.673 81.9214C152.695 57.4332 130.477 50.2027 107.806 52.4341C77.5897 55.408 66.4678 75.1296 63.1368 99.6052C61.0035 115.28 61.9959 130.808 67.8508 145.743C73.6108 160.437 84.1184 169.666 99.9882 173.24ZM110.932 139.143C125.944 140.406 134.492 132.128 133.588 115.829C127.461 115.829 121.2 115.393 115.038 115.986C111.082 116.367 106.835 117.557 103.487 119.628C96.7558 123.793 97.2408 132.776 104.063 136.817C105.869 137.886 108.05 138.32 110.932 139.143Z" fill="black"/>
</g>
<defs>
<clipPath id="clip0_82_12588">
<rect width="225" height="225" fill="white"/>
</clipPath>
</defs>
</svg>
