<svg width="32" height="32" viewBox="0 0 32 32" fill="none" xmlns="http://www.w3.org/2000/svg">
<g clip-path="url(#clip0_1752_94455)">
<g clip-path="url(#clip1_1752_94455)">
<path d="M0 10.7333C0 6.93673 0 5.03843 0.750577 3.5935C1.38308 2.37588 2.37588 1.38308 3.5935 0.750577C5.03843 0 6.93673 0 10.7333 0H21.2667C25.0633 0 26.9616 0 28.4065 0.750577C29.6241 1.38308 30.6169 2.37588 31.2494 3.5935C32 5.03843 32 6.93673 32 10.7333V21.2667C32 25.0633 32 26.9616 31.2494 28.4065C30.6169 29.6241 29.6241 30.6169 28.4065 31.2494C26.9616 32 25.0633 32 21.2667 32H10.7333C6.93673 32 5.03843 32 3.5935 31.2494C2.37588 30.6169 1.38308 29.6241 0.750577 28.4065C0 26.9616 0 25.0633 0 21.2667V10.7333Z" fill="black"/>
<path d="M9.70945 19.1605C9.83968 18.0822 10.2819 17.4785 11.1153 16.8596C12.3076 16.0215 13.7971 16.4956 13.7971 16.4956V13.683C14.1592 13.6737 14.5215 13.6952 14.8796 13.7471V17.3667C14.8796 17.3667 13.3906 16.8926 12.1982 17.7312C11.3653 18.3496 10.9222 18.9537 10.7924 20.032C10.7883 20.6175 10.8982 21.3828 11.4042 22.0446C11.2791 21.9805 11.1516 21.9074 11.0217 21.8253C9.90705 21.0769 9.70403 19.954 9.70945 19.1605ZM21.0296 8.4824C20.2094 7.58357 19.8992 6.67608 19.787 6.03857H20.8189C20.8189 6.03857 20.6132 7.71012 22.1126 9.35393L22.1334 9.37603C21.7293 9.12183 21.3587 8.82179 21.0296 8.4824ZM26.0004 11.0307V14.5775C26.0004 14.5775 24.6836 14.5259 23.7092 14.278C22.3486 13.9313 21.4741 13.3995 21.4741 13.3995C21.4741 13.3995 20.87 13.0203 20.8212 12.9939V20.318C20.8212 20.7258 20.7095 21.7443 20.369 22.5937C19.9245 23.7049 19.2386 24.4343 19.1124 24.5833C19.1124 24.5833 18.2781 25.5693 16.8063 26.2332C15.4796 26.8321 14.3148 26.817 13.9667 26.8321C13.9667 26.8321 11.9531 26.9119 10.1413 25.7344C9.74948 25.4749 9.38375 25.1809 9.04883 24.8564L9.05787 24.8629C10.8702 26.0404 12.8833 25.9606 12.8833 25.9606C13.2319 25.9455 14.3967 25.9606 15.7229 25.3617C17.1934 24.6978 18.029 23.7118 18.029 23.7118C18.1538 23.5627 18.8429 22.8334 19.2856 21.7217C19.6252 20.8727 19.7378 19.8539 19.7378 19.4461V12.1228C19.7866 12.1497 20.3902 12.5289 20.3902 12.5289C20.3902 12.5289 21.2652 13.0611 22.6258 13.4073C23.6007 13.6552 24.917 13.7068 24.917 13.7068V10.9275C25.3673 11.0285 25.7512 11.0558 26.0004 11.0307Z" fill="#FD355A"/>
<path d="M24.9167 10.9275V13.7059C24.9167 13.7059 23.6005 13.6544 22.6256 13.4065C21.265 13.0598 20.39 12.528 20.39 12.528C20.39 12.528 19.7864 12.1488 19.7375 12.1219V19.4469C19.7375 19.8547 19.6258 20.8736 19.2854 21.7226C18.8409 22.8342 18.1549 23.5636 18.0288 23.7127C18.0288 23.7127 17.1941 24.6986 15.7227 25.3626C14.3965 25.9615 13.2317 25.9463 12.883 25.9615C12.883 25.9615 10.87 26.0412 9.05764 24.8637L9.0486 24.8572C8.85726 24.672 8.67715 24.4763 8.50916 24.2713C7.93083 23.5662 7.57632 22.7324 7.48724 22.4944C7.48709 22.4934 7.48709 22.4924 7.48724 22.4914C7.3439 22.078 7.04276 21.0851 7.0839 20.1234C7.1567 18.4267 7.75357 17.3853 7.91138 17.1244C8.32933 16.413 8.87292 15.7764 9.51796 15.2431C10.0872 14.7829 10.7323 14.4168 11.427 14.1597C12.178 13.8578 12.9822 13.696 13.7964 13.683V16.4956C13.7964 16.4956 12.307 16.0232 11.115 16.8596C10.2817 17.4785 9.83945 18.0822 9.70923 19.1605C9.7038 19.954 9.90683 21.0769 11.0205 21.8257C11.1505 21.9081 11.278 21.9812 11.4031 22.045C11.5976 22.2979 11.8344 22.5183 12.1039 22.6973C13.1919 23.3859 14.1034 23.434 15.2692 22.9868C16.0464 22.6877 16.6316 22.0138 16.9029 21.2671C17.0733 20.8008 17.0711 20.3314 17.0711 19.8461V6.03857H19.7841C19.8962 6.67608 20.2064 7.58357 21.0267 8.4824C21.3557 8.82178 21.7263 9.12183 22.1304 9.37603C22.2498 9.49955 22.8602 10.1102 23.6439 10.4851C24.0491 10.6788 24.4761 10.8273 24.9167 10.9275Z" fill="white"/>
<path d="M6.4082 21.6306V21.6328L6.47511 21.8141C6.46742 21.793 6.44256 21.7288 6.4082 21.6306Z" fill="#33F3ED"/>
<path d="M11.4273 14.1595C10.7327 14.4166 10.0875 14.7828 9.51827 15.243C8.87302 15.7775 8.32957 16.4154 7.91215 17.1282C7.75434 17.3882 7.15747 18.4305 7.08467 20.1272C7.04352 21.0889 7.34467 22.0817 7.48801 22.4952C7.48786 22.4962 7.48786 22.4972 7.48801 22.4982C7.57845 22.734 7.93159 23.5678 8.50992 24.2751C8.67792 24.4801 8.85803 24.6757 9.04937 24.861C8.43631 24.4546 7.88955 23.9633 7.42697 23.4031C6.85361 22.7041 6.50001 21.8789 6.40777 21.6353C6.40766 21.6336 6.40766 21.6319 6.40777 21.6301V21.6271C6.26398 21.2141 5.96193 20.2208 6.00398 19.2578C6.07678 17.5611 6.67365 16.5197 6.83145 16.2588C7.24875 15.5459 7.79222 14.908 8.43758 14.3736C9.00667 13.9133 9.65188 13.5471 10.3467 13.2902C10.78 13.1178 11.2315 12.9907 11.6932 12.911C12.3891 12.7946 13.0998 12.7845 13.799 12.8811V13.6828C12.984 13.6956 12.179 13.8574 11.4273 14.1595Z" fill="#33F3ED"/>
<path d="M19.7871 6.03846H17.0741V19.8464C17.0741 20.3318 17.0741 20.7998 16.9059 21.2674C16.6319 22.0137 16.049 22.6876 15.2722 22.9867C14.106 23.4356 13.1945 23.3858 12.107 22.6972C11.837 22.519 11.5996 22.2994 11.4043 22.0471C12.3308 22.5208 13.1601 22.5125 14.1874 22.1173C14.9638 21.8183 15.5476 21.1444 15.8207 20.3976C15.9916 19.9313 15.9893 19.462 15.9893 18.977V5.1665H19.7356C19.7356 5.1665 19.6935 5.50974 19.7871 6.03846ZM24.9175 10.159V10.9274C24.4777 10.827 24.0514 10.6786 23.6469 10.4849C22.8633 10.1101 22.2528 9.49944 22.1335 9.37592C22.272 9.46309 22.4157 9.54239 22.5639 9.61342C23.5167 10.0693 24.4549 10.2054 24.9175 10.159Z" fill="#33F3ED"/>
</g>
</g>
<defs>
<clipPath id="clip0_1752_94455">
<rect width="32" height="32" rx="8" fill="white"/>
</clipPath>
<clipPath id="clip1_1752_94455">
<rect width="32" height="32" fill="white"/>
</clipPath>
</defs>
</svg>
