<svg width="32" height="32" viewBox="0 0 32 32" fill="none" xmlns="http://www.w3.org/2000/svg">
<path d="M13.3207 23.0121C15.1007 23.0121 16.5437 21.7377 16.5437 19.7891V5.3335H20.409C20.1921 7.9698 22.8129 10.5164 25.7031 10.4582V14.0928C23.2314 14.0928 21.1295 13.0476 20.3979 12.4676V19.7891C20.3979 23.0121 17.8625 26.6668 13.3207 26.6668C8.77896 26.6668 6.29883 23.0121 6.29883 19.7891C6.29883 15.2402 11.1127 12.602 14.3011 13.2468V16.9489C14.1407 16.8921 13.7271 16.8082 13.3748 16.8082C11.58 16.7421 10.0978 18.1978 10.0978 19.7891C10.0978 21.5691 11.5407 23.0121 13.3207 23.0121Z" fill="white"/>
</svg>
