<svg width="32" height="32" viewBox="0 0 32 32" fill="none" xmlns="http://www.w3.org/2000/svg">
<path d="M18.3742 26.5778C17.4564 26.8193 16.5114 26.9418 15.5625 26.9423C13.9046 26.9423 12.2731 24.4693 11.4878 20.8471C12.7827 20.3249 14.1663 20.0578 15.5625 20.0604C16.2114 20.1314 16.8904 19.9871 16.9313 19.2183C16.9389 18.4358 16.2117 18.2514 15.5624 18.3105C14.0685 18.3088 12.5861 18.5731 11.1849 19.0912C11.0517 18.0678 10.9854 17.0368 10.9862 16.0048C10.9851 14.9731 11.0502 13.9424 11.1813 12.9191C12.5844 13.4352 14.0675 13.6994 15.5625 13.6996C17.0568 13.6994 18.5395 13.4354 19.942 12.9196C20.0742 13.95 20.1399 14.9878 20.1387 16.0266C20.1449 16.2564 20.2412 16.4746 20.407 16.634C20.5727 16.7934 20.7945 16.8811 21.0245 16.8782C21.2544 16.8754 21.4739 16.7821 21.6357 16.6187C21.7974 16.4552 21.8883 16.2347 21.8887 16.0047C21.7768 10.1711 20.6701 13.6738 24.6237 9.88548C25.8488 11.6909 26.5025 13.823 26.5 16.0048C26.4996 16.6089 26.4494 17.2119 26.35 17.8078C26.3311 17.9211 26.3346 18.0371 26.3605 18.149C26.3864 18.261 26.4341 18.3667 26.5009 18.4602C26.5677 18.5538 26.6522 18.6332 26.7497 18.694C26.8472 18.7549 26.9557 18.7959 27.069 18.8148C28.469 18.961 28.1471 16.903 28.25 16.0048C28.1417 4.03296 13.2629 -1.17313 5.7237 8.0054C1.97543 12.4101 1.92795 19.5616 5.75368 24.0461C7.29968 25.927 9.35295 27.3247 11.6697 28.0733C13.9864 28.8218 16.4694 28.8899 18.8236 28.2693C19.0476 28.2094 19.2387 28.0631 19.3549 27.8625C19.4711 27.6618 19.503 27.4233 19.4434 27.1992C19.3839 26.9751 19.2378 26.7838 19.0373 26.6673C18.8369 26.5508 18.5983 26.5186 18.3742 26.5778ZM15.5625 11.9496C14.165 11.9505 12.7803 11.6835 11.4833 11.1633C12.301 7.42058 13.9962 5.06729 15.5625 5.06729C17.1277 5.06729 18.8217 7.4173 19.64 11.1638C18.3435 11.6837 16.9593 11.9504 15.5625 11.9496ZM23.5191 8.51166C22.8486 9.22612 22.085 9.84708 21.2489 10.3578C20.8859 8.713 20.2319 7.1463 19.3178 5.73155C20.915 6.31971 22.3533 7.27152 23.5191 8.51166ZM11.8071 5.73155C10.893 7.1463 10.239 8.713 9.87602 10.3578C9.03988 9.84708 8.27629 9.22612 7.60583 8.51166C8.77158 7.27152 10.2099 6.31971 11.8071 5.73155ZM6.50137 9.88542C7.38678 10.7951 8.40413 11.5662 9.51919 12.1729C9.14097 14.7135 9.14409 17.2963 9.52845 19.8359C8.41131 20.4428 7.39134 21.2136 6.50247 22.1226C5.2896 20.3126 4.64195 18.183 4.64175 16.0042C4.64156 13.8254 5.28882 11.6957 6.50137 9.88542ZM7.60428 23.4993C8.27698 22.7849 9.04236 22.1639 9.88 21.6528C10.2363 23.2953 10.8855 24.8602 11.7967 26.2724C10.2022 25.6876 8.76645 24.7379 7.60428 23.4993Z" fill="#121212"/>
<path d="M26.8469 22.6683L27.5907 21.9249C27.7492 21.7633 27.8636 21.5639 27.9233 21.3457C27.9829 21.1274 27.9857 20.8975 27.9315 20.6778C27.8772 20.4581 27.7677 20.256 27.6133 20.0906C27.4589 19.9252 27.2648 19.802 27.0494 19.7327L19.4589 17.3769C19.2298 17.309 18.9866 17.3042 18.755 17.3631C18.5233 17.4219 18.3119 17.5422 18.1429 17.7112C17.974 17.8802 17.8537 18.0917 17.795 18.3234C17.7362 18.555 17.741 18.7982 17.809 19.0273L20.1648 26.6171C20.2339 26.8325 20.3569 27.0267 20.5222 27.1812C20.6875 27.3356 20.8896 27.4452 21.1092 27.4995C21.3288 27.5539 21.5587 27.5511 21.7769 27.4916C21.9952 27.432 22.1945 27.3176 22.3561 27.1593L23.1004 26.4153L24.9909 28.306C25.2385 28.5528 25.5738 28.6914 25.9234 28.6914C26.273 28.6914 26.6083 28.5528 26.8559 28.306L28.7383 26.4236C28.9848 26.1759 29.1232 25.8407 29.1231 25.4912C29.123 25.1418 28.9845 24.8066 28.7379 24.5591L26.8469 22.6683ZM25.9236 26.7637L23.719 24.5591C23.5543 24.3962 23.332 24.3049 23.1004 24.3048C22.8688 24.3048 22.6465 24.3961 22.4817 24.5589L21.6242 25.4164L19.7234 19.2914L25.8484 21.1922L24.9909 22.0497C24.828 22.2144 24.7367 22.4367 24.7367 22.6683C24.7367 22.9 24.828 23.1223 24.9909 23.287L27.1955 25.4916L25.9236 26.7637ZM15.5616 8.12976C15.3317 8.1331 15.1124 8.22675 14.951 8.39049C14.7897 8.55423 14.6992 8.77489 14.6992 9.00478C14.6992 9.23467 14.7897 9.45533 14.9511 9.61906C15.1125 9.78279 15.3318 9.87643 15.5617 9.87976C15.7915 9.87642 16.0108 9.78277 16.1722 9.61903C16.3336 9.4553 16.424 9.23463 16.424 9.00474C16.424 8.77485 16.3336 8.55419 16.1722 8.39046C16.0108 8.22673 15.7915 8.13309 15.5616 8.12976Z" fill="#121212"/>
</svg>
