<svg width="32" height="32" viewBox="0 0 32 32" fill="none" xmlns="http://www.w3.org/2000/svg">
<rect width="32" height="32" rx="8" fill="#E3FCFD"/>
<path d="M24.6888 8.50563C23.5879 9.84964 22.2028 10.9329 20.6331 11.6775C19.8413 7.28938 17.8681 4.18751 15.5625 4.18751C17.3087 4.18529 19.0336 4.57161 20.6121 5.31847C22.1905 6.06533 23.5831 7.15402 24.6888 8.50563Z" fill="#E3FCFD"/>
<path d="M27.375 16C27.3801 18.7348 26.43 21.3855 24.6888 23.4944C23.5879 22.1503 22.2028 21.0671 20.6331 20.3225C20.8896 18.896 21.017 17.4493 21.0138 16C21.017 14.5506 20.8896 13.104 20.6331 11.6775C22.2028 10.9329 23.5879 9.84962 24.6888 8.50562C26.43 10.6144 27.3801 13.2652 27.375 16ZM10.1113 16C10.108 17.4493 10.2354 18.896 10.4919 20.3225C8.92221 21.0671 7.53711 22.1503 6.43625 23.4944C4.69952 21.383 3.75 18.7339 3.75 16C3.75 13.2661 4.69952 10.617 6.43625 8.50562C7.53712 9.84962 8.92222 10.9329 10.4919 11.6775C10.2354 13.104 10.108 14.5506 10.1113 16Z" fill="#E3FCFD"/>
<path d="M15.5618 4.18751C13.2562 4.18751 11.283 7.28938 10.4912 11.6775C8.92151 10.9329 7.53642 9.84964 6.43555 8.50563C7.54122 7.15402 8.93375 6.06533 10.5122 5.31847C12.0907 4.57161 13.8156 4.18529 15.5618 4.18751ZM15.5618 27.8125C13.8156 27.8147 12.0907 27.4284 10.5122 26.6815C8.93375 25.9347 7.54122 24.846 6.43555 23.4944C7.5364 22.1504 8.9215 21.0671 10.4912 20.3225C11.283 24.7106 13.2562 27.8125 15.5618 27.8125ZM24.688 23.4944C23.5824 24.846 22.1898 25.9347 20.6114 26.6815C19.0329 27.4284 17.308 27.8147 15.5618 27.8125C17.8674 27.8125 19.8405 24.7106 20.6324 20.3225C22.2021 21.0671 23.5872 22.1504 24.688 23.4944Z" fill="#E3FCFD"/>
<path d="M20.6334 11.6775C19.0494 12.4312 17.317 12.8213 15.5628 12.8194C13.8086 12.8213 12.0762 12.4312 10.4922 11.6775C11.2841 7.28938 13.2572 4.1875 15.5628 4.1875C17.8684 4.1875 19.8416 7.28938 20.6334 11.6775Z" fill="#E3FCFD"/>
<path d="M21.0138 16C21.0171 17.4493 20.8897 18.896 20.6332 20.3225C19.0486 19.5706 17.3166 19.1806 15.5626 19.1806C13.8086 19.1806 12.0766 19.5706 10.4919 20.3225C9.98445 17.4632 9.98445 14.5368 10.4919 11.6775C12.076 12.4311 13.8084 12.8213 15.5626 12.8194C17.3168 12.8213 19.0492 12.4311 20.6332 11.6775C20.8897 13.104 21.0171 14.5506 21.0138 16Z" fill="#E3FCFD"/>
<path d="M20.6334 20.3226C19.8416 24.7107 17.8684 27.8126 15.5628 27.8126C13.2572 27.8126 11.2841 24.7107 10.4922 20.3226C12.0768 19.5707 13.8089 19.1807 15.5628 19.1807C17.3168 19.1807 19.0488 19.5707 20.6334 20.3226Z" fill="#E3FCFD"/>
<path d="M25.6099 27.6825L23.1004 25.173L21.7379 26.5356C21.6839 26.5896 21.6168 26.6288 21.5432 26.6493C21.4696 26.6698 21.3919 26.6709 21.3178 26.6526C21.2436 26.6342 21.1754 26.5971 21.1198 26.5447C21.0643 26.4922 21.0231 26.4264 21.0005 26.3534L18.6449 18.7632C18.621 18.6861 18.6186 18.6038 18.638 18.5253C18.6573 18.4469 18.6978 18.3752 18.7549 18.318C18.8121 18.2609 18.8838 18.2204 18.9622 18.2011C19.0407 18.1817 19.1229 18.1841 19.2001 18.208L26.7903 20.5636C26.8632 20.5863 26.9291 20.6274 26.9815 20.683C27.0339 20.7386 27.0711 20.8067 27.0894 20.8809C27.1078 20.9551 27.1066 21.0327 27.0861 21.1063C27.0656 21.1799 27.0265 21.247 26.9725 21.301L25.6099 22.6635L28.1194 25.173C28.2026 25.2562 28.2493 25.3691 28.2493 25.4867C28.2493 25.6044 28.2026 25.7172 28.1194 25.8004L26.2373 27.6825C26.1541 27.7657 26.0413 27.8125 25.9236 27.8125C25.8059 27.8125 25.6931 27.7657 25.6099 27.6825Z" fill="#42EAF5"/>
<path d="M18.3742 26.5778C17.4564 26.8193 16.5114 26.9418 15.5625 26.9423C13.9046 26.9423 12.2731 24.4693 11.4878 20.8471C12.7827 20.3249 14.1663 20.0578 15.5625 20.0604C16.2114 20.1314 16.8904 19.9871 16.9313 19.2183C16.9389 18.4358 16.2117 18.2514 15.5624 18.3105C14.0685 18.3088 12.5861 18.5731 11.1849 19.0912C11.0517 18.0678 10.9854 17.0368 10.9862 16.0048C10.9851 14.9731 11.0502 13.9424 11.1813 12.9191C12.5844 13.4352 14.0675 13.6994 15.5625 13.6996C17.0568 13.6994 18.5395 13.4354 19.942 12.9196C20.0742 13.95 20.1399 14.9878 20.1387 16.0266C20.1449 16.2564 20.2412 16.4746 20.407 16.634C20.5727 16.7934 20.7945 16.8811 21.0245 16.8782C21.2544 16.8754 21.4739 16.7821 21.6357 16.6187C21.7974 16.4552 21.8883 16.2347 21.8887 16.0047C21.7768 10.1711 20.6701 13.6738 24.6237 9.88548C25.8488 11.6909 26.5025 13.823 26.5 16.0048C26.4996 16.6089 26.4494 17.2119 26.35 17.8078C26.3311 17.9211 26.3346 18.0371 26.3605 18.149C26.3864 18.261 26.4341 18.3667 26.5009 18.4602C26.5677 18.5538 26.6522 18.6332 26.7497 18.694C26.8472 18.7549 26.9557 18.7959 27.069 18.8148C28.469 18.961 28.1471 16.903 28.25 16.0048C28.1417 4.03296 13.2629 -1.17313 5.7237 8.0054C1.97543 12.4101 1.92795 19.5616 5.75368 24.0461C7.29968 25.927 9.35295 27.3247 11.6697 28.0733C13.9864 28.8218 16.4694 28.8899 18.8236 28.2693C19.0476 28.2094 19.2387 28.0631 19.3549 27.8625C19.4711 27.6618 19.503 27.4233 19.4434 27.1992C19.3839 26.9751 19.2378 26.7838 19.0373 26.6673C18.8369 26.5508 18.5983 26.5186 18.3742 26.5778ZM15.5625 11.9496C14.165 11.9505 12.7803 11.6835 11.4833 11.1633C12.301 7.42058 13.9962 5.06729 15.5625 5.06729C17.1277 5.06729 18.8217 7.4173 19.64 11.1638C18.3435 11.6837 16.9593 11.9504 15.5625 11.9496ZM23.5191 8.51166C22.8486 9.22612 22.085 9.84708 21.2489 10.3578C20.8859 8.713 20.2319 7.1463 19.3178 5.73155C20.915 6.31971 22.3533 7.27152 23.5191 8.51166ZM11.8071 5.73155C10.893 7.1463 10.239 8.713 9.87602 10.3578C9.03988 9.84708 8.27629 9.22612 7.60583 8.51166C8.77158 7.27152 10.2099 6.31971 11.8071 5.73155ZM6.50137 9.88542C7.38678 10.7951 8.40413 11.5662 9.51919 12.1729C9.14097 14.7135 9.14409 17.2963 9.52845 19.8359C8.41131 20.4428 7.39134 21.2136 6.50247 22.1226C5.2896 20.3126 4.64195 18.183 4.64175 16.0042C4.64156 13.8254 5.28882 11.6957 6.50137 9.88542ZM7.60428 23.4993C8.27698 22.7849 9.04236 22.1639 9.88 21.6528C10.2363 23.2953 10.8855 24.8602 11.7967 26.2724C10.2022 25.6876 8.76645 24.7379 7.60428 23.4993Z" fill="#007DA1"/>
<path d="M26.8469 22.6683L27.5907 21.9249C27.7492 21.7633 27.8636 21.5639 27.9233 21.3457C27.9829 21.1274 27.9857 20.8975 27.9315 20.6778C27.8772 20.4581 27.7677 20.256 27.6133 20.0906C27.4589 19.9252 27.2648 19.802 27.0494 19.7327L19.4589 17.3769C19.2298 17.309 18.9866 17.3042 18.755 17.3631C18.5233 17.4219 18.3119 17.5422 18.1429 17.7112C17.974 17.8802 17.8537 18.0917 17.795 18.3234C17.7362 18.555 17.741 18.7982 17.809 19.0273L20.1648 26.6171C20.2339 26.8325 20.3569 27.0267 20.5222 27.1812C20.6875 27.3356 20.8896 27.4452 21.1092 27.4995C21.3288 27.5539 21.5587 27.5511 21.7769 27.4916C21.9952 27.432 22.1945 27.3176 22.3561 27.1593L23.1004 26.4153L24.9909 28.306C25.2385 28.5528 25.5738 28.6914 25.9234 28.6914C26.273 28.6914 26.6083 28.5528 26.8559 28.306L28.7383 26.4236C28.9848 26.1759 29.1232 25.8407 29.1231 25.4912C29.123 25.1418 28.9845 24.8066 28.7379 24.5591L26.8469 22.6683ZM25.9236 26.7637L23.719 24.5591C23.5543 24.3962 23.332 24.3049 23.1004 24.3048C22.8688 24.3048 22.6465 24.3961 22.4817 24.5589L21.6242 25.4164L19.7234 19.2914L25.8484 21.1922L24.9909 22.0497C24.828 22.2144 24.7367 22.4367 24.7367 22.6683C24.7367 22.9 24.828 23.1223 24.9909 23.287L27.1955 25.4916L25.9236 26.7637ZM15.5616 8.12976C15.3317 8.1331 15.1124 8.22675 14.951 8.39049C14.7897 8.55423 14.6992 8.77489 14.6992 9.00478C14.6992 9.23467 14.7897 9.45533 14.9511 9.61906C15.1125 9.78279 15.3318 9.87643 15.5617 9.87976C15.7915 9.87642 16.0108 9.78277 16.1722 9.61903C16.3336 9.4553 16.424 9.23463 16.424 9.00474C16.424 8.77485 16.3336 8.55419 16.1722 8.39046C16.0108 8.22673 15.7915 8.13309 15.5616 8.12976Z" fill="#007DA1"/>
</svg>
