<svg width="32" height="32" viewBox="0 0 32 32" fill="none" xmlns="http://www.w3.org/2000/svg">
<path d="M21.6624 10.4285C22.2041 10.4285 22.7331 10.4751 23.2551 10.5418C22.3114 6.24791 17.9589 3 12.7252 3C6.80122 3 2 7.15795 2 12.2856C2 15.2419 3.60528 17.8648 6.09516 19.5619L4.6812 22.4999L8.53308 20.7858C9.35906 21.0905 10.2174 21.3415 11.1341 21.4583C11.0089 20.8917 10.9377 20.3108 10.9377 19.7145C10.9377 14.5942 15.7476 10.4285 21.6624 10.4285ZM16.3002 7.17824C17.0404 7.17824 17.6407 7.80219 17.6407 8.57127C17.6407 9.34062 17.0404 9.96411 16.3002 9.96411C15.5596 9.96411 14.9595 9.34062 14.9595 8.57127C14.9595 7.80212 15.5596 7.17824 16.3002 7.17824ZM9.15003 9.96411C8.40972 9.96411 7.80943 9.34062 7.80943 8.57127C7.80943 7.80219 8.40979 7.17824 9.15003 7.17824C9.89028 7.17824 10.4907 7.80219 10.4907 8.57127C10.4906 9.34062 9.89022 9.96411 9.15003 9.96411Z" fill="white"/>
<path d="M30.6 19.7144C30.6 15.6117 26.5975 12.2856 21.6624 12.2856C16.7271 12.2856 12.7252 15.6117 12.7252 19.7144C12.7252 23.8168 16.7271 27.1429 21.6624 27.1429C22.474 27.1429 23.246 27.0241 23.9951 26.8553L28.8126 29L27.1464 25.5404C29.2344 24.1807 30.6 22.0898 30.6 19.7144ZM18.9813 19.25C18.241 19.25 17.6406 18.6263 17.6406 17.8569C17.6406 17.0878 18.241 16.4643 18.9813 16.4643C19.7218 16.4643 20.3218 17.088 20.3218 17.8569C20.3218 18.6264 19.7216 19.25 18.9813 19.25ZM24.3437 19.25C23.603 19.25 23.0031 18.6263 23.0031 17.8569C23.0031 17.0878 23.603 16.4643 24.3437 16.4643C25.0842 16.4643 25.6843 17.088 25.6843 17.8569C25.6843 18.6264 25.0842 19.25 24.3437 19.25Z" fill="white"/>
</svg>
