<svg width="32" height="32" viewBox="0 0 32 32" fill="none" xmlns="http://www.w3.org/2000/svg">
<g clip-path="url(#clip0_1924_105566)">
<rect width="32" height="32" rx="5.70302" fill="#51C332"/>
<path d="M19.7499 12.1428C20.1287 12.1428 20.4987 12.1751 20.8637 12.2212C20.2038 9.24855 17.1601 7 13.5001 7C9.35749 7 6 9.87858 6 13.4285C6 15.4752 7.12257 17.291 8.86375 18.4659L7.87496 20.5L10.5686 19.3132C11.1462 19.5242 11.7464 19.698 12.3875 19.7788C12.2999 19.3865 12.2501 18.9844 12.2501 18.5716C12.2501 15.0267 15.6137 12.1428 19.7499 12.1428ZM16.0001 9.89263C16.5177 9.89263 16.9375 10.3246 16.9375 10.857C16.9375 11.3897 16.5178 11.8213 16.0001 11.8213C15.4822 11.8213 15.0626 11.3897 15.0626 10.857C15.0626 10.3245 15.4822 9.89263 16.0001 9.89263ZM11 11.8213C10.4823 11.8213 10.0625 11.3897 10.0625 10.857C10.0625 10.3246 10.4824 9.89263 11 9.89263C11.5177 9.89263 11.9375 10.3246 11.9375 10.857C11.9375 11.3897 11.5176 11.8213 11 11.8213Z" fill="white"/>
<path d="M26 18.5715C26 15.7311 23.201 13.4285 19.7499 13.4285C16.2987 13.4285 13.5001 15.7311 13.5001 18.5715C13.5001 21.4116 16.2987 23.7143 19.7499 23.7143C20.3175 23.7143 20.8574 23.632 21.3812 23.5152L24.75 25L23.5849 22.6049C25.045 21.6635 26 20.216 26 18.5715ZM17.875 18.25C17.3574 18.25 16.9375 17.8182 16.9375 17.2855C16.9375 16.7531 17.3573 16.3214 17.875 16.3214C18.3928 16.3214 18.8124 16.7533 18.8124 17.2855C18.8124 17.8183 18.3927 18.25 17.875 18.25ZM21.6249 18.25C21.107 18.25 20.6875 17.8182 20.6875 17.2855C20.6875 16.7531 21.107 16.3214 21.6249 16.3214C22.1428 16.3214 22.5625 16.7533 22.5625 17.2855C22.5625 17.8183 22.1428 18.25 21.6249 18.25Z" fill="white"/>
</g>
<defs>
<clipPath id="clip0_1924_105566">
<rect width="32" height="32" rx="8" fill="white"/>
</clipPath>
</defs>
</svg>
