<svg width="32" height="32" viewBox="0 0 32 32" fill="none" xmlns="http://www.w3.org/2000/svg">
<rect width="32" height="32" rx="8" fill="#3192E7"/>
<path d="M23.9993 7C22.2121 7 20.7225 8.2175 20.2657 10.0396C19.4421 7.30167 17.3342 7.00211 16.4549 7.00211C15.5758 7.00211 13.4687 7.30167 12.6436 10.039C12.1866 8.2186 10.6968 7.00211 8.91003 7.00211C6.71747 7.00211 5 8.60811 5 10.6583C5 11.5649 5.21862 12.2888 5.48279 13.0738L8.45981 21.7C9.45662 24.5608 11.4874 24.988 12.609 24.988C14.3686 24.988 15.7396 24.0646 16.4546 22.4282C17.1703 24.072 18.5415 25 20.3001 25C21.4204 25 23.4492 24.5721 24.4511 21.7007C25.4928 18.6886 26.5716 15.6869 27.5691 12.6599C27.7285 12.1767 27.9091 11.629 27.9091 10.9578C27.9091 8.6646 26.2648 7 23.9993 7ZM25.4105 12.3067L22.4171 20.9622C22.0516 22.0093 21.4438 22.7889 20.3001 22.7889C19.2287 22.7889 18.5961 22.1771 18.28 21.1289L16.4787 15.3683H16.4298L14.6296 21.1289C14.3129 22.1773 13.6801 22.7768 12.609 22.7768C11.4651 22.7768 10.8568 22.0037 10.4919 20.9565L7.52295 12.3535C7.27954 11.63 7.15793 11.1824 7.15793 10.6581C7.15793 9.86 7.88842 9.2132 8.91003 9.2132C9.76196 9.2132 10.3703 9.78866 10.565 10.6365L12.5851 17.4985H12.6334L14.6777 10.7877C14.9459 9.81525 15.4324 9.2132 16.4549 9.2132C17.4769 9.2132 17.9634 9.81424 18.2311 10.7867L20.2755 17.4985H20.3239L22.3445 10.6365C22.539 9.78866 23.1472 9.21109 23.9993 9.21109C25.0209 9.21109 25.7512 9.86027 25.7512 10.9578C25.7512 11.3566 25.5802 11.7573 25.4105 12.3067Z" fill="white"/>
</svg>
