<svg width="32" height="32" viewBox="0 0 32 32" fill="none" xmlns="http://www.w3.org/2000/svg">
<g clip-path="url(#clip0_1752_94438)">
<rect width="32" height="32" fill="url(#paint0_linear_1752_94438)"/>
<path fill-rule="evenodd" clip-rule="evenodd" d="M16.9288 4.39493C19.7613 4.53414 22.4006 5.70218 24.4165 7.71941C26.5668 9.87104 27.7503 12.7311 27.7492 15.7727C27.7466 22.0493 22.637 27.1562 16.36 27.1562H16.3553C14.4491 27.1555 12.5762 26.6776 10.9126 25.7706L4.875 27.3536L6.49081 21.4547C5.49413 19.7283 4.96968 17.7701 4.9705 15.7637C4.97302 9.48727 10.0822 4.38086 16.3598 4.38086L16.9288 4.39493ZM11.1923 23.7098L11.5381 23.9148C12.9915 24.7769 14.6575 25.233 16.3561 25.2337H16.36C21.5775 25.2337 25.8241 20.9891 25.8262 15.7721C25.8272 13.2439 24.8435 10.8667 23.0562 9.07835C21.2689 7.28986 18.8922 6.30435 16.3637 6.30352C11.1421 6.30352 6.89554 10.5476 6.89346 15.7643C6.89275 17.5522 7.3932 19.2933 8.34079 20.7997L8.56587 21.1577L7.60956 24.6491L11.1923 23.7098ZM22.0978 18.4797C22.0267 18.361 21.837 18.2898 21.5524 18.1474C21.2678 18.0051 19.8687 17.317 19.6078 17.2219C19.347 17.1272 19.1572 17.0797 18.9676 17.3644C18.7779 17.6491 18.2325 18.2898 18.0664 18.4797C17.9005 18.6695 17.7345 18.6933 17.4499 18.5509C17.1654 18.4086 16.2484 18.1081 15.1614 17.1391C14.3154 16.3848 13.7443 15.4534 13.5783 15.1687C13.4123 14.884 13.5606 14.73 13.703 14.5882C13.8311 14.4607 13.9877 14.2559 14.1299 14.0899C14.2722 13.9238 14.3196 13.8051 14.4145 13.6153C14.5094 13.4255 14.4619 13.2594 14.3908 13.117C14.3196 12.9746 13.7505 11.5745 13.5134 11.005C13.2823 10.4504 13.0477 10.5255 12.8731 10.5167C12.7073 10.5085 12.5174 10.5067 12.3277 10.5067C12.1379 10.5067 11.8296 10.5779 11.5688 10.8627C11.3079 11.1474 10.5728 11.8356 10.5728 13.2356C10.5728 14.6357 11.5925 15.9881 11.7348 16.178C11.8771 16.3679 13.7415 19.2407 16.5962 20.4729C17.2752 20.766 17.8053 20.9409 18.2185 21.072C18.9003 21.2885 19.5206 21.258 20.011 21.1847C20.5577 21.1031 21.6947 20.4967 21.9318 19.8323C22.1689 19.1678 22.1689 18.5983 22.0978 18.4797Z" fill="white"/>
</g>
<defs>
<linearGradient id="paint0_linear_1752_94438" x1="16.0001" y1="32" x2="16.0001" y2="0" gradientUnits="userSpaceOnUse">
<stop stop-color="#25CF43"/>
<stop offset="1" stop-color="#61FD7D"/>
</linearGradient>
<clipPath id="clip0_1752_94438">
<rect width="32" height="32" rx="8" fill="white"/>
</clipPath>
</defs>
</svg>
