<svg width="25" height="24" viewBox="0 0 25 24" fill="none" xmlns="http://www.w3.org/2000/svg">
<rect width="24" height="24" transform="translate(0.5)" fill="white"/>
<path fill-rule="evenodd" clip-rule="evenodd" d="M13.3213 2.95639C15.5501 3.06593 17.6269 3.98502 19.2132 5.57234C20.9052 7.2654 21.8365 9.51594 21.8356 11.9093C21.8336 16.8482 17.8129 20.8666 12.8737 20.8666C11.0163 20.8666 9.54036 20.296 8.58732 19.7764L3.83646 21.022L5.1079 16.3803C4.32363 15.0219 3.91095 13.481 3.9116 11.9022C3.91358 6.96342 7.9339 2.94531 12.8736 2.94531L13.3213 2.95639ZM8.80741 18.1548L9.07945 18.3161C10.2231 18.9945 11.534 19.3534 12.8707 19.3539H12.8737C16.9793 19.3539 20.3208 16.014 20.3224 11.9088C20.3232 9.91945 19.5491 8.04889 18.1428 6.64165C16.7364 5.23433 14.8662 4.45886 12.8766 4.45821C8.76791 4.45821 5.42637 7.79779 5.42473 11.9027C5.42417 13.3095 5.81796 14.6795 6.5636 15.8649L6.74071 16.1466L5.98822 18.8939L8.80741 18.1548ZM17.3886 14.0393C17.3327 13.9459 17.1834 13.8899 16.9595 13.7779C16.7355 13.6659 15.6346 13.1244 15.4294 13.0496C15.2241 12.9751 15.0748 12.9377 14.9255 13.1617C14.7763 13.3858 14.3471 13.8899 14.2165 14.0393C14.0859 14.1887 13.9552 14.2074 13.7314 14.0953C13.5074 13.9834 12.7859 13.747 11.9306 12.9845C11.2649 12.391 10.8155 11.6581 10.6848 11.434C10.5543 11.2099 10.6709 11.0888 10.783 10.9772C10.8838 10.8769 11.007 10.7158 11.1189 10.5851C11.2309 10.4544 11.2682 10.361 11.3429 10.2117C11.4175 10.0623 11.3802 9.93164 11.3242 9.8196C11.2682 9.70752 10.8204 8.60584 10.6338 8.15769C10.452 7.72131 10.2674 7.78039 10.1299 7.77349C9.99947 7.76703 9.85005 7.76561 9.70079 7.76561C9.55149 7.76561 9.30889 7.82158 9.10363 8.0457C8.89837 8.26973 8.31989 8.81126 8.31989 9.91285C8.31989 11.0146 9.1223 12.0788 9.23427 12.2282C9.34623 12.3776 10.8133 14.6382 13.0596 15.6077C13.5938 15.8384 14.0109 15.976 14.3361 16.0792C14.8726 16.2495 15.3607 16.2255 15.7466 16.1679C16.1768 16.1036 17.0714 15.6264 17.258 15.1037C17.4446 14.5808 17.4446 14.1327 17.3886 14.0393Z" fill="white"/>
<mask id="mask0_1517_33164" style="mask-type:alpha" maskUnits="userSpaceOnUse" x="5" y="4" width="16" height="16">
<path fill-rule="evenodd" clip-rule="evenodd" d="M8.80727 18.1575L9.07931 18.3188C10.223 18.9972 11.5339 19.3561 12.8705 19.3566H12.8735C16.9791 19.3566 20.3206 16.0167 20.3223 11.9115C20.323 9.92217 19.549 8.05162 18.1427 6.64438C16.7363 5.23706 14.8661 4.46158 12.8765 4.46094C8.76777 4.46094 5.42623 7.80052 5.42459 11.9054C5.42403 13.3122 5.81782 14.6823 6.56346 15.8676L6.74057 16.1493L5.98808 18.8966L8.80727 18.1575ZM17.3885 14.0421C17.3325 13.9486 17.1833 13.8927 16.9593 13.7806C16.7354 13.6686 15.6345 13.1271 15.4292 13.0524C15.224 12.9778 15.0747 12.9405 14.9254 13.1645C14.7761 13.3885 14.347 13.8927 14.2163 14.0421C14.0857 14.1914 13.9551 14.2101 13.7312 14.0981C13.5073 13.9861 12.7858 13.7497 11.9304 12.9872C11.2647 12.3937 10.8153 11.6608 10.6847 11.4367C10.5541 11.2127 10.6708 11.0915 10.7829 10.9799C10.8836 10.8796 11.0068 10.7185 11.1188 10.5878C11.2308 10.4572 11.2681 10.3637 11.3427 10.2144C11.4174 10.065 11.38 9.93437 11.3241 9.82233C11.2681 9.71025 10.8202 8.60857 10.6337 8.16042C10.4518 7.72403 10.2672 7.78311 10.1298 7.77622C9.99933 7.76975 9.84991 7.76833 9.70065 7.76833C9.55135 7.76833 9.30875 7.82431 9.10349 8.04843C8.89823 8.27246 8.31975 8.81399 8.31975 9.91558C8.31975 11.0173 9.12216 12.0815 9.23413 12.2309C9.34609 12.3803 10.8131 14.6409 13.0594 15.6105C13.5937 15.8411 14.0108 15.9788 14.336 16.0819C14.8725 16.2523 15.3606 16.2283 15.7464 16.1706C16.1767 16.1063 17.0713 15.6292 17.2579 15.1064C17.4445 14.5835 17.4445 14.1354 17.3885 14.0421Z" fill="black"/>
</mask>
<g mask="url(#mask0_1517_33164)">
<path d="M25.1801 -0.5H0.00012207V24.68H25.1801V-0.5Z" fill="url(#paint0_linear_1517_33164)"/>
</g>
<defs>
<linearGradient id="paint0_linear_1517_33164" x1="12.5901" y1="24.68" x2="12.5901" y2="-0.5" gradientUnits="userSpaceOnUse">
<stop stop-color="#25CF43"/>
<stop offset="1" stop-color="#61FD7D"/>
</linearGradient>
</defs>
</svg>
