<svg width="32" height="32" viewBox="0 0 32 32" fill="none" xmlns="http://www.w3.org/2000/svg">
<g clip-path="url(#clip0_1926_107023)">
<path fill-rule="evenodd" clip-rule="evenodd" d="M25.6562 5.87231C23.1596 3.37944 19.8459 2.0038 16.3156 2C9.03839 2 3.114 7.92436 3.1102 15.2016C3.1102 17.5272 3.71822 19.7959 4.87345 21.7985L3 28.6388L9.99981 26.8033C11.9349 27.8585 14.1039 28.4112 16.308 28.4107H16.3156C23.5928 28.4107 29.5133 22.4902 29.5172 15.2092C29.5209 11.6826 28.1491 8.36896 25.6562 5.87231ZM11.8885 21.5933C11.9796 21.6504 12.1697 21.6504 12.6105 21.6504C14.4687 21.6465 16.0723 21.6428 17.2124 21.6428C22.5401 21.6428 22.3996 16.0338 19.9104 15.3346C20.2753 14.6885 21.9359 13.4725 20.9099 10.9644C19.8915 8.48298 15.5214 9.04542 12.5307 9.04542C11.4249 9.04542 11.5883 9.86622 11.5959 11.1354C11.6034 13.1495 11.5959 18.5989 11.5959 20.955C11.5959 21.4299 11.7402 21.5059 11.8885 21.5933ZM14.1913 19.5375H16.9008C18.0522 19.5337 19.0782 18.9979 19.0516 17.8502C19.0327 16.771 18.3144 16.4138 17.315 16.315C16.3649 16.3264 15.2781 16.3264 14.1913 16.3264V19.5375ZM14.1913 14.1565C16.1978 14.1299 16.9692 14.2363 18.0636 13.9627C18.816 13.5371 19.1429 11.9525 18.0674 11.4166C17.3188 11.0443 15.1109 11.1696 14.1913 11.2077V14.1565ZM16.3156 26.1801H16.308C14.3395 26.1801 12.4091 25.6519 10.7256 24.6524L10.3228 24.413L6.16929 25.5037L7.27892 21.4565L7.01671 21.0385C5.91863 19.29 5.33765 17.2664 5.34086 15.2016C5.34086 9.15179 10.2658 4.23066 16.3194 4.23066C19.2492 4.23066 22.0044 5.3745 24.0754 7.44935C26.1503 9.5204 27.2903 12.2793 27.2903 15.2092C27.2864 21.2589 22.3615 26.1801 16.3156 26.1801Z" fill="white"/>
<path fill-rule="evenodd" clip-rule="evenodd" d="M3.17356 15.3516C3.17741 7.99158 9.16894 2 16.529 2C20.0991 2.00384 23.451 3.3953 25.9758 5.91619C28.4967 8.44097 29.8846 11.793 29.8807 15.3594C29.8768 22.7232 23.8892 28.7109 16.529 28.7109H16.5215C14.3122 28.7114 12.1378 28.1624 10.1939 27.1137L3 29L4.92566 21.9692C3.77752 19.9571 3.17356 17.6825 3.17356 15.3516ZM25.7635 6.12847C23.2949 3.66374 20.0194 2.30399 16.529 2.30021C9.33471 2.30025 3.47753 8.15741 3.47377 15.3517C3.47379 17.6511 4.0749 19.8939 5.21694 21.8736L5.24823 21.9279L3.42693 28.5777L10.2328 26.7931L10.2851 26.8216C12.1982 27.8648 14.3424 28.4112 16.5214 28.4107H16.529C23.7233 28.4107 29.5767 22.5574 29.5805 15.3592C29.5843 11.8727 28.2283 8.597 25.7635 6.12847ZM16.5328 4.53087C10.5621 4.53087 5.70443 9.38489 5.70443 15.3517C5.70126 17.3881 6.27428 19.3842 7.35729 21.1088L7.65458 21.5828L6.59632 25.4425L10.5589 24.402L11.0157 24.6735C11.0156 24.6735 11.0157 24.6735 11.0157 24.6735C12.6758 25.659 14.5798 26.1801 16.5214 26.1801H16.529C22.4921 26.1801 27.3499 21.3261 27.3537 15.3592C27.3536 12.4691 26.2293 9.74849 24.1828 7.70572C22.1398 5.65903 19.4228 4.53087 16.5328 4.53087ZM5.40423 15.3516C5.40429 9.21884 10.3965 4.23066 16.5328 4.23066C19.5026 4.23066 22.2958 5.39035 24.395 7.49332C26.4981 9.59262 27.6539 12.3897 27.6539 15.3593C27.65 21.4919 22.6579 26.4803 16.529 26.4803H16.5214C14.5262 26.4803 12.5693 25.9449 10.8625 24.9316L10.5136 24.7243L6.16918 25.865L7.33019 21.6306L7.10306 21.2684C5.98994 19.4959 5.40098 17.4446 5.40423 15.3516ZM17.6892 9.07524C19.2885 9.24539 20.7184 9.73235 21.2622 11.0575C21.7919 12.3523 21.6307 13.3275 21.2807 14.0624C21.1075 14.4262 20.89 14.7272 20.6965 14.9745C20.6481 15.0363 20.601 15.0951 20.5566 15.1504L20.5487 15.1602C20.5071 15.2121 20.468 15.2607 20.4319 15.3068C20.4047 15.3415 20.3797 15.3741 20.3571 15.4048C20.936 15.6324 21.3737 16.1132 21.6386 16.7039C21.9321 17.3583 22.0192 18.1576 21.853 18.9325C21.6864 19.7089 21.2644 20.4641 20.5367 21.0245C19.8087 21.585 18.7846 21.9429 17.4259 21.9429C16.4662 21.9429 15.1781 21.9456 13.6859 21.9488C13.4056 21.9493 13.1181 21.95 12.8242 21.9506H12.8176C12.6026 21.9506 12.4412 21.9506 12.3225 21.9432C12.2091 21.9361 12.1048 21.9214 12.0243 21.8719C12.0208 21.8699 12.0173 21.8678 12.0136 21.8656C11.9436 21.8246 11.8446 21.7667 11.772 21.6479C11.6965 21.5246 11.6592 21.3546 11.6592 21.105C11.6592 20.4012 11.6599 19.4215 11.6606 18.3399C11.6624 15.8003 11.6645 12.6988 11.6592 11.2864C11.6592 11.2865 11.6592 11.2863 11.6592 11.2864C11.6583 11.145 11.6554 11.0034 11.6525 10.8671C11.6492 10.7091 11.6461 10.5581 11.6466 10.423C11.6474 10.1655 11.6606 9.92771 11.7141 9.72611C11.7685 9.52091 11.8673 9.34299 12.0452 9.22008C12.2198 9.09943 12.4513 9.04542 12.7441 9.04542C13.1876 9.04542 13.6657 9.03271 14.1612 9.01955C15.3169 8.98895 16.5668 8.95576 17.6892 9.07524ZM12.1019 21.7435L12.1815 21.6162C12.1919 21.6226 12.2274 21.6364 12.3412 21.6435C12.4493 21.6503 12.6011 21.6504 12.8236 21.6504C13.1173 21.6498 13.4047 21.6491 13.6849 21.6486C15.1772 21.6454 16.4659 21.6427 17.4259 21.6427C18.731 21.6427 19.6872 21.2996 20.3535 20.7866C21.02 20.2734 21.4064 19.5827 21.5595 18.8695C21.7129 18.1547 21.6311 17.4207 21.3647 16.8268C21.0983 16.2328 20.6529 15.7892 20.0833 15.6292L19.8992 15.5775L19.9932 15.4108C20.0448 15.3195 20.1167 15.2223 20.1955 15.1217C20.2329 15.0741 20.2729 15.0242 20.3142 14.9728L20.3225 14.9624C20.367 14.9071 20.413 14.8497 20.4601 14.7895C20.6484 14.5488 20.8504 14.2678 21.0097 13.9333C21.3247 13.2717 21.4808 12.3848 20.9845 11.1716C20.51 10.0153 19.2455 9.54273 17.6575 9.37376C16.5555 9.25648 15.3407 9.28876 14.1939 9.31931C13.6926 9.33264 13.2043 9.34563 12.7441 9.34563C12.4841 9.34563 12.3213 9.39418 12.2158 9.46708C12.1135 9.53778 12.0463 9.64437 12.0043 9.803C11.9612 9.96528 11.9476 10.1707 11.9468 10.4241C11.9463 10.5615 11.9493 10.7025 11.9525 10.8536C11.9555 10.9878 11.9585 11.1299 11.9594 11.2847C11.9647 12.6976 11.9626 15.8012 11.9608 18.3413C11.9601 19.4225 11.9594 20.4017 11.9594 21.105C11.9594 21.3305 11.9943 21.436 12.0281 21.4912C12.0604 21.5441 12.1003 21.5682 12.1781 21.6141L12.1019 21.7435ZM17.507 11.2227C17.8374 11.2631 18.1368 11.3274 18.3478 11.4324C18.9553 11.7351 19.1588 12.3342 19.114 12.8931C19.0699 13.4439 18.7823 13.9995 18.351 14.2435L18.3332 14.2535L18.3135 14.2585C17.4926 14.4637 16.8405 14.4602 15.7645 14.4543C15.3763 14.4522 14.933 14.4498 14.4068 14.4567L14.2547 14.4588V11.2137L14.3986 11.2078C14.4599 11.2053 14.5271 11.2023 14.5994 11.1992C15.0667 11.1788 15.7459 11.1492 16.409 11.1583C16.792 11.1635 17.1729 11.1817 17.507 11.2227ZM14.5549 11.5016V14.1547C15.0363 14.1497 15.4427 14.1519 15.7981 14.1538C16.8453 14.1594 17.4483 14.1626 18.2201 13.9723C18.533 13.7847 18.7769 13.3425 18.8148 12.8691C18.8527 12.3953 18.6818 11.9343 18.2139 11.7011C18.0506 11.6199 17.7933 11.5602 17.4705 11.5206C17.1514 11.4816 16.7824 11.4636 16.4049 11.4584C15.7511 11.4495 15.0815 11.4786 14.6136 11.4991C14.5936 11.4999 14.5741 11.5008 14.5549 11.5016ZM17.5349 16.3149L17.5432 16.3157C18.0525 16.3661 18.5158 16.4839 18.8561 16.7462C19.2051 17.0153 19.405 17.4206 19.4152 17.9974C19.4296 18.6239 19.1533 19.0909 18.7175 19.3959C18.2879 19.6965 17.7106 19.8358 17.1148 19.8377H14.2547V16.3264H14.4048C15.4918 16.3264 16.5777 16.3264 17.5267 16.315L17.5349 16.3149ZM14.5549 16.6266V19.5375H17.1137C17.1136 19.5375 17.1139 19.5375 17.1137 19.5375C17.6692 19.5356 18.1808 19.405 18.5454 19.15C18.9037 18.8992 19.1271 18.5247 19.1151 18.0038C19.1062 17.5015 18.9374 17.1879 18.6728 16.9839C18.4009 16.7743 18.0083 16.6641 17.5219 16.6153C16.6166 16.6261 15.5881 16.6266 14.5549 16.6266Z" fill="white"/>
<path fill-rule="evenodd" clip-rule="evenodd" d="M11.7412 21.3527C11.8325 21.4097 12.0262 21.4097 12.4632 21.4097C14.3215 21.4059 15.9251 21.4021 17.0652 21.4021C22.3929 21.4021 22.2561 15.7931 19.7633 15.0939C20.128 14.4479 21.7887 13.2319 20.7627 10.7238C19.7442 8.24232 15.3741 8.80471 12.3834 8.80471C11.2776 8.80471 11.4448 9.62557 11.4486 10.8948C11.4562 12.9088 11.4524 18.3582 11.4486 20.7142C11.4486 21.1893 11.593 21.2653 11.7412 21.3527ZM14.0479 19.2968H16.7535C17.905 19.293 18.931 18.7572 18.9044 17.6096C18.8854 16.5303 18.1672 16.1731 17.1678 16.0743C16.2215 16.0857 15.1347 16.0857 14.0479 16.0857V19.2968ZM14.0479 13.9159C16.0505 13.8893 16.8219 13.9957 17.9164 13.722C18.6688 13.2964 18.9956 11.7118 17.9202 11.176C17.1754 10.8036 14.9637 10.929 14.0479 10.967V13.9159Z" fill="white"/>
</g>
<defs>
<clipPath id="clip0_1926_107023">
<rect width="27" height="27" fill="white" transform="translate(3 2)"/>
</clipPath>
</defs>
</svg>
