<svg width="32" height="32" viewBox="0 0 32 32" fill="none" xmlns="http://www.w3.org/2000/svg">
<path d="M4.72 16C4.72 20.47 7.32 24.32 11.08 26.15L5.7 11.41C5.05398 12.854 4.72003 14.4181 4.72 16ZM16 27.28C17.31 27.28 18.57 27.05 19.75 26.64L19.67 26.49L16.2 16.99L12.82 26.82C13.82 27.12 14.89 27.28 16 27.28ZM17.55 10.71L21.63 22.84L22.76 19.08C23.24 17.52 23.61 16.4 23.61 15.43C23.61 14.03 23.11 13.07 22.69 12.33C22.11 11.39 21.58 10.6 21.58 9.68C21.58 8.64 22.36 7.68 23.48 7.68H23.62C21.5415 5.77191 18.8215 4.7153 16 4.72C14.1318 4.71965 12.2928 5.18373 10.6485 6.07047C9.00419 6.95722 7.60609 8.23883 6.58 9.8L7.3 9.82C8.48 9.82 10.3 9.67 10.3 9.67C10.92 9.64 10.99 10.53 10.38 10.6C10.38 10.6 9.77 10.68 9.08 10.71L13.2 22.93L15.67 15.53L13.91 10.71C13.5158 10.6882 13.1223 10.6549 12.73 10.61C12.12 10.57 12.19 9.64 12.8 9.67C12.8 9.67 14.66 9.82 15.77 9.82C16.95 9.82 18.77 9.67 18.77 9.67C19.38 9.64 19.46 10.53 18.85 10.6C18.85 10.6 18.24 10.67 17.55 10.71ZM21.67 25.75C23.3764 24.7578 24.7926 23.3351 25.7771 21.6242C26.7615 19.9133 27.2798 17.9739 27.28 16C27.28 14.04 26.78 12.2 25.9 10.59C26.0787 12.3613 25.8105 14.1491 25.12 15.79L21.67 25.75ZM16 29C12.5522 29 9.24558 27.6304 6.80761 25.1924C4.36964 22.7544 3 19.4478 3 16C3 12.5522 4.36964 9.24558 6.80761 6.80761C9.24558 4.36964 12.5522 3 16 3C19.4478 3 22.7544 4.36964 25.1924 6.80761C27.6304 9.24558 29 12.5522 29 16C29 19.4478 27.6304 22.7544 25.1924 25.1924C22.7544 27.6304 19.4478 29 16 29Z" fill="#121212"/>
</svg>
