<svg width="32" height="32" viewBox="0 0 32 32" fill="none" xmlns="http://www.w3.org/2000/svg">
<g clip-path="url(#clip0_1924_105911)">
<path d="M22.9999 10.8923L22.8768 12.0307C26.3845 15.2307 26.6307 20.7077 23.4307 24.2153C20.2307 27.723 14.7538 27.9692 11.2461 24.7692C7.73837 21.5384 7.49222 16.0923 10.6922 12.5846C12.323 10.8 14.6307 9.78458 17.0614 9.78458C17.9538 9.78458 18.8461 9.93842 19.6768 10.1846L19.7691 9.23073C18.8768 8.95381 17.9538 8.83073 16.9999 8.83073C11.7076 8.79996 7.39991 13.0769 7.36914 18.3692C7.36914 18.3692 7.36914 18.3692 7.36914 18.4C7.49222 23.6923 11.7999 27.9384 17.0922 28C22.3845 27.9692 26.6614 23.6923 26.6922 18.4C26.6922 15.4461 25.3384 12.6769 22.9999 10.8923Z" fill="#121212"/>
<path d="M22.6317 14.1846L22.4163 16.0616C22.7856 16.8308 22.9702 17.6616 22.9702 18.4923C22.9086 21.7231 20.2933 24.3693 17.0625 24.4C13.8009 24.3693 11.1548 21.7231 11.1548 18.4616C11.2163 15.2308 13.8317 12.5846 17.0625 12.5539C17.8625 12.5539 18.6317 12.7077 19.3702 13.0462L19.4933 11.8462C18.724 11.5385 17.8933 11.3846 17.0317 11.3846C13.1548 11.4154 10.0163 14.5846 10.0471 18.4616C10.0779 22.3385 13.2471 25.4769 17.124 25.4462C21.0009 25.4154 24.1394 22.277 24.1394 18.4C24.1086 16.8616 23.5856 15.3846 22.6317 14.1846Z" fill="#121212"/>
<path d="M5.86154 18.0923C5.83077 11.9384 10.7846 6.95382 16.9385 6.89229H17.0308V6.09229H16.9385C10.3538 6.12305 5 11.4769 5 18.0615L5.86154 18.0923Z" fill="#121212"/>
<path d="M21.3387 4L19.9849 16.1846C18.908 15.3538 17.4926 15.1077 16.1695 15.5077C14.0772 16.1231 13.8926 17.7231 13.8926 18.0923C13.8926 18.8 14.4157 20.7385 16.9695 21.1385C20.0464 21.5385 20.8464 19.6615 20.9695 19.0154C21.1233 18.3692 21.8926 11.3538 21.8926 11.3538L22.2926 7.50769C22.2926 7.50769 24.4464 7.41538 25.4926 8.43077C26.1695 9.2 26.3541 10.2769 25.9541 11.2308C25.8003 11.6615 25.4618 12.0923 25.8926 11.9385C26.5387 11.5385 26.9695 10.8923 27.1541 10.1538C27.2464 8.98462 26.7233 7.87692 25.8003 7.2C25.5849 6.98462 23.8618 5.96923 23.5541 5.66154C23.1541 5.29231 22.8772 4.8 22.8157 4.24615L21.3387 4Z" fill="#121212"/>
</g>
<defs>
<clipPath id="clip0_1924_105911">
<rect width="22.1538" height="24" fill="white" transform="translate(5 4)"/>
</clipPath>
</defs>
</svg>
