<svg width="32" height="32" viewBox="0 0 32 32" fill="none" xmlns="http://www.w3.org/2000/svg">
<path d="M26.6716 9.97264L26.5746 9.87562H25.1517L18.5871 9.98881H17.2289L17.1318 10.0858V11.3955L17.2289 11.4925H18.0535L20.5274 11.6866H20.6405L20.495 11.8159L16.1294 15.5187H15.9192C14.6741 13.9017 13.3968 12.4303 12.1679 10.8619L11.2948 9.77861L12.7338 9.64925L14.2699 9.53607L14.3669 9.43905L14.5124 8.12935L14.4154 8H3.09701L3 8.12935V9.39055L3.14552 9.53607L6.29851 9.76244L6.49254 9.85945L9.22512 13.2065L12.8794 17.6045V21.7438L11.2624 21.8731L9.35448 22.0187L9.24129 22.1318V23.2313L9.33831 23.3445H20.4627V22.0995H19.9614L16.9863 21.9863L16.9701 21.7276C16.9701 20.3371 16.9702 18.9627 17.0672 17.5721V17.459L18.5386 16.1654L23.2438 11.9614H24.0684L26.5908 11.6866L26.6716 11.5249V9.97264ZM29 13.3843L28.9192 13.643L28.24 16.5697L27.4316 19.8358L27.3831 19.8682L26.2351 19.7388H26.1704L26.1219 19.7065V19.3022L26.1381 18.9303L26.1704 17.7985L26.1866 16.5697L26.2189 15.3408L26.2351 14.1281L26.2674 13.2711L26.2836 13.2065L26.995 13.2711L27.4639 13.2873L28.3047 13.3358L28.8383 13.352L29 13.3682V13.3843ZM26.7848 22.0833H26.041L25.9925 22.0348L25.9279 21.3396L25.8794 20.6604L25.8955 20.6443L26.2674 20.6766L26.801 20.709L27.4154 20.7575L27.5286 20.7736L27.5771 20.806V22.0348L27.5286 22.0833H26.7848Z" fill="white"/>
</svg>
