<svg width="32" height="32" viewBox="0 0 32 32" fill="none" xmlns="http://www.w3.org/2000/svg">
<rect width="32" height="32" rx="8" fill="#673276"/>
<path d="M24.5121 11.5427L24.4363 11.4668H23.3235L18.1897 11.5553H17.1275L17.0516 11.6312V12.6554L17.1275 12.7313H17.7724L19.7071 12.883H19.7956L19.6818 12.9842L16.2677 15.8799H16.1033C15.1296 14.6154 14.1307 13.4647 13.1697 12.2381L12.4868 11.3909L13.6122 11.2898L14.8135 11.2013L14.8894 11.1254L15.0032 10.1012L14.9273 10H6.07587L6 10.1012V11.0875L6.1138 11.2013L8.57956 11.3783L8.7313 11.4542L10.8683 14.0717L13.726 17.5111V20.7482L12.4615 20.8493L10.9694 20.9631L10.8809 21.0516V21.9115L10.9568 22H19.6565V21.0263H19.2645L16.9378 20.9378L16.9252 20.7355C16.9252 19.648 16.9252 18.5732 17.0011 17.4858V17.3973L18.1517 16.3857L21.8314 13.098H22.4763L24.4489 12.883L24.5121 12.7566V11.5427ZM26.333 14.2107L26.2698 14.4131L25.7387 16.7018L25.1064 19.2561L25.0685 19.2813L24.1707 19.1802H24.1201L24.0822 19.1549V18.8388L24.0948 18.5479L24.1201 17.6628L24.1328 16.7018L24.1581 15.7408L24.1707 14.7924L24.196 14.1222L24.2086 14.0717L24.765 14.1222L25.1317 14.1349L25.7893 14.1728L26.2065 14.1855L26.333 14.1981V14.2107ZM24.6006 21.0137H24.019L23.981 20.9758L23.9305 20.432L23.8925 19.9009L23.9052 19.8883L24.196 19.9136L24.6133 19.9389L25.0938 19.9768L25.1823 19.9895L25.2202 20.0148V20.9758L25.1823 21.0137H24.6006Z" fill="white"/>
</svg>
