<svg width="32" height="32" viewBox="0 0 32 32" fill="none" xmlns="http://www.w3.org/2000/svg">
<path fill-rule="evenodd" clip-rule="evenodd" d="M26.5641 6.82825C27.7206 7.13962 28.6325 8.05147 28.9439 9.20798C29.5221 11.3208 29.4999 15.7244 29.4999 15.7244C29.4999 15.7244 29.4999 20.1058 28.9439 22.2186C28.6325 23.3751 27.7206 24.287 26.5641 24.5984C24.4513 25.1544 15.9999 25.1544 15.9999 25.1544C15.9999 25.1544 7.57082 25.1544 5.43574 24.5761C4.27923 24.2647 3.36738 23.3529 3.05601 22.1964C2.5 20.1058 2.5 15.7022 2.5 15.7022C2.5 15.7022 2.5 11.3208 3.05601 9.20798C3.36738 8.05147 4.30147 7.11738 5.43574 6.80601C7.54858 6.25 15.9999 6.25 15.9999 6.25C15.9999 6.25 24.4513 6.25 26.5641 6.82825ZM20.3369 15.5478L13.309 19.5956V11.5001L20.3369 15.5478Z" fill="white"/>
</svg>
